<?xml version="1.0" encoding="utf-8"?>
<!-- Generator: Adobe Illustrator 25.0.0, SVG Export Plug-In . SVG Version: 6.00 Build 0)  -->
<svg version="1.1" xmlns="http://www.w3.org/2000/svg" xmlns:xlink="http://www.w3.org/1999/xlink" x="0px" y="0px"
	 viewBox="0 0 200 200" style="enable-background:new 0 0 200 200;" xml:space="preserve">
<style type="text/css">
	.st0{fill:#FFFFFF;}
	.st1{fill:#70108E;}
</style>
<g id="BACKGROUND">
</g>
<g id="OBJECTS">
	<rect x="0.48" y="0.98" class="st0" width="199.56" height="199.56"/>
	<g>
		<g>
			<path class="st1" d="M94.88,38.37c0.23,0.07,0.46,0.16,0.69,0.19c6.22,0.92,12.46,1.7,18.64,2.78c5.75,1,11.28,2.79,16.16,6.12
				c7,4.78,11.3,11.56,13.7,19.55c1.33,4.42,2.47,8.89,4.39,13.12c1.33,2.92,0.55,5.54-1.86,7.68c-0.55,0.48-1.08,0.98-1.61,1.49
				c-0.63,0.61-0.76,1.25-0.29,2.06c1.9,3.3,3.66,6.69,5.67,9.92c1.54,2.47,3.47,4.7,5.08,7.14c1.94,2.95,1.33,5.56-1.63,7.52
				c-1.08,0.71-2.25,1.3-3.37,1.94c-1.81,1.02-2.08,1.88-1.14,3.77c0.49,0.98,1.07,1.92,1.48,2.93c0.7,1.7,0.41,2.69-1,3.87
				c-0.5,0.41-1,0.82-1.49,1.22c1.06,3.62,0.82,4.23-2.39,6.15c-1.73,1.03-1.97,1.6-1.44,3.75c0.63,2.55,0.53,5.04-0.33,7.54
				c-1.48,4.28-5.21,6.47-9.57,5.3c-4.77-1.28-9.52-2.69-14.24-4.15c-3.26-1.01-3.5-1.01-5.68,1.66c-0.13,0.16-0.25,0.32-0.37,0.48
				c-2.28,3.07-3.76,6.53-4.83,10.17c-0.69,2.34-1.02,2.6-3.51,2.59c-11.82-0.03-23.64-0.06-35.46-0.1
				c-5.08-0.02-10.15-0.04-15.23-0.08c-1.93-0.02-2.8-1.31-2.09-3.1c0.33-0.83,0.68-1.67,1.19-2.39c3.01-4.22,4.55-9.03,5.61-14.02
				c1.15-5.41,1.95-10.86,1.19-16.43c-0.9-6.67-3.74-12.45-7.82-17.71c-3.5-4.51-6.77-9.16-8.16-14.81
				c-2.24-9.06-1.21-18.01,1.4-26.79c2.28-7.68,7.22-13.49,13.66-18.15c6.41-4.64,13.19-8.43,21.01-10.09
				c2.25-0.48,4.55-0.74,6.83-1.1C90.33,38.37,92.6,38.37,94.88,38.37z M112.89,145.71c-1.87-0.64-3.6-1.25-5.33-1.84
				c-3.05-1.02-6.02-2.22-8.6-4.2c-2.33-1.8-4.03-4-4.14-7.11c-0.05-1.55,0.68-2.51,1.95-2.58c1.23-0.07,2.08,0.74,2.18,2.25
				c0.11,1.69,0.95,2.99,2.25,3.86c1.64,1.1,3.34,2.23,5.18,2.88c9.55,3.39,19.04,6.96,28.92,9.34c2.51,0.6,4.29-0.29,4.94-2.77
				c0.34-1.3,0.57-2.75,0.37-4.06c-0.87-5.79-0.73-6.3,3.86-9.79c-0.44-1.12-1.81-2.19-0.79-3.5c0.78-1,1.91-1.73,2.96-2.65
				c-0.39-0.75-0.82-1.53-1.2-2.32c-1.77-3.69-0.76-6.87,2.8-8.88c1.06-0.6,2.1-1.22,3.17-1.81c0.98-0.55,1.21-1.22,0.42-2.12
				c-0.27-0.3-0.47-0.66-0.72-0.98c-3.94-4.99-7.28-10.35-10.04-16.08c-1.36-2.82-0.91-5.5,1.45-7.57c3.11-2.72,2.93-2.58,1.25-6.12
				c-1.7-3.6-2.44-7.46-3.59-11.22c-2.23-7.25-6-13.5-12.47-17.76c-4.37-2.88-9.33-4.26-14.4-5.34c-6.48-1.38-13.02-2.39-19.63-2.77
				c-8.84-0.51-17.1,1.61-24.65,6.19c-3.22,1.95-6.34,4.12-9.26,6.49c-4.97,4.02-8.24,9.25-9.78,15.47
				c-1.72,6.96-2.52,13.98-1.18,21.11c0.77,4.1,2.61,7.74,4.99,11.13c2.31,3.28,4.79,6.47,6.83,9.92c4.4,7.47,5.69,15.62,4.62,24.18
				c-0.78,6.27-2.07,12.4-4.77,18.16c-0.55,1.17-1.22,2.27-1.93,3.59c15.71,0,31.32,0,47.05,0
				C106.99,154.08,109.36,149.69,112.89,145.71z"/>
			<path class="st1" d="M53.24,75.26c0.89-5.76,3.05-10.99,7.31-15.06c5.61-5.36,12.05-9.47,19.5-11.82
				c5.63-1.77,11.38-2,17.22-1.31c6.66,0.78,13.27,1.73,19.75,3.5c4.61,1.26,8.95,3.14,12.19,6.76c6.19,6.91,9.08,15.13,8.49,24.37
				c-0.34,5.24-2.9,9.24-8.14,11.05c-2.71,0.94-5.51,0.89-8.31,0.58c-5.56-0.63-11.11-1.41-16.68-1.89
				c-5.2-0.44-9.78,1.11-13.38,5.09c-0.52,0.57-1.08,1.11-1.68,1.59c-0.61,0.49-0.74,0.97-0.55,1.77c0.41,1.77,0.79,3.58,0.89,5.39
				c0.24,4.83-1.3,8.93-5.33,11.9c-1.18,0.87-2.29,1.82-3.41,2.75c-2.43,2-4.03,4.35-3.85,7.72c0.11,1.95-1.88,2.93-3.39,1.68
				c-1.19-0.98-2.27-2.22-3.05-3.55c-1.37-2.31-1.8-4.94-1.79-7.62c0.01-2.94-0.73-5.7-2.53-7.98c-1.87-2.37-4.04-4.52-6.12-6.73
				c-1.03-1.09-2.27-2-3.19-3.16c-3.66-4.63-4.96-10.03-5.02-15.86C52.52,81.38,52.77,78.3,53.24,75.26z M88.17,93.66
				c2.8-2.78,5.88-4.97,9.86-5.85c0.1-1.58-0.22-3.49,2.17-3.63c1.33-0.08,1.85,0.71,2.1,2.76c7.59,0.82,15.14,1.64,22.68,2.46
				c0.33-2.32,0.82-3.05,2.03-3.19c1.1-0.12,1.88,0.56,2.36,2.1c2.54-1.27,3.58-3.48,4.15-6.29c-0.88,0-1.59,0.02-2.3,0
				c-3.22-0.09-5.8-2.51-6.09-5.69c-0.13-1.37,0.63-2.44,1.82-2.59c1.15-0.15,2.07,0.65,2.3,1.99c0.26,1.54,0.91,2.12,2.43,2.14
				c0.6,0.01,1.2,0,2.17,0c-0.65-2.85-1.27-5.54-1.9-8.3c-2.2,0-4.27,0.01-6.33,0c-1.65-0.01-2.56-0.77-2.54-2.11
				c0.02-1.29,0.9-2.03,2.49-2.04c1.38-0.01,2.75,0,4.34,0c-2.13-3.92-4.76-7.06-8.95-8.91c0,1.05,0.02,1.93,0,2.82
				c-0.08,3.15-2.47,5.72-5.59,6.07c-1.45,0.16-2.55-0.59-2.69-1.83c-0.13-1.21,0.64-2.05,2.11-2.3c1.35-0.23,1.99-0.94,2.01-2.31
				c0.02-1.34,0.01-2.67,0.01-4.24c-3.4-0.74-6.79-1.47-10.16-2.2c-0.78,2.06-1.37,2.64-2.58,2.45c-1.76-0.27-1.84-1.68-1.9-3.13
				c-1.35-0.18-2.65-0.36-3.96-0.53c-0.5,3.11-0.88,3.73-2.28,3.68c-1.4-0.05-1.8-0.78-2.1-4c-1.29,0-2.6,0-4.07,0
				c0,2.36,0,4.69,0,7.03c0,2.75-0.51,3.25-3.27,3.25c-0.97,0-1.95,0.04-2.92-0.02c-1.26-0.07-2.1-0.94-2.1-2.08
				c0-1.16,0.84-1.99,2.11-2.05c0.61-0.03,1.21,0,1.92,0c0-1.89,0-3.73,0-5.94c-2.56,0.81-5.07,1.5-7.51,2.41
				c-2.84,1.06-2.81,1.14-2.81,4.12c0,1.14,0.02,2.27-0.01,3.41c-0.04,1.33-0.79,2.13-1.97,2.17c-1.22,0.04-2.07-0.78-2.17-2.13
				c-0.04-0.61-0.01-1.22-0.01-1.83c0-0.6,0-1.19,0-2.07c-1.42,1.02-2.65,1.86-3.82,2.77c-0.23,0.18-0.32,0.63-0.33,0.96
				c-0.03,1.38-0.04,2.76-0.01,4.14c0.03,1.41,0.61,2.07,1.98,2.34c1.6,0.32,2.31,1.11,2.14,2.4c-0.16,1.24-1.18,1.88-2.74,1.72
				c-3.02-0.33-5.32-2.76-5.52-5.86c-0.03-0.44,0-0.89,0-1.38c-2.9,1.84-6.25,10.92-5.77,15.64c1.11,0,2.24-0.01,3.37,0
				c1.5,0.02,2.36,0.77,2.38,2.02c0.02,1.28-0.89,2.1-2.43,2.13c-1.17,0.02-2.35,0-3.64,0c0,1.37,0,2.68,0,4.16
				c1.25,0,2.41-0.01,3.57,0c1.59,0.01,2.48,0.74,2.5,2.03c0.02,1.32-0.92,2.1-2.55,2.12c-0.77,0.01-1.54,0-2.6,0
				c0.57,1.24,0.99,2.36,1.58,3.38c2.17,3.8,5.38,6.12,9.79,6.58c2.52,0.26,5.02,0.12,7.47-0.62c0.64-0.19,0.91-0.43,0.92-1.15
				c0.04-3.03,0.05-4.25-3.97-4.04c-1.38,0.07-2.76,0.03-4.14,0c-1.4-0.03-2.35-0.93-2.32-2.13c0.03-1.17,0.94-1.99,2.29-2.01
				c1.66-0.02,3.34,0.1,4.99-0.03c3.8-0.3,7.16,1.99,7.37,7.04C83.93,97.4,86.17,95.65,88.17,93.66z M81.33,114.44
				c4.36-3.04,5.21-7.52,3.84-12.54c-4.7,3.51-9.94,5.19-15.82,4.7c0.83,1.55,1.85,2.92,2.33,4.46c0.7,2.26,1.05,4.64,1.47,6.98
				c0.24,1.33,0.32,2.7,0.48,4.05c0.12,0.01,0.24,0.02,0.37,0.03C75.71,118.85,78.4,116.49,81.33,114.44z"/>
			<path class="st1" d="M91.91,66.16c0,0.53-0.05,1.06,0.01,1.58c0.12,1.06,0.93,1.81,1.95,1.81c1.05,0,1.82-0.52,2.03-1.56
				c0.16-0.78,0.1-1.61,0.14-2.42c0.07-1.43,0.75-2.18,2.18-2.24c1.29-0.06,2.6-0.06,3.89,0c1.46,0.06,2.18,0.85,2.24,2.33
				c0.02,0.65-0.02,1.3,0.03,1.95c0.08,1.12,0.9,1.9,1.96,1.95c1.03,0.04,2-0.7,2.13-1.78c0.72-5.71-2.43-8.81-7.05-8.63
				c-0.85,0.03-1.7,0-2.55,0C94.35,59.16,91.88,61.64,91.91,66.16z"/>
			<path class="st1" d="M120.96,76.85c0-3.99-1.7-6.49-5.01-7.12c-1.18-0.22-2.42-0.18-3.63-0.1c-1.02,0.07-1.75,1.03-1.75,2.02
				c0,1.04,0.78,1.94,1.87,2.04c0.72,0.07,1.46,0,2.19,0.03c1.32,0.06,2.09,0.84,2.17,2.14c0.01,0.24,0,0.49,0,0.73
				c0.01,2.91-0.46,3.38-3.38,3.39c-0.24,0-0.49-0.01-0.73,0.01c-1.26,0.08-2.12,0.9-2.12,2.04c0,1.09,0.78,1.96,1.98,2.09
				C118.62,84.78,121.36,81.04,120.96,76.85z"/>
			<path class="st1" d="M78.6,77.87c4.53,0.31,7.14-3.23,7.02-6.43c-0.12-3.2-2.71-5.87-5.91-6c-0.81-0.03-1.63-0.04-2.44,0
				c-1.17,0.06-2.02,0.92-2.05,2.01c-0.03,1.12,0.85,2.04,2.07,2.12c0.69,0.04,1.38-0.02,2.07,0.02c1.23,0.07,2.11,0.97,2.09,2.1
				c-0.02,1.13-0.9,1.98-2.15,2.04c-0.69,0.03-1.38-0.03-2.07,0.03c-1.17,0.09-2.01,0.97-2.02,2.05c-0.01,1.13,0.87,2.01,2.11,2.08
				C77.77,77.89,78.22,77.87,78.6,77.87z"/>
			<path class="st1" d="M98.08,71.82c0,0.16,0.01,0.33,0,0.49c-0.39,4.51,2.21,8.14,8.08,7.68c1.43-0.11,2.36-0.91,2.34-2.12
				c-0.01-1.22-0.92-2.09-2.39-2.02c-3.88,0.2-3.99-1.15-3.88-4.05c0.03-0.73,0.03-1.46-0.01-2.19c-0.06-1.22-0.82-2.03-1.94-2.09
				c-1.17-0.06-2.07,0.73-2.18,1.99c-0.06,0.77-0.01,1.54-0.01,2.31C98.09,71.82,98.08,71.82,98.08,71.82z"/>
			<path class="st1" d="M66.88,80.35c0,0.57-0.02,1.14,0,1.71c0.11,3.25,2.27,5.72,5.48,6.16c0.96,0.13,1.95,0.12,2.92,0.06
				c1.23-0.08,2.08-1.06,2.01-2.18c-0.06-1.09-0.9-1.88-2.11-1.94c-0.53-0.03-1.06,0-1.58-0.01c-1.76-0.04-2.53-0.79-2.56-2.53
				c-0.02-1.18,0.01-2.36-0.01-3.53c-0.03-1.39-0.8-2.23-2.03-2.24c-1.22-0.01-2.05,0.82-2.11,2.19
				C66.85,78.8,66.88,79.57,66.88,80.35z"/>
			<path class="st1" d="M86.87,86.18c5.22,0.17,7.75-3.57,6.99-8.78c-0.15-1.01-1.12-1.64-2.17-1.55c-1.14,0.1-1.76,0.79-1.89,1.88
				c-0.08,0.68-0.01,1.38-0.04,2.07c-0.05,1.41-0.79,2.16-2.19,2.22c-0.65,0.02-1.3-0.03-1.95,0.02c-1.27,0.1-2.08,0.95-2.06,2.11
				c0.02,1.16,0.85,1.96,2.14,2.02C86.14,86.2,86.59,86.18,86.87,86.18z"/>
		</g>
	</g>
</g>
</svg>
