<?xml version="1.0" encoding="utf-8"?>
<!-- Generator: Adobe Illustrator 26.2.0, SVG Export Plug-In . SVG Version: 6.00 Build 0)  -->
<svg version="1.1" id="Layer_1" xmlns="http://www.w3.org/2000/svg" xmlns:xlink="http://www.w3.org/1999/xlink" x="0px" y="0px"
	 viewBox="0 0 100 100" style="enable-background:new 0 0 100 100;" xml:space="preserve">
<style type="text/css">
	.st0{fill:#FFFFFF;}
</style>
<g id="Group_11381" transform="translate(194.552 -3372.911)">
	<path id="Path_5997" class="st0" d="M-148.9,3388.5c0-0.7,0-1.4,0-2c0-2.2,1.8-4,4-4.1c2.2-0.2,4.1,1.3,4.4,3.5c0,0,0,0.1,0,0.1
		c0.2,1.5,0,3,0.1,4.5c0.1,0.7,0.4,1.4,0.7,2c0.2,0.4,0.7,0.7,0.8,1.1c0.3,1.1,1.1,1.3,2,1.7c2.4,0.9,4.7,1.9,7,2.9
		c0.6,0.3,1,0.6,1.6,0.1c0.3-0.2,0.7-0.3,1-0.3c1.4,0,2.8-0.6,3.6-1.8c0.6-0.7,1.3-1.4,2-2c1.6-1.6,4.2-1.7,5.9,0
		c1.7,1.5,1.9,4,0.4,5.7c0,0-0.1,0.1-0.1,0.1c-0.9,1.1-2.1,2-3,3.1c-0.4,0.6-0.7,1.2-0.8,1.9c-0.1,0.4,0,0.9-0.2,1.2
		c-0.7,1.1-0.1,1.9,0.3,2.9c1,2.3,1.9,4.6,2.7,7c0.2,0.5,0.4,0.9,1,1.1c0.4,0.1,0.8,0.3,1.1,0.6c1,1.2,2.3,1.3,3.7,1.2
		c0.9-0.1,1.7,0,2.6,0c2.3-0.1,4.3,1.6,4.4,3.9c0,0.1,0,0.2,0,0.3c0.1,2.3-1.7,4.2-4,4.3c-0.1,0-0.2,0-0.4,0c-1.3,0-2.6-0.1-3.9,0
		c-0.7,0.1-1.3,0.4-1.9,0.7c-0.5,0.3-1,0.8-1.5,1c-0.9,0.2-1.1,0.8-1.4,1.5c-1,2.4-2,4.9-3.1,7.2c-0.3,0.4-0.3,1,0,1.4
		c0.3,0.5,0.5,1.1,0.5,1.7c0,1,0.4,2,1.2,2.6c0.9,0.8,1.8,1.7,2.6,2.6c1.6,1.6,1.6,4.2,0,5.8c-1.5,1.7-4,1.9-5.7,0.4
		c-1.1-0.9-2.1-2.1-3.2-3c-0.6-0.4-1.3-0.7-2.1-0.9c-0.6-0.2-1.3-0.1-1.7-0.4c-0.9-0.6-1.5-0.2-2.3,0.1c-2.3,1-4.6,1.9-6.9,2.7
		c-0.5,0.1-0.8,0.5-1,0.9c-0.4,0.7-0.7,1.4-1.2,2.1c-0.4,0.6-0.6,1.2-0.7,1.9c-0.1,1.2,0,2.5,0,3.7c-0.1,2.8-1.8,4.5-4.4,4.5
		c-2.5,0-4.1-1.8-4.1-4.5c0-0.8,0-1.5,0-2.2c0.1-1.5,0-2.9-1.3-4c-0.3-0.2-0.5-0.6-0.5-0.9c-0.1-1.4-1.1-1.5-2.1-1.9
		c-2.1-0.8-4.2-1.8-6.3-2.7c-0.4-0.3-1-0.3-1.4,0c-0.7,0.4-1.4,0.6-2.2,0.7c-0.9,0-1.7,0.4-2.3,1.1c-0.8,0.9-1.7,1.8-2.6,2.7
		c-1.6,1.6-4.2,1.6-5.9,0c0,0,0,0,0,0c-1.7-1.5-1.8-4-0.4-5.7c0,0,0.1-0.1,0.1-0.1c0.9-1,2-1.9,2.8-2.9c0.4-0.6,0.7-1.3,0.9-2
		c0.2-0.6,0.1-1.4,0.5-1.9c0.7-0.9,0.3-1.6-0.1-2.5c-1-2.2-1.9-4.4-2.7-6.6c-0.1-0.5-0.5-0.8-0.9-1c-0.8-0.3-1.5-0.8-2.2-1.2
		c-0.6-0.4-1.2-0.6-1.9-0.7c-1.3-0.1-2.6,0-4,0c-2.3,0.1-4.2-1.8-4.3-4.1c0-0.1,0-0.1,0-0.2c-0.1-2.3,1.7-4.2,4-4.2c0,0,0.1,0,0.1,0
		c1.4-0.1,2.9,0,4.3,0c0.5,0,0.9-0.1,1.3-0.3c1-0.5,2-1.1,3-1.7c0.2-0.2,0.4-0.4,0.5-0.7c1-2.6,2.1-5.1,3.1-7.7
		c0.1-0.4,0.1-0.8,0-1.1c-0.3-0.7-0.4-1.4-0.6-2.1c0-0.9-0.4-1.7-1.1-2.3c-0.9-0.8-1.7-1.7-2.6-2.6c-1.7-1.6-1.7-4.2-0.2-5.8
		c0,0,0.1-0.1,0.1-0.1c1.5-1.7,4.1-1.8,5.8-0.3c0.1,0,0.1,0.1,0.2,0.1c1,0.9,1.9,2,2.9,2.8c0.6,0.4,1.2,0.7,1.9,0.9
		c0.8,0.3,1.6,0.5,2.4,0.6c0.3,0.1,0.7,0.1,1-0.1c2.5-1.5,5.1-2.6,7.8-3.4c0.4-0.1,0.7-0.5,0.9-0.8c0.2-0.3,0.3-0.7,0.5-1
		C-148.9,3391.1-148.9,3391.1-148.9,3388.5z M-142.6,3416c0.1-5.1-4-9.3-9.1-9.4c-5.2-0.1-9.4,4-9.5,9.2c0,0,0,0.1,0,0.1
		c0,5.1,4.1,9.3,9.2,9.4C-146.8,3425.2-142.6,3421.1-142.6,3416C-142.6,3416-142.6,3416-142.6,3416L-142.6,3416z M-137.1,3423.3
		c0,3.3,2.7,6,6,6c3.3-0.1,5.9-2.7,6-6c0-3.3-2.7-6-6-5.9C-134.4,3417.3-137.1,3419.9-137.1,3423.3
		C-137.1,3423.2-137.1,3423.2-137.1,3423.3L-137.1,3423.3z M-149.5,3440.4c2.9,0,5.3-2.3,5.4-5.3c0-2.9-2.3-5.2-5.2-5.3
		c-2.9-0.1-5.3,2.3-5.4,5.2c0,0,0,0,0,0C-154.8,3438-152.5,3440.4-149.5,3440.4L-149.5,3440.4z M-160.4,3429.1
		c0-0.9-0.7-1.6-1.6-1.6c-0.9,0-1.6,0.6-1.6,1.5c0,0,0,0.1,0,0.1c0,0.9,0.7,1.6,1.6,1.7c0,0,0,0,0,0
		C-161.2,3430.7-160.4,3430-160.4,3429.1L-160.4,3429.1z M-136.2,3407c0-0.9-0.7-1.6-1.5-1.6c0,0,0,0-0.1,0c-0.9,0-1.6,0.7-1.6,1.6
		c0,0,0,0,0,0c0,0.9,0.7,1.6,1.6,1.6C-136.9,3408.7-136.2,3408-136.2,3407C-136.2,3407.1-136.2,3407.1-136.2,3407L-136.2,3407z
		 M-139,3438.6c0.9,0,1.6-0.8,1.6-1.7c0-0.9-0.7-1.6-1.6-1.6c0,0,0,0-0.1,0c-0.9,0-1.6,0.8-1.6,1.6
		C-140.6,3437.9-139.9,3438.6-139,3438.6L-139,3438.6z"/>
	<path id="Path_5998" class="st0" d="M-110.2,3431.1c3.7,0,6.8,3,6.8,6.7c0,3.7-3,6.8-6.7,6.8c-3.7,0-6.8-3-6.8-6.7c0,0,0,0,0,0
		C-116.9,3434.2-113.9,3431.1-110.2,3431.1C-110.2,3431.1-110.2,3431.1-110.2,3431.1z"/>
	<path id="Path_5999" class="st0" d="M-174.8,3408.4c0,3-2.5,5.4-5.5,5.4c-3,0-5.4-2.5-5.4-5.5c0-3,2.5-5.5,5.5-5.5c0,0,0,0,0,0
		C-177.2,3402.9-174.8,3405.4-174.8,3408.4z"/>
	<path id="Path_6000" class="st0" d="M-127.2,3460.3c0,2.3-1.9,4.1-4.2,4.1c-2.2-0.1-4-1.9-4-4.1c0-2.3,1.8-4.2,4.1-4.2c0,0,0,0,0,0
		C-129,3456.1-127.1,3458-127.2,3460.3C-127.2,3460.3-127.2,3460.3-127.2,3460.3z"/>
</g>
</svg>
