<svg xmlns="http://www.w3.org/2000/svg" width="68.594" height="60" viewBox="0 0 68.594 60">
  <g id="ambulance" transform="translate(0 -32.072)">
    <path id="Path_3483" data-name="Path 3483" d="M42.268,37.116a1,1,0,0,0,1-1V33.077a1,1,0,1,0-2.01,0v3.034A1,1,0,0,0,42.268,37.116Zm-4.944.186a1,1,0,0,0,1.75-.987L37.8,34.056a1,1,0,0,0-1.75.987Zm8.52.381a1.007,1.007,0,0,0,1.369-.381l1.274-2.259a1,1,0,0,0-1.75-.987l-1.274,2.259A1,1,0,0,0,45.844,37.684Zm19.315,27.6L57.013,62.57a1.674,1.674,0,0,1-1.019-.953L51.455,50.573a5.006,5.006,0,0,0-4.647-3.114h-.052V45.651a4.488,4.488,0,1,0-8.976,0V47.46H5.024A5.03,5.03,0,0,0,0,52.484v6.631a1,1,0,0,0,2.01,0V52.484a3.018,3.018,0,0,1,3.014-3.014H29.943v21.7H2.01V63.8A1,1,0,0,0,0,63.8V79.613a5.03,5.03,0,0,0,5.024,5.024H7.6a8.438,8.438,0,0,0,16.757,0h18.31a8.438,8.438,0,0,0,16.757,0H63.57a5.03,5.03,0,0,0,5.024-5.024V70.05a5.016,5.016,0,0,0-3.435-4.766ZM15.976,90.062a6.431,6.431,0,1,1,6.431-6.431A6.438,6.438,0,0,1,15.976,90.062Zm13.967-7.435H24.354a8.438,8.438,0,0,0-16.757,0H5.024A3.018,3.018,0,0,1,2.01,79.613V73.182H29.943ZM39.79,45.651a2.478,2.478,0,1,1,4.957,0V47.46H39.79ZM51.043,90.062a6.431,6.431,0,1,1,6.431-6.431A6.438,6.438,0,0,1,51.043,90.062Zm15.541-18.89H51.258a1,1,0,1,0,0,2.01H66.584v6.431a3.018,3.018,0,0,1-3.014,3.014H59.422a8.438,8.438,0,0,0-16.757,0H31.952V73.182H46.569a1,1,0,1,0,0-2.01H31.952v-21.7H46.808A3,3,0,0,1,49.6,51.337L54.136,62.38a3.682,3.682,0,0,0,2.242,2.1l8.146,2.714a3.01,3.01,0,0,1,2.06,2.859ZM47.723,52.528a1.667,1.667,0,0,0-1.554-1.049H35.636a1.676,1.676,0,0,0-1.675,1.675v9.311a1.676,1.676,0,0,0,1.675,1.675H49.918a1.693,1.693,0,0,0,1.554-2.3Zm-11.752,9.6V53.488h9.972l3.478,8.641ZM51.043,80.617a3.014,3.014,0,1,0,3.014,3.014A3.018,3.018,0,0,0,51.043,80.617Zm0,4.019a1,1,0,1,1,1-1A1.006,1.006,0,0,1,51.043,84.637ZM17.182,51.479H14.77a1.811,1.811,0,0,0-1.809,1.809v4.019H8.943a1.811,1.811,0,0,0-1.809,1.809v2.411a1.811,1.811,0,0,0,1.809,1.809h4.019v4.019a1.811,1.811,0,0,0,1.809,1.809h2.411a1.811,1.811,0,0,0,1.809-1.809V63.335H23.01a1.811,1.811,0,0,0,1.809-1.809V59.115a1.811,1.811,0,0,0-1.809-1.809H18.991V53.287A1.811,1.811,0,0,0,17.182,51.479Zm5.627,7.837v2.01H18.388a1.408,1.408,0,0,0-1.407,1.407v4.421h-2.01V62.732a1.408,1.408,0,0,0-1.407-1.407H9.144v-2.01h4.421a1.408,1.408,0,0,0,1.407-1.407V53.488h2.01v4.421a1.408,1.408,0,0,0,1.407,1.407Zm-6.833,21.3a3.014,3.014,0,1,0,3.014,3.014A3.018,3.018,0,0,0,15.976,80.617Zm0,4.019a1,1,0,1,1,1-1A1.006,1.006,0,0,1,15.976,84.637Z" transform="translate(0 0)" fill=""/>
  </g>
</svg>
