<svg id="Group_11640" data-name="Group 11640" xmlns="http://www.w3.org/2000/svg" width="95.307" height="95.334" viewBox="0 0 95.307 95.334">
  <path id="Path_6126" data-name="Path 6126" d="M394.131,8.06h2.045c2.553.489,3.912,2.062,4.151,4.81.109,1.238.109,1.24,1.383,1.245.867,0,1.735-.008,2.6,0,3.4.041,5.506,2.133,5.511,5.548q.023,14.5.006,28.994c0,1.765.06,3.533-.021,5.3a3.339,3.339,0,0,0,1.175,2.86,25.125,25.125,0,0,1,6.334,9.287,23.213,23.213,0,0,1,1.81,8.109c.141,4.273-.095,8.481-1.866,12.469-3.907,8.8-10.534,14.284-19.951,16.322a29.207,29.207,0,0,1-7.219.321A25.158,25.158,0,0,1,374.82,97.3a23.016,23.016,0,0,1-4.917-5.29,2.327,2.327,0,0,0-2.22-1.155q-19.142.048-38.286.023a5.736,5.736,0,0,1-4.4-1.613,4.517,4.517,0,0,1-1.144-2.374V18.1a4.872,4.872,0,0,1,5.052-3.971c1.05-.01,2.1-.033,3.15.008.751.029,1.036-.243,1.044-1.012a5.307,5.307,0,0,1,1.594-3.92A4.308,4.308,0,0,1,337.24,8.06H339.1c2.735.641,3.914,2.112,3.983,4.965.025,1,.089,1.085,1.041,1.089q3.528.016,7.057,0c.952,0,1.028-.087,1.038-1.089a5.151,5.151,0,0,1,.327-2.092A4.346,4.346,0,0,1,356.2,8.06h1.859a4.778,4.778,0,0,1,4.159,4.88c.064,1.17.064,1.176,1.24,1.178q3.294.006,6.591,0c1.051,0,1.118-.056,1.13-1.09a5.291,5.291,0,0,1,1.684-3.887,4.272,4.272,0,0,1,2.486-1.081h1.673c2.831.537,4.08,2.033,4.166,4.99.029.994.085,1.063,1.063,1.067,2.293.008,4.586-.013,6.878.012.693.007,1.01-.221,1.055-.943a6.53,6.53,0,0,1,.351-2.007,4.508,4.508,0,0,1,3.591-3.118m12.262,22.819c0-.813-.507-.609-.924-.609q-38.762-.007-77.523-.024c-.8,0-.943.238-.942.983q.033,26.956.017,53.913c0,1.789.476,2.271,2.249,2.271h38.1c-4.413-12.082-2.7-22.924,7.073-31.423,9.7-8.438,20.623-8.669,31.933-2.707,0-7.478-.01-14.941.014-22.405m-14.287,69.21a23.8,23.8,0,1,0-23.819-23.774,23.837,23.837,0,0,0,23.819,23.774m13.043-73a6.405,6.405,0,0,1,.651,0c.434.044.592-.112.588-.572-.02-2.416.009-4.833-.02-7.25a1.59,1.59,0,0,0-1.7-1.694c-.9-.033-1.8-.023-2.7,0-.613.013-1.371-.254-1.8.114-.406.348-.1,1.108-.15,1.686a4.8,4.8,0,0,1-4.089,4.5,4.744,4.744,0,0,1-5.236-3.349,5.436,5.436,0,0,1-.194-2.116c.074-.732-.213-.867-.885-.854-2.231.042-4.461.016-6.692.016-1.891,0-1.891,0-1.979,1.877a4.732,4.732,0,0,1-5.97,4.313c-2.3-.642-3.55-2.458-3.508-5.236.011-.751-.139-1-.943-.975-2.229.063-4.46.021-6.692.021-1.8,0-1.8,0-1.9,1.756a4.764,4.764,0,0,1-8.435,2.87,4.641,4.641,0,0,1-1.06-3.551c.094-.93-.243-1.126-1.12-1.1-2.136.068-4.275.012-6.413.029-.643,0-1.439-.27-1.886.123-.425.374-.11,1.174-.158,1.785a4.749,4.749,0,0,1-9.244,1.2,6.091,6.091,0,0,1-.257-2.386c.035-.538-.082-.771-.7-.746-1.237.052-2.478.006-3.717.019-1.35.013-1.927.587-1.932,1.93-.009,2.2.038,4.4-.024,6.6-.024.811.178,1.011,1,1.01q19.333-.045,38.667-.021h38.48M377.779,12.806a1.57,1.57,0,0,0-3.139-.028q-.06,3.2,0,6.4a1.573,1.573,0,1,0,3.145-.065c.026-1.019.006-2.04,0-3.06,0-1.082.022-2.164-.009-3.246m-38.08.1a1.557,1.557,0,0,0-1.5-1.668,1.577,1.577,0,0,0-1.65,1.633c-.037,2.1-.04,4.2,0,6.3a1.527,1.527,0,0,0,1.61,1.557,1.509,1.509,0,0,0,1.535-1.615c.03-1.019.007-2.04.007-3.059,0-1.051.021-2.1,0-3.152m15.917,6.219a1.507,1.507,0,0,0,1.54,1.607,1.534,1.534,0,0,0,1.6-1.564q.062-3.151,0-6.3a1.58,1.58,0,0,0-1.657-1.625,1.556,1.556,0,0,0-1.492,1.675c-.024,1.019-.006,2.04,0,3.059,0,1.051-.021,2.1.007,3.153m38.069-.114a1.542,1.542,0,0,0,1.534,1.722A1.563,1.563,0,0,0,396.849,19q.045-3.011,0-6.024a1.589,1.589,0,1,0-3.163.011c-.026.987-.006,1.977-.006,2.966,0,1.019-.022,2.04.006,3.058M341.094,54.08c1.135-.034,1.773-.629,1.776-1.587s-.649-1.573-1.768-1.585q-2.966-.032-5.932,0a1.6,1.6,0,1,0-.007,3.171c.988.032,1.977.007,2.966.007s1.978.025,2.967-.006m13.161-3.175c-1.149.022-1.794.584-1.814,1.543a1.559,1.559,0,0,0,1.732,1.628q3.013.049,6.025,0a1.591,1.591,0,1,0-.011-3.166c-.987-.025-1.977-.006-2.966-.006s-1.977-.015-2.966,0m6.022-9.548a1.572,1.572,0,1,0,.105-3.142q-3.2-.065-6.4,0a1.572,1.572,0,1,0,.079,3.143c1.05.022,2.1,0,3.152.006,1.02,0,2.04.016,3.06,0m19.025,0a1.515,1.515,0,0,0,1.65-1.5,1.541,1.541,0,0,0-1.61-1.651q-3.152-.053-6.306,0a1.573,1.573,0,1,0,.052,3.145c1.02.023,2.04,0,3.06,0,1.051,0,2.1.016,3.153,0m-38.128,38.1a1.557,1.557,0,0,0,1.7-1.559,1.538,1.538,0,0,0-1.661-1.6c-2.039-.022-4.08-.019-6.119,0a1.588,1.588,0,1,0,.055,3.158c.988.015,1.977,0,2.967,0,1.02,0,2.04.015,3.06,0m19.065,0a1.582,1.582,0,1,0,0-3.154q-3.059-.028-6.12,0a1.581,1.581,0,1,0,0,3.155c1.02.02,2.04,0,3.06,0s2.04.016,3.06,0m38.1-38.1a1.585,1.585,0,0,0,1.683-1.491,1.557,1.557,0,0,0-1.531-1.649c-2.162-.047-4.327-.049-6.488,0a1.513,1.513,0,0,0-1.481,1.678,1.534,1.534,0,0,0,1.607,1.455c1.05.024,2.1.006,3.152.006,1.019,0,2.04.015,3.059,0M335.108,63.62a1.582,1.582,0,1,0-.068,3.154q3.1.05,6.21,0a1.544,1.544,0,0,0,1.619-1.645,1.52,1.52,0,0,0-1.643-1.5c-1.019-.022-2.04,0-3.059-.006s-2.039-.013-3.059,0m6-22.26c1.108-.013,1.769-.613,1.766-1.576a1.56,1.56,0,0,0-1.687-1.582q-3.059-.04-6.119,0a1.615,1.615,0,0,0-1.7,1.6,1.593,1.593,0,0,0,1.712,1.559c1.019.017,2.04,0,3.059,0,.989,0,1.978.009,2.967,0m12.976,22.262a1.572,1.572,0,1,0-.113,3.141q3.2.071,6.4,0a1.572,1.572,0,1,0-.073-3.142c-1.019-.024-2.04-.006-3.059-.006-1.051,0-2.1-.017-3.152,0" transform="translate(-323.854 -8.06)" fill="#653f8c"/>
  <path id="Path_6127" data-name="Path 6127" d="M396.659,83.618c.713,0,1.427-.029,2.138.01.491.027.638-.133.626-.624-.031-1.362-.044-2.727,0-4.09a4.759,4.759,0,0,1,9.354-1.292,19.593,19.593,0,0,1,.178,4.447c.024,1.549,0,1.535,1.545,1.554a30.289,30.289,0,0,1,3.9.078,4.73,4.73,0,0,1,.007,9.369,34.814,34.814,0,0,1-4.734.076c-.569,0-.742.141-.724.722.042,1.362.057,2.728,0,4.089a4.751,4.751,0,0,1-9.316,1.283,18.073,18.073,0,0,1-.206-4.534c-.029-1.544-.007-1.536-1.551-1.547-1.268-.01-2.548.047-3.8-.088a4.718,4.718,0,0,1,0-9.371,22.194,22.194,0,0,1,2.6-.016v-.066m16.829,6.361a1.694,1.694,0,0,0,1.414-.565,1.51,1.51,0,0,0,.25-1.648,1.574,1.574,0,0,0-1.559-.961c-1.919-.011-3.84,0-5.759-.008-1.541-.007-2.048-.518-2.054-2.067-.008-1.827,0-3.654,0-5.481a1.8,1.8,0,0,0-.737-1.7A1.572,1.572,0,0,0,402.606,79c-.045,1.857-.011,3.716-.014,5.574,0,1.749-.461,2.215-2.182,2.219q-2.741.006-5.481,0a1.67,1.67,0,0,0-1.688.913,1.577,1.577,0,0,0,1.582,2.258c1.826.042,3.654.011,5.481.014,1.871,0,2.286.418,2.289,2.3,0,1.827-.024,3.654.012,5.481a1.563,1.563,0,0,0,1.915,1.684,1.629,1.629,0,0,0,1.257-1.81c0-1.889-.008-3.778,0-5.667.01-1.438.535-1.966,1.948-1.983.9-.011,1.8,0,2.695,0,1.022,0,2.044,0,3.065,0" transform="translate(-335.954 -20.158)" fill="#653f8c"/>
</svg>
