<svg xmlns="http://www.w3.org/2000/svg" width="10.609" height="9.834" viewBox="0 0 10.609 9.834">
  <path id="Path_5585" data-name="Path 5585" d="M685.828,567.009a.413.413,0,0,1,.625-.255q4.829,2.239,9.666,4.463c.174.08.317.18.319.39s-.139.313-.313.393q-4.844,2.232-9.686,4.468a.392.392,0,0,1-.523-.076,1,1,0,0,1-.086-.16v-.145a2.329,2.329,0,0,1,.139-.238q1.482-1.981,2.967-3.959l.208-.28c-.025-.035-.044-.063-.065-.09q-1.537-2.049-3.073-4.1c-.067-.09-.118-.191-.176-.287Z" transform="translate(-685.828 -566.698)" fill="#fff"/>
</svg>
