<svg xmlns="http://www.w3.org/2000/svg" width="38.791" height="38.791" viewBox="0 0 38.791 38.791">
  <g id="Group_11461" data-name="Group 11461" transform="translate(-496 -2350)">
    <path id="Path_6052" data-name="Path 6052" d="M33.083,38.791H5.708A5.708,5.708,0,0,1,0,33.083V5.708A5.708,5.708,0,0,1,5.708,0H33.083a5.708,5.708,0,0,1,5.708,5.708V33.083a5.708,5.708,0,0,1-5.708,5.708" transform="translate(496 2350)" fill="#653f8c"/>
    <path id="Path_6053" data-name="Path 6053" d="M67.342,35.542V31.718s-3.911-.037-4.176-.037c-1.767,0-4.308,2.011-4.308,4.291v4.094H55.195v4.342h3.613V55.179h4.275V44.358h3.778l.481-4.242H63.133V37a1.445,1.445,0,0,1,1.409-1.48c.563,0,2.8.022,2.8.022" transform="translate(454.127 2325.966)" fill="#f7f7f5"/>
  </g>
</svg>
