<svg xmlns="http://www.w3.org/2000/svg" width="27.26" height="27.255" viewBox="0 0 27.26 27.255">
  <path id="Icon_awesome-instagram" data-name="Icon awesome-instagram" d="M13.628,8.877a6.988,6.988,0,1,0,6.988,6.988A6.977,6.977,0,0,0,13.628,8.877Zm0,11.531a4.543,4.543,0,1,1,4.543-4.543,4.551,4.551,0,0,1-4.543,4.543Zm8.9-11.816a1.63,1.63,0,1,1-1.63-1.63A1.626,1.626,0,0,1,22.531,8.591Zm4.628,1.654a8.066,8.066,0,0,0-2.2-5.711,8.119,8.119,0,0,0-5.711-2.2C17,2.206,10.253,2.206,8,2.333a8.107,8.107,0,0,0-5.711,2.2,8.092,8.092,0,0,0-2.2,5.711c-.128,2.25-.128,8.995,0,11.245a8.066,8.066,0,0,0,2.2,5.711A8.129,8.129,0,0,0,8,29.4c2.25.128,8.995.128,11.245,0a8.066,8.066,0,0,0,5.711-2.2,8.119,8.119,0,0,0,2.2-5.711c.128-2.25.128-8.989,0-11.239ZM24.253,23.9a4.6,4.6,0,0,1-2.591,2.591c-1.794.712-6.051.547-8.034.547s-6.246.158-8.034-.547A4.6,4.6,0,0,1,3,23.9c-.712-1.794-.547-6.051-.547-8.034S2.3,9.619,3,7.831A4.6,4.6,0,0,1,5.594,5.24c1.794-.712,6.051-.547,8.034-.547s6.246-.158,8.034.547a4.6,4.6,0,0,1,2.591,2.591c.712,1.794.547,6.051.547,8.034S24.964,22.111,24.253,23.9Z" transform="translate(0.005 -2.238)" fill="#fff"/>
</svg>
