<svg xmlns="http://www.w3.org/2000/svg" width="38.791" height="38.791" viewBox="0 0 38.791 38.791">
  <g id="Group_11463" data-name="Group 11463" transform="translate(-590.14 -2350)">
    <path id="Path_6060" data-name="Path 6060" d="M423.12,38.791H395.745a5.708,5.708,0,0,1-5.708-5.708V5.708A5.708,5.708,0,0,1,395.745,0H423.12a5.708,5.708,0,0,1,5.708,5.708V33.083a5.708,5.708,0,0,1-5.708,5.708" transform="translate(200.103 2350)" fill="#653f8c"/>
    <rect id="Rectangle_6947" data-name="Rectangle 6947" width="4.619" height="12.908" transform="translate(599.996 2366.138)" fill="#f7f7f5"/>
    <path id="Path_6061" data-name="Path 6061" d="M459.887,66.811h3.564V68.6s.548-1.809,3.844-1.809c2.721,0,4.666,1.06,4.666,3.97v8.953h-3.807s.021-7.529.042-7.761a2.134,2.134,0,0,0-2.151-2.13,2.348,2.348,0,0,0-2.552,2.446v7.445h-3.607Z" transform="translate(147.111 2299.327)" fill="#f7f7f5"/>
    <path id="Path_6062" data-name="Path 6062" d="M435.495,42.686a2.309,2.309,0,1,1-2.309-2.31,2.309,2.309,0,0,1,2.309,2.31" transform="translate(169.12 2319.369)" fill="#f7f7f5"/>
  </g>
</svg>
