<svg xmlns="http://www.w3.org/2000/svg" width="38.791" height="38.791" viewBox="0 0 38.791 38.791">
  <g id="Group_11464" data-name="Group 11464" transform="translate(-637.209 -2350)">
    <path id="Path_6058" data-name="Path 6058" d="M618.138,38.791H590.763a5.708,5.708,0,0,1-5.708-5.708V5.708A5.708,5.708,0,0,1,590.763,0h27.374a5.708,5.708,0,0,1,5.708,5.708V33.083a5.708,5.708,0,0,1-5.708,5.708" transform="translate(52.154 2350)" fill="#653f8c"/>
    <path id="Path_6059" data-name="Path 6059" d="M631.6,36.586a5.182,5.182,0,0,0-3.961-1.663c-2.983.1-5.755,1.924-5.434,6.6,0,0-4.493,1.369-11.487-5.282,0,0-2.25,3.668,1.728,7.124a3.712,3.712,0,0,1-2.608-.522s-.8,3.1,4.32,5.445c0,0-1.728.489-2.51,0,0,0,.456,3.293,5.054,4.075,0,0-2.364,2.347-7.955,2.282,0,0,11.628,5.951,19.69-1.7A16.422,16.422,0,0,0,633.394,40.2a5.137,5.137,0,0,0,2.706-2.364,10.582,10.582,0,0,1-3.032.505s2.119-1.322,2.282-2.886a6.464,6.464,0,0,1-3.75,1.126" transform="translate(34.182 2323.508)" fill="#f3f7f7"/>
  </g>
</svg>
