<?xml version="1.0" encoding="utf-8"?>
<!-- Generator: Adobe Illustrator 26.2.0, SVG Export Plug-In . SVG Version: 6.00 Build 0)  -->
<svg version="1.1" id="Layer_1" xmlns="http://www.w3.org/2000/svg" xmlns:xlink="http://www.w3.org/1999/xlink" x="0px" y="0px"
	 viewBox="0 0 100 100" style="enable-background:new 0 0 100 100;" xml:space="preserve">
<style type="text/css">
	.st0{fill:#FFFFFF;}
</style>
<g id="Group_11116" transform="translate(403 437.13)">
	<path id="Path_5536" class="st0" d="M-365-368.9c0-2.9,0.2-5.9,0-8.8c-0.3-4.1-2.4-7.8-5.7-10.2c-6.9-5.1-9.7-12-9.4-20.3
		c0.2-5.1,2.4-9.3,7.3-11.4c2.3-0.9,4.7-1.3,7.1-1.1c2.3,0.1,4.5,0.7,6.5,1.8c3.1,1.7,6.1,1.6,9.3,0c4.3-2.3,9.4-2.5,13.8-0.4
		c4.2,1.8,6.3,5.3,6.8,9.6c1.1,7.3-1.4,14.6-6.6,19.8c-0.7,0.7-1.4,1.3-2.2,1.8c-3.9,2.8-6.2,7.3-6.2,12.1c-0.1,5.4,0,10.8,0,16.3
		c0,1.5-0.7,2.3-2.2,2c-1.1-0.2-2.2-0.6-3.2-1.1c-1.2-0.7-2.7-0.7-3.9,0c-2.3,1.5-5.2,1.5-7.5,0c-0.6-0.3-1.2-0.5-1.9-0.6
		c-1,0-1.8-0.8-1.8-1.8c0,0,0-0.1,0-0.1c0-2.5,0-5,0-7.6L-365-368.9z M-363-410.8c1.6,1,3,2,4.5,2.9c0.2,0.1,0.5,0.1,0.7,0
		c2.1-0.6,4.2-0.9,6.3-1c1.7-0.1,3.4-0.3,5-0.6c1-0.3,2-0.6,3-1l0-0.3c-0.6-0.4-1.2-0.7-1.9-0.9c-1.9-0.5-3.5-1.8-4.4-3.5
		c0,0-0.1,0-0.2-0.1c-2.2,0.9-4.6,1.2-7,0.8c-0.2,0-0.5,0.1-0.6,0.2c-1.2,0.7-2.3,1.4-3.5,2.1C-361.7-411.8-362.3-411.3-363-410.8
		L-363-410.8z M-345.9-405.9c1,0.9,2,1.8,3,2.7c0.9,0.7,1.9,1.1,3.1,1.2c2.4,0.1,4.8-0.6,6.8-1.9c0.2-0.1,0.3-0.3,0.4-0.5
		c0.1-1.3,0.2-2.7,0.3-4c-0.3,0-0.5,0-0.7,0c-2.3,0-4.6,0.1-6.8,0.1c-0.2,0-0.4,0.1-0.6,0.1C-342.3-407.4-344.1-406.6-345.9-405.9
		L-345.9-405.9z M-361.7-379c0.3-0.1,0.5-0.2,0.7-0.3c0.6-0.3,1.2-0.6,1.8-1c1.5-0.9,1.7-1.2,1.2-2.9c-0.6-1.8-0.5-3.8,0.3-5.5
		c0.2-0.5,0.4-1.1,0.7-1.8c-3.3,0.6-6.7-0.3-9.9,1.4C-364.2-386.3-362.3-382.8-361.7-379z M-339.8-391.4c-1.8-0.2-3.6-0.5-5.3-0.7
		c-2.2-0.3-4.2,0.4-6.3,0.8c-1.2,0.1-2.1,1.1-2.3,2.2c2.5,0.2,4.2,1.6,5.8,3.4c0.4,0.4,0.9,0.7,1.4,1c0.5,0.3,0.8,0.1,1.1-0.4
		c0.8-1.2,1.6-2.4,2.5-3.5C-341.9-389.5-340.9-390.5-339.8-391.4z M-362-406.1c-1.4-1.1-3.1-1.7-4.9-1.7c-2.9,0-5.7-1.1-7.8-3.1
		c-0.4-0.3-0.7-0.7-1.1-1c-0.6,1.5-1,3-1,4.6c-0.1,1.9,0,1.9,1.8,2c3,0.1,5.9,0.4,8.6,1.8c0.2,0.1,0.5,0.1,0.7-0.1
		C-364.5-404.5-363.3-405.3-362-406.1z M-359.7-396.3c0.7,0.8,1.3,1.6,2,2.3c0.2,0.1,0.4,0.2,0.6,0.1c1.4-0.2,2.7-0.3,4.1-0.6
		c2.1-0.4,4.1-0.8,6.1-1.2c0.2,0,0.3-0.1,0.5-0.2c1-1.1,2-2.3,3.1-3.5c-0.4-0.1-0.9-0.3-1.2-0.2c-2.8,0.9-5.6,0.9-8.5,1.1
		C-355.4-398.3-357.7-397.5-359.7-396.3L-359.7-396.3z M-361.1-416.1c-4.1-2.1-10.5-1.2-12.5,1.1c1.6,1.9,3.4,3.3,5.9,3.5
		c0.3,0,0.8,0,0.9-0.2C-365.3-413.5-363.3-415-361.1-416.1L-361.1-416.1z M-354.8-368.8c-0.4-0.8-0.7-1.6-0.9-2.4
		c-0.1-0.8-0.2-1.6-0.2-2.4c0-0.4,0-0.7,0-1.1c-0.3-0.8-0.6-1.6-1-2.3c-0.2-0.2-0.4-0.2-0.7-0.2c-1.1,0.6-2.3,1.1-3.4,1.8
		c-0.2,0.1-0.5,0.4-0.5,0.6c0,2.1,0,4.1,0,6.1L-354.8-368.8z M-373.1-394.8c0.9,1,1.8,2,2.7,3c0.3,0.3,0.6,0.3,1,0.1
		c1.3-0.6,2.6-1.1,3.9-1.5c1.1-0.2,2.3-0.4,3.5-0.5l-3.8-5.6L-373.1-394.8z M-347.1-381.4c-1.8-0.4-3-1.5-4.2-2.8
		c-0.9-1.1-2.3-1.7-3.7-1.6c0.1,0.5,0.1,0.9,0.2,1.4c0.4,1.4,0.6,2.9,0,4.3c0,0.1,0,0.3,0.1,0.4c1.1,1.1,1.8,2.5,2.2,4
		c0.3-0.2,0.6-0.4,0.9-0.7c1-1.1,2.3-1.9,3.7-2.4c0.2-0.1,0.3-0.2,0.4-0.4C-347.4-379.9-347.3-380.6-347.1-381.4L-347.1-381.4z
		 M-346.5-416.6c0.3,0.7,0.9,1.2,1.6,1.4c1.7,0.5,3.3,1.4,4.6,2.8c0.5,0.6,1.3,1,2.1,0.9c1.6-0.1,3.2-0.1,4.9-0.1
		C-335-416.9-342.1-418.3-346.5-416.6L-346.5-416.6z M-347.9-361.8c0-0.7,0-1.3,0-2c0-0.4-0.2-0.6-0.6-0.8c-1-0.4-2-0.9-3-1.3
		c-0.4-0.2-0.8-0.2-1.2-0.1c-1.5,0.6-3.2,0.8-4.8,0.7c-1-0.1-2,0-3,0c-0.8,0.1-1.1,0.5-1.1,1.3c0,0.9,0.2,1.4,1.1,1.6
		c0.3,0.1,0.6,0.2,0.8,0.4c1.3,0.9,3,0.9,4.2,0c1.5-1,3.3-1.3,5-0.8C-349.5-362.5-348.7-362.1-347.9-361.8L-347.9-361.8z
		 M-347.5-402.4l0.1-0.3c-1.1-0.8-2.2-1.6-3.4-2.4c-0.3-0.2-0.7-0.3-1.1-0.3c-2.4,0.1-4.7,0.6-6.9,1.6c-1.5,0.7-2.8,1.5-4.3,2.2
		l1.6,2.3c3.5-2.4,7.4-2.9,11.5-2.9C-349.2-402.2-348.3-402.3-347.5-402.4L-347.5-402.4z M-342.4-395.2c1.2,0.2,2.1,0.4,3.1,0.5
		c0.9,0.1,1.9,0.6,2.6,0.2c0.7-0.3,1-1.4,1.5-2.2c0.5-0.8,0.8-1.7,1.2-2.5c-1.6,0.3-3.1,0.5-4.6,0.8c-0.2,0-0.3,0.1-0.4,0.2
		C-340.2-397.2-341.3-396.3-342.4-395.2L-342.4-395.2z M-348-368.1v-6.8l-4.3,3C-351.6-369.9-350-368.5-348-368.1L-348-368.1z
		 M-369.5-400.8l-0.1-0.3c-2.1-0.6-4.4-0.9-6.6-0.9l1.4,4.2L-369.5-400.8z"/>
	<path id="Path_5537" class="st0" d="M-371.7-362.2c0-4.6,0-9.1,0-13.7c0.1-2.6-1.1-5.1-3.3-6.6c-5.4-3.9-8.7-9.2-10.6-15.5
		c-1.6-5.1-2.1-10.3-0.6-15.5c2.2-7.7,7.5-12.1,15.3-13.6c5.1-1.1,10.5-0.3,15.1,2.3c0.7,0.4,1.6,0.4,2.3,0c1.5-0.8,3.1-1.4,4.8-1.9
		c6.8-1.5,13.3-0.9,19,3.4c3.9,2.9,6.5,7.4,7,12.2c1.3,10-1.7,18.8-8.6,26.1c-0.9,0.9-1.9,1.7-2.9,2.4c-2.2,1.5-3.4,4-3.4,6.7
		c0,9.3,0,18.6,0,27.8c0,1.2-0.4,1.8-1.2,2.1c-0.9,0.3-1.9-0.2-2.2-1.1c0-0.1-0.1-0.2-0.1-0.3c0-0.3,0-0.6,0-0.9c0-9,0-18,0-27
		c-0.2-4.2,1.9-8.2,5.4-10.6c3.8-2.7,6.1-6.4,7.8-10.6c1.6-3.8,2.3-7.8,2.1-11.9c-0.4-8.7-5.8-14.5-13.9-15.5c-4-0.6-8.1,0-11.7,1.8
		c-0.1,0.1-0.2,0.1-0.4,0.2c-2.1,1.2-4,1-6.1-0.1c-6.7-3.7-16-2.4-21.2,2.8c-2.4,2.4-4,5.6-4.3,9c-1,8.4,1.8,16.7,7.7,22.8
		c0.8,0.8,1.7,1.5,2.6,2.2c3,2.2,4.8,5.6,4.7,9.3c0.1,9.4,0,18.8,0,28.1c0,1.3-0.7,2-1.8,2c-1.1,0-1.7-0.8-1.7-2.1
		C-371.7-352.7-371.7-357.4-371.7-362.2z"/>
</g>
</svg>
