<svg id="Group_11130" data-name="Group 11130" xmlns="http://www.w3.org/2000/svg" width="19.434" height="24.569" viewBox="0 0 19.434 24.569">
  <path id="Path_5536" data-name="Path 5536" d="M2578.538,119.218c0-.878.054-1.759-.013-2.632a4.082,4.082,0,0,0-1.71-3.06,6.819,6.819,0,0,1-2.817-6.09,3.6,3.6,0,0,1,2.209-3.44,4.793,4.793,0,0,1,2.133-.33,4.389,4.389,0,0,1,1.94.537,2.777,2.777,0,0,0,2.781-.015,4.63,4.63,0,0,1,4.134-.133,3.4,3.4,0,0,1,2.045,2.892,6.971,6.971,0,0,1-2,5.952,5.577,5.577,0,0,1-.67.54,4.433,4.433,0,0,0-1.859,3.632c-.023,1.629-.006,3.258-.007,4.887,0,.464-.21.683-.665.606a3.438,3.438,0,0,1-.963-.325,1.116,1.116,0,0,0-1.176.014,2.056,2.056,0,0,1-2.241,0,1.575,1.575,0,0,0-.557-.178.54.54,0,0,1-.531-.584c0-.758,0-1.517,0-2.276Zm.618-12.588c.469.307.91.6,1.359.886a.3.3,0,0,0,.218,0,7.853,7.853,0,0,1,1.905-.3,11.132,11.132,0,0,0,1.513-.191,6.46,6.46,0,0,0,.9-.306l-.009-.077a3.016,3.016,0,0,0-.573-.285,2.006,2.006,0,0,1-1.318-1.056c-.006-.011-.027-.015-.05-.026a3.775,3.775,0,0,1-2.1.247.33.33,0,0,0-.194.06c-.351.2-.7.408-1.046.624C2579.549,106.341,2579.348,106.5,2579.157,106.631Zm5.112,1.484c.289.267.586.556.9.826a1.515,1.515,0,0,0,.919.356,3.49,3.49,0,0,0,2.041-.564.231.231,0,0,0,.11-.143c.035-.4.058-.8.085-1.216-.1-.005-.151-.01-.2-.01-.685.009-1.369.018-2.054.03a.513.513,0,0,0-.181.044C2585.356,107.659,2584.823,107.883,2584.269,108.114Zm-4.726,8.091c.086-.036.146-.056.2-.085.183-.1.368-.191.544-.3.45-.274.5-.373.359-.878a2.466,2.466,0,0,1,.078-1.66c.068-.16.123-.325.2-.531-1,.191-2.021-.1-2.979.411A5.633,5.633,0,0,1,2579.543,116.2Zm6.575-3.74c-.552-.073-1.077-.141-1.6-.213a5.874,5.874,0,0,0-1.905.246.806.806,0,0,0-.7.671,2.594,2.594,0,0,1,1.744,1.021,1.6,1.6,0,0,0,.431.29c.147.083.24.038.34-.116a8.492,8.492,0,0,1,.762-1.038C2585.454,113.026,2585.778,112.775,2586.118,112.465Zm-6.683-4.43a2.363,2.363,0,0,0-1.47-.526,3.5,3.5,0,0,1-2.343-.932c-.111-.1-.22-.2-.34-.315a3.7,3.7,0,0,0-.3,1.386c-.017.558-.011.561.553.587a6.417,6.417,0,0,1,2.577.526.258.258,0,0,0,.211-.02C2578.69,108.517,2579.05,108.282,2579.436,108.035Zm.692,2.96c.211.242.4.473.61.692a.253.253,0,0,0,.191.041c.41-.052.821-.1,1.228-.174.617-.107,1.231-.229,1.846-.348a.263.263,0,0,0,.14-.071c.307-.342.609-.688.938-1.063-.126-.024-.267-.1-.375-.065a10.372,10.372,0,0,1-2.551.324A4.753,4.753,0,0,0,2580.127,111Zm-.425-5.943a3.616,3.616,0,0,0-3.757.34,2.568,2.568,0,0,0,1.778,1.05c.093.007.232,0,.279-.053A5.045,5.045,0,0,1,2579.7,105.052Zm1.9,14.213a5.655,5.655,0,0,1-.272-.731,4.6,4.6,0,0,1-.058-.713,1.332,1.332,0,0,0-.011-.333,5.257,5.257,0,0,0-.29-.691.22.22,0,0,0-.207-.053c-.345.165-.683.344-1.018.529-.061.033-.137.11-.138.168-.01.621-.006,1.243-.006,1.825Zm-5.492-7.825c.267.288.547.587.825.89.095.1.175.1.306.038a8.257,8.257,0,0,1,1.175-.449,7.4,7.4,0,0,1,1.04-.137l-1.128-1.689Zm7.808,4.043a2.274,2.274,0,0,1-1.255-.841,1.415,1.415,0,0,0-1.118-.491c.023.151.034.284.066.413a1.969,1.969,0,0,1,.009,1.289.139.139,0,0,0,.022.124,2.643,2.643,0,0,1,.655,1.192,2.667,2.667,0,0,0,.273-.207,2.627,2.627,0,0,1,1.107-.728.179.179,0,0,0,.107-.108C2583.837,115.921,2583.874,115.711,2583.92,115.483Zm.169-10.581a.773.773,0,0,0,.484.422,3.026,3.026,0,0,1,1.378.83.747.747,0,0,0,.618.276c.482-.02.966-.019,1.466-.028C2587.548,104.813,2585.433,104.383,2584.089,104.9Zm-.4,16.461c0-.208-.007-.4,0-.59.007-.134-.047-.19-.172-.239-.3-.119-.593-.271-.9-.39a.543.543,0,0,0-.347-.024,3.412,3.412,0,0,1-1.456.2,5.581,5.581,0,0,0-.9.015c-.23.018-.321.149-.321.4s.05.421.316.485a.886.886,0,0,1,.254.13,1.088,1.088,0,0,0,1.275-.015,1.875,1.875,0,0,1,1.492-.25A7.008,7.008,0,0,1,2583.687,121.363Zm.118-12.207.028-.081c-.335-.238-.666-.482-1.009-.708a.6.6,0,0,0-.333-.089,5.437,5.437,0,0,0-2.083.476c-.437.2-.853.446-1.284.675l.491.682a6.01,6.01,0,0,1,3.441-.874C2583.305,109.233,2583.555,109.184,2583.8,109.157Zm1.516,2.179c.357.062.638.115.921.158.261.04.575.173.771.075s.313-.425.441-.663.246-.518.357-.755c-.48.079-.934.154-1.387.23a.261.261,0,0,0-.129.046C2585.984,110.711,2585.678,111,2585.321,111.335Zm-1.656,8.144v-2.043l-1.294.893A1.738,1.738,0,0,0,2583.664,119.479Zm-6.467-9.84-.032-.082a7.068,7.068,0,0,0-1.981-.267l.421,1.261Z" transform="translate(-2571.909 -101.587)" fill="#653f8c"/>
  <path id="Path_5537" data-name="Path 5537" d="M2568.749,113.605q0-2.06,0-4.121a2.314,2.314,0,0,0-.985-1.978,8.524,8.524,0,0,1-3.188-4.646,8.087,8.087,0,0,1-.168-4.669,5.529,5.529,0,0,1,4.587-4.1,6.512,6.512,0,0,1,4.541.686.717.717,0,0,0,.683,0,8.922,8.922,0,0,1,1.438-.573,6.642,6.642,0,0,1,5.714,1.018,5.3,5.3,0,0,1,2.112,3.681,9.283,9.283,0,0,1-2.587,7.854,7.1,7.1,0,0,1-.879.737,2.428,2.428,0,0,0-1.023,2.011q0,4.181,0,8.363c0,.354-.115.55-.363.632a.517.517,0,0,1-.67-.433,1.816,1.816,0,0,1-.007-.263c0-2.7.008-5.4,0-8.1a3.659,3.659,0,0,1,1.616-3.185,6.994,6.994,0,0,0,2.349-3.2,8.285,8.285,0,0,0,.632-3.575,4.657,4.657,0,0,0-4.189-4.668,5.892,5.892,0,0,0-3.516.53c-.036.018-.074.03-.108.05a1.718,1.718,0,0,1-1.826-.038,5.566,5.566,0,0,0-6.357.833,4.421,4.421,0,0,0-1.292,2.715,8.311,8.311,0,0,0,2.313,6.838,6.539,6.539,0,0,0,.793.653,3.425,3.425,0,0,1,1.421,2.8c.018,2.819.007,5.639.006,8.458,0,.378-.207.609-.529.6s-.51-.236-.51-.623Q2568.748,115.75,2568.749,113.605Z" transform="translate(-2564.136 -93.952)" fill="#653f8c"/>
</svg>
