<svg xmlns="http://www.w3.org/2000/svg" width="18.396" height="16.833" viewBox="0 0 18.396 16.833">
  <g id="Group_11456" data-name="Group 11456" transform="translate(-113.964 -1302.438)">
    <path id="Path_5643" data-name="Path 5643" d="M118.693,1303.357c.061-.678.221-.913.611-.918a.526.526,0,0,1,.522.292,3.5,3.5,0,0,1,.153.616h6.411c0-.092,0-.184,0-.277a.613.613,0,1,1,1.225.01c0,.082,0,.164,0,.277h.213c.638,0,1.277,0,1.916,0a2.58,2.58,0,0,1,2.613,2.61q0,5.344,0,10.689a2.569,2.569,0,0,1-2.608,2.612q-6.59,0-13.179,0a2.569,2.569,0,0,1-2.605-2.615q0-5.335,0-10.67a2.581,2.581,0,0,1,2.635-2.627c.626,0,1.251,0,1.877,0Zm-3.5,5.266v.211q0,3.889,0,7.778a1.36,1.36,0,0,0,1.457,1.461h13.027a1.359,1.359,0,0,0,1.458-1.461q0-3.889,0-7.778v-.211Zm15.942-1.244c0-.476,0-.935,0-1.393a1.353,1.353,0,0,0-1.4-1.4c-.645,0-1.29,0-1.935,0-.055,0-.11.008-.18.013,0,.095,0,.177,0,.259a.615.615,0,0,1-.61.647.622.622,0,0,1-.615-.648c0-.086,0-.173,0-.262h-6.446c-.008.135,0,.263-.024.386a.608.608,0,0,1-1.21-.078c0-.1,0-.2,0-.3a.423.423,0,0,0-.077-.019c-.722,0-1.444-.012-2.165,0a1.257,1.257,0,0,0-1.225,1.048,15.789,15.789,0,0,0-.014,1.742Z" transform="translate(0 0)" fill="#653f8c"/>
  </g>
</svg>
