<?xml version="1.0" encoding="UTF-8"?><svg xmlns="http://www.w3.org/2000/svg" viewBox="0 0 299.13 283.16"><defs><style>.d{fill:#fff;}</style></defs><g id="a"/><g id="b"><g id="c"><g><path class="d" d="M.48,97.05c1.02-22.44,8.07-42.71,22.44-60.08C43.7,11.87,70.65-.52,103.17,.02c29.51,.49,53.93,12.48,73.57,34.39,.71,.79,1.41,1.59,2.22,2.5,4.11-5.44,9.3-8.86,15.93-10.03,6.15-1.08,11.88,.06,16.96,3.56,7.02,4.84,13.69,4.76,20.81,.03,9.98-6.62,23.35-4.66,31.03,4.12,2.21,2.53,2.33,5.14,.31,6.95-2,1.8-4.33,1.49-6.64-.87-6.2-6.35-13.46-7.2-20.78-2.39-9.56,6.28-19.08,6.27-28.64,0-7.97-5.23-17.79-3.17-22.32,4.58-.71,1.22-.77,2.1,.03,3.38,16.63,26.54,19.87,54.9,11.34,84.82-.21,.74-.39,1.5-.57,2.25-.02,.07,.08,.17,.21,.42,8.35-2.88,16.99-4.48,25.87-4.38,17.05,.18,32.51,5.26,46.06,15.69,2.14,1.65,3.52,1.48,5.43-.08,5.48-4.48,7.18-11.19,4.43-18.43-3.35-8.81-2.22-16.97,3.47-24.47,.93-1.23,2.11-2.28,3.22-3.38,8.88-8.75,5.84-22.25-5.99-26.11-6.37-2.08-11.48-5.6-14.89-11.43-.34-.58-.65-1.2-.9-1.82-.94-2.37-.21-4.25,1.92-5.46,2.2-1.25,4.5-.77,5.59,1.36,2.7,5.29,7.23,7.67,12.55,9.61,16.47,5.98,21.06,27.18,8.44,39.42-6.32,6.13-7.89,12.56-4.7,20.77,3.7,9.55,.54,20.07-7.49,26.5-1.73,1.38-1.42,2.06-.16,3.47,39.44,44.32,16.44,114.22-41.72,126.49-17.93,3.78-35.21,1.21-51.46-7.42-1.73-.92-2.85-.99-4.58,.22-7.44,5.19-15.36,5.52-23.44,1.53-18.91-9.36-37.29-19.66-54.82-31.41-1.79-1.2-3.04-1.28-4.85-.05-9.97,6.78-20.33,12.92-30.83,18.84-1.96,1.11-3.81,1.44-5.67-.08-1.54-1.26-1.83-2.94-1.32-4.76,.47-1.64,1.9-2.37,3.27-3.14,10.58-5.97,20.99-12.23,31.08-18.99,17.58-11.78,34.22-24.73,49.31-39.61,1.06-1.04,1.89-2.08,2.17-3.65,4.19-22.8,16.35-40.21,35.93-52.47,1.76-1.1,2.85-2.35,3.54-4.29,11.91-33.64,8.38-65.01-13.85-93.55-6.64-8.53-14.84-15.39-24.11-20.95-.7-.42-1.32-1.15-2.34-1,4.43,7.28,6.55,15.23,7.26,23.58,1.65,19.41-2.87,37.83-8.96,56.03-9.95,29.78-28.82,53.02-52.8,72.58-22.79,18.58-47.78,33.67-74.03,46.77-4.16,2.08-7.07,5.01-8.17,9.63-.71,2.98-.31,5.81,.91,8.54,3.57,7.97,7.13,15.94,10.84,23.85,3.43,7.32,11.04,9.98,18.36,6.58,1.85-.86,3.6-1.95,5.49-2.68,2.23-.86,4.27-.41,5.54,1.81,1.18,2.06,.9,4.25-1.03,5.46-6.37,3.98-13.12,6.97-20.93,5.11-7.28-1.73-12.5-6.05-15.56-12.9-4.29-9.62-8.97-19.07-12.75-28.91v-7.6c.96-8.42,5.8-13.75,13.2-17.42,9.05-4.48,17.97-9.26,26.66-14.43,2.73-1.63,2.76-1.67,.77-3.95-8.51-9.76-16.51-19.87-23.05-31.1-8.46-14.52-14.44-29.89-16.76-46.6-.5-3.63-.18-7.33-.82-10.95v-.58c.77-2.1-.09-4.33,.48-6.44Zm-.48,.02v6.43c1.19-2.07,.39-4.29,.48-6.44-.16-.04-.32-.03-.48,.02Zm290.38,109.18c.03-37.5-30.56-68.16-68.06-68.21-37.48-.05-68.11,30.57-68.12,68.1-.01,37.63,30.39,68.08,68.01,68.1,37.6,.03,68.14-30.43,68.17-68ZM53.07,22.01C18.71,43.04,2.36,83.23,12,123.24c6.24,25.91,20.84,47.01,38.59,66.25,.9,.98,1.48,.71,2.4,.13,14.05-8.94,27.5-18.69,40.01-29.71,1.61-1.41,1.2-2.08-.04-3.32-4.63-4.6-8.9-9.53-12.89-14.69-14.92-19.3-23.7-41.33-28.67-64.98-4.01-19.11-5.21-38.1,4.82-56.65-1.36,.75-2.28,1.21-3.15,1.75Zm44.95,40.19c20.09-1.32,33.13,9.06,40.26,27.57,.39-1.28,.79-2.48,1.12-3.69,4.07-15.02,6.82-30.14,4.36-45.8-2.46-15.65-11.56-25.88-26.89-29.81-9.09-2.33-18.32-2.31-27.53-.94-16.41,2.45-26.59,11.86-30.47,27.97-2.48,10.32-1.8,20.68-.17,31.02,1.13,7.19,2.74,14.27,5.13,21.33,5.88-16.3,16.93-26.5,34.19-27.64Zm-23.52,53.31c5.67,13.86,15.05,25.08,25.34,35.66,1.13,1.16,1.66,.69,2.52-.19,7.65-7.8,14.69-16.09,20.26-25.54,4.49-7.61,7.97-15.64,8.12-24.63,.27-16.52-13.12-30.03-29.58-30.09-16.54-.07-29.81,13.16-29.88,31.05,.08,3.94,1.26,8.93,3.22,13.74Zm66.99,141.63c6.9,3.75,13.88,7.36,20.89,10.9,4.48,2.26,8.98,2.32,13.57-.43-19.25-15.35-29.39-35.05-30.64-59.64-11.63,10.83-23.72,20.41-36.47,29.5,10.76,7.17,21.57,13.66,32.65,19.67Z"/><path class="d" d="M247.6,119.29c-7.97-.03-14.45-6.51-14.47-14.48-.02-8.06,6.63-14.72,14.64-14.65,7.91,.07,14.46,6.64,14.5,14.53,.04,8.04-6.59,14.63-14.68,14.6Zm.25-20.36c-3.07-.1-5.81,2.48-5.94,5.59-.13,3.27,2.48,5.99,5.76,6,3.12,0,5.78-2.58,5.84-5.68,.06-3.06-2.58-5.8-5.66-5.91Z"/><path class="d" d="M209.13,70.89c-.05-8.14,6.44-14.71,14.53-14.7,7.92,0,14.48,6.49,14.6,14.42,.11,7.96-6.6,14.72-14.6,14.72-7.96,0-14.47-6.48-14.52-14.44Zm14.72-5.93c-3.15-.11-5.81,2.37-5.94,5.52-.13,3.29,2.45,6.05,5.69,6.09,3.07,.03,5.8-2.61,5.88-5.69,.08-3.06-2.53-5.81-5.63-5.92Z"/><path class="d" d="M222.21,158.93c3.31,0,6.62-.03,9.93,0,5.49,.06,8.68,3.14,8.77,8.68,.1,5.84,.09,11.69-.01,17.53-.03,1.86,.42,2.52,2.42,2.47,5.84-.14,11.68-.09,17.53-.04,5.35,.04,8.59,3.11,8.69,8.45,.12,6.72,.11,13.44,.01,20.16-.08,5.47-3.33,8.67-8.79,8.75-5.74,.08-11.49,.1-17.23-.02-1.97-.04-2.69,.4-2.64,2.53,.15,5.55,.08,11.1,.04,16.65-.05,6.36-3.18,9.47-9.54,9.49-6.13,.02-12.27,.03-18.4,0-6.15-.03-9.37-3.2-9.44-9.35-.06-5.65-.1-11.3,.04-16.94,.05-1.96-.58-2.41-2.44-2.37-5.55,.12-11.1,.06-16.65,.04-6.33-.03-9.54-3.19-9.59-9.5-.05-6.23-.06-12.46,0-18.7,.07-6.07,3.21-9.16,9.21-9.19,5.45-.03,10.91-.19,16.35,.07,2.74,.13,3.19-.83,3.11-3.26-.18-5.25-.08-10.51-.05-15.77,.04-6.64,3.05-9.65,9.61-9.67,3.02,0,6.04,0,9.06,0Zm36.26,57.31c2.04,.13,2.42-.66,2.38-2.49-.11-5.06-.11-10.12,0-15.18,.04-1.74-.35-2.34-2.21-2.3-5.64,.13-11.28,.07-16.93,.04-6.29-.04-9.48-3.22-9.53-9.55-.05-5.64-.06-11.29,.02-16.93,.02-1.56-.25-2.22-2.02-2.18-5.25,.12-10.51,.14-15.76,0-1.98-.05-2.18,.77-2.16,2.4,.08,5.64,.07,11.29,.02,16.93-.05,6.16-3.22,9.3-9.39,9.34-5.64,.04-11.29,.07-16.93-.03-1.7-.03-2.41,.3-2.35,2.21,.14,5.15,.12,10.31,0,15.47-.04,1.82,.55,2.3,2.32,2.27,5.64-.11,11.28-.05,16.93-.04,6.37,.02,9.39,3.05,9.43,9.49,.03,5.55,.1,11.09-.04,16.64-.06,2.11,.65,2.6,2.64,2.54,4.86-.14,9.73-.17,14.59,.01,2.19,.08,2.81-.5,2.75-2.72-.17-5.74-.15-11.48-.03-17.22,.12-5.55,3.32-8.66,8.76-8.74,2.82-.04,5.64,0,8.46,0,3.02,0,6.04-.14,9.05,.05Z"/></g></g></g></svg>