<svg xmlns="http://www.w3.org/2000/svg" width="40.334" height="40" viewBox="0 0 40.334 40">
  <path id="Union_9" data-name="Union 9" d="M4.629,40a.661.661,0,0,1-.661-.661V38.017A4.634,4.634,0,0,1,8.6,33.388H31.739V30.723l-6.612.02V31.4a.661.661,0,0,1-.661.661h-11.9A.661.661,0,0,1,11.9,31.4V28.759a.661.661,0,0,1,.661-.661h11.9a.661.661,0,0,1,.661.661v.661l6.612-.02V19.5a1.99,1.99,0,0,0-1.984-1.984h-.747a4.643,4.643,0,0,1-3.22,1.322,5.265,5.265,0,0,1-.549-.033l-.522,1.963a.661.661,0,0,1-.642.489.541.541,0,0,1-.172-.026L22.627,20.9l-.516,1.917a.631.631,0,0,1-.3.4.659.659,0,0,1-.331.092.507.507,0,0,1-.172-.026l-.642-.172-.509,1.917a.663.663,0,0,1-.311.4.637.637,0,0,1-.331.086.756.756,0,0,1-.172-.02l-2.552-.687a.65.65,0,0,1-.4-.3.671.671,0,0,1-.066-.5l.516-1.917-.642-.172a.687.687,0,0,1-.4-.3.669.669,0,0,1-.06-.5l.509-1.917-1.276-.344a.654.654,0,0,1-.47-.807L17.919,5.259a.661.661,0,0,1,.806-.47l1.918.516.516-1.931A3.842,3.842,0,0,1,20.895,3,3.284,3.284,0,0,1,20.564.492a.665.665,0,0,1,.813-.469l6.387,1.713a.66.66,0,0,1,.463.806,3.273,3.273,0,0,1-1.54,2.011,3.591,3.591,0,0,1-.417.2l-.516,1.917,1.918.516A.653.653,0,0,1,28.135,8l-.522,1.964a4.656,4.656,0,0,1,1.408.945h.734a8.6,8.6,0,0,1,8.6,8.6V34.221a4.634,4.634,0,0,1,1.983,3.8v1.322a.661.661,0,0,1-.661.661Zm.661-1.984v.661H39.013v-.661a3.306,3.306,0,0,0-3.306-3.306H8.6A3.306,3.306,0,0,0,5.29,38.017ZM30.258,15.409a4.24,4.24,0,0,1-.3.806A3.3,3.3,0,0,1,33.061,19.5V33.388h2.645a4.8,4.8,0,0,1,1.322.192V19.5a7.274,7.274,0,0,0-7.056-7.26A4.55,4.55,0,0,1,30.258,15.409ZM13.225,30.743H23.8V29.421H13.225ZM17.767,23.7l1.276.344.344-1.276-.251-.073-1.025-.272Zm-.588-2.9,3.828,1.025.344-1.276-3.835-1.025Zm-1.237-3.068,7.67,2.05.351-1.322a4.624,4.624,0,0,1,2.373-8.841l.351-1.329L19.023,6.238Zm9.846-6.831a3.307,3.307,0,0,0-3.194,2.453,3.261,3.261,0,0,0,.331,2.506,3.306,3.306,0,0,0,6.057-.8,3.26,3.26,0,0,0-.331-2.506,3,3,0,0,0-.377-.522V12.03a3.3,3.3,0,0,0-1.633-1.012,3.144,3.144,0,0,0-.833-.113ZM21.92,5.65l2.559.681.357-1.349a3.239,3.239,0,0,1-.655-.1L22.9,4.539a3.91,3.91,0,0,1-.622-.231Zm1.329-2.387,1.277.344a1.954,1.954,0,0,0,1.5-.2,2.006,2.006,0,0,0,.648-.595L21.781,1.5A1.979,1.979,0,0,0,23.249,3.263ZM9.257,26.776a1.984,1.984,0,0,1-1.984-1.984V16.163a7.935,7.935,0,1,1,1.322,0v8.629a.661.661,0,0,0,.661.661h5.29a.661.661,0,0,1,0,1.322ZM1.323,8.261A6.612,6.612,0,1,0,7.935,1.649,6.619,6.619,0,0,0,1.323,8.261ZM23.8,14.212A1.984,1.984,0,1,1,25.788,16.2,1.984,1.984,0,0,1,23.8,14.212Zm1.322,0a.661.661,0,1,0,.661-.661A.661.661,0,0,0,25.127,14.212ZM7.274,12.89a.661.661,0,1,1,0-1.322v-.755a2.6,2.6,0,0,1-.673-.28l-.535.535A.661.661,0,1,1,5.131,12l-.936-.935a.661.661,0,1,1,.935-.936L5.665,9.6a2.578,2.578,0,0,1-.281-.674H4.629a.661.661,0,0,1-1.322,0V7.6a.661.661,0,0,1,1.322,0h.756a2.579,2.579,0,0,1,.28-.673l-.535-.535a.661.661,0,0,1-.935-.936l.936-.935a.661.661,0,0,1,.935.935l.535.535a2.586,2.586,0,0,1,.674-.281V4.955a.661.661,0,1,1,0-1.322H8.6a.661.661,0,1,1,0,1.322v.756a2.578,2.578,0,0,1,.674.281l.535-.535a.661.661,0,1,1,.935-.935l.935.934a.661.661,0,0,1-.935.936l-.535.535a2.615,2.615,0,0,1,.281.674h.755a.661.661,0,1,1,1.322,0V8.922a.661.661,0,1,1-1.322,0h-.755a2.592,2.592,0,0,1-.28.673l.535.536a.661.661,0,1,1,.935.936L10.74,12a.661.661,0,1,1-.935-.936l-.535-.535a2.578,2.578,0,0,1-.674.281v.755a.661.661,0,0,1,0,1.322ZM6.612,8.261A1.322,1.322,0,1,0,7.935,6.939,1.322,1.322,0,0,0,6.612,8.261Z" transform="translate(0)" fill="#f6f6f6"/>
</svg>
