<svg xmlns="http://www.w3.org/2000/svg" width="21.026" height="18.5" viewBox="0 0 21.026 18.5">
  <path id="Path_6051" data-name="Path 6051" d="M21.026,9.373a3.52,3.52,0,0,0-.138.729,8.286,8.286,0,0,1-4.147,5.669,10.958,10.958,0,0,1-4.153,1.359,14.341,14.341,0,0,1-5.433-.283.225.225,0,0,0-.236.067A5.488,5.488,0,0,1,2.876,18.5c-.414-.008-.828,0-1.3,0,.373-.372.71-.707,1.046-1.042a3.63,3.63,0,0,0,.984-1.831.352.352,0,0,0-.167-.434A7.734,7.734,0,0,1,.588,11.807,7.225,7.225,0,0,1,.7,5.844,9.463,9.463,0,0,1,5.773.956,12.267,12.267,0,0,1,11.664.039,11.851,11.851,0,0,1,16.307,1.25,8.415,8.415,0,0,1,20.6,6.039a7.8,7.8,0,0,1,.387,1.755c0,.037-.016.085.042.1v.123a.053.053,0,0,0,0,.082v.164a.314.314,0,0,0,0,.246v.246a.314.314,0,0,0,0,.246v.123a.053.053,0,0,0,0,.082Zm0-.246c-.052.027-.062.055,0,.082ZM4.564,16.991a4.454,4.454,0,0,0,1.93-1.44.22.22,0,0,1,.273-.1,12.96,12.96,0,0,0,6.261.357,8.508,8.508,0,0,0,4.458-2.1,6.608,6.608,0,0,0,2.05-6.888,7.046,7.046,0,0,0-4.3-4.717,10.827,10.827,0,0,0-3.653-.842,11.273,11.273,0,0,0-5.013.68A8.246,8.246,0,0,0,1.839,6.331a5.913,5.913,0,0,0,.512,6.107,7.382,7.382,0,0,0,2.4,2.133.279.279,0,0,1,.163.287,5.171,5.171,0,0,1-.493,2.175c.076-.023.108-.031.139-.042" transform="translate(0 0)" fill="#653f8c"/>
</svg>
