<svg xmlns="http://www.w3.org/2000/svg" width="30" height="30" viewBox="0 0 30 30">
  <g id="Group_8081" data-name="Group 8081" transform="translate(905 -1872)">
    <path id="Union_4" data-name="Union 4" d="M21.5,30V20a.5.5,0,0,1,.053-.224,9.017,9.017,0,0,0,.947-4.012V11.5a.5.5,0,0,0-1,0V15h-1V10.5a.5.5,0,1,0-1,0v4h-1V9a.5.5,0,0,0-1,0v5.5h-1V10a.5.5,0,1,0-1,0v6.5h-1V15.309l-.078.039a1.668,1.668,0,0,0-.179,2.88l1.367.911A2,2,0,0,1,16.5,20.8V30h-1V20.8a1,1,0,0,0-.445-.832l-1.367-.911a2.668,2.668,0,0,1,.287-4.606l.525-.263V10a1.5,1.5,0,0,1,2.053-1.394A1.5,1.5,0,0,1,19.5,9v.086a1.5,1.5,0,0,1,1.947,1.02A1.5,1.5,0,0,1,23.5,11.5v4.264a10.024,10.024,0,0,1-1,4.352V30Zm-14,0V19.5A.5.5,0,0,1,8,19h.5v-.879a.993.993,0,0,0-.293-.707l-.926-.926A2.651,2.651,0,0,1,6.5,14.6V12a1.5,1.5,0,0,1,2-1.414V8a1.5,1.5,0,0,1,2-1.414V6a1.5,1.5,0,1,1,3,0v.086a1.5,1.5,0,0,1,2,1.414V8h-1V7.5a.5.5,0,0,0-1,0V12h-1V6a.5.5,0,1,0-1,0v6h-1V8a.5.5,0,0,0-1,0v5.156A2.578,2.578,0,0,1,11,15.5H10A1.579,1.579,0,0,0,8.919,14l-.077-.026A.5.5,0,0,1,8.5,13.5V12a.5.5,0,0,0-1,0v2.6a1.658,1.658,0,0,0,.489,1.179l.926.926A1.987,1.987,0,0,1,9.5,18.121V19h3v1h-4V30Zm16.343-9.316.5-.866,3.9,2.25-.5.866ZM1.759,22.067l3.9-2.25.5.866-3.9,2.25ZM9.5,22V21h1v1Zm16.968-3.41.259-.966,1.932.518-.259.966ZM1.351,18.141l1.932-.518.259.966-1.932.518ZM25.5,15.5v-1H30v1ZM0,15.5v-1H4.5v1Zm1.349-3.639.259-.966,1.932.518-.259.966Zm25.117-.454,1.932-.518.259.966-1.932.518ZM1.759,7.933l.5-.866,3.9,2.25-.5.866ZM23.843,9.317l3.9-2.25.5.866-3.9,2.25Zm-.714-3.154,1.414-1.414.707.707L23.835,6.87ZM4.746,5.454l.707-.707L6.867,6.161l-.707.707Zm15.071.2,2.25-3.9.866.5-2.25,3.9ZM7.067,2.26l.866-.5L9.659,4.75l-.866.5ZM14.5,4.5V0h1V4.5Zm3.127-1.221.518-1.932.966.259-.518,1.932ZM10.895,1.6l.966-.259.518,1.932-.966.259Z" transform="translate(-905 1872)" fill="#fff"/>
  </g>
</svg>
