<svg id="Group_11638" data-name="Group 11638" xmlns="http://www.w3.org/2000/svg" width="90.508" height="87.806" viewBox="0 0 90.508 87.806">
  <g id="Group_11644" data-name="Group 11644" transform="translate(0 0)">
    <path id="Path_6118" data-name="Path 6118" d="M110.624,103.263c-.022-.146-.075-.305.148-.347v.354c-.053.079-.1.081-.148-.007" transform="translate(-20.264 -21.626)" fill="#9d9d9d"/>
    <path id="Path_6119" data-name="Path 6119" d="M110.629,103.341a.811.811,0,0,1,.148.007v.354c-.054.079-.1.081-.148-.008v-.352" transform="translate(-20.269 -21.704)" fill="#818181"/>
    <path id="Path_6120" data-name="Path 6120" d="M110.625,103.772c.049,0,.1,0,.148.008v.353c-.185-.065-.18-.207-.148-.361" transform="translate(-20.265 -21.783)" fill="#666"/>
    <path id="Path_6121" data-name="Path 6121" d="M90.508,100.576a7.691,7.691,0,0,1-1.1,1.959,4.59,4.59,0,0,1-3.506,1.371q-6.008-.006-12.018,0-34.554,0-69.107,0a4.38,4.38,0,0,1-4.393-2.49,4.012,4.012,0,0,1-.373-1.973c.106-1.97.21-3.94.34-5.909A1.3,1.3,0,0,1,1.7,92.208a1.313,1.313,0,0,1,1.294,1.473c-.064,1.766-.171,3.529-.286,5.293-.106,1.638.407,2.225,2.037,2.229,2.71.007,5.42-.025,8.129.02.7.011.813-.226.809-.855-.027-4.182-.015-8.365-.012-12.547a6.437,6.437,0,0,1,.043-.88A1.242,1.242,0,0,1,15,85.738a1.257,1.257,0,0,1,1.344,1.236,6.442,6.442,0,0,1,.036.88c0,4.153.012,8.307-.011,12.459,0,.637.082.912.84.911q27.97-.037,55.939,0c.679,0,.825-.194.821-.841-.029-4.182-.016-8.365-.014-12.547a6.708,6.708,0,0,1,.041-.88,1.248,1.248,0,0,1,1.274-1.215,1.264,1.264,0,0,1,1.358,1.224,5.741,5.741,0,0,1,.04.88c0,4.182.017,8.365-.014,12.547,0,.66.159.844.828.834,2.827-.039,5.655,0,8.483-.022,1.366-.009,1.922-.628,1.846-1.986-.265-4.7-.5-9.41-.812-14.111a11.312,11.312,0,0,0-5.955-9.513c-.127-.074-.254-.147-.378-.225-.858-.544-1.108-1.286-.669-1.991a1.4,1.4,0,0,1,2.03-.314c5.062,2.8,7.495,7.176,7.757,12.875.158,3.441.363,6.881.551,10.321.009.158-.071.366.176.432v.707c-.116.105-.084.247-.091.378,0,.1,0,.2,0,.3.007.132-.024.272.091.377Z" transform="translate(-0.001 -16.104)" fill="#653f8c"/>
    <path id="Path_6122" data-name="Path 6122" d="M66.559,62.921c0,1.531.031,3.065-.016,4.594-.018.563.207.748.693.884a6.852,6.852,0,1,1-4.172.171,1.013,1.013,0,0,0,.831-1.168c-.042-3.386-.03-6.774-.007-10.162,0-.52-.123-.787-.651-.942a22.68,22.68,0,0,1-2.9-1.025c-.673-.3-.792.064-.987.526q-3.819,9.044-7.652,18.082C50.159,77.5,48.619,81.122,47.1,84.75c-.318.759-.737,1.372-1.632,1.368s-1.3-.64-1.614-1.392q-6.078-14.4-12.161-28.794c-.31-.741-.621-.887-1.337-.571a25.315,25.315,0,0,1-2.731.987c-.416.128-.584.314-.543.742a4.6,4.6,0,0,1,0,.971c-.171,1.5-.011,2.559,1.776,3.224a4.972,4.972,0,0,1,2.983,4.487c.4,4.487.741,8.979,1.069,13.471a2.258,2.258,0,0,1-2.5,2.607c-.5.007-1,.025-1.5-.01A1.327,1.327,0,0,1,27.567,80.5a1.313,1.313,0,0,1,1.367-1.312c1.23-.087,1.257-.09,1.164-1.342q-.429-5.813-.9-11.625A3.287,3.287,0,0,0,25.962,63.1a3.226,3.226,0,0,0-3.312,3.1c-.354,4.107-.662,8.217-1.008,12.324-.041.486.046.724.585.655a3.588,3.588,0,0,1,.794.011,1.236,1.236,0,0,1,1.233,1.254A1.194,1.194,0,0,1,23.133,81.8a9.636,9.636,0,0,1-2.463-.027,2.121,2.121,0,0,1-1.74-2.4c.189-2.878.419-5.755.644-8.632.131-1.673.24-3.348.434-5.014a5.706,5.706,0,0,1,3.783-4.893.823.823,0,0,0,.624-.958,13.135,13.135,0,0,1,0-1.766c.036-.548-.187-.579-.617-.424-4.362,1.571-8.768,3.034-13.079,4.736a10.845,10.845,0,0,0-6.633,7.73c-.076.283-.148.568-.251.842a1.3,1.3,0,0,1-1.582.919,1.281,1.281,0,0,1-.97-1.561,13.149,13.149,0,0,1,1.344-3.9,14.444,14.444,0,0,1,8.33-7.064c4.238-1.485,8.465-3,12.707-4.478a1.1,1.1,0,0,0,.867-1.006,9.837,9.837,0,0,1,7.5-8.41c.516-.149.641-.224.267-.7a16.639,16.639,0,0,1-3.776-8.965c-.029-.346-.187-.407-.49-.469a3.5,3.5,0,0,1-3.041-3.64c-.022-1.326,0-2.651-.006-3.977a1.9,1.9,0,0,1,.264-1.188,3,3,0,0,0,.362-2.266C25.5,22,25.189,19.717,25.3,17.415A14.491,14.491,0,0,1,37.99,3.8a65.175,65.175,0,0,1,15.6.113A14.529,14.529,0,0,1,65.487,16.173a39.719,39.719,0,0,1-.11,6.872c-.02.765-.089,1.528-.126,2.293a1,1,0,0,0,.044.516c1.293,2.147.659,4.478.537,6.715a3.061,3.061,0,0,1-2.788,2.778c-.421.081-.578.178-.622.628a16.412,16.412,0,0,1-3.654,8.646c-.42.534-.474.7.279.921a9.7,9.7,0,0,1,7.337,8.139A1.419,1.419,0,0,0,67.5,54.993c1.346.409,2.665.912,3.989,1.4.992.361,1.368,1,1.092,1.787-.285.809-.956,1.069-1.955.733-1.085-.365-2.176-.717-3.241-1.135-.621-.244-.871-.234-.841.552.057,1.53.017,3.063.017,4.594M31.7,24.68a2.866,2.866,0,0,1-.1,1.132,8.009,8.009,0,0,0-.43,3.55c0,1.3.061,2.594-.014,3.885A14.6,14.6,0,0,0,35.414,44.27,13.587,13.587,0,0,0,55.3,44.5c2.327-2.468,4.2-5.253,4.388-8.718.192-3.583.535-7.21-.475-10.759-.136-.476-.328-.56-.749-.335a17.5,17.5,0,0,1-1.866.986,18.453,18.453,0,0,1-9.563.748A58.824,58.824,0,0,1,33,22.175,2.941,2.941,0,0,0,31.7,21.77c0,.981.008,1.946,0,2.91m31.256-6.4A11.953,11.953,0,0,0,51.686,6.359q-6.354-.29-12.718.009A12.073,12.073,0,0,0,28.135,16.16c-.4,2.452.044,4.875.113,7.31.025.859.107,1.717.171,2.7a1.822,1.822,0,0,0,.614-1.533c0-1.62-.022-3.239.007-4.859a1.35,1.35,0,0,1,2.023-1.36c.192.073.372.175.56.256C36.8,20.939,42.044,23,47.687,23.786c3.319.465,6.539.376,9.557-1.445,2.051-1.237,4.194-.1,4.6,2.268a1.994,1.994,0,0,0,.648,1.549c.167-2.709.444-5.291.463-7.875M39.048,53.013c-.056.433,0,.62.328.844q2.849,1.925,5.673,3.884a.626.626,0,0,0,.847.016c1.9-1.328,3.824-2.632,5.737-3.947.182-.125.468-.209.35-.523a6.522,6.522,0,0,1-.15-2.446c.007-.6-.115-.651-.684-.481-2.483.745-4.992,1.393-7.626.917a27.15,27.15,0,0,1-4.439-1.111,22.64,22.64,0,0,1-.036,2.847M65.405,70.793a4.186,4.186,0,1,0,4.161,4.224,4.227,4.227,0,0,0-4.161-4.224M42.694,60.175c.46-.355.462-.507-.032-.838-2.49-1.67-4.951-3.378-7.426-5.068-.191-.131-.413-.322-.612-.312-.35.018-.9-.041-.605.654,1.311,3.073,2.611,6.15,3.953,9.315,1.638-1.307,3.164-2.549,4.722-3.751m9.952,3.484c.445.362.471-.033.57-.265,1.241-2.912,2.462-5.832,3.717-8.737.241-.558-.061-.646-.46-.717-.292-.051-.493.157-.707.3-2.642,1.807-5.283,3.615-8.028,5.5,1.7,1.354,3.315,2.624,4.908,3.92M47.208,77.636a2.561,2.561,0,0,0,.216-1.529c-.285-1.706-.574-3.413-.79-5.129-.087-.685-.312-1.007-1.026-.872a1.706,1.706,0,0,1-.528,0c-.484-.065-.649.133-.7.622-.113,1.019-.344,2.025-.463,3.043-.127,1.074-.65,2.182-.352,3.206a45.646,45.646,0,0,0,1.912,4.681c.63-1.468,1.166-2.752,1.732-4.023m-10.74-28.17a1.679,1.679,0,0,0-1.477-1.616,7.313,7.313,0,0,0-7.626,5.731c1.766-.618,3.518-1.184,5.232-1.848a3.961,3.961,0,0,1,3.871.111c0-.909,0-1.644,0-2.379m19.77-1.617c-.828-.006-1.723.615-1.738,1.242-.021.876,0,1.754,0,2.748,1.388-.893,2.688-.567,4.023-.053,1.665.64,3.361,1.195,5.169,1.83-1.111-3.718-3.779-5.742-7.449-5.767M48.017,65.972c.239-.616.945-1.248.84-1.745-.11-.519-.934-.9-1.46-1.317-.618-.494-1.226-1.309-1.886-1.359-.729-.056-1.311.872-1.955,1.371-1.625,1.259-1.554,1.238-.608,3.069.562,1.087,1.179,1.8,2.485,1.347a1.906,1.906,0,0,0,2.584-1.365m-6.756,2.38A20.174,20.174,0,0,1,40.095,66.4c-.1-.165-.127-.628-.525-.3-.228.188-.579.294-.377.753.727,1.652,1.42,3.319,2.126,4.981.274-1.179.866-2.323-.056-3.48m10.492-1.459c.225-.5-.131-.636-.395-.815-.39-.263-.406.191-.512.354a16.959,16.959,0,0,1-1.031,1.728c-.974,1.171-.558,2.389-.154,3.639.693-1.637,1.366-3.283,2.091-4.906M28.5,29.406c.007-.375-.189-.417-.48-.45-.366-.041-.363.183-.363.429,0,.788-.011,1.577.007,2.365a.924.924,0,0,0,.828.981c0-1.166-.013-2.246.007-3.325M63.3,31.66c.006-.732.009-1.464,0-2.195,0-.233.111-.557-.35-.524-.365.026-.5.166-.489.542.023,1.052.008,2.106.008,3.249A.964.964,0,0,0,63.3,31.66" transform="translate(-0.23 -3.392)" fill="#653f8c"/>
  </g>
</svg>
