<svg id="doctor_1_" data-name="doctor (1)" xmlns="http://www.w3.org/2000/svg" width="60" height="60" viewBox="0 0 60 60">
  <path id="Path_3488" data-name="Path 3488" d="M55.605,12.443H44.312a.879.879,0,1,0,0,1.758H55.605a2.64,2.64,0,0,1,2.637,2.637V46.678a2.64,2.64,0,0,1-2.637,2.637H4.395a2.64,2.64,0,0,1-2.637-2.637V16.838A2.64,2.64,0,0,1,4.395,14.2H18.91v.885c0,.294.012.585.035.873H4.746a1.232,1.232,0,0,0-1.23,1.23v21.8a.879.879,0,1,0,1.758,0V17.716H19.221a11.235,11.235,0,0,0,5.552,7.234v1.969a1.073,1.073,0,0,1-.733,1.017l-8.483,2.852a6.729,6.729,0,0,0-4.592,6.383V45.8H5.273v-2.71a.879.879,0,1,0-1.758,0v3.238a1.232,1.232,0,0,0,1.23,1.23H55.254a1.232,1.232,0,0,0,1.23-1.23V17.189a1.232,1.232,0,0,0-1.23-1.23H41.064q.026-.379.026-.763V5.312A5.318,5.318,0,0,0,35.778,0H24.222A5.318,5.318,0,0,0,18.91,5.312v7.131H4.395A4.4,4.4,0,0,0,0,16.838V46.678a4.4,4.4,0,0,0,4.395,4.395H25.7v3.654h-1.11a4.048,4.048,0,0,0-4.043,4.043A1.232,1.232,0,0,0,21.773,60H38.227a1.232,1.232,0,0,0,1.23-1.23,4.048,4.048,0,0,0-4.043-4.043H34.3V51.073h21.3A4.4,4.4,0,0,0,60,46.678V16.838a4.4,4.4,0,0,0-4.395-4.395ZM47.276,45.8H12.724V37.172a4.973,4.973,0,0,1,3.394-4.717l1.986-.668a9.1,9.1,0,0,0,.106,3.72,4.488,4.488,0,0,0-3.344,4.334v2.893a1.486,1.486,0,0,0,1.484,1.484h.821a.879.879,0,1,0,0-1.758h-.547V39.841a2.726,2.726,0,0,1,2.721-2.723h.006a2.726,2.726,0,0,1,2.719,2.723V42.46h-.547a.879.879,0,0,0,0,1.758h.821a1.486,1.486,0,0,0,1.484-1.484V39.841A4.487,4.487,0,0,0,20,35.409a7.377,7.377,0,0,1,.073-4.284L24.019,29.8l4.96,4.955a1.584,1.584,0,0,0,2.236,0l4.911-4.906L40.441,31.3a7,7,0,0,1,.044,4.9,4.034,4.034,0,1,0,1.806.133,8.672,8.672,0,0,0,.178-4.356l1.413.475a4.973,4.973,0,0,1,3.394,4.717ZM34.437,29.051,30.1,33.386l-4.434-4.429a2.826,2.826,0,0,0,.868-2.037V25.713a10.934,10.934,0,0,0,3.43.562H30a11.123,11.123,0,0,0,3.468-.55v1.194a2.827,2.827,0,0,0,.968,2.132ZM41.1,37.914h0a2.273,2.273,0,1,1-2.277,2.273A2.277,2.277,0,0,1,41.1,37.914Zm-.3-20.2H54.727V45.8H49.034V37.172a6.729,6.729,0,0,0-4.591-6.383l-8.484-2.852a1.073,1.073,0,0,1-.732-1.017V24.974a11.127,11.127,0,0,0,2.605-1.934A11,11,0,0,0,40.8,17.716ZM20.668,5.312a3.558,3.558,0,0,1,3.554-3.554H35.778a3.558,3.558,0,0,1,3.554,3.554V10.58a8.388,8.388,0,0,1-3.123-1,8.339,8.339,0,0,1-2.557-2.193,1.417,1.417,0,0,0-1.894-.314,21.363,21.363,0,0,1-3.82,2.009,21.467,21.467,0,0,1-7.27,1.533Zm0,7.067a23.22,23.22,0,0,0,7.926-1.662,23.122,23.122,0,0,0,3.868-2,10.077,10.077,0,0,0,2.895,2.405,10.168,10.168,0,0,0,3.976,1.226V15.2a9.346,9.346,0,0,1-5.3,8.413.858.858,0,0,0-.112.053,9.3,9.3,0,0,1-3.949.855h0a9.4,9.4,0,0,1-9.3-9.432c0-.011,0-2.7,0-2.706Zm6.786,38.694h5.093v3.654H27.454Zm7.961,5.412a2.289,2.289,0,0,1,2.224,1.758H22.362a2.289,2.289,0,0,1,2.224-1.758Z" fill=""/>
</svg>
