<svg id="Group_11639" data-name="Group 11639" xmlns="http://www.w3.org/2000/svg" width="90.572" height="90.572" viewBox="0 0 90.572 90.572">
  <path id="Path_6123" data-name="Path 6123" d="M164.249,100.911c-2.236,0-4.474-.033-6.708.02-.691.016-.855-.2-.8-.834.066-.7-.22-1.634.135-2.044.42-.485,1.381-.149,2.1-.153,3.972-.017,7.945.02,11.916-.032.821-.011.958.244.941.983-.047,2.059-.015,2.06-2.031,2.06Z" transform="translate(-137.119 -17.916)" fill="#653f8c"/>
  <path id="Path_6124" data-name="Path 6124" d="M132.744,73.551c.733-.02,1.471-.093,2.2-.043.661.046.832-.149.829-.821-.029-6.012-.012-12.023-.02-18.035a10.859,10.859,0,0,1,.609-3.815,10.657,10.657,0,0,1,7.068-6.632c3.232-1.071,6.458-2.159,9.7-3.2.576-.186.809-.446.742-1.058-.1-.866.36-2.032-.185-2.526-.477-.432-1.621-.119-2.47-.148a19.806,19.806,0,0,1-3.435-.14,7.34,7.34,0,0,1-6-8.667,97.64,97.64,0,0,1,2.637-11.512,16.394,16.394,0,0,1,31.647,1.863q.935,4.58,1.9,9.155a7.544,7.544,0,0,1-7.407,9.3q-1.988.036-3.978-.006c-.481-.011-.675.1-.647.622.049.911-.267,1.987.119,2.692s1.59.693,2.437.983c2.78.949,5.567,1.87,8.349,2.81a10.3,10.3,0,0,1,7.179,9.873c.029,2.887,0,5.774,0,8.822l7.4-3.39c.016-.366-.283-.462-.457-.633a12.716,12.716,0,0,1-3.911-9.171c-.053-3.653-.036-7.309-.008-10.962a7.414,7.414,0,0,1,7.628-7.661c5.775-.041,11.549,0,17.323-.026.619,0,.7.215.7.751-.016,5.923,0,11.847-.013,17.77a12.816,12.816,0,0,1-4.381,9.766c.086.318.4.315.617.416,2.744,1.269,5.516,2.482,8.24,3.795a10.082,10.082,0,0,1,6.077,9.484c.1,6.128.027,12.258.028,18.388H176.418a2.02,2.02,0,0,1-.283-1.438c-.007-3.979,0-7.956,0-11.935,0-1.352-.02-1.372-1.388-1.372q-18.691,0-37.384,0c-1.291,0-1.317.029-1.319,1.35q0,4.332,0,8.664c0,1.407.029,1.436,1.429,1.436q16.7,0,33.407,0a5.034,5.034,0,0,1,.618,0c.7.085,1.66-.331,2.01.475a3.229,3.229,0,0,1-.091,2.815q-19.98,0-39.96.016c-.605,0-.728-.118-.724-.724.029-5.777.017-11.554.017-17.332m86.422,15.026c.386,0,.8.15.791-.561-.035-5.067.054-10.137-.061-15.2A6.848,6.848,0,0,0,215.77,66.5c-3.444-1.641-6.948-3.156-10.421-4.735a1.041,1.041,0,0,0-.912-.037,11.9,11.9,0,0,1-9.273.049,1.334,1.334,0,0,0-1.152.046c-3.152,1.438-6.3,2.873-9.471,4.276a7.725,7.725,0,0,0-5.021,7.663q.033,6.984-.011,13.966c0,.69.172.869.864.866,6.451-.028,12.9-.016,19.354-.016q9.721,0,19.441,0m-9.485-45.765c0-2.622,0-5.245,0-7.866,0-.4.045-.708-.561-.7-4.919.029-9.837-.006-14.756.037a4.268,4.268,0,0,0-4.206,3.688,2.441,2.441,0,0,0-.074.435c.023,4.24-.278,8.493.13,12.718a9.655,9.655,0,0,0,10.333,8.45,9.753,9.753,0,0,0,9.1-9.332c.058-2.474.01-4.95.01-7.425h.016m-55.27,9.5c-.5.39-.8.439-1.287-.068-1.817-1.89-3.706-3.71-5.535-5.588a.968.968,0,0,0-1.222-.268c-.79.313-1.61.553-2.419.819a7.3,7.3,0,0,0-5.169,7.039c-.031,6.187,0,12.374-.022,18.561,0,.535.128.708.683.7,2.032-.033,4.066-.045,6.1,0,.688.017.817-.2.814-.846-.027-5.067-.015-10.135-.015-15.2,0-2.106,0-2.067,2.07-2.124.773-.021.971.169.965.957-.04,5.45-.007,10.9-.038,16.352,0,.707.193.875.877.863,2.444-.042,4.889-.046,7.333,0,.711.014.863-.2.86-.878-.025-7.483-.016-14.967-.016-22.451v-.845c-1.438,1.069-2.727,1.995-3.977,2.974m6.993-2.628c0,7.72,0,15.44-.017,23.16,0,.592.222.664.72.66,2.475-.02,4.95-.038,7.423.009.72.014.948-.152.937-.9-.044-3-.018-6.011-.018-9.017,0-2.227,0-2.2,2.263-2.214.64,0,.776.2.771.8-.028,3.035-.013,6.07-.013,9.1,0,2.24,0,2.214,2.254,2.228.623,0,.782-.192.808-.787a10.04,10.04,0,0,1,4.041-7.8,1.053,1.053,0,0,0,.457-.95c-.016-3.182,0-6.364-.012-9.547a7.513,7.513,0,0,0-4.8-7.065c-.926-.369-1.89-.64-2.824-.991a.925.925,0,0,0-1.143.261c-1.849,1.9-3.748,3.751-5.6,5.646-.394.4-.642.5-1.138.109-1.286-1.021-2.633-1.964-4.039-3a2.146,2.146,0,0,0-.063.3M164.743,21.2a10,10,0,0,1-5.7-1.192,6.988,6.988,0,0,0-5.868-.575.849.849,0,0,0-.67.955c.038,1.973,0,3.947.018,5.92.022,3.185-.337,2.443,2.18,4.159a5.359,5.359,0,0,1,2.463,4.619c.016,1.5.024,3-.008,4.506-.011.52.1.722.672.707,1.559-.042,3.122-.048,4.681,0,.628.02.715-.221.706-.758-.029-1.649-.017-3.3-.009-4.948a4.793,4.793,0,0,1,2.245-4.163c.439-.3.884-.583,1.319-.884a1.655,1.655,0,0,0,.807-1.389c.008-2.531,0-5.062,0-7.688a10.47,10.47,0,0,1-2.842.729m-14.838-3.81a9.759,9.759,0,0,1,10.382-.169,6.648,6.648,0,0,0,6.034.31c1.495-.612,2.974-1.264,4.485-1.832.68-.255.639-.5.291-1.04a13.3,13.3,0,0,0-14.741-5.594c-5.037,1.456-8.2,4.809-9.653,10.118,1.211-.677,2.218-1.215,3.2-1.793m18.651,16.859c.707,0,1.415.028,2.119,0a4.362,4.362,0,0,0,4.287-5.107q-.961-4.75-1.976-9.49c-.337-1.59-.34-1.553-1.888-.976a1.059,1.059,0,0,0-.805,1.209c.045,2.619.009,5.24.022,7.86a4.794,4.794,0,0,1-1.406,3.589,12.119,12.119,0,0,1-1.923,1.4,2.353,2.353,0,0,0-.9.947c-.177.382-.172.6.347.587.706-.023,1.412-.006,2.119-.006Zm-21.95-11.385a1.349,1.349,0,0,0-.742.994c-.337,1.638-.716,3.27-1.047,4.91a4.508,4.508,0,0,0,4.45,5.482q1.808.026,3.618-.006c.263,0,.658.19.767-.186a.846.846,0,0,0-.353-.857,11.093,11.093,0,0,0-1.224-.858,5.2,5.2,0,0,1-2.742-5.13c.091-1.927.019-3.862.019-5.943-.992.58-1.855,1.113-2.746,1.594m6.984,25.61c.353.366.578.323.938.031a23.419,23.419,0,0,1,2.606-1.959,2.4,2.4,0,0,0,1.284-2.6c-.06-.546-.189-.624-.7-.671-2.676-.239-4.919,1.179-7.535,1.8,1.245,1.233,2.348,2.292,3.408,3.393m10.749-5.089a11.048,11.048,0,0,0-2.637-.081.35.35,0,0,0-.232.085,3.884,3.884,0,0,0,.253,2.4c1.213.933,2.442,1.843,3.646,2.789.329.258.524.219.8-.067,1.091-1.112,2.208-2.2,3.406-3.39-1.843-.623-3.515-1.277-5.241-1.735m2.368,11.971c-.729.01-1.7-.238-2.122.133-.5.435-.085,1.436-.177,2.182-.076.617.2.719.743.711,2-.029,3.992-.011,5.989-.011,2.456,0,2.442,0,2.344-2.441-.019-.468-.16-.6-.612-.586-1.291.026-2.583.009-3.875.009-.764,0-1.527-.008-2.29,0" transform="translate(-132.727 -1.036)" fill="#653f8c"/>
  <path id="Path_6125" data-name="Path 6125" d="M211.1,27.179c-6.127,0-12.254-.015-18.381.019-.748,0-.837-.225-.925-.92a4.485,4.485,0,0,1,1.936-4.628c2.235-1.567,2.887-3.693,2.7-6.4-.234-3.431-.063-6.891-.056-10.338C196.39,1.768,198.169,0,201.321,0q13.919,0,27.838,0c3.131,0,4.926,1.8,4.928,4.929q0,8.619,0,17.237c0,3.234-1.782,5.007-5.041,5.009q-8.97.007-17.94,0m-15.067-3.025q16.564,0,33.13,0c1.443,0,1.906-.475,1.906-1.91q0-8.617,0-17.232c0-1.552-.444-2-1.995-2q-13.87,0-27.741,0c-1.509,0-1.937.429-1.938,1.942,0,4.3-.026,8.6.011,12.9a5.137,5.137,0,0,1-1.663,4.018c-.728.68-1.42,1.4-2.309,2.277ZM225.859,9.041c.7,0,1.639.235,2.045-.121.479-.421.065-1.389.167-2.107s-.215-.8-.837-.8q-12.018.031-24.036,0c-.585,0-.871.088-.795.75a7.175,7.175,0,0,1,0,1.589c-.07.624.209.7.745.7,4.006-.02,8.013-.011,12.018-.011q5.347,0,10.693,0m0,6.035c.7,0,1.64.237,2.048-.118.484-.421.069-1.389.168-2.108.1-.7-.212-.805-.838-.8q-12.015.031-24.03,0c-.586,0-.872.093-.8.753a7.269,7.269,0,0,1,0,1.588c-.069.626.21.7.747.7,4-.02,8.009-.011,12.014-.011q5.345,0,10.69,0m-5.914,6.049c2.1,0,2.046,0,2.116-2.1.028-.844-.273-.943-1-.939-5.45.028-10.9.011-16.35.02-.73,0-1.687-.317-2.132.123-.485.48-.079,1.454-.171,2.2-.076.62.2.711.742.707,3-.024,6.01-.011,9.015-.011h7.777" transform="translate(-143.539 0)" fill="#653f8c"/>
</svg>
