<svg id="Group_11624" data-name="Group 11624" xmlns="http://www.w3.org/2000/svg" width="58.251" height="58.264" viewBox="0 0 58.251 58.264">
  <path id="Path_6113" data-name="Path 6113" d="M115.738,40.073c-1.694-1.96-2.355-5.077-4.71-5.926-4.742.022,3.282,10.41,3.769,10.515,2.088-.228,4.262-2.831,5.6-3.995l4.953-4.925c1.923-1.751,6.029-4.957,7.549-7.115.919-1.31.408-1.907-.586-2.85-2.2.271-7.26,5.429-8.557,6.956a69.288,69.288,0,0,1-8.014,7.339m1.28-25.973c-10.147,2.175-19.389,12.329-16.862,25.206A21.649,21.649,0,0,0,125.8,56.451c10.143-2.009,19.326-12.389,16.852-25.185-2.048-10.59-12.476-19.988-25.637-17.166m-7.136-5.879L106.818,12.5c-1.973,1.668-3.9.56-5.683,1.853-1.556,1.132-1,3.693-1.99,5.542-.9,1.688-3.239,2.049-4.351,3.689-1.345,1.984.261,3.632.17,5.829-.107,2.587-1.957,2.9-2.542,4.981-.695,2.461,1.277,3.445,2.062,5,1.393,2.757-.5,3.865-.195,6.391s2.066,2.1,3.847,3.6c2.094,1.76.969,3.059,1.986,5.531.973,2.359,3.139,1.655,5.246,2.3,2.431.747,2.311,2.692,3.786,4.223,2.044,2.12,3.7.3,6.135.28,2.892-.028,3.346,2.068,5.292,2.54,2.7.654,3.322-1.5,5.235-2.238,3.157-1.214,4.434,1.254,7.028.074,1.77-.806,1.644-2.955,3.337-4.238,1.936-1.466,3.886-.339,5.67-1.864,1.481-1.264.828-3.748,1.934-5.563.965-1.581,3.354-1.966,4.354-3.7,1.208-2.092-.523-3.565-.269-5.939.246-2.287,2.233-3.061,2.59-4.936.461-2.414-1.625-3.376-2.3-4.958-1.106-2.581.86-4.164.283-6.428-.524-2.055-2.492-2.17-3.976-3.524-2.059-1.881-.817-3.426-1.944-5.6-1.11-2.138-3.061-1.269-5.346-2.172-2.261-.891-2.138-2.907-3.771-4.262-1.942-1.61-3.95.054-6.35-.126-2.479-.185-2.852-2.068-5.025-2.583-2.24-.53-3.307,1.423-4.788,2.155-2.312,1.145-4.232-.387-7.36-.146m7.86,7.886c-9.5,1.9-17.992,11-15.526,23.069,1.927,9.433,11.44,17.675,23.045,15.289A19.507,19.507,0,0,0,140.6,31.394c-1.853-9.328-11.182-17.623-22.856-15.287" transform="translate(-92.276 -6.122)" fill="#fff" fill-rule="evenodd"/>
</svg>
