<?xml version="1.0" encoding="utf-8"?>
<!-- Generator: Adobe Illustrator 26.2.0, SVG Export Plug-In . SVG Version: 6.00 Build 0)  -->
<svg version="1.1" id="Layer_1" xmlns="http://www.w3.org/2000/svg" xmlns:xlink="http://www.w3.org/1999/xlink" x="0px" y="0px"
	 viewBox="0 0 100 100" style="enable-background:new 0 0 100 100;" xml:space="preserve">
<style type="text/css">
	.st0{fill:#FFFFFF;}
</style>
<g id="Group_11383" transform="translate(74.547 -3349.24)">
	<path id="Path_6001" class="st0" d="M-4.9,3358.8c1.1,0.2,2.3,0.5,3.4,0.9c7.3,2.7,11.1,10.8,8.4,18.2c-2.7,7.3-10.8,11.1-18.2,8.4
		s-11.1-10.8-8.4-18.2c1.7-4.6,5.6-7.9,10.4-8.9c0.5-0.1,0.9-0.2,1.4-0.3L-4.9,3358.8z M-2.8,3377.2c0.5-0.6,1-1.1,1.5-1.6
		c1.6-1.6,2.4-3.9,2-6.2c-0.6-3.9-4.3-6.5-8.2-5.9s-6.5,4.3-5.9,8.2c0.2,1.5,1,2.9,2.1,4c0.5,0.4,0.9,0.9,1.4,1.4l-2.3,2.2l3.3,3.5
		l2.6-2.4l2.6,2.4l3.3-3.5c-0.4-0.4-0.7-0.7-1.1-1.1C-2,3377.9-2.4,3377.5-2.8,3377.2L-2.8,3377.2z"/>
	<path id="Path_6002" class="st0" d="M-25.4,3388.5c0,2.4,0.1,4.8,0,7.1c-0.1,1.7-1.6,2.9-3.2,2.8c-4.6,0-9.2,0-13.8,0h-1.1
		c0,1.4,0,2.8,0,4.1c0,0.2,0.4,0.4,0.6,0.5c2.1,0.7,4.1,1.7,5.9,3.1c3.9,3.1,6.2,7.9,6.1,12.9c0,1.4,0,2.8,0,4.2h4.7
		c0.7-7.6-0.9-14.5-6.9-20c3.6-0.2,7.3,0.7,10.1-2.3c3.1,3,8,3,11.1,0c2.3,2.2,5.6,2.8,8.6,1.6c0,0.3,0.1,0.5,0.1,0.7
		c0,2.7,0,5.4,0,8.1c0.1,3.6-1.5,7.1-4.2,9.5c-4,3.5-6.1,8.6-5.8,13.9c0.1,1.9,0.2,3.9,0.2,5.9h-30.9c0-1,0-2,0-2.9
		c0.1-2.9,0.3-5.7-0.5-8.5c-0.8-3.1-2.5-5.9-4.9-8c-3-2.6-4.7-6.4-4.5-10.4c0.1-5.1,0-10.2,0-15.3c-0.2-3.7,2.7-6.9,6.5-7.1
		c0.2,0,0.3,0,0.5,0c6.9,0,13.9,0,20.8,0C-25.8,3388.4-25.6,3388.4-25.4,3388.5z"/>
	<path id="Path_6003" class="st0" d="M-25.4,3383.6h-6.2c0-0.3,0-0.5,0-0.7c0-3.1,0-6.3,0-9.4c-0.1-1.7,1.1-3.2,2.9-3.4
		c1.7-0.1,3.2,1.1,3.4,2.9c0,0.2,0,0.3,0,0.5c0,3.2,0,6.3,0,9.5L-25.4,3383.6z"/>
	<path id="Path_6004" class="st0" d="M-20.6,3385.6c1.7,1.8,3.7,3.3,5.9,4.4c0.2,0.1,0.3,0.4,0.3,0.6c0,1.6,0,3.1,0,4.7
		c0,1.6-1.3,2.9-2.9,3c-1.7,0.1-3.1-1.1-3.3-2.8c0,0,0-0.1,0-0.1C-20.6,3392.3-20.6,3389-20.6,3385.6z"/>
	<path id="Path_6005" class="st0" d="M-42.7,3383.6c0-2.1-0.1-4.1,0-6.1c0.1-1.7,1.6-3,3.3-2.9c1.5,0.1,2.7,1.3,2.9,2.8
		c0.1,2,0,4,0,6.1H-42.7z"/>
	<path id="Path_6006" class="st0" d="M-9.5,3391.8h6.3c0,1.5-0.1,2.9-0.2,4.4c-0.3,1.4-1.7,2.4-3.2,2.2c-1.4-0.1-2.6-1.2-2.8-2.6
		C-9.6,3394.4-9.5,3393.1-9.5,3391.8z"/>
	<path id="Path_6007" class="st0" d="M-6.4,3373.8c-0.6-0.6-1.2-1.1-1.7-1.6c-0.9-0.9-0.9-2.4,0-3.3c0.9-0.9,2.4-0.9,3.3,0
		c0.9,0.9,0.9,2.3,0,3.2C-5.2,3372.7-5.8,3373.2-6.4,3373.8z"/>
</g>
</svg>
