<svg id="Group_11701" data-name="Group 11701" xmlns="http://www.w3.org/2000/svg" xmlns:xlink="http://www.w3.org/1999/xlink" width="73.952" height="74" viewBox="0 0 73.952 74">
  <defs>
    <clipPath id="clip-path">
      <rect id="Rectangle_7125" data-name="Rectangle 7125" width="73.952" height="74" fill="none"/>
    </clipPath>
  </defs>
  <g id="Group_11700" data-name="Group 11700" clip-path="url(#clip-path)">
    <path id="Path_6214" data-name="Path 6214" d="M0,61.7a23.789,23.789,0,0,1,.682-2.566A10.637,10.637,0,0,1,8.056,52.4c.182-.052.363-.109.615-.185,0-1.725-.013-3.454,0-5.182a12.179,12.179,0,0,1,2.675-7.616A12.4,12.4,0,0,1,33.4,45.536a15.7,15.7,0,0,1,.116,1.943c.01,4.839-.019,9.679.014,14.518a7.671,7.671,0,1,0,14.693-3.185c-1.848-4.228-3.615-8.492-5.438-12.731a2.063,2.063,0,0,0-.757-.889,17.232,17.232,0,0,1-7.775-10.118q-2.917-10.039-5.75-20.1A9.368,9.368,0,0,1,37.7,2.89c.331,0,.662,0,1.055,0A2.509,2.509,0,0,1,40.459,0h1.011a2.344,2.344,0,0,1,1.61,2.164c0,1.926.017,3.852,0,5.777a2.132,2.132,0,0,1-2.069,2.17A2.2,2.2,0,0,1,38.762,8.1c-.031-.276-.035-.556-.054-.876-.345,0-.631,0-.917,0a5.056,5.056,0,0,0-5.084,6.689c1.883,6.635,3.766,13.269,5.7,19.89a13.14,13.14,0,0,0,25.258.067c1.96-6.688,3.858-13.393,5.741-20.1a5.1,5.1,0,0,0-6.05-6.452,8.043,8.043,0,0,1-.123,1.2,2.154,2.154,0,0,1-2.288,1.593,2.192,2.192,0,0,1-1.96-2.222c-.026-1.709.033-3.419-.021-5.127A2.528,2.528,0,0,1,60.689,0H61.7a2.48,2.48,0,0,1,1.6,2.89h1.058a9.354,9.354,0,0,1,9.2,12.12q-2.8,10-5.7,19.971a17.309,17.309,0,0,1-7.848,10.237,2.059,2.059,0,0,0-.742.906c-1.735,4.042-3.413,8.109-5.174,12.14a10.8,10.8,0,0,0-.943,4.228A11.99,11.99,0,0,1,29.19,61.86c-.011-5.008.041-10.017-.025-15.024a8.055,8.055,0,0,0-7.256-7.786A7.87,7.87,0,0,0,13.333,45.1a51.145,51.145,0,0,0-.45,7.074c.4.118.631.186.858.25A10.836,10.836,0,1,1,.314,65.472C.207,65.034.1,64.6,0,64.157V61.7m17.337,1.17a6.5,6.5,0,1,0-6.551,6.485,6.516,6.516,0,0,0,6.551-6.485M48.155,47.587,51.045,54.4l2.884-6.817Z" fill="#fff"/>
    <path id="Path_6215" data-name="Path 6215" d="M105.66,724.169a2.165,2.165,0,1,1-2.183,2.128,2.187,2.187,0,0,1,2.183-2.128" transform="translate(-94.804 -663.479)" fill="#fff"/>
  </g>
</svg>
