<svg xmlns="http://www.w3.org/2000/svg" width="476.314" height="358.123" viewBox="0 0 476.314 358.123">
  <g id="Group_11446" data-name="Group 11446" transform="translate(-1022 -1070)">
    <path id="Path_5648" data-name="Path 5648" d="M1049.656,411.1s59.314-42.239,76.389-114.133-8.987-159.069-58.415-203.1-138.4-14.379-177.94,22.468L850.147,153.18s-37.745,20.669-87.173,18.872-93.464,65.6-105.147,118.627S674,413.8,674,413.8Z" transform="translate(367.035 998.146)" fill="#fff"/>
    <path id="Path_5649" data-name="Path 5649" d="M1077.009,421.684s41.34-22.467,52.124-74.591-35.948-99.756-40.442-125.818,5.393-58.415-35.947-83.578-115.032-16.177-142.891-22.468S849.64,65.8,793.921,75.688,684.28,115.231,681.585,179.936s17.973,66.5-2.7,101.553S650.13,340.8,660.017,376.75s30.554,45.833,30.554,45.833Z" transform="translate(366.644 998.35)" fill="#f9f9f9"/>
    <path id="Path_5650" data-name="Path 5650" d="M1026.656,399.353c2.572-2.7,40.288-78.186-1.715-147.385S877.5,190.858,835.5,217.818s-62.575,62.009-66.861,98.857,24,94.362,24,94.362Z" transform="translate(330.678 1008.998)" fill="#f2e5ff"/>
    <g id="Group_11163" data-name="Group 11163" transform="translate(1056.167 1246.213)">
      <rect id="Rectangle_6858" data-name="Rectangle 6858" width="59.314" height="35.049" rx="5" transform="translate(0)" fill="#d8c1f1"/>
      <path id="Path_5651" data-name="Path 5651" d="M1035.427,280.461l-7.679-18.2h15.358Z" transform="translate(-1005.771 -231.707)" fill="#d8c1f1"/>
    </g>
    <g id="Group_11164" data-name="Group 11164" transform="translate(1065.336 1251.908)">
      <path id="Path_5652" data-name="Path 5652" d="M1055.321,245.18h-13.87v2.029l-6.8-3.921,6.8-3.92V241.4h13.87Z" transform="translate(-1034.651 -239.368)" fill="#5e3e7e"/>
    </g>
    <g id="Group_11165" data-name="Group 11165" transform="translate(1065.336 1263.665)">
      <path id="Path_5653" data-name="Path 5653" d="M1034.651,252.225h13.87V250.2l6.8,3.921-6.8,3.92v-2.029h-13.87Z" transform="translate(-1034.651 -250.196)" fill="#fff"/>
    </g>
    <g id="Group_11166" data-name="Group 11166" transform="translate(1088.504 1250.355)">
      <path id="Path_5654" data-name="Path 5654" d="M1020.633,256.74l.66.24a20.948,20.948,0,0,0,3.126-4.908,17.613,17.613,0,0,0,1.105-5.685l-.482-.2,2.933-7.019a5.765,5.765,0,0,1,1.424,1.615c1.66,2.8,1.5,7.109-.174,11.314s-3.455,7.957-6.712,10.315a6.436,6.436,0,0,1-4.849,1.433Z" transform="translate(-1014.616 -237.834)" fill="#5e3e7e"/>
      <path id="Path_5655" data-name="Path 5655" d="M1031.821,254.6l.912.331-3,7.187a5.375,5.375,0,0,1-.908-.392,1.749,1.749,0,0,1-.79-2.178l1.569-3.952A1.745,1.745,0,0,1,1031.821,254.6Z" transform="translate(-1027.91 -236.517)" fill="#5e3e7e"/>
      <path id="Path_5656" data-name="Path 5656" d="M1024.98,238.041a6.932,6.932,0,0,1,1.175.553l-2.995,7.168-1.009-.421a1.745,1.745,0,0,1-.953-2.245l1.574-4.042A1.742,1.742,0,0,1,1024.98,238.041Z" transform="translate(-1013.913 -237.939)" fill="#5e3e7e"/>
    </g>
    <g id="Group_11167" data-name="Group 11167" transform="translate(1301.022 1283.431)">
      <path id="Path_5657" data-name="Path 5657" d="M842.2,381.186V300.3s.9-21.793-10.559-28.084-59.762-2.92-59.762-2.92V381.186Z" transform="translate(-771.874 -268.397)" fill="#8563a8"/>
    </g>
    <g id="Group_11168" data-name="Group 11168" transform="translate(1259.87 1208.618)">
      <path id="Path_5658" data-name="Path 5658" d="M866.675,199.5s2.921,24.489,4.044,26.511l1.124,2.022,5.616,3.82s-10.784,15.277-24.04,17.748-12.132-5.392-12.132-5.392l2.022-4.269-2.7-23.366S864.653,205.57,866.675,199.5Z" transform="translate(-840.613 -199.504)" fill="#ff9d8c"/>
    </g>
    <path id="Path_5659" data-name="Path 5659" d="M899.579,231.461l-8.762-3.82s-5.616,9.212-18.647,14.6-13.256,2.247-13.93,0a8.541,8.541,0,0,1,.225-4.718l-.964-7.866-5.211,1.736L834.2,377.723l46.508,2.247Z" transform="translate(404.102 1011.532)" fill="#fff"/>
    <g id="Group_11169" data-name="Group 11169" transform="translate(1183.93 1241.345)">
      <path id="Path_5660" data-name="Path 5660" d="M950.554,229.641s-3.146,7.265-6.066,24.34-5.617,45.833-6.292,65.6-1.123,64.93-1.123,64.93h-58.64c-.674,0-4.718-22.243-4.718-22.243s25.612-21.943,26.961-25.538c.9-2.4.45-46.806,4.269-67.252s8.762-24.565,19.1-29.656C934.724,234.563,950.554,229.641,950.554,229.641Z" transform="translate(-873.716 -229.641)" fill="#653f8c"/>
    </g>
    <g id="Group_11170" data-name="Group 11170" transform="translate(1229.67 1276.375)">
      <path id="Path_5661" data-name="Path 5661" d="M900.863,356a.542.542,0,0,0,.543-.543c0-1.606.286-24.429.561-46.5s.561-44.9.561-46.514a.543.543,0,1,0-1.086,0c0,1.606-.284,24.429-.56,46.5s-.562,44.9-.562,46.514A.542.542,0,0,0,900.863,356Z" transform="translate(-900.32 -261.9)" fill="#41176b"/>
    </g>
    <g id="Group_11171" data-name="Group 11171" transform="translate(1277.137 1364.985)">
      <path id="Path_5662" data-name="Path 5662" d="M863.76,343.5l.45,31.229h-68.3s-2.92-26.512-1.8-28.983S863.76,343.5,863.76,343.5Z" transform="translate(-793.854 -343.499)" fill="#7a599b"/>
    </g>
    <g id="Group_11172" data-name="Group 11172" transform="translate(1259.87 1211.267)" style="mix-blend-mode: multiply;isolation: isolate">
      <path id="Path_5663" data-name="Path 5663" d="M863.432,225.132a35.708,35.708,0,0,1-9.555,5.132l-1.6-13.894s18.058-8.273,24.184-14.426C875.177,208.935,872.028,218.2,863.432,225.132Z" transform="translate(-852.273 -201.943)" fill="#8e9bbb"/>
    </g>
    <g id="Group_11173" data-name="Group 11173" transform="translate(1232.853 1157.978)">
      <path id="Path_5664" data-name="Path 5664" d="M852.835,157.9a48.619,48.619,0,0,0-5.617,17.973c-.9,9.886,0,35.274,8.089,46.058s24.938,7.639,32.578,1.124c7.011-5.98,13.929-12.583,15.727-25.614s-3.82-37.744-19.771-42.912S852.835,157.9,852.835,157.9Z" transform="translate(-846.937 -152.87)" fill="#ff9d8c"/>
    </g>
    <g id="Group_11174" data-name="Group 11174" transform="translate(1218.481 1363.156)">
      <path id="Path_5665" data-name="Path 5665" d="M858.209,360.753s.793,0,2-.033c.282-.011.6,0,.923-.011,1.162-.033,2.574-.065,4-.109l.956-.033c1.412-.033,2.617.141,3.746.076h.033c.239-.011.586.022.869.033a2.114,2.114,0,0,0,.358.011,5.279,5.279,0,0,0,1.488-.586,101.013,101.013,0,0,1,23.3-3.106c10.034.043,19.036.728,20.5-.5,1.477-1.249,2.367-13.856-6.2-14.682l-10.533,4s-24.053-2.856-32.871,3.649C857.937,355.965,858.209,360.753,858.209,360.753Z" transform="translate(-858.208 -341.815)" fill="#ff9d8c"/>
    </g>
    <g id="Group_11176" data-name="Group 11176" transform="translate(1230.134 1374.843)">
      <g id="Group_11175" data-name="Group 11175" transform="translate(0)">
        <path id="Path_5666" data-name="Path 5666" d="M889.256,359.72c.239-.011.586.022.869.033a10.191,10.191,0,0,1,.923-1.238c2.715-2.769,9.274-4.561,11.652-5.136a.408.408,0,0,0,.3-.489.417.417,0,0,0-.5-.3c-3.464.836-10.816,2.975-12.9,6.483C889.539,359.166,889.365,359.5,889.256,359.72Z" transform="translate(-889.256 -352.577)" fill="#ba7b36"/>
      </g>
    </g>
    <g id="Group_11178" data-name="Group 11178" transform="translate(1225.397 1372.109)">
      <g id="Group_11177" data-name="Group 11177" transform="translate(0)">
        <path id="Path_5667" data-name="Path 5667" d="M892.111,359.892c.315-.008.641-.015.956-.034,2.963-5.406,7.814-6.957,13.806-8.885l.355-.117a.417.417,0,0,0,.26-.517.412.412,0,0,0-.517-.26l-.344.117C900.288,352.231,895.19,353.865,892.111,359.892Z" transform="translate(-892.111 -350.06)" fill="#ba7b36"/>
      </g>
    </g>
    <g id="Group_11180" data-name="Group 11180" transform="translate(1220.479 1369.664)">
      <g id="Group_11179" data-name="Group 11179" transform="translate(0)">
        <path id="Path_5668" data-name="Path 5668" d="M895.268,360.206c.282-.007.6,0,.923-.012,1.8-3.78,7.749-10.106,15.621-11.58a.407.407,0,0,0,.336-.475.42.42,0,0,0-.475-.326C903.564,349.337,897.023,355.959,895.268,360.206Z" transform="translate(-895.268 -347.808)" fill="#ba7b36"/>
      </g>
    </g>
    <g id="Group_11181" data-name="Group 11181" transform="translate(1219.003 1141.59)">
      <path id="Path_5669" data-name="Path 5669" d="M902.414,187.619s-4.943-2.359-8.426-8.987a25.565,25.565,0,0,1-3.033-12.581s-6.291-1.011-15.726,1.8-20.67,6.627-30.107,1.236-9.435-14.042-4.83-17.637c5.158-4.025,15.391-1.572,15.391-1.572s-3.932-3.819-1.8-6.066,9.886.674,9.886.674,9.436-7.526,27.3-6.628,26.4,13.369,27.41,27.3-4.044,27.859-4.044,27.859Z" transform="translate(-837.283 -137.779)" fill="#0a1223"/>
    </g>
    <g id="Group_11183" data-name="Group 11183" transform="translate(1243.22 1194.533)" style="mix-blend-mode: multiply;isolation: isolate">
      <g id="Group_11182" data-name="Group 11182" transform="translate(0)">
        <path id="Path_5670" data-name="Path 5670" d="M885.992,186.807c1.012,2.5.987,5.393,1.242,8.041.2,2.06.577,4.462-1.311,5.853-.9.665-5.166,2.456-2.973,3.908.836.554,2.238.4,3.189.358.656-.03,1.318-.059,1.973-.107.7-.052,1.4-.265,2.1-.268a.411.411,0,0,1,.206.759,8.874,8.874,0,0,1-4.121.981,6.226,6.226,0,0,1-3.41-.6,2.441,2.441,0,0,1-1.558-1.748,2.791,2.791,0,0,1,1.342-2.405c.849-.63,1.892-.923,2.75-1.537,1.189-.852,1.091-2.287,1.008-3.614-.2-3.195-.935-6.334-1.221-9.514-.045-.486.629-.486.783-.106Z" transform="translate(-881.315 -186.534)" fill="#8e9bbb"/>
      </g>
    </g>
    <g id="Group_11184" data-name="Group 11184" transform="translate(1238.64 1198.383)">
      <path id="Path_5671" data-name="Path 5671" d="M889.481,193.973c.336,1.894,1.714,3.233,3.077,2.992s2.2-1.972,1.863-3.866-1.712-3.234-3.078-2.993S889.147,192.079,889.481,193.973Z" transform="translate(-889.408 -190.078)" fill="#0a1223"/>
    </g>
    <g id="Group_11185" data-name="Group 11185" transform="translate(1255.848 1196.659)">
      <path id="Path_5672" data-name="Path 5672" d="M873.29,192.609c.3,2.044,1.744,3.522,3.216,3.3s2.418-2.053,2.114-4.1-1.744-3.522-3.215-3.3S872.986,190.566,873.29,192.609Z" transform="translate(-873.234 -188.491)" fill="#0a1223"/>
    </g>
    <g id="Group_11187" data-name="Group 11187" transform="translate(1235.601 1191.774)">
      <g id="Group_11186" data-name="Group 11186" transform="translate(0)">
        <path id="Path_5673" data-name="Path 5673" d="M896.746,186.689c-1.05.177-2.11,0-3.169.071-.255.018-.506.055-.76.079-.18.017.337-.053.086-.011-.054.009-.109.016-.163.026-.132.024-.265.051-.4.083-.226.055-.444.14-.67.19a2.572,2.572,0,0,1-.64.083l-.346-.047.218.039a2.094,2.094,0,0,1-.43-.046,1.168,1.168,0,0,1-.806-1.419,1.356,1.356,0,0,1,.229-.458c.044-.059.09-.117.138-.175l-.128.146c.046-.063.092-.125.14-.185a.672.672,0,0,1,.241-.24c.084-.065.166-.132.253-.193a3.089,3.089,0,0,1,.974-.391,7.936,7.936,0,0,1,1.931-.248,13.42,13.42,0,0,1,1.912.152,3.674,3.674,0,0,1,1.638.606,1.084,1.084,0,0,1,.506,1.057,1.042,1.042,0,0,1-.759.882Z" transform="translate(-889.631 -183.993)" fill="#0a1223"/>
      </g>
    </g>
    <g id="Group_11189" data-name="Group 11189" transform="translate(1254.193 1190.233)">
      <g id="Group_11188" data-name="Group 11188" transform="translate(0)">
        <path id="Path_5674" data-name="Path 5674" d="M870.973,183.805a4.534,4.534,0,0,1,.439-.227c.128-.059.476-.24.213-.1.1-.052.191-.105.289-.154a6.546,6.546,0,0,1,1.357-.485,9,9,0,0,1,3.155-.217,7.344,7.344,0,0,1,3.118.975,1.987,1.987,0,0,1,.392.278q.116.147.228.3l-.064-.1a1.108,1.108,0,0,1,.471.915.913.913,0,0,1-.486.808,1.376,1.376,0,0,1-1.091.01h.568a2.038,2.038,0,0,1-.846-.009c-.011,0-.3-.075-.111-.035s-.305-.037-.358-.045-.4-.042-.043-.008c-.065-.007-.131-.015-.2-.023-.169-.022-.339-.042-.509-.055-.742-.06-1.48-.092-2.224-.117-.688-.023-1.392-.028-2.081,0-.3.012-.59.023-.885.03-.166,0-.1.03.018-.005-.061.02-.124.03-.186.048-.123.034-.243.074-.362.119a1.036,1.036,0,0,1-1.231-.6,1.048,1.048,0,0,1,.427-1.3Z" transform="translate(-870.467 -182.574)" fill="#0a1223"/>
      </g>
    </g>
    <g id="Group_11190" data-name="Group 11190" transform="translate(1244.29 1217.689)">
      <path id="Path_5675" data-name="Path 5675" d="M881.148,212.865a10.157,10.157,0,0,0-5.076-4.57c1.883-.191,10.77-1.014,13.014.26,2.512,1.426-.465,7.154-5.661,7.442a7.1,7.1,0,0,1-1.515-.088A7.483,7.483,0,0,0,881.148,212.865Z" transform="translate(-876.073 -207.858)" fill="#0a1223"/>
    </g>
    <g id="Group_11191" data-name="Group 11191" transform="translate(1271.104 1209.741)">
      <path id="Path_5676" data-name="Path 5676" d="M865.728,201.436s-.9,3.483-6.066,7.528a59.911,59.911,0,0,1-12.656,7l-.6-2.621s7.751-3.37,11.346-7.077,4.044-5.729,4.044-5.729Z" transform="translate(-846.406 -200.538)" fill="#dee1eb"/>
    </g>
    <g id="Group_11192" data-name="Group 11192" transform="translate(1263.407 1220.601)">
      <path id="Path_5677" data-name="Path 5677" d="M868.554,210.547a6.5,6.5,0,0,0-6.77,5.222c-.29,2.127,1.709,4.512,6.383,2.417C873.974,215.583,872.713,210.74,868.554,210.547Z" transform="translate(-861.757 -210.538)" fill="#0a1223"/>
    </g>
    <g id="Group_11193" data-name="Group 11193" transform="translate(1246.164 1142.323)">
      <path id="Path_5678" data-name="Path 5678" d="M881.823,181.046s-1.8-12.912-10.448-21.681c-16.513-16.737-30.556-15.726-30.556-15.726s.113-2.36,5.393-4.157c4.957-1.688,7.19-.786,7.19-.786s13.592,1.123,25.051,13.817,12.693,28.87,12.693,28.87Z" transform="translate(-840.82 -138.455)" fill="#dee1eb"/>
    </g>
    <g id="Group_11196" data-name="Group 11196" transform="translate(1278.064 1183.09)">
      <g id="Group_11194" data-name="Group 11194" transform="translate(0)">
        <path id="Path_5679" data-name="Path 5679" d="M842.654,176.248c10.818-1.834,16.85,6.627,17.3,15.165s-5.754,15.028-14.042,14.38C827.265,204.332,829.4,178.495,842.654,176.248Z" transform="translate(-832.316 -175.995)" fill="#fff"/>
      </g>
      <g id="Group_11195" data-name="Group 11195" transform="translate(7.367 4.681)">
        <path id="Path_5680" data-name="Path 5680" d="M844.6,197.125a7.372,7.372,0,0,0,6.649-3.963,8.217,8.217,0,0,0-.316-8.49.407.407,0,1,0-.673.458,7.4,7.4,0,0,1,.274,7.642,6.547,6.547,0,0,1-6.142,3.535,7.123,7.123,0,0,1-5.9-3.184,9,9,0,0,1-.891-7.978,6.074,6.074,0,0,1,6.06-3.985.407.407,0,1,0,.106-.807,6.81,6.81,0,0,0-6.928,4.5,9.837,9.837,0,0,0,.976,8.721,7.922,7.922,0,0,0,6.552,3.546C844.443,197.124,844.519,197.125,844.6,197.125Z" transform="translate(-836.237 -180.306)" fill="#818fb3"/>
      </g>
    </g>
    <g id="Group_11197" data-name="Group 11197" transform="translate(1263.24 1239.847)">
      <path id="Path_5681" data-name="Path 5681" d="M817.993,228.262s32.8,8.088,44.261,21.119,16.85,77.288,17.075,89.2-8.089,16.85-13.031,20.221-26.736,9.437-44.261,10.335-34.15,0-34.15,0,.056-3.819-2.64-9.436c-2.5-5.21-5.673-6.291-5.673-6.291l15.053-5.393s2.635-47.231,6.74-70.1C806.084,251.628,817.993,228.262,817.993,228.262Z" transform="translate(-779.574 -228.262)" fill="#653f8c"/>
    </g>
    <g id="Group_11198" data-name="Group 11198" transform="translate(1237.522 1242.563)">
      <path id="Path_5682" data-name="Path 5682" d="M887.326,340.252a.522.522,0,0,0,.219-.047.542.542,0,0,0,.277-.716c-3.073-6.934-6.258-20.548-8.051-30.1l-.148-.771c-.543-2.809-1.218-6.3.129-8.716.687-1.23,2.24-3.9,3.733-6.466,1.55-2.664,3.012-5.18,3.418-5.931.792-1.467-1.7-5.385-5.307-10.759-.973-1.453-1.815-2.706-2.307-3.555-1.285-2.224-.429-4.261.561-6.621l.338-.812c.9-2.2,1.919-4.414,2.9-6.549.4-.873.808-1.747,1.205-2.626q.79-1.741,1.593-3.537a207.03,207.03,0,0,1,10.661-21.465.543.543,0,1,0-.933-.555A207.89,207.89,0,0,0,884.9,252.6q-.8,1.79-1.59,3.534-.6,1.313-1.2,2.618c-.993,2.146-2.018,4.367-2.926,6.595l-.333.8c-1.01,2.405-2.055,4.893-.5,7.584.509.881,1.36,2.149,2.344,3.617,1.881,2.8,5.793,8.636,5.253,9.638-.4.736-1.857,3.246-3.4,5.9-1.5,2.573-3.053,5.248-3.743,6.482-1.542,2.758-.824,6.469-.248,9.451l.147.766c.654,3.478,4.115,21.287,8.126,30.338A.541.541,0,0,0,887.326,340.252Z" transform="translate(-877.56 -230.763)" fill="#41176b"/>
    </g>
    <g id="Group_11199" data-name="Group 11199" transform="translate(1278.761 1240.765)">
      <path id="Path_5683" data-name="Path 5683" d="M831.628,342.3a.544.544,0,0,0,.385-.16c2.553-2.573,14.864-23.891,15.78-27.9.5-2.195-.758-7.761-1.975-13.145-.944-4.171-1.92-8.484-1.643-9.652.415-1.745,3.563-4.317,6.608-6.8,3.678-3,7.481-6.11,8.217-8.91.837-3.181.122-23.093-.352-36.269-.171-4.738-.3-8.48-.3-9.815a.542.542,0,0,0-.542-.543h0a.543.543,0,0,0-.543.542c0,1.355.135,5.106.305,9.855.442,12.315,1.183,32.927.388,35.955-.647,2.455-4.477,5.584-7.855,8.344-3.331,2.721-6.476,5.292-6.977,7.4-.336,1.412.58,5.457,1.64,10.14,1.136,5.021,2.424,10.709,1.976,12.665-.9,3.93-12.985,24.849-15.493,27.376a.543.543,0,0,0,.385.925Z" transform="translate(-831.085 -229.107)" fill="#41176b"/>
    </g>
    <g id="Group_11200" data-name="Group 11200" transform="translate(1315.987 1280.128)">
      <path id="Path_5684" data-name="Path 5684" d="M822.957,329.866a.608.608,0,0,0,.076-.005.543.543,0,0,0,.462-.614c-.4-2.824-6.631-59.074-6.917-63.383a.536.536,0,0,0-.578-.506.544.544,0,0,0-.506.578c.287,4.315,6.526,60.635,6.926,63.464A.542.542,0,0,0,822.957,329.866Z" transform="translate(-815.492 -265.356)" fill="#41176b"/>
    </g>
    <g id="Group_11201" data-name="Group 11201" transform="translate(1278.199 1339.058)">
      <path id="Path_5685" data-name="Path 5685" d="M805.483,340.481a.547.547,0,0,0,.2-.04c1.38-.559,7.482-2.618,15.207-5.222,15.592-5.259,36.946-12.46,41.006-14.57a.543.543,0,1,0-.5-.963c-3.986,2.071-26.172,9.553-40.852,14.5-7.743,2.612-13.858,4.673-15.269,5.245a.543.543,0,0,0,.2,1.047Z" transform="translate(-804.94 -319.623)" fill="#41176b"/>
    </g>
    <g id="Group_11202" data-name="Group 11202" transform="translate(1277.862 1371.637)">
      <path id="Path_5686" data-name="Path 5686" d="M802.56,360.3c13.723,0,40.326-2.475,60.534-9.622a.543.543,0,0,0-.362-1.024c-25.53,9.03-61.244,10.572-67.888,9.08a.544.544,0,1,0-.238,1.061A43.32,43.32,0,0,0,802.56,360.3Z" transform="translate(-794.182 -349.624)" fill="#8593b6"/>
    </g>
    <g id="Group_11203" data-name="Group 11203" transform="translate(1377.017 1208.071)">
      <path id="Path_5687" data-name="Path 5687" d="M721.6,238.353c-4.261,3.746-9.656,6.148-13.394,10.481-1.471,1.7-2.793,3.519-4.158,5.307-.994,1.3-3.646,3.459-4.078,5.094-.189.72-.149-.255.041-.977.008-.031.024-.06.033-.09.372-3.311.64-6.635.756-9.965s-.09-6.658.117-9.973c.294-4.679,1.755-9.21,5.578-12.142,1.87-1.432,4.272-2.3,5.99-3.894,1.632-1.509.977-3.238.018-4.921a16.789,16.789,0,0,1-2.335-4.937,8.714,8.714,0,0,1,1.423-5.942c2.224-3.734,7.158-7.9,11.832-7.342,3.9.467,4.338,4.962,4.283,8.093-.054,3.045-.356,6.08-.384,9.127-.03,3.13.5,6.2.546,9.316C727.949,230.887,725.5,234.926,721.6,238.353Z" transform="translate(-655.32 -199)" fill="#c5b1db"/>
      <path id="Path_5688" data-name="Path 5688" d="M701.159,285.2a50.18,50.18,0,0,0-4.22-8.046c-2.3-3.53-4.842-6.969-6.384-10.921-1.575-4.035-1.343-8.351-1.5-12.6-.114-3.124-1.042-6.238-.792-9.368.119-1.5.985-3.931,2.928-3.682,1.513.193,2.41,2.068,2.991,3.263a57.479,57.479,0,0,1,2.47,6.5c.294.857.575,1.729.946,2.555.216.481.9,1.655,1.553,1.494,1.1-.274.1-4.78-.063-5.578-.824-4.008-2.065-7.735-2.238-11.86-.25-5.981.216-13.1,6.066-16.372,1.529-.855,3.466-1.364,4.919-.086,1.433,1.262,1.839,3.448,2.051,5.248.654,5.524-.647,10.755-2.417,15.952-1.462,4.292-3.2,8.72-3.329,13.309-.123,4.418,2.175,8.332,3.253,12.5a39.524,39.524,0,0,1,1.373,12.331c.011,2.7-.087,5.367-.285,8.058-.181,2.474-.4,4.946-.7,7.408-.062.5-.117,1.018-.185,1.538.951-2.288,1.283-4.908,2.07-7.208,1.4-4.086,3.022-8.089,4.364-12.2a100.92,100.92,0,0,1,3.62-10.072c1.373-3.06,3.031-6.3,5.592-8.542a8.161,8.161,0,0,1,5.5-2.136,15.2,15.2,0,0,1,3.78.8,4.255,4.255,0,0,0,4.062-.715c4.193-3.223,5.468-9,8.571-13.082,2.315-3.044,7.808-8.232,11.847-4.913,2.143,1.76,2.733,5.164,2.62,7.771a18.833,18.833,0,0,1-3.274,9c-1.811,2.909-4.149,5.514-5.814,8.5a9.027,9.027,0,0,0-.982,5.455,12.991,12.991,0,0,1-.329,5.507c-1.922,5.44-7.924,4.682-12.591,4.824a34.926,34.926,0,0,0-9.871,1.63,10.971,10.971,0,0,0-7.2,7.085c-.927,2.565-1.423,5.478-3.17,7.657a8.148,8.148,0,0,1-3.1,2.311c-1.821.8-7.37,1.154-7.411.648a24.984,24.984,0,0,0-1.446-5.1C703.492,291.064,702.381,288.119,701.159,285.2Z" transform="translate(-674.456 -197.219)" fill="#c5b1db"/>
      <path id="Path_5689" data-name="Path 5689" d="M738.145,279.836c.482-3.11.39-6.537,1.862-9.393a.424.424,0,0,1,.573-.151c1.055.585,1.1,2.29,1.186,3.335.142,1.733.037,3.471.25,5.2a38.972,38.972,0,0,0,2.17,9.028,9.706,9.706,0,0,0,6.757,6.084,17.1,17.1,0,0,1,5.914,2.608,12.456,12.456,0,0,1,3.468,4.782c2.182,4.893,3.221,10.364,4.233,15.593.682,3.521,1.237,7.057,2.093,10.542a103.449,103.449,0,0,1,2.261,10.507c.083.179.17.357.246.539.225.532-.608.819-.895.377-3.375-5.193-7.485-9.856-13.092-12.716-2.533-1.291-5.9-1.559-8.01-3.589-1.606-1.544-1.828-3.9-1.588-6,.316-2.759,1.639-5.03,3.016-7.382.756-1.291,1.651-2.676,1.345-4.245a5.478,5.478,0,0,0-2.742-3.328c-2.33-1.448-5.057-2.1-6.966-4.184a11.431,11.431,0,0,1-2.952-6.96A47.931,47.931,0,0,1,738.145,279.836Z" transform="translate(-737.212 -192.88)" fill="#c5b1db"/>
      <path id="Path_5690" data-name="Path 5690" d="M721.219,296.546a44.77,44.77,0,0,1,10.615-9.828c2.157-1.433,7.247-4.26,8.274-.034.6,2.478-1.821,4.914-3.417,6.467-2.4,2.334-5.171,4.347-7.194,7.036,2.505.8,5.122.956,7.3,2.688,2.577,2.05,3.733,6.009,1.178,8.521a16.192,16.192,0,0,1-4.447,2.726c-2.014.976-4.068,1.861-6.133,2.723-4.461,1.863-8.978,3.754-12.782,6.807-3.877,3.11-7.521,8.369-7.829,13.444-.029.484.154.043-.135-.178-.159.142-.689-.112-.686-.4a53.505,53.505,0,0,1,4.509-21.6A90.21,90.21,0,0,1,721.219,296.546Z" transform="translate(-674.281 -191.658)" fill="#c5b1db"/>
    </g>
    <g id="Group_11204" data-name="Group 11204" transform="translate(1405.771 1242.36)">
      <path id="Path_5691" data-name="Path 5691" d="M742.405,231.077c-1.643,3.408-3.361,6.738-5.184,10.063a80.873,80.873,0,0,0-4.821,9.791c-1.616,4.2-3.311,8.345-5.02,12.511a123.416,123.416,0,0,0-4.639,13.249,157.26,157.26,0,0,0-5.247,26.942,109.45,109.45,0,0,0-.548,13.926c.1,3.632.509,7.226.85,10.839a64.088,64.088,0,0,1,.3,11.335c-.263,3.153-.765,6.9-3.211,9.152a.563.563,0,0,1-.88-.679c2.908-5.964,2.745-12.464,2.189-18.932-.307-3.571-.733-7.121-.853-10.706a106.948,106.948,0,0,1,.456-13.668,161.583,161.583,0,0,1,4.932-26.4,118.851,118.851,0,0,1,4.337-13.065c1.692-4.283,3.645-8.447,5.285-12.751,2.966-7.783,7.484-14.684,11.486-21.937.208-.377.755-.046.572.334Z" transform="translate(-713.936 -230.576)" fill="#4e326a"/>
    </g>
    <g id="Group_11205" data-name="Group 11205" transform="translate(1402.103 1275.096)">
      <path id="Path_5692" data-name="Path 5692" d="M743.681,292.126c-.47-5.667-.972-11.125-2.883-16.532-.89-2.521-1.97-4.973-2.83-7.5-.711-2.092-1.774-4.962-1.227-7.186a.257.257,0,0,1,.491,0c.366,1.271.326,2.664.59,3.966a35.084,35.084,0,0,0,.993,3.745c.838,2.619,1.934,5.129,2.883,7.707a38.122,38.122,0,0,1,2.375,15.8.2.2,0,0,1-.391,0Z" transform="translate(-736.59 -260.722)" fill="#4e326a"/>
    </g>
    <g id="Group_11206" data-name="Group 11206" transform="translate(1415.497 1273.554)">
      <path id="Path_5693" data-name="Path 5693" d="M733.309,259.677c-2.25,5.435-9.012,5.749-13.938,6.965a13.067,13.067,0,0,0-7.979,6.263,47.9,47.9,0,0,0-4.557,10.966.034.034,0,0,1-.065-.018c1.378-6.514,3.352-14.358,10.066-17.389,5.382-2.429,12.473-1.21,15.914-7.02.169-.287.695-.094.558.235Z" transform="translate(-706.769 -259.302)" fill="#4e326a"/>
    </g>
    <g id="Group_11207" data-name="Group 11207" transform="translate(1410.751 1305.527)">
      <path id="Path_5694" data-name="Path 5694" d="M735.746,288.858c-.267.362-.513.738-.79,1.094a2.939,2.939,0,0,1-.447.482,1.047,1.047,0,0,1-.627.319.138.138,0,0,1-.117-.2,2.211,2.211,0,0,1,.469-.429c.161-.142.326-.281.482-.429.314-.3.6-.621.91-.925.059-.059.173.021.12.092Z" transform="translate(-733.746 -288.745)" fill="#43588e"/>
    </g>
    <g id="Group_11208" data-name="Group 11208" transform="translate(1409.343 1322.382)">
      <path id="Path_5695" data-name="Path 5695" d="M738.2,304.765a54.752,54.752,0,0,0-10.305,11.084,67.244,67.244,0,0,0-3.753,6.173,68.877,68.877,0,0,0-3.033,7.154c-.074.185-.408.188-.383-.051.539-5.111,3.777-9.493,6.369-13.744a32.811,32.811,0,0,1,4.821-5.832,42.878,42.878,0,0,1,5.935-5.236c.265-.187.6.244.35.453Z" transform="translate(-720.722 -304.267)" fill="#4e326a"/>
    </g>
    <g id="Group_11209" data-name="Group 11209" transform="translate(1395.441 1316.823)">
      <path id="Path_5696" data-name="Path 5696" d="M739.073,299.188c1.87,1.059,1.93,4.011,1.967,5.9.071,3.622-.826,7.023.763,10.474,1.435,3.118,3.729,5.721,5.533,8.616,1.688,2.709,3.353,6.173,3.315,9.436,0,.189-.291.294-.379.1A39.346,39.346,0,0,1,748.862,329a19.788,19.788,0,0,0-2.3-4.864c-1.735-2.689-3.866-5.136-5.273-8.028-1.483-3.048-1.266-6.067-1.168-9.369.063-2.106.274-5.489-1.425-7.055-.266-.245.074-.667.38-.493Z" transform="translate(-738.597 -299.147)" fill="#4e326a"/>
    </g>
    <path id="Path_5697" data-name="Path 5697" d="M739.481,331.208c7.529-.1,21.868-.187,21.868-.187L757.8,357.366a11.947,11.947,0,0,1-11.839,10.351H733a11.947,11.947,0,0,1-11.839-10.351l-3.548-26.345S731.953,331.1,739.481,331.208Z" transform="translate(668.934 1020.414)" fill="#e8e8e8"/>
    <g id="Group_11215" data-name="Group 11215" transform="translate(1043.977 1300.059)">
      <g id="Group_11213" data-name="Group 11213" transform="translate(0.544)">
        <g id="Group_11210" data-name="Group 11210" transform="translate(0 1.948)">
          <path id="Path_5698" data-name="Path 5698" d="M917.992,286.7l42.95,85.076,125.217.9L1047.516,285.5Z" transform="translate(-917.992 -285.504)" fill="#f6f7fa"/>
        </g>
        <g id="Group_11211" data-name="Group 11211" transform="translate(0)">
          <path id="Path_5699" data-name="Path 5699" d="M1092.734,372.3l-.024-6.81h-81.059l-37.3-81.782H844.72l-3.258,3.146H968.1l38.756,85.376S1092.734,372.077,1092.734,372.3Z" transform="translate(-841.462 -283.71)" fill="#d9dee8"/>
        </g>
        <g id="Group_11212" data-name="Group 11212" transform="translate(64.796 42.036)">
          <path id="Path_5700" data-name="Path 5700" d="M986.128,330.476c1.415,4.244,9.092,7.521,17.149,7.319s13.442-3.805,12.027-8.048-9.092-7.521-17.149-7.319S984.714,326.234,986.128,330.476Z" transform="translate(-985.902 -322.42)" fill="#d9dee8"/>
        </g>
      </g>
      <g id="Group_11214" data-name="Group 11214" transform="translate(0 2.603)">
        <path id="Path_5701" data-name="Path 5701" d="M1085.984,372.569a.556.556,0,0,0,.225-.049.543.543,0,0,0,.269-.719l-38.9-85.694H920.587a.543.543,0,0,0,0,1.086h126.291l38.612,85.058A.542.542,0,0,0,1085.984,372.569Z" transform="translate(-920.044 -286.107)" fill="#fff"/>
      </g>
    </g>
    <rect id="Rectangle_6859" data-name="Rectangle 6859" width="148.957" height="33.026" transform="translate(1301.435 1395.097)" fill="#4e326a"/>
    <rect id="Rectangle_6860" data-name="Rectangle 6860" width="268.004" height="33.026" transform="translate(1034.282 1395.097)" fill="#8157ac"/>
    <path id="Path_5702" data-name="Path 5702" d="M966.248,371.228h148.957v6.066H699.1v-6.066Z" transform="translate(335.187 1023.869)" fill="#bdc4d7" style="mix-blend-mode: multiply;isolation: isolate"/>
    <rect id="Rectangle_6861" data-name="Rectangle 6861" width="162.663" height="8.088" transform="translate(1294.919 1388.581)" fill="#4e326a"/>
    <rect id="Rectangle_6862" data-name="Rectangle 6862" width="268.004" height="8.088" transform="translate(1027.766 1388.581)" fill="#8157ac"/>
    <rect id="Rectangle_6863" data-name="Rectangle 6863" width="64.369" height="38.036" rx="5.426" transform="translate(1333.15 1177.264)" fill="#e8e8e8"/>
    <path id="Path_5703" data-name="Path 5703" d="M802.675,188.8l19.75-8.334v16.667Z" transform="translate(515.489 1007.479)" fill="#e8e8e8"/>
    <g id="Group_11216" data-name="Group 11216" transform="translate(1349.222 1192.644)">
      <ellipse id="Ellipse_229" data-name="Ellipse 229" cx="3.638" cy="3.638" rx="3.638" ry="3.638" transform="translate(24.95)" fill="#4e326a"/>
      <ellipse id="Ellipse_230" data-name="Ellipse 230" cx="3.638" cy="3.638" rx="3.638" ry="3.638" transform="translate(12.475)" fill="#4e326a"/>
      <ellipse id="Ellipse_231" data-name="Ellipse 231" cx="3.638" cy="3.638" rx="3.638" ry="3.638" transform="translate(0)" fill="#4e326a"/>
    </g>
    <path id="Path_5704" data-name="Path 5704" d="M937.488,96.262h121.4A14.117,14.117,0,0,1,1073,110.379v57.592a14.118,14.118,0,0,1-14.117,14.117H1048c-.305,5.22.442,12.986,4.8,22.916a61,61,0,0,1-26.32-22.916h-89a14.118,14.118,0,0,1-14.117-14.117V110.379A14.117,14.117,0,0,1,937.488,96.262Z" transform="translate(133.844 1000.244)" fill="#d8c1f1"/>
    <path id="Path_5705" data-name="Path 5705" d="M945.263,122.012h60.212a3,3,0,0,0,3-3h0a3,3,0,0,0-3-2.995H945.263a3,3,0,0,0-2.995,2.995h0A3,3,0,0,0,945.263,122.012Z" transform="translate(177.856 1001.941)" fill="#fff"/>
    <path id="Path_5706" data-name="Path 5706" d="M944.1,137.9H1048.65a1.834,1.834,0,0,0,1.835-1.834h0a1.835,1.835,0,0,0-1.835-1.835H944.1a1.835,1.835,0,0,0-1.835,1.835h0A1.834,1.834,0,0,0,944.1,137.9Z" transform="translate(135.842 1003.506)" fill="#c699f6"/>
    <path id="Path_5707" data-name="Path 5707" d="M944.1,147.276H1048.65a1.834,1.834,0,0,0,1.835-1.834h0a1.835,1.835,0,0,0-1.835-1.835H944.1a1.835,1.835,0,0,0-1.835,1.835h0A1.834,1.834,0,0,0,944.1,147.276Z" transform="translate(135.842 1004.312)" fill="#c699f6"/>
    <path id="Path_5708" data-name="Path 5708" d="M944.1,157.276h81.741a1.834,1.834,0,0,0,1.835-1.834h0a1.835,1.835,0,0,0-1.835-1.835H944.1a1.836,1.836,0,0,0-1.835,1.835h0A1.835,1.835,0,0,0,944.1,157.276Z" transform="translate(158.647 1005.171)" fill="#c699f6"/>
    <path id="Path_5709" data-name="Path 5709" d="M1013.264,122.012h28.723a3,3,0,0,0,3-3h0a3,3,0,0,0-3-2.995h-28.723a3,3,0,0,0-3,2.995h0A3,3,0,0,0,1013.264,122.012Z" transform="translate(67.502 1001.941)" fill="#fff"/>
    <rect id="Rectangle_6864" data-name="Rectangle 6864" width="36.959" height="26.624" rx="2" transform="translate(1150.988 1229.774)" fill="#fff"/>
    <g id="Group_11217" data-name="Group 11217" transform="translate(1151.128 1230.383)">
      <path id="Path_5710" data-name="Path 5710" d="M959.02,236.229a.808.808,0,0,0,.518-.187l17.75-14.661a.814.814,0,1,0-1.037-1.255l-17.218,14.22-16.778-14.6a.814.814,0,0,0-1.069,1.228l17.3,15.054A.813.813,0,0,0,959.02,236.229Z" transform="translate(-940.906 -219.547)" fill="#4e326a"/>
    </g>
    <g id="Group_11218" data-name="Group 11218" transform="translate(1173.764 1241.11)">
      <path id="Path_5711" data-name="Path 5711" d="M954.134,244.106a.814.814,0,0,0,.589-1.376L942.31,229.679a.814.814,0,1,0-1.179,1.123l12.414,13.051A.807.807,0,0,0,954.134,244.106Z" transform="translate(-940.905 -229.425)" fill="#4e326a"/>
    </g>
    <g id="Group_11219" data-name="Group 11219" transform="translate(1151.128 1241.286)">
      <path id="Path_5712" data-name="Path 5712" d="M962.61,243.614a.809.809,0,0,0,.577-.239l12.364-12.4a.814.814,0,0,0-1.153-1.15l-12.364,12.4a.814.814,0,0,0,.577,1.389Z" transform="translate(-961.796 -229.587)" fill="#4e326a"/>
    </g>
    <ellipse id="Ellipse_232" data-name="Ellipse 232" cx="10.897" cy="10.897" rx="10.897" ry="10.897" transform="translate(1138.396 1218.054)" fill="#4e326a"/>
    <text id="_85" data-name="85" transform="translate(1155.345 1223.325) rotate(180)" fill="#fff" font-size="12" font-family="Antonio-Bold, Antonio" font-weight="700"><tspan x="0" y="0">85</tspan></text>
    <g id="Group_11221" data-name="Group 11221" transform="translate(1035.508 1206.292)">
      <rect id="Rectangle_6865" data-name="Rectangle 6865" width="72.345" height="18.648" rx="4" transform="translate(0)" fill="#4e326a"/>
    </g>
    <g id="Group_11222" data-name="Group 11222" transform="translate(1094.464 1210.726)">
      <path id="Path_5713" data-name="Path 5713" d="M1023.173,211.225a.856.856,0,0,0,.687-.305,1.021,1.021,0,0,0,.229-.763l-.276-2.415c-.02-.061-.01-.1.031-.123a.154.154,0,0,1,.153.031l1.986,1.436a.934.934,0,0,0,.765.2.953.953,0,0,0,.642-.473.92.92,0,0,0,.106-.856.983.983,0,0,0-.565-.519l-2.231-1.009c-.061-.02-.092-.051-.092-.091s.031-.072.092-.092l2.231-1.009a.907.907,0,0,0,.55-.58,1.006,1.006,0,0,0-.091-.795.961.961,0,0,0-.642-.475,1,1,0,0,0-.765.168L1024,205.021a.154.154,0,0,1-.153.031c-.041-.021-.051-.062-.031-.123l.276-2.414a.993.993,0,0,0-.244-.764.942.942,0,0,0-.734-.306.908.908,0,0,0-.915,1.071l.274,2.414c.021.061.011.1-.03.123a.154.154,0,0,1-.153-.031l-1.986-1.436a.966.966,0,0,0-.78-.2.874.874,0,0,0-.627.475.92.92,0,0,0-.105.856.973.973,0,0,0,.565.519l2.23,1.009c.061.021.091.051.091.092s-.03.072-.091.091l-2.23,1.009a.957.957,0,0,0-.565.58.894.894,0,0,0,.105.795.867.867,0,0,0,.627.473,1.018,1.018,0,0,0,.78-.167l1.986-1.467a.154.154,0,0,1,.153-.031c.041.022.051.062.03.123l-.274,2.415a.877.877,0,0,0,.228.763A.988.988,0,0,0,1023.173,211.225Z" transform="translate(-1018.724 -201.445)" fill="#fff"/>
    </g>
    <g id="Group_11223" data-name="Group 11223" transform="translate(1081.298 1210.726)">
      <path id="Path_5714" data-name="Path 5714" d="M1035.3,211.225a.855.855,0,0,0,.688-.305,1.022,1.022,0,0,0,.23-.763l-.276-2.415c-.02-.061-.01-.1.03-.123a.154.154,0,0,1,.153.031l1.986,1.436a.935.935,0,0,0,.764.2.95.95,0,0,0,.642-.473.925.925,0,0,0,.108-.856.982.982,0,0,0-.566-.519l-2.232-1.009c-.061-.02-.091-.051-.091-.091s.03-.072.091-.092l2.232-1.009a.9.9,0,0,0,.549-.58,1,1,0,0,0-.091-.795.958.958,0,0,0-.642-.475,1,1,0,0,0-.764.168l-1.986,1.467a.154.154,0,0,1-.153.031c-.04-.021-.05-.062-.03-.123l.276-2.414a.994.994,0,0,0-.245-.764.941.941,0,0,0-.733-.306.908.908,0,0,0-.917,1.071l.275,2.414c.021.061.011.1-.031.123a.155.155,0,0,1-.153-.031l-1.986-1.436a.965.965,0,0,0-.78-.2.872.872,0,0,0-.625.475.917.917,0,0,0-.106.856.98.98,0,0,0,.565.519l2.23,1.009c.061.021.092.051.092.092s-.031.072-.092.091l-2.23,1.009a.96.96,0,0,0-.565.58.894.894,0,0,0,.106.795.865.865,0,0,0,.625.473,1.017,1.017,0,0,0,.78-.167l1.986-1.467a.155.155,0,0,1,.153-.031c.042.022.052.062.031.123l-.275,2.415a.88.88,0,0,0,.228.763A.988.988,0,0,0,1035.3,211.225Z" transform="translate(-1030.849 -201.445)" fill="#fff"/>
    </g>
    <g id="Group_11224" data-name="Group 11224" transform="translate(1068.132 1210.726)">
      <path id="Path_5715" data-name="Path 5715" d="M1047.422,211.225a.854.854,0,0,0,.687-.305,1.017,1.017,0,0,0,.23-.763l-.276-2.415c-.02-.061-.01-.1.03-.123a.154.154,0,0,1,.153.031l1.987,1.436a.933.933,0,0,0,.763.2.95.95,0,0,0,.642-.473.921.921,0,0,0,.108-.856.982.982,0,0,0-.566-.519l-2.23-1.009c-.062-.02-.092-.051-.092-.091s.031-.072.092-.092l2.23-1.009a.909.909,0,0,0,.551-.58,1.006,1.006,0,0,0-.092-.795.958.958,0,0,0-.642-.475,1,1,0,0,0-.763.168l-1.987,1.467a.154.154,0,0,1-.153.031c-.04-.021-.05-.062-.03-.123l.276-2.414a.994.994,0,0,0-.245-.764.939.939,0,0,0-.733-.306.909.909,0,0,0-.917,1.071l.275,2.414c.021.061.011.1-.03.123a.154.154,0,0,1-.153-.031l-1.986-1.436a.967.967,0,0,0-.78-.2.873.873,0,0,0-.626.475.923.923,0,0,0-.106.856.979.979,0,0,0,.566.519l2.229,1.009c.062.021.092.051.092.092s-.03.072-.092.091l-2.229,1.009a.961.961,0,0,0-.566.58.9.9,0,0,0,.106.795.866.866,0,0,0,.626.473,1.019,1.019,0,0,0,.78-.167l1.986-1.467a.154.154,0,0,1,.153-.031c.041.022.051.062.03.123l-.275,2.415a.877.877,0,0,0,.229.763A.985.985,0,0,0,1047.422,211.225Z" transform="translate(-1042.973 -201.445)" fill="#fff"/>
    </g>
    <g id="Group_11225" data-name="Group 11225" transform="translate(1054.965 1210.726)">
      <path id="Path_5716" data-name="Path 5716" d="M1059.547,211.225a.856.856,0,0,0,.688-.305,1.022,1.022,0,0,0,.229-.763l-.275-2.415c-.021-.061-.011-.1.03-.123a.154.154,0,0,1,.153.031l1.986,1.436a.935.935,0,0,0,.765.2.952.952,0,0,0,.642-.473.921.921,0,0,0,.106-.856.98.98,0,0,0-.565-.519l-2.232-1.009c-.061-.02-.092-.051-.092-.091s.031-.072.092-.092l2.232-1.009a.907.907,0,0,0,.549-.58,1.006,1.006,0,0,0-.091-.795.961.961,0,0,0-.642-.475,1,1,0,0,0-.765.168l-1.986,1.467a.154.154,0,0,1-.153.031c-.041-.021-.051-.062-.03-.123l.275-2.414a.993.993,0,0,0-.244-.764.942.942,0,0,0-.734-.306.908.908,0,0,0-.915,1.071l.274,2.414c.021.061.011.1-.03.123a.154.154,0,0,1-.153-.031l-1.986-1.436a.967.967,0,0,0-.78-.2.873.873,0,0,0-.626.475.92.92,0,0,0-.105.856.973.973,0,0,0,.565.519l2.23,1.009c.061.021.091.051.091.092s-.03.072-.091.091l-2.23,1.009a.956.956,0,0,0-.565.58.894.894,0,0,0,.105.795.866.866,0,0,0,.626.473,1.018,1.018,0,0,0,.78-.167l1.986-1.467a.154.154,0,0,1,.153-.031c.041.022.051.062.03.123l-.274,2.415a.877.877,0,0,0,.228.763A.988.988,0,0,0,1059.547,211.225Z" transform="translate(-1055.098 -201.445)" fill="#fff"/>
    </g>
    <g id="Group_11226" data-name="Group 11226" transform="translate(1041.798 1210.726)">
      <path id="Path_5717" data-name="Path 5717" d="M1071.672,211.225a.854.854,0,0,0,.687-.305,1.022,1.022,0,0,0,.23-.763l-.276-2.415c-.02-.061-.01-.1.03-.123a.154.154,0,0,1,.153.031l1.986,1.436a.935.935,0,0,0,.765.2.95.95,0,0,0,.642-.473.924.924,0,0,0,.107-.856.982.982,0,0,0-.566-.519l-2.232-1.009c-.061-.02-.091-.051-.091-.091s.031-.072.091-.092l2.232-1.009a.9.9,0,0,0,.549-.58,1,1,0,0,0-.091-.795.959.959,0,0,0-.642-.475,1,1,0,0,0-.765.168l-1.986,1.467a.154.154,0,0,1-.153.031c-.04-.021-.05-.062-.03-.123l.276-2.414a.994.994,0,0,0-.245-.764.941.941,0,0,0-.733-.306.908.908,0,0,0-.917,1.071l.275,2.414c.021.061.011.1-.031.123a.155.155,0,0,1-.153-.031l-1.986-1.436a.966.966,0,0,0-.78-.2.872.872,0,0,0-.625.475.917.917,0,0,0-.106.856.98.98,0,0,0,.565.519l2.23,1.009c.061.021.092.051.092.092s-.031.072-.092.091l-2.23,1.009a.959.959,0,0,0-.565.58.894.894,0,0,0,.106.795.865.865,0,0,0,.625.473,1.017,1.017,0,0,0,.78-.167l1.986-1.467a.155.155,0,0,1,.153-.031c.042.022.052.062.031.123l-.275,2.415a.88.88,0,0,0,.228.763A.988.988,0,0,0,1071.672,211.225Z" transform="translate(-1067.223 -201.445)" fill="#c09ce5"/>
    </g>
  </g>
</svg>
