<svg xmlns="http://www.w3.org/2000/svg" width="40" height="40" viewBox="0 0 40 40">
  <path id="Path_3488" data-name="Path 3488" d="M37.07,8.3H29.541a.586.586,0,1,0,0,1.172H37.07a1.76,1.76,0,0,1,1.758,1.758V31.119a1.76,1.76,0,0,1-1.758,1.758H2.93a1.76,1.76,0,0,1-1.758-1.758V11.225A1.76,1.76,0,0,1,2.93,9.467h9.677v.59c0,.2.008.39.023.582H3.164a.821.821,0,0,0-.82.82V25.992a.586.586,0,1,0,1.172,0V11.811h9.3a7.49,7.49,0,0,0,3.7,4.822v1.313a.715.715,0,0,1-.488.678l-5.655,1.9a4.486,4.486,0,0,0-3.061,4.255v5.752h-3.8V28.726a.586.586,0,0,0-1.172,0v2.159a.821.821,0,0,0,.82.82H36.836a.821.821,0,0,0,.82-.82V11.459a.821.821,0,0,0-.82-.82h-9.46q.017-.253.017-.508V3.542A3.545,3.545,0,0,0,23.852,0h-7.7a3.545,3.545,0,0,0-3.541,3.541V8.3H2.93A2.933,2.933,0,0,0,0,11.225V31.119a2.933,2.933,0,0,0,2.93,2.93h14.2v2.436h-.74a2.7,2.7,0,0,0-2.7,2.7.821.821,0,0,0,.82.82H25.484a.821.821,0,0,0,.82-.82,2.7,2.7,0,0,0-2.7-2.7h-.74V34.048h14.2A2.933,2.933,0,0,0,40,31.119V11.225A2.933,2.933,0,0,0,37.07,8.3ZM31.517,30.533H8.483V24.781a3.315,3.315,0,0,1,2.263-3.145l1.324-.445a6.064,6.064,0,0,0,.071,2.48,2.992,2.992,0,0,0-2.229,2.889v1.928a.99.99,0,0,0,.989.989h.547a.586.586,0,1,0,0-1.172h-.365V26.561A1.817,1.817,0,0,1,12.9,24.746h0a1.817,1.817,0,0,1,1.813,1.815v1.746h-.365a.586.586,0,0,0,0,1.172H14.9a.99.99,0,0,0,.989-.989V26.561a2.992,2.992,0,0,0-2.551-2.955,4.918,4.918,0,0,1,.049-2.856l2.63-.884,3.307,3.3a1.056,1.056,0,0,0,1.491,0L24.084,19.9l2.876.967a4.664,4.664,0,0,1,.03,3.27,2.689,2.689,0,1,0,1.2.089,5.781,5.781,0,0,0,.119-2.9l.942.317a3.315,3.315,0,0,1,2.262,3.145ZM22.958,19.367l-2.893,2.89L17.109,19.3a1.884,1.884,0,0,0,.578-1.358v-.8a7.289,7.289,0,0,0,2.286.375H20a7.415,7.415,0,0,0,2.312-.367v.8a1.885,1.885,0,0,0,.645,1.421ZM27.4,25.276h0a1.515,1.515,0,1,1-1.518,1.515A1.518,1.518,0,0,1,27.4,25.276Zm-.2-13.465h9.282V30.533h-3.8V24.781a4.486,4.486,0,0,0-3.061-4.255l-5.656-1.9a.715.715,0,0,1-.488-.678v-1.3a7.418,7.418,0,0,0,1.737-1.289A7.334,7.334,0,0,0,27.2,11.811ZM13.779,3.541a2.372,2.372,0,0,1,2.37-2.37h7.7a2.372,2.372,0,0,1,2.37,2.37V7.053a5.592,5.592,0,0,1-2.082-.664,5.56,5.56,0,0,1-1.7-1.462.945.945,0,0,0-1.263-.21,14.242,14.242,0,0,1-2.547,1.34,14.311,14.311,0,0,1-4.847,1.022Zm0,4.711a15.48,15.48,0,0,0,5.284-1.108,15.415,15.415,0,0,0,2.579-1.334,6.718,6.718,0,0,0,1.93,1.6,6.779,6.779,0,0,0,2.65.817v1.9a6.23,6.23,0,0,1-3.536,5.609.572.572,0,0,0-.075.035,6.2,6.2,0,0,1-2.633.57h0a6.267,6.267,0,0,1-6.2-6.288c0-.008,0-1.8,0-1.8Zm4.524,25.8h3.4v2.436H18.3Zm5.307,3.608a1.526,1.526,0,0,1,1.483,1.172H14.908a1.526,1.526,0,0,1,1.483-1.172Z" fill="#fff"/>
</svg>
