<?xml version="1.0" encoding="utf-8"?>
<!-- Generator: Adobe Illustrator 26.2.0, SVG Export Plug-In . SVG Version: 6.00 Build 0)  -->
<svg version="1.1" id="Layer_1" xmlns="http://www.w3.org/2000/svg" xmlns:xlink="http://www.w3.org/1999/xlink" x="0px" y="0px"
	 viewBox="0 0 100 100" style="enable-background:new 0 0 100 100;" xml:space="preserve">
<style type="text/css">
	.st0{fill:#FFFFFF;}
</style>
<g id="Group_11115" transform="translate(0 448.13)">
	<path id="Path_5519" class="st0" d="M66-357.2c-9.1,0-16.8-6.6-18.2-15.6c-0.5-3.4,0.3-6.6,1.5-9.7c2.3-5.9,5.2-11.6,8.4-17
		c2.2-3.8,4.6-7.6,6.9-11.3c0.7-1.2,1.3-1.2,2,0c5.3,8.2,10.3,16.5,14.2,25.5c1.3,2.7,2.2,5.6,2.7,8.6c0.5,4.7-1,9.5-4.1,13.1
		C76.3-359.6,71.3-357.3,66-357.2z M65.8-409.2c-0.2,0.3-0.3,0.4-0.4,0.6c-2.5,4.2-5.2,8.4-7.6,12.7c-2.8,4.7-5.1,9.6-7.1,14.8
		c-1,2.7-1.6,5.4-1.1,8.3c1.3,6.9,5.3,11.5,12.1,13.2c6.7,1.7,12.5-0.3,16.9-5.7c2.7-3.2,3.9-7.4,3.3-11.5c-0.4-2.3-1.1-4.6-2-6.7
		c-2.8-6.9-6.6-13.4-10.5-19.8C68.3-405.3,67-407.2,65.8-409.2z"/>
	<path id="Path_5520" class="st0" d="M51.4-422.3c0.2-1.6,0.7-3.1,1.5-4.5c2.3-4.7,6.1-8.5,10.8-10.7c1.2-0.5,2.5-0.9,3.8-1
		c3.4-0.4,5.8,2.2,5.4,5.6c-0.4,2.9-1.6,5.6-3.4,7.9c-2.5,3.5-6,6.2-10,7.8c-1,0.4-2.2,0.6-3.3,0.6
		C53.3-416.6,51.4-418.6,51.4-422.3z M53.1-421.7c0,2.3,1.4,3.5,3.6,3.3c0.8-0.1,1.5-0.2,2.2-0.5c5-2,9-5.9,11.1-10.8
		c0.6-1.3,0.9-2.6,1-4c0.1-2-1.2-3.2-3.2-3.1c-0.8,0-1.5,0.2-2.2,0.5c-5.8,2.2-10.2,7-12.1,12.8C53.3-422.9,53.2-422.3,53.1-421.7
		L53.1-421.7z"/>
	<path id="Path_5521" class="st0" d="M23.1-416.7c-0.2,3.6-0.7,7-2.6,10.1c-0.5,0.8-1.1,1.6-1.8,2.2c-1.8,1.7-4.5,1.6-6.2-0.1
		c-1.7-1.6-2.8-3.7-3.3-6c-1.3-5.2-1.2-10.3,1.2-15.3c0.5-1,1.1-1.8,1.8-2.6c1.6-1.9,4.4-2.2,6.4-0.6c0.2,0.2,0.4,0.3,0.6,0.5
		c1.6,1.6,2.6,3.6,3,5.8C22.6-420.8,22.8-418.8,23.1-416.7z M10.2-416.8l-0.2,0c0.4,2.1,0.6,4.1,1.1,6.2c0.4,1.7,1.2,3.3,2.4,4.5
		c1.4,1.4,3,1.4,4.4,0c0.7-0.7,1.3-1.6,1.7-2.5c2.2-5.1,2.2-10.9,0.1-16.1c-0.5-1.1-1.2-2.1-2.1-3c-0.9-1-2.5-1.1-3.6-0.1
		c-0.1,0.1-0.1,0.1-0.2,0.2c-0.7,0.6-1.2,1.4-1.7,2.2C10.7-422.7,10.1-419.8,10.2-416.8L10.2-416.8z"/>
	<path id="Path_5522" class="st0" d="M20.5-395.3c0.5-5.4,2.2-9.9,6.5-13.3c1.1-1,2.5-1.4,4-1.2c1.8,0.3,3,1.9,3.3,4.1
		c0.5,4.6-1,8.5-3.7,12.2c-0.9,1.3-2.1,2.4-3.5,3.2c-2.7,1.4-5.3,0.3-6.1-2.6C20.7-393.6,20.6-394.5,20.5-395.3z M22.3-394.9
		c0.1,0.8,0.3,1.5,0.5,2.2c0.3,1,1.4,1.6,2.4,1.2c0.1,0,0.1,0,0.2-0.1c0.8-0.3,1.6-0.8,2.2-1.4c2.4-2.3,4-5.3,4.6-8.5
		c0.5-1.7,0.4-3.5-0.2-5.2c-0.3-1.1-1.4-1.7-2.5-1.5c-0.2,0.1-0.4,0.1-0.6,0.2c-0.5,0.2-0.9,0.5-1.3,0.8
		C24.2-403.9,22.6-399.9,22.3-394.9z"/>
	<path id="Path_5523" class="st0" d="M43.1-368.3c-0.1,0.7-0.2,1.3-0.4,2c-0.5,2-2.5,3.3-4.5,2.8c-0.2,0-0.4-0.1-0.6-0.2
		c-2.1-0.8-4-2.2-5.3-4.1c-2.5-2.9-3.9-6.5-4-10.3c0-0.6,0.1-1.1,0.2-1.7c0.3-2.1,2.3-3.5,4.4-3.2c0.4,0.1,0.8,0.2,1.1,0.4
		c2.3,1,4.2,2.7,5.6,4.8C41.8-375.1,43-371.8,43.1-368.3z M41.4-368.7l-0.1,0c0-0.3,0-0.7,0-1c0-0.1,0-0.2,0-0.3
		c-0.6-3.6-2.5-6.9-5.2-9.3c-0.9-0.8-2-1.4-3.1-1.9c-0.9-0.4-1.9,0-2.3,0.9c-0.1,0.1-0.1,0.3-0.1,0.4c-0.3,1-0.4,2.1-0.3,3.1
		c0.6,3.9,2.6,7.5,5.7,10c0.8,0.6,1.7,1.1,2.6,1.4c0.9,0.4,2-0.1,2.4-1c0-0.1,0-0.1,0.1-0.2C41.1-367.2,41.3-367.9,41.4-368.7
		L41.4-368.7z"/>
	<path id="Path_5524" class="st0" d="M29.2-429.8c0.1-0.6,0.1-1.2,0.2-1.8c0.6-2.7,2.6-3.8,5.2-3c2,0.7,3.7,2,5,3.6
		c2.7,3.1,4.3,7,4.4,11.1c0,2.3-1.1,3.9-3,4.4c-1.3,0.3-2.6,0.1-3.7-0.6c-2.8-1.7-5.1-4.2-6.4-7.3C29.9-425.3,29.3-427.5,29.2-429.8
		z M31-429.7L31-429.7c0.1,0.4,0.1,0.7,0.1,1.1c0,0.1,0,0.2,0,0.3c0.7,3.8,2.7,7.2,5.6,9.7c0.7,0.6,1.5,1.1,2.4,1.4
		c1,0.5,2.3,0,2.8-1c0.1-0.2,0.1-0.4,0.2-0.6c0.1-0.4,0.2-0.7,0.2-1.1c-0.2-4.4-2.2-8.5-5.5-11.4c-0.8-0.7-1.7-1.2-2.6-1.6
		c-1-0.5-2.2-0.1-2.7,0.9c-0.1,0.2-0.2,0.4-0.2,0.7C31.1-430.8,31-430.3,31-429.7L31-429.7z"/>
	<path id="Path_5525" class="st0" d="M77-415c0.1-0.7,0.2-1.4,0.4-2.1c0.6-2,2.6-3.1,4.6-2.6c0.1,0,0.2,0.1,0.3,0.1
		c1.8,0.6,3.4,1.7,4.6,3.2c2.6,2.7,4.3,6.1,4.8,9.8c0.1,1.1,0.1,2.2-0.1,3.3c-0.6,2.6-3,3.8-5.5,2.8c-2.1-0.9-3.8-2.4-5.1-4.2
		C78.5-407.7,77.1-411.3,77-415z M78.7-414.7L78.7-414.7c0.1,0.5,0.1,1,0.2,1.4c0.6,3.5,2.4,6.8,5,9.2c0.9,0.8,1.9,1.5,3.1,2
		c0.9,0.5,2.1,0.1,2.6-0.8c0.1-0.2,0.2-0.4,0.2-0.7c0.2-1,0.2-2,0.1-3c-0.6-3.8-2.5-7.2-5.5-9.7c-0.9-0.7-1.8-1.2-2.9-1.6
		c-0.9-0.4-1.9,0.1-2.3,1c0,0.1,0,0.1-0.1,0.2C79-416.1,78.8-415.4,78.7-414.7L78.7-414.7z"/>
	<path id="Path_5526" class="st0" d="M39.4-396.9c0.3-3.2,1.6-6.3,3.7-8.7c1.4-2,3.4-3.6,5.6-4.6c0.8-0.4,1.7-0.6,2.7-0.6
		c2.2,0,3.9,1.7,3.9,4.1c0,1.3-0.2,2.5-0.6,3.7c-1.2,4.1-3.9,7.5-7.6,9.7c-1,0.6-2.1,1-3.3,1.2c-2,0.3-3.9-1.1-4.2-3
		c0-0.1,0-0.3,0-0.4C39.4-396,39.4-396.5,39.4-396.9z M53.4-406c0-2.7-1.4-3.7-3.6-2.9c-0.5,0.2-1,0.5-1.5,0.8c-3,2-5.3,4.8-6.5,8.2
		c-0.5,1.3-0.7,2.7-0.5,4.1c0.2,1.3,0.9,2,2.2,1.8c0.9-0.1,1.7-0.4,2.5-0.8c2.2-1.3,4.1-3.1,5.3-5.3C52.4-401.9,53.1-403.9,53.4-406
		z"/>
	<path id="Path_5527" class="st0" d="M64.9-380.3c0-1.4,0-2.8,0-4.1c0-0.6,0.1-1.2,0.9-1.3c0.6-0.1,0.9,0.4,0.9,1.3
		c0,1.3,0,2.7,0,4.1c1.4,0,2.7,0,4.1,0c0.9,0,1.3,0.3,1.3,0.9c-0.1,0.7-0.6,0.9-1.2,0.9c-1.3,0-2.7,0-4.1,0v3.4c0,0.3,0,0.5,0,0.8
		c0,0.6-0.2,1.1-0.9,1.1c-0.7,0-0.9-0.5-0.9-1.1c0-1.4,0-2.7,0-4.2h-3.2c-0.4,0-0.8,0-1.1,0c-0.6,0-1-0.3-1-0.9
		c0-0.6,0.5-0.9,1.1-0.9c1.1,0,2.2,0,3.4,0L64.9-380.3z"/>
	<path id="Path_5528" class="st0" d="M79.5-374.7c-0.3,6.4-5.1,11.8-11.4,12.9c-0.6,0.1-1.2,0.1-1.9,0.2c-0.7,0.1-1.3,0-1.3-0.9
		c0-0.8,0.7-0.8,1.3-0.9c1.5-0.2,2.9-0.5,4.3-1c4.3-1.7,7.2-5.9,7.2-10.5c0-0.3,0-0.5,0.1-0.8c0.2-0.2,0.6-0.5,0.8-0.5
		c0.3,0.1,0.6,0.4,0.8,0.7C79.6-375.3,79.5-374.9,79.5-374.7z"/>
	<path id="Path_5529" class="st0" d="M63.6-425.2c-0.2-0.2-0.6-0.4-0.7-0.6c-0.1-0.4,0-0.7,0.2-1c0.6-0.8,1.3-1.6,1.9-2.4
		c1-1.3,1.7-2.9,2.1-4.5c0.1-0.6,0.5-0.9,1-0.8c0.5,0.1,0.8,0.5,0.7,1c0,0.1,0,0.1-0.1,0.2c-0.8,2.9-2.4,5.6-4.5,7.7
		C64-425.4,63.8-425.3,63.6-425.2z"/>
	<path id="Path_5530" class="st0" d="M18.6-417.7c0,1.4-0.2,1.9-0.9,1.9c-0.6,0-0.9-0.5-0.9-1.5c0-2.5-0.6-4.9-1.8-7.1
		c-0.3-0.4-0.3-0.9,0.1-1.2c0.1,0,0.1-0.1,0.2-0.1c0.5-0.3,0.9,0,1.2,0.4c1.1,1.8,1.7,3.9,1.9,6C18.5-418.7,18.5-418.1,18.6-417.7z"
		/>
	<path id="Path_5531" class="st0" d="M31.2-404c-0.5,1.6-0.9,3.2-1.4,4.9c-0.2,0.6-0.6,1.1-1.3,0.8c-0.6-0.3-0.6-0.8-0.4-1.4
		c0.8-1.8,1.2-3.9,1-5.9c-0.1-0.4,0.2-0.9,0.6-1c0,0,0.1,0,0.1,0c0.4-0.1,0.9,0.2,1,0.7c0,0,0,0.1,0,0.1c0.1,0.6,0.1,1.2,0.1,1.8
		L31.2-404z"/>
	<path id="Path_5532" class="st0" d="M32.3-379.9c0.3,0.1,0.7,0.3,1,0.5c1.9,1.3,3.4,3,4.5,4.9c0.3,0.4,0.2,0.9-0.2,1.1
		c0,0-0.1,0-0.1,0.1c-0.4,0.3-0.9,0.2-1.1-0.2c0,0,0-0.1-0.1-0.1c-0.4-0.7-0.9-1.4-1.4-2c-0.9-0.9-1.9-1.7-2.8-2.5
		c-0.3-0.3-0.5-0.6-0.5-1C31.7-379.4,32.1-379.7,32.3-379.9z"/>
	<path id="Path_5533" class="st0" d="M32.5-430.6c0-0.9,0.6-1.2,1.3-0.9c0.5,0.2,1,0.5,1.4,0.9c1.2,1.3,2.3,2.7,3.5,4.1
		c0.3,0.3,0.4,0.8,0,1.2c-0.1,0.1-0.1,0.1-0.2,0.2c-0.5,0.3-1,0.1-1.3-0.4c-1-1.8-2.5-3.4-4.2-4.5C32.7-430.1,32.6-430.5,32.5-430.6
		z"/>
	<path id="Path_5534" class="st0" d="M80.3-415.5c0.1-0.9,0.8-1.3,1.4-0.8c1.2,1,2.4,2.1,3.5,3.2c0.5,0.5,0.9,1.1,1.2,1.8
		c0.3,0.3,0.3,0.9-0.1,1.2c-0.1,0.1-0.1,0.1-0.2,0.1c-0.5,0.3-0.9,0-1.2-0.4c-0.9-1.1-1.8-2.3-2.7-3.4c-0.4-0.4-0.9-0.7-1.4-1
		C80.6-415.1,80.5-415.3,80.3-415.5z"/>
	<path id="Path_5535" class="st0" d="M51.9-406.5c-0.3,2.4-1.2,4.6-2.7,6.5c-0.3,0.2-0.7,0.3-1.1,0.1c-0.5-0.2-0.5-0.7-0.2-1.2
		c0.6-1,1.1-2,1.6-3c0.3-0.8,0.5-1.7,0.7-2.5c0.1-0.6,0.4-1.1,1-1C51.7-407.6,52-407.1,51.9-406.5z"/>
</g>
</svg>
