<?xml version="1.0" encoding="utf-8"?>
<!-- Generator: Adobe Illustrator 26.2.0, SVG Export Plug-In . SVG Version: 6.00 Build 0)  -->
<svg version="1.1" id="Layer_1" xmlns="http://www.w3.org/2000/svg" xmlns:xlink="http://www.w3.org/1999/xlink" x="0px" y="0px"
	 viewBox="0 0 100 100" style="enable-background:new 0 0 100 100;" xml:space="preserve">
<style type="text/css">
	.st0{fill:#FFFFFF;}
</style>
<g id="Group_11118" transform="translate(793 877.13)">
	<path id="Path_5549" class="st0" d="M-713.5-814.5c7.3,0.5,12.8,6.9,12.3,14.2c-0.2,2.4-1,4.8-2.4,6.7c-0.6,0.8-1.3,1.1-2,0.6
		c-0.6-0.4-0.6-1.2,0-2c3.5-4.8,2.3-11.5-2.5-15c-4.8-3.5-11.5-2.3-15,2.5c-3.5,4.8-2.3,11.5,2.5,15c2,1.4,4.4,2.1,6.9,2
		c1.5-0.1,3.1-0.5,4.4-1.2c0.5-0.4,1.3-0.3,1.7,0.3c0.1,0.1,0.1,0.2,0.1,0.2c0.3,0.7,0,1.3-0.8,1.7c-6.5,3.4-14.5,0.9-17.9-5.6
		c-0.4-0.8-0.7-1.5-1-2.4c-0.1-0.2-0.1-0.4-0.2-0.5c0,0,0,0-0.1-0.1c-0.6,0.4-1.2,0.7-1.9,1.1c-7,4.1-15.2,5.7-23.3,4.5
		c-13.7-2.1-23.4-9.6-29.1-22.2c-2.5-5.5-3.4-11.5-2.8-17.5c1.4-13.8,8.4-23.9,20.7-30.2c6-3,12.8-4.3,19.6-3.5
		c7.4,0.7,14.4,3.5,20.1,8.2c0.6,0.4,0.9,0.9,0.6,1.7c-0.2,0.6-0.8,0.9-1.4,0.7c-0.3-0.1-0.5-0.2-0.8-0.4
		c-13-10.6-31.7-10.4-44.4,0.5c-5.8,4.9-9.8,11.6-11.3,19c-2.1,10.4,0.1,20,6.6,28.4c11.1,14.3,31.5,17.5,46.5,7.3
		c0.3-0.2,0.5-0.5,0.5-0.9c0.1-6.3,4.7-11.6,10.9-12.8c0.3-0.1,0.6-0.4,0.7-0.7c1.5-3.2,2.5-6.7,2.9-10.2c1.1-9.7-1.9-19.4-8.3-26.8
		c-0.1-0.1-0.2-0.2-0.3-0.3c-0.6-0.7-0.6-1.4,0-1.9c0.5-0.4,1.3-0.4,1.7,0.1c0.1,0.1,0.1,0.2,0.2,0.2c1.4,1.7,2.7,3.4,3.9,5.2
		c4.2,6.7,6.1,14.6,5.4,22.5c-0.3,3.7-1.2,7.3-2.6,10.8c-0.1,0.2-0.2,0.4-0.2,0.6C-713.5-814.7-713.5-814.6-713.5-814.5z"/>
	<path id="Path_5550" class="st0" d="M-719.1-829.3c-0.2,13.8-10.1,25.6-23.8,27.9c-15.3,2.6-29.9-7.7-32.6-23
		c-0.1-0.8-0.3-1.7-0.3-2.5c-0.1-0.9,0.3-1.4,1.1-1.5c0.8,0,1.2,0.4,1.3,1.3c1.1,12.6,11.2,22.5,23.7,23.5
		c14.2,1.1,26.7-9.5,27.8-23.8s-9.5-26.7-23.8-27.8c-13.1-1-24.9,8-27.4,20.9c-0.1,0.7-0.2,1.4-0.3,2.1c-0.2,0.9-0.7,1.4-1.4,1.3
		c-0.8-0.1-1.2-0.7-1.1-1.7c1.5-13,11.7-23.3,24.7-24.9c14.4-1.8,27.9,7.6,31.1,21.8C-719.5-833.5-719.4-831.4-719.1-829.3z"/>
	<path id="Path_5551" class="st0" d="M-710.5-797.4c0,0.8,0,1.6,0,2.3c0.1,1.1-0.8,2-1.8,2.1c-0.1,0-0.2,0-0.2,0c-1.2,0-2.4,0-3.7,0
		c-1.1,0.1-2-0.7-2.1-1.8c0-0.1,0-0.2,0-0.2c0-0.8,0-1.5,0-2.4c-0.8,0-1.5,0-2.2,0c-1.1,0.1-2-0.6-2.1-1.7c0-0.1,0-0.3,0-0.4
		c0-1.2,0-2.5,0-3.7c-0.1-1,0.7-1.9,1.7-2c0.1,0,0.2,0,0.3,0c0.7,0,1.5,0,2.4,0c0-0.7,0-1.4,0-2c0-1.7,0.7-2.3,2.4-2.4
		c1.1,0,2.3,0,3.4,0c1.1-0.1,2,0.7,2.1,1.8c0,0.1,0,0.1,0,0.2c0,0.8,0,1.5,0,2.4c0.8,0,1.6,0,2.3,0c1.1-0.1,2,0.7,2,1.8
		c0,0.1,0,0.1,0,0.2c0,1.3,0,2.6,0,3.9c0,1.1-0.8,1.9-1.9,2c-0.1,0-0.1,0-0.2,0C-708.9-797.4-709.7-797.4-710.5-797.4z
		 M-708.7-802.8c-0.8,0-1.5,0-2.2,0c-1.1,0.1-2-0.7-2.1-1.7c0-0.1,0-0.2,0-0.3c0-0.8,0-1.5,0-2.3h-2.9c0,0.8,0,1.5,0,2.2
		c0.1,1.1-0.7,2.1-1.8,2.2c-0.1,0-0.2,0-0.4,0c-0.7,0-1.4,0-2.1,0v2.9c0.7,0,1.4,0,2.1,0c1.1-0.1,2.1,0.6,2.2,1.7c0,0.2,0,0.3,0,0.5
		c0,0.7,0,1.4,0,2.2h2.9c0-0.8,0-1.5,0-2.2c0-1.4,0.7-2.1,2.2-2.1c0.7,0,1.4,0,2.1,0L-708.7-802.8z"/>
	<path id="Path_5552" class="st0" d="M-736.4-842.9c4.3,0.2,7.6,1.3,10,4.2c2.7,3.2,1.8,7.2-1.8,9.2c-4.5,2.4-11.6,0.8-14.6-3.3
		c-2.6-3.5-1.3-7.6,2.9-9.2C-738.7-842.5-737.6-842.7-736.4-842.9z M-735.8-840.4c-1.5-0.1-2.9,0.3-4.2,1.1
		c-1.5,0.8-2.1,2.7-1.3,4.2c0.1,0.1,0.2,0.3,0.2,0.4c0.3,0.4,0.6,0.8,1,1.2c1.8,1.7,4.2,2.6,6.7,2.6c1.7,0.1,3.4-0.3,4.8-1.3
		c1.3-0.9,1.7-2.6,0.9-4c-0.5-0.8-1.1-1.5-1.8-2.1C-731.3-839.7-733.5-840.4-735.8-840.4z"/>
	<path id="Path_5553" class="st0" d="M-752.9-848.8c1.8,0,3.6,0.6,5.1,1.6c2.7,1.6,3.5,5,2,7.6c-0.1,0.2-0.2,0.4-0.4,0.6
		c-1.7,2.5-4.3,3.8-7.2,4.4c-2.2,0.5-4.6,0.3-6.7-0.4c-4.8-1.8-5.8-6.8-2.1-10.4C-760-847.6-756.8-848.8-752.9-848.8z M-756-836.9
		c2.7,0.1,5.2-0.9,7.2-2.8c2.2-2.2,1.6-4.9-1.3-6.1c-2-0.8-4.1-0.8-6.1-0.2c-2,0.4-3.8,1.6-5,3.3c-1.1,1.3-0.8,3.3,0.5,4.3
		c0.1,0.1,0.2,0.2,0.4,0.3C-759.1-837.2-757.6-836.8-756-836.9L-756-836.9z"/>
	<path id="Path_5554" class="st0" d="M-740.4-825.4c3.3,0,5.5,0.5,7.4,1.9c3.3,2.4,3.6,6.2,0.8,9.1c-3.6,3.7-10.8,4.3-15,1.3
		c-3.3-2.4-3.5-6.5-0.5-9.3C-745.7-824.3-743.1-825.3-740.4-825.4z M-739.5-823c-2.4,0.1-4.7,0.7-6.5,2.4c-1.9,1.9-1.7,4.1,0.6,5.6
		c1.2,0.7,2.5,1.2,3.9,1.2c2.8,0.2,5.5-0.4,7.6-2.4c1.8-1.8,1.6-4-0.5-5.4C-736-822.5-737.7-823-739.5-823L-739.5-823z"/>
	<path id="Path_5555" class="st0" d="M-761.5-815.3c-1.2-0.2-2.4-0.5-3.5-0.9c-2.9-1-4.5-4.1-3.5-7c0.1-0.3,0.2-0.5,0.3-0.8
		c1-2.1,2.7-3.9,4.8-4.9c2.7-1.6,5.9-2,8.9-1.3c4.1,1.1,5.8,5.1,3.7,8.8c-1.9,3.3-4.9,4.9-8.5,5.7c-0.7,0.1-1.4,0.2-2.2,0.2
		L-761.5-815.3z M-756.7-828c-3.3,0.2-5.8,1.1-7.8,3.1c-0.7,0.7-1.2,1.5-1.6,2.4c-0.7,1.5,0,3.3,1.5,3.9c0,0,0,0,0.1,0
		c3.8,2,10.6-0.7,12-4.8c0.6-1.5-0.1-3.3-1.6-3.9c0,0,0,0-0.1,0C-755-827.6-755.9-827.9-756.7-828L-756.7-828z"/>
	<path id="Path_5556" class="st0" d="M-732.7-832.7c-3-0.1-5.1-1-6.7-2.9c-0.6-0.8-0.6-1.5,0-2c0.6-0.5,1.3-0.3,1.9,0.4
		c1.6,1.9,4.3,2.5,6.6,1.5c0.9-0.4,1.6-0.2,1.9,0.5c0.3,0.7,0,1.4-0.9,1.7C-731-833.1-732.2-832.8-732.7-832.7z"/>
	<path id="Path_5557" class="st0" d="M-755.9-838.5c-1.2-0.4-2.4-0.7-3.5-1.1c-0.6-0.2-1-0.8-0.8-1.4c0-0.1,0.1-0.2,0.1-0.2
		c0.3-0.6,1-0.9,1.6-0.6c0.1,0,0.1,0.1,0.2,0.1c2.7,1.2,4.9,0.7,6.8-1.4c0.4-0.6,1.1-0.7,1.7-0.4c0,0,0.1,0.1,0.1,0.1
		c0.5,0.5,0.6,1.3,0.1,1.8c0,0-0.1,0.1-0.1,0.1c-1.5,1.8-3.8,2.9-6.2,2.8L-755.9-838.5z"/>
	<path id="Path_5558" class="st0" d="M-740.8-815.5c-1.4,0-2.8-0.5-4-1.3c-0.8-0.5-1-1.2-0.6-1.8c0.4-0.6,1.1-0.7,1.8-0.3
		c2.2,1.4,5,1.2,6.9-0.6c0.7-0.6,1.3-0.6,1.9-0.1c0.5,0.6,0.5,1.2-0.2,1.9C-736.6-816.2-738.7-815.4-740.8-815.5z"/>
	<path id="Path_5559" class="st0" d="M-761.6-819.7c-0.5-0.1-1.3-0.2-2-0.4c-0.6-0.1-1.1-0.7-1-1.4c0-0.1,0-0.1,0-0.2
		c0.2-0.6,0.8-1,1.5-0.9c0,0,0.1,0,0.1,0c2.9,0.6,4.9-0.2,6.5-2.6c0.5-0.7,1.1-1,1.8-0.6c0.6,0.4,0.8,1.2,0.4,1.8c0,0,0,0.1-0.1,0.1
		C-755.9-821.1-758.3-819.9-761.6-819.7z"/>
</g>
</svg>
