<svg id="Group_11134" data-name="Group 11134" xmlns="http://www.w3.org/2000/svg" width="22.528" height="21.137" viewBox="0 0 22.528 21.137">
  <path id="Path_5549" data-name="Path 5549" d="M2775.689,140.165a3.582,3.582,0,0,1,2.658,5.651c-.163.227-.364.287-.535.16s-.167-.318-.011-.544a2.9,2.9,0,1,0-2.188,1.21,2.865,2.865,0,0,0,1.195-.337.333.333,0,0,1,.5.135c.083.178.01.353-.209.462a3.583,3.583,0,0,1-5.091-2.157c-.015-.049-.031-.1-.048-.145,0-.006-.009-.01-.026-.029-.165.1-.332.2-.5.3a9.612,9.612,0,0,1-6.285,1.206,9.769,9.769,0,0,1-7.866-6,9.124,9.124,0,0,1-.749-4.719,9.791,9.791,0,0,1,5.6-8.163,9.441,9.441,0,0,1,5.287-.954,9.9,9.9,0,0,1,5.419,2.227c.15.121.248.256.161.452a.3.3,0,0,1-.381.18.561.561,0,0,1-.206-.118,9.32,9.32,0,0,0-12,.137,8.951,8.951,0,0,0-3.047,5.134,9.321,9.321,0,0,0,14.342,9.658.351.351,0,0,0,.14-.238,3.594,3.594,0,0,1,2.94-3.449.331.331,0,0,0,.188-.179,8.625,8.625,0,0,0,.775-2.754,9.337,9.337,0,0,0-2.234-7.233c-.024-.028-.05-.054-.073-.082a.344.344,0,0,1,0-.524.331.331,0,0,1,.511.1A17.329,17.329,0,0,1,2775,130.95a9.845,9.845,0,0,1,1.45,6.087,9.606,9.606,0,0,1-.7,2.911c-.022.054-.044.108-.065.163A.183.183,0,0,0,2775.689,140.165Z" transform="translate(-2756.485 -126.183)" fill="#653f8c"/>
  <path id="Path_5550" data-name="Path 5550" d="M2778.714,140.631a7.756,7.756,0,0,1-6.422,7.553,7.657,7.657,0,0,1-8.808-6.219c-.04-.223-.068-.449-.085-.675-.019-.25.093-.388.3-.4s.336.115.358.355a6.986,6.986,0,0,0,6.413,6.343,6.984,6.984,0,1,0-6.315-8.281c-.036.186-.054.376-.086.564-.041.242-.181.374-.366.353-.21-.024-.325-.2-.293-.459a7.667,7.667,0,0,1,6.661-6.726,7.631,7.631,0,0,1,8.4,5.9C2778.6,139.494,2778.637,140.067,2778.714,140.631Z" transform="translate(-2761.015 -130.637)" fill="#653f8c"/>
  <path id="Path_5551" data-name="Path 5551" d="M2808.28,173.914c0,.225,0,.422,0,.619a.533.533,0,0,1-.566.565q-.494.007-.989,0a.52.52,0,0,1-.563-.539c-.01-.2,0-.408,0-.644-.214,0-.409,0-.6,0a.519.519,0,0,1-.574-.568c0-.337-.006-.674,0-1.011a.5.5,0,0,1,.539-.533c.2,0,.4,0,.636,0,0-.19,0-.368,0-.547,0-.458.184-.635.642-.636.308,0,.615,0,.923,0a.522.522,0,0,1,.556.547c.006.2,0,.407,0,.635.225,0,.428,0,.631,0a.516.516,0,0,1,.549.531c.012.352.012.7,0,1.055a.521.521,0,0,1-.557.526C2808.705,173.917,2808.509,173.914,2808.28,173.914Zm.495-1.452c-.21,0-.4,0-.589,0a.52.52,0,0,1-.57-.552c-.007-.2,0-.406,0-.618h-.787c0,.205,0,.395,0,.584a.54.54,0,0,1-.589.586c-.194,0-.388,0-.575,0v.792c.2,0,.384,0,.567,0a.536.536,0,0,1,.6.594c0,.188,0,.375,0,.582h.787c0-.22,0-.409,0-.6a.517.517,0,0,1,.583-.579c.188,0,.376,0,.577,0Z" transform="translate(-2788.264 -155.302)" fill="#653f8c"/>
  <path id="Path_5552" data-name="Path 5552" d="M2790.3,144.49a3.466,3.466,0,0,1,2.715,1.138,1.541,1.541,0,0,1-.494,2.473,3.365,3.365,0,0,1-3.952-.9,1.552,1.552,0,0,1,.789-2.493A6.2,6.2,0,0,1,2790.3,144.49Zm.163.684a2.013,2.013,0,0,0-1.133.288.847.847,0,0,0-.285,1.251,1.644,1.644,0,0,0,.266.319,2.713,2.713,0,0,0,1.821.7,1.938,1.938,0,0,0,1.283-.359.784.784,0,0,0,.241-1.07,2.025,2.025,0,0,0-.479-.561A2.7,2.7,0,0,0,2790.459,145.174Z" transform="translate(-2777.272 -138.18)" fill="#653f8c"/>
  <path id="Path_5553" data-name="Path 5553" d="M2775.425,139.873a2.63,2.63,0,0,1,1.37.42,1.5,1.5,0,0,1,.434,2.215,2.961,2.961,0,0,1-1.934,1.182,3.178,3.178,0,0,1-1.812-.121,1.6,1.6,0,0,1-.571-2.8A3.557,3.557,0,0,1,2775.425,139.873Zm-.853,3.221a2.67,2.67,0,0,0,1.933-.748.929.929,0,0,0-.347-1.639,2.556,2.556,0,0,0-1.659-.061,2.245,2.245,0,0,0-1.349.879.835.835,0,0,0,.234,1.244A2,2,0,0,0,2774.572,143.094Z" transform="translate(-2766.853 -135.154)" fill="#653f8c"/>
  <path id="Path_5554" data-name="Path 5554" d="M2786.3,158.237a3.178,3.178,0,0,1,2,.506,1.538,1.538,0,0,1,.21,2.462,3.369,3.369,0,0,1-4.042.339,1.544,1.544,0,0,1-.127-2.509A3.053,3.053,0,0,1,2786.3,158.237Zm.244.657a2.6,2.6,0,0,0-1.764.649.888.888,0,0,0,.15,1.509,2.167,2.167,0,0,0,1.055.336,2.542,2.542,0,0,0,2.047-.653.878.878,0,0,0-.144-1.469A2.439,2.439,0,0,0,2786.549,158.894Z" transform="translate(-2774.36 -147.189)" fill="#653f8c"/>
  <path id="Path_5555" data-name="Path 5555" d="M2770.835,158.363a7.366,7.366,0,0,1-.949-.232,1.5,1.5,0,0,1-.854-2.1,2.8,2.8,0,0,1,1.294-1.326,3.2,3.2,0,0,1,2.413-.347,1.543,1.543,0,0,1,.993,2.373,3.239,3.239,0,0,1-2.3,1.532c-.192.039-.391.046-.587.067Zm1.306-3.454a2.952,2.952,0,0,0-2.1.838,2.077,2.077,0,0,0-.426.654.8.8,0,0,0,.417,1.07,2.608,2.608,0,0,0,3.229-1.307.8.8,0,0,0-.442-1.061A4.108,4.108,0,0,0,2772.141,154.909Z" transform="translate(-2764.604 -144.578)" fill="#653f8c"/>
  <path id="Path_5556" data-name="Path 5556" d="M2793.431,149.867a2.314,2.314,0,0,1-1.817-.78c-.174-.2-.175-.4-.008-.538s.34-.094.513.1a1.5,1.5,0,0,0,1.792.4c.247-.106.432-.055.516.144s0,.369-.244.46C2793.891,149.757,2793.586,149.824,2793.431,149.867Z" transform="translate(-2779.42 -140.79)" fill="#653f8c"/>
  <path id="Path_5557" data-name="Path 5557" d="M2776.725,145.266c-.317-.1-.641-.178-.95-.3a.31.31,0,0,1-.186-.448.332.332,0,0,1,.483-.144,1.489,1.489,0,0,0,1.849-.372.335.335,0,0,1,.5-.068.342.342,0,0,1,0,.507,2.149,2.149,0,0,1-1.679.766Z" transform="translate(-2768.98 -137.762)" fill="#653f8c"/>
  <path id="Path_5558" data-name="Path 5558" d="M2788.321,163.705a2.119,2.119,0,0,1-1.087-.345c-.214-.14-.27-.323-.154-.5s.29-.191.5-.071a1.508,1.508,0,0,0,1.865-.17c.188-.163.363-.171.5-.023s.126.337-.06.517A2.23,2.23,0,0,1,2788.321,163.705Z" transform="translate(-2776.495 -149.978)" fill="#653f8c"/>
  <path id="Path_5559" data-name="Path 5559" d="M2772.957,159.539c-.141-.027-.345-.054-.541-.108a.322.322,0,0,1-.257-.413.326.326,0,0,1,.43-.225,1.507,1.507,0,0,0,1.771-.708c.133-.2.309-.257.481-.149a.342.342,0,0,1,.084.5A2.238,2.238,0,0,1,2772.957,159.539Z" transform="translate(-2766.748 -146.957)" fill="#653f8c"/>
</svg>
