<svg id="Group_11131" data-name="Group 11131" xmlns="http://www.w3.org/2000/svg" width="22.383" height="21.834" viewBox="0 0 22.383 21.834">
  <path id="Path_5519" data-name="Path 5519" d="M2473.044,151.975a4.92,4.92,0,0,1-4.885-4.176,5.153,5.153,0,0,1,.412-2.619,30.179,30.179,0,0,1,2.266-4.561c.6-1.025,1.237-2.028,1.863-3.038.2-.317.349-.315.55,0a49.522,49.522,0,0,1,3.823,6.848,7.9,7.9,0,0,1,.721,2.3,4.533,4.533,0,0,1-1.108,3.507A4.746,4.746,0,0,1,2473.044,151.975Zm-.061-13.942c-.049.067-.087.111-.116.16-.684,1.137-1.385,2.265-2.044,3.416a24.9,24.9,0,0,0-1.894,3.961,4.148,4.148,0,0,0-.287,2.218,4.235,4.235,0,0,0,3.244,3.556,4.164,4.164,0,0,0,4.533-1.542,3.828,3.828,0,0,0,.885-3.08,8.273,8.273,0,0,0-.542-1.8,38.234,38.234,0,0,0-2.807-5.323C2473.641,139.079,2473.315,138.566,2472.983,138.033Z" transform="translate(-2457.566 -130.141)" fill="#653f8c"/>
  <path id="Path_5520" data-name="Path 5520" d="M2472.675,109.009a3.187,3.187,0,0,1,.39-1.205,6.076,6.076,0,0,1,2.9-2.868,3.559,3.559,0,0,1,1.01-.278,1.281,1.281,0,0,1,1.449,1.512,4.408,4.408,0,0,1-.908,2.116,5.91,5.91,0,0,1-2.682,2.1,2.542,2.542,0,0,1-.878.166C2473.168,110.551,2472.671,110,2472.675,109.009Zm.455.172a.816.816,0,0,0,.977.888,2.227,2.227,0,0,0,.6-.133,5.513,5.513,0,0,0,2.987-2.9,3.052,3.052,0,0,0,.26-1.078.754.754,0,0,0-.865-.843,1.789,1.789,0,0,0-.6.121,5.544,5.544,0,0,0-3.262,3.448A3.238,3.238,0,0,0,2473.13,109.181Z" transform="translate(-2461.12 -104.644)" fill="#653f8c"/>
  <path id="Path_5521" data-name="Path 5521" d="M2424.174,118.474a5.81,5.81,0,0,1-.7,2.709,2.518,2.518,0,0,1-.49.588,1.187,1.187,0,0,1-1.67-.034,3.12,3.12,0,0,1-.88-1.618,5.989,5.989,0,0,1,.315-4.1,2.8,2.8,0,0,1,.485-.7,1.218,1.218,0,0,1,1.864-.026,3.093,3.093,0,0,1,.814,1.559C2424.033,117.385,2424.089,117.933,2424.174,118.474Zm-3.471,0-.059.011c.1.553.168,1.112.294,1.659a2.417,2.417,0,0,0,.646,1.206.757.757,0,0,0,1.18-.006,2.277,2.277,0,0,0,.451-.669,5.522,5.522,0,0,0,.017-4.321,2.475,2.475,0,0,0-.564-.8.677.677,0,0,0-1.006.012,2.324,2.324,0,0,0-.452.588A4.906,4.906,0,0,0,2420.7,118.469Z" transform="translate(-2420.218 -112.619)" fill="#653f8c"/>
  <path id="Path_5522" data-name="Path 5522" d="M2434.959,143.529a4.8,4.8,0,0,1,1.738-3.573,1.288,1.288,0,0,1,1.064-.317,1.169,1.169,0,0,1,.875,1.114,4.567,4.567,0,0,1-.988,3.265,2.9,2.9,0,0,1-.95.872,1.061,1.061,0,0,1-1.633-.693A6.082,6.082,0,0,1,2434.959,143.529Zm.48.106a3.74,3.74,0,0,0,.138.6.519.519,0,0,0,.7.312,1.911,1.911,0,0,0,.6-.386,4.383,4.383,0,0,0,1.236-2.284,2.353,2.353,0,0,0-.042-1.385.545.545,0,0,0-.815-.326,1.449,1.449,0,0,0-.351.223A4.44,4.44,0,0,0,2435.439,143.635Z" transform="translate(-2431.712 -131.914)" fill="#653f8c"/>
  <path id="Path_5523" data-name="Path 5523" d="M2448.465,176.249a3.89,3.89,0,0,1-.1.524,1,1,0,0,1-1.365.7,3.13,3.13,0,0,1-1.425-1.1,4.491,4.491,0,0,1-1.086-2.771,1.832,1.832,0,0,1,.056-.457,1.04,1.04,0,0,1,1.491-.761,3.518,3.518,0,0,1,1.5,1.288A4.538,4.538,0,0,1,2448.465,176.249Zm-.458-.106-.038-.006c0-.088,0-.176,0-.264a.558.558,0,0,0-.012-.087,4.371,4.371,0,0,0-1.4-2.506,2.856,2.856,0,0,0-.837-.5.47.47,0,0,0-.656.339,2.211,2.211,0,0,0-.069.842,4.254,4.254,0,0,0,1.531,2.688,2.357,2.357,0,0,0,.7.389.49.49,0,0,0,.654-.323A4.1,4.1,0,0,0,2448.006,176.144Z" transform="translate(-2439.146 -157.38)" fill="#653f8c"/>
  <path id="Path_5524" data-name="Path 5524" d="M2445.586,110.567c.02-.159.03-.321.063-.478a1.015,1.015,0,0,1,1.4-.811,2.882,2.882,0,0,1,1.332.973,4.617,4.617,0,0,1,1.177,2.984,1.123,1.123,0,0,1-.8,1.183,1.267,1.267,0,0,1-.991-.173,4.435,4.435,0,0,1-1.725-1.948A4.015,4.015,0,0,1,2445.586,110.567Zm.473.015.015,0c0,.1.008.191.013.286a.661.661,0,0,0,.012.087,4.433,4.433,0,0,0,1.5,2.591,2.227,2.227,0,0,0,.655.388.56.56,0,0,0,.79-.426,1.037,1.037,0,0,0,.041-.3,4.2,4.2,0,0,0-1.479-3.054,2.411,2.411,0,0,0-.7-.432.534.534,0,0,0-.774.407A3.929,3.929,0,0,0,2446.059,110.582Z" transform="translate(-2439.998 -108.203)" fill="#653f8c"/>
  <path id="Path_5525" data-name="Path 5525" d="M2503.818,128.789a3.985,3.985,0,0,1,.111-.57,1,1,0,0,1,1.313-.673,2.788,2.788,0,0,1,1.236.849,4.721,4.721,0,0,1,1.284,2.622,2.631,2.631,0,0,1-.036.893,1.028,1.028,0,0,1-1.48.744,3.382,3.382,0,0,1-1.38-1.131A4.68,4.68,0,0,1,2503.818,128.789Zm.461.076.021.007c.012.124.014.249.035.371a4.3,4.3,0,0,0,1.347,2.46,2.889,2.889,0,0,0,.822.527.517.517,0,0,0,.752-.4,2.321,2.321,0,0,0,.029-.8,4.239,4.239,0,0,0-1.475-2.6,2.542,2.542,0,0,0-.775-.432.476.476,0,0,0-.632.322A4.173,4.173,0,0,0,2504.28,128.866Z" transform="translate(-2485.402 -122.459)" fill="#653f8c"/>
  <path id="Path_5526" data-name="Path 5526" d="M2457.989,142.115a4.171,4.171,0,0,1,.983-2.346,3.95,3.95,0,0,1,1.494-1.237,1.94,1.94,0,0,1,.718-.173,1.022,1.022,0,0,1,1.035,1.1,3.36,3.36,0,0,1-.164.99,4.637,4.637,0,0,1-2.032,2.619,2.306,2.306,0,0,1-.877.314.983.983,0,0,1-1.136-.929C2458,142.346,2458,142.235,2457.989,142.115Zm3.764-2.448c.005-.717-.381-.989-.967-.766a2.024,2.024,0,0,0-.407.213,4.5,4.5,0,0,0-1.746,2.2,2.167,2.167,0,0,0-.146,1.1c.054.353.247.535.6.492a1.912,1.912,0,0,0,.658-.215,3.8,3.8,0,0,0,1.425-1.432A3.742,3.742,0,0,0,2461.753,139.668Z" transform="translate(-2449.668 -130.932)" fill="#653f8c"/>
  <path id="Path_5527" data-name="Path 5527" d="M2483.982,170.532c0-.385,0-.743,0-1.1,0-.173.031-.315.23-.336.156-.017.248.113.249.341,0,.358,0,.716,0,1.1.379,0,.737,0,1.094,0,.229,0,.358.089.342.246-.02.2-.162.235-.334.233-.358,0-.716,0-1.1,0v.912c0,.074,0,.147,0,.22.006.17-.06.3-.238.307s-.243-.128-.241-.3c0-.367,0-.734,0-1.138h-.854c-.1,0-.206,0-.308,0-.166,0-.281-.077-.279-.242s.123-.237.285-.236c.3,0,.6,0,.9,0Z" transform="translate(-2468.812 -154.896)" fill="#653f8c"/>
  <path id="Path_5528" data-name="Path 5528" d="M2493.025,181.079a3.7,3.7,0,0,1-3.06,3.456c-.167.024-.335.033-.5.047s-.346-.009-.347-.229.179-.219.345-.249a5.019,5.019,0,0,0,1.147-.26,3.108,3.108,0,0,0,1.944-2.826.4.4,0,0,1,.039-.211c.054-.065.156-.143.222-.131a.379.379,0,0,1,.205.186C2493.051,180.918,2493.025,181.006,2493.025,181.079Z" transform="translate(-2473.938 -163.927)" fill="#653f8c"/>
  <path id="Path_5529" data-name="Path 5529" d="M2486.783,112.108c-.065-.053-.168-.095-.183-.158a.375.375,0,0,1,.048-.276c.156-.221.344-.418.5-.637a3.233,3.233,0,0,0,.564-1.2c.032-.148.123-.246.279-.213a.233.233,0,0,1,.185.317,4.56,4.56,0,0,1-1.218,2.075A.731.731,0,0,1,2486.783,112.108Z" transform="translate(-2471.97 -108.52)" fill="#653f8c"/>
  <path id="Path_5530" data-name="Path 5530" d="M2429.05,122.225c.006.376-.061.5-.229.5s-.238-.123-.249-.412a4,4,0,0,0-.482-1.916.23.23,0,0,1,.077-.357c.146-.082.25-.01.328.117a3.988,3.988,0,0,1,.512,1.619C2429.03,121.953,2429.041,122.128,2429.05,122.225Z" transform="translate(-2426.315 -116.624)" fill="#653f8c"/>
  <path id="Path_5531" data-name="Path 5531" d="M2444.969,144.313c-.122.434-.241.87-.367,1.3-.048.165-.15.287-.34.208-.171-.072-.167-.215-.1-.371a3.1,3.1,0,0,0,.265-1.585.217.217,0,0,1,.207-.261.22.22,0,0,1,.261.208c.023.159.025.321.036.482Z" transform="translate(-2438.854 -135.022)" fill="#653f8c"/>
  <path id="Path_5532" data-name="Path 5532" d="M2448.748,176.1a2.7,2.7,0,0,1,.266.131,3.73,3.73,0,0,1,1.2,1.326.218.218,0,0,1-.08.323.22.22,0,0,1-.322-.083,4.416,4.416,0,0,0-.379-.538c-.232-.24-.5-.444-.744-.676a.4.4,0,0,1-.127-.27C2448.567,176.235,2448.679,176.169,2448.748,176.1Z" transform="translate(-2442.316 -160.357)" fill="#653f8c"/>
  <path id="Path_5533" data-name="Path 5533" d="M2449.643,113.41c0-.23.17-.332.348-.245a1.164,1.164,0,0,1,.363.242c.32.359.626.73.928,1.1a.224.224,0,0,1-.049.361c-.146.091-.264.028-.349-.111a3.258,3.258,0,0,0-1.133-1.2C2449.691,113.527,2449.663,113.439,2449.643,113.41Z" transform="translate(-2443.161 -111.264)" fill="#653f8c"/>
  <path id="Path_5534" data-name="Path 5534" d="M2507.858,131.719c.021-.241.22-.346.38-.217a12.089,12.089,0,0,1,.953.867,2.706,2.706,0,0,1,.321.472.227.227,0,0,1-.071.357c-.147.088-.245,0-.334-.11-.238-.305-.472-.614-.726-.906a3.125,3.125,0,0,0-.368-.275A1.151,1.151,0,0,1,2507.858,131.719Z" transform="translate(-2488.552 -125.542)" fill="#653f8c"/>
  <path id="Path_5535" data-name="Path 5535" d="M2469.217,142.578a3.515,3.515,0,0,1-.734,1.737.327.327,0,0,1-.3.039c-.13-.058-.134-.191-.061-.321a8.758,8.758,0,0,0,.438-.81,3.242,3.242,0,0,0,.176-.675c.032-.165.1-.294.274-.279S2469.234,142.414,2469.217,142.578Z" transform="translate(-2457.531 -133.98)" fill="#653f8c"/>
</svg>
