<svg id="lab-microscope-cell-covid19-coronavirus" xmlns="http://www.w3.org/2000/svg" width="60.829" height="60.324" viewBox="0 0 60.829 60.324">
  <path id="Path_3516" data-name="Path 3516" d="M59.854,53.114v-22.2A12.975,12.975,0,0,0,46.89,17.954H45.783a7.038,7.038,0,0,0-2.124-1.426l.788-2.962a.985.985,0,0,0-.7-1.217l-2.892-.778.778-2.892a5.236,5.236,0,0,0,.628-.309,4.936,4.936,0,0,0,2.323-3.031,1,1,0,0,0-.7-1.217L34.256,1.54a1,1,0,0,0-1.227.708,4.955,4.955,0,0,0,.5,3.779,5.79,5.79,0,0,0,.4.568l-.778,2.912L30.257,8.73a1,1,0,0,0-1.217.708L23.875,28.7a.987.987,0,0,0,.708,1.217l1.925.519L25.74,33.33a1.006,1.006,0,0,0,.09.758,1.036,1.036,0,0,0,.608.459l.967.259L26.627,37.7a1.01,1.01,0,0,0,.1.758.98.98,0,0,0,.608.459l3.849,1.037a1.149,1.149,0,0,0,.259.03.955.955,0,0,0,.5-.13,1,1,0,0,0,.469-.608l.768-2.892.967.259a.744.744,0,0,0,.259.04.99.99,0,0,0,.5-.14.952.952,0,0,0,.459-.6l.778-2.892,1.925.509a.822.822,0,0,0,.259.04,1,1,0,0,0,.967-.738l.788-2.962a7.835,7.835,0,0,0,.828.05,7,7,0,0,0,4.856-1.994H46.89a3,3,0,0,1,2.992,2.992V45.845l-9.972.03v-1a1,1,0,0,0-1-1H20.963a1,1,0,0,0-1,1v3.989a1,1,0,0,0,1,1H38.913a1,1,0,0,0,1-1v-1l9.972-.03v4.019H14.98A6.988,6.988,0,0,0,8,58.838v1.994a1,1,0,0,0,1,1H61.848a1,1,0,0,0,1-1V58.838a6.99,6.99,0,0,0-2.992-5.724ZM42.243,5.748a3.021,3.021,0,0,1-.977.9,2.948,2.948,0,0,1-2.264.3l-1.925-.519a2.984,2.984,0,0,1-2.214-2.653ZM39.471,9.019l-.538,2.034-3.859-1.027L35.622,8a5.845,5.845,0,0,0,.937.349l1.925.519A4.827,4.827,0,0,0,39.471,9.019ZM30.736,37.768l-1.925-.519.519-1.925,1.546.409.379.11ZM33.7,34.427l-5.774-1.546.509-1.925L34.216,32.5Zm3.929-3.081L26.059,28.255l4.647-17.341,11.557,3.1-.529,2a6.973,6.973,0,0,0-3.58,13.332Zm8.1-7.12a4.986,4.986,0,0,1-9.134,1.207,4.916,4.916,0,0,1-.5-3.779,4.986,4.986,0,0,1,4.816-3.7,4.751,4.751,0,0,1,1.286.17,4.974,4.974,0,0,1,2.463,1.526v.01a4.532,4.532,0,0,1,.568.788A4.916,4.916,0,0,1,45.724,24.226ZM37.916,47.869H21.961V45.875H37.916Zm9.274-21.908a6.368,6.368,0,0,0,.459-1.217,6.861,6.861,0,0,0-.429-4.777,10.969,10.969,0,0,1,10.64,10.949v21.23a7.247,7.247,0,0,0-1.994-.289H51.876V30.917a4.979,4.979,0,0,0-4.687-4.956ZM60.851,59.836H9.994v-1a4.986,4.986,0,0,1,4.986-4.986H55.865a4.986,4.986,0,0,1,4.986,4.986Z" transform="translate(-2.017 -1.506)" fill=""/>
  <path id="Path_3517" data-name="Path 3517" d="M12.969,38.9a2.992,2.992,0,0,0,2.992,2.992h7.978a1,1,0,1,0,0-1.994H15.961a1,1,0,0,1-1-1V25.882a11.966,11.966,0,1,0-1.994,0ZM3.994,13.966a9.972,9.972,0,1,1,9.972,9.972,9.972,9.972,0,0,1-9.972-9.972Z" transform="translate(-2 -1.507)" fill=""/>
  <path id="Path_3518" data-name="Path 3518" d="M15.975,19.963a1,1,0,0,0-1-1V17.827a3.9,3.9,0,0,0,1.016-.424l.807.807a1,1,0,0,0,1.41,1.411l1.411-1.41a1,1,0,0,0-1.41-1.411h0l-.807-.808a3.9,3.9,0,0,0,.423-1.015h1.139a1,1,0,1,0,1.994,0V12.983a1,1,0,0,0-1.994,0H17.827a3.9,3.9,0,0,0-.424-1.016l.807-.808h0a1,1,0,1,0,1.41-1.411L18.21,8.339A1,1,0,1,0,16.8,9.75l-.807.807a3.9,3.9,0,0,0-1.016-.424V8.994a1,1,0,1,0,0-1.994H12.983a1,1,0,0,0,0,1.994v1.139a3.9,3.9,0,0,0-1.016.424L11.16,9.75A1,1,0,0,0,9.75,8.339L8.339,9.749a1,1,0,1,0,1.41,1.411h0l.807.808a3.9,3.9,0,0,0-.423,1.015H8.994a1,1,0,0,0-1.994,0v1.994a1,1,0,1,0,1.994,0h1.139a3.9,3.9,0,0,0,.424,1.016L9.75,16.8h0a1,1,0,1,0-1.41,1.411l1.411,1.41a1,1,0,1,0,1.41-1.411l.807-.807a3.9,3.9,0,0,0,1.015.423v1.139a1,1,0,0,0,0,1.994h1.994A1,1,0,0,0,15.975,19.963ZM11.986,13.98a1.994,1.994,0,1,1,1.994,1.994A1.994,1.994,0,0,1,11.986,13.98Z" transform="translate(-2.014 -1.521)" fill=""/>
  <path id="Path_3519" data-name="Path 3519" d="M40.992,25.983a2.992,2.992,0,1,1,2.992-2.992A2.992,2.992,0,0,1,40.992,25.983Zm0-3.989a1,1,0,1,0,1,1A1,1,0,0,0,40.992,21.994Z" transform="translate(-2.101 -1.558)" fill=""/>
</svg>
