<svg xmlns="http://www.w3.org/2000/svg" width="14.578" height="17.338" viewBox="0 0 14.578 17.338">
  <path id="Path_5646" data-name="Path 5646" d="M139.444,764.578h14.578l-2.9-7.316H149.01c1.092-2.049,2.167-4.371,2.167-5.578a4.443,4.443,0,1,0-8.887,0c0,1.207,1.075,3.529,2.167,5.578h-2.108Zm7.289-15.243a2.328,2.328,0,1,1-2.327,2.328A2.327,2.327,0,0,1,146.733,749.335Zm-1.758,8.879c.936,1.684,1.758,2.991,1.758,2.991s.821-1.307,1.758-2.991h1.98l2.149,5.412H140.846L143,758.214Z" transform="translate(-139.444 -747.24)" fill="#737373"/>
</svg>
