<svg xmlns="http://www.w3.org/2000/svg" width="21.087" height="28.4" viewBox="0 0 21.087 28.4">
  <g id="Group_10918" data-name="Group 10918" transform="translate(0.2 0.2)">
    <g id="Group_8044" data-name="Group 8044">
      <path id="Path_7" data-name="Path 7" d="M58.423,0A10.355,10.355,0,0,0,48.08,10.343a11.934,11.934,0,0,0,.877,3.982,16.681,16.681,0,0,0,1.2,2.236l7.092,10.745a1.349,1.349,0,0,0,2.357,0l7.092-10.746a16.611,16.611,0,0,0,1.2-2.236,11.931,11.931,0,0,0,.877-3.982A10.355,10.355,0,0,0,58.423,0Zm8.345,13.853a15.283,15.283,0,0,1-1.09,2.038L58.586,26.638c-.14.212-.184.212-.324,0L51.169,15.892a15.292,15.292,0,0,1-1.09-2.039,10.832,10.832,0,0,1-.782-3.509,9.126,9.126,0,0,1,18.253,0A10.841,10.841,0,0,1,66.768,13.853Z" transform="translate(-48.08)" fill="#fff" stroke="#fff" stroke-width="0.4"/>
      <path id="Path_8" data-name="Path 8" d="M117.556,64.008a5.476,5.476,0,1,0,5.476,5.476A5.482,5.482,0,0,0,117.556,64.008Zm0,9.735a4.259,4.259,0,1,1,4.259-4.259A4.264,4.264,0,0,1,117.556,73.743Z" transform="translate(-107.213 -59.14)" fill="#fff" stroke="#fff" stroke-width="0.4"/>
    </g>
  </g>
</svg>
