<svg xmlns="http://www.w3.org/2000/svg" width="65.03" height="74" viewBox="0 0 65.03 74">
  <g id="Group_11699" data-name="Group 11699" transform="translate(-2323.252 -1441.247)">
    <path id="Path_6213" data-name="Path 6213" d="M1654.008,94.343a10.836,10.836,0,1,1,10.827-10.863,10.872,10.872,0,0,1-10.827,10.863m-.04-17.334a6.5,6.5,0,1,0,6.528,6.449,6.556,6.556,0,0,0-6.528-6.449" transform="translate(701.755 1381.729)" fill="#fff"/>
    <path id="Path_6212" data-name="Path 6212" d="M1557.4,0c1.72.323,3.472.524,5.151.991a23.094,23.094,0,0,1,12.019,8.077,23.068,23.068,0,0,1,4.63,9.678,23.325,23.325,0,0,1-3.022,17.818c-2.439,3.923-4.974,7.788-7.464,11.68-.114.179-.213.367-.368.635.762.141,1.465.26,2.163.4a42.557,42.557,0,0,1,11.883,3.885,12.108,12.108,0,0,1,5.137,4.513,6.337,6.337,0,0,1-.445,7.313,13.667,13.667,0,0,1-5.175,4.064,44.239,44.239,0,0,1-13.148,3.921,81.4,81.4,0,0,1-21.668.549,52.165,52.165,0,0,1-15.913-3.889,15.861,15.861,0,0,1-5.939-4.125,6.741,6.741,0,0,1,.531-9.659,19.845,19.845,0,0,1,6.817-4.1A52.56,52.56,0,0,1,1542.96,49c.182-.031.36-.085.616-.147-.178-.283-.314-.5-.454-.72-2.477-3.871-5-7.713-7.421-11.621a22.775,22.775,0,0,1-3.226-16.409c1.516-8.514,6.34-14.548,14.169-18.159a21.154,21.154,0,0,1,7.313-1.827,4.4,4.4,0,0,0,.556-.113Zm-1.443,60.149c.183-.27.333-.478.471-.694q7.808-12.23,15.618-24.458c4.112-6.407,4.636-13.094,1.244-19.879A18.43,18.43,0,0,0,1557.9,4.491c-7.368-.726-13.312,2.1-17.742,8.021a19.586,19.586,0,0,0-.765,21.758q8.056,12.628,16.13,25.244c.125.2.264.383.438.635m-.03,9.354c1.636,0,3.276.073,4.907-.014a57.236,57.236,0,0,0,15.432-2.751,18.356,18.356,0,0,0,6.53-3.437c1.726-1.536,1.755-2.939.094-4.527a14.945,14.945,0,0,0-4.731-2.85,46.338,46.338,0,0,0-12.009-2.941.941.941,0,0,0-.7.411c-1.008,1.524-1.98,3.073-2.963,4.615-1.512,2.374-3.03,4.744-4.532,7.123a2.252,2.252,0,0,1-2.408,1.208,2.417,2.417,0,0,1-1.647-1.286q-3.676-5.786-7.359-11.569c-.256-.4-.476-.621-1.023-.5-1.008.222-2.045.3-3.06.492a34.31,34.31,0,0,0-10.986,3.571,13.982,13.982,0,0,0-2.985,2.343,2.156,2.156,0,0,0,0,3.232,9.138,9.138,0,0,0,1.595,1.448,24.372,24.372,0,0,0,7.5,3.274A62.647,62.647,0,0,0,1555.93,69.5" transform="translate(799.796 1441.247)" fill="#fff"/>
  </g>
</svg>
