<svg xmlns="http://www.w3.org/2000/svg" xmlns:xlink="http://www.w3.org/1999/xlink" width="352" height="84.234" viewBox="0 0 352 84.234">
  <defs>
    <clipPath id="clip-path">
      <path id="Path_5484" data-name="Path 5484" d="M193.627,451.231c-2.193,2.373-6.554,2.061-11.34,1.748-6.105-.4-12.9-.8-16.776,4.38-6.206,8.294-4.677,23.45,7.286,30.745a18.037,18.037,0,0,1-3.979-7.294c-1.168-4.6-.594-9.3,2.2-12.566,7.208-8.408,22.665-1.4,28.483-7.691,3.814-4.124,3.323-13.95-7.054-17.642,0,0,5.315,3.845,1.179,8.321" transform="translate(-161.934 -442.91)" fill="none"/>
    </clipPath>
    <linearGradient id="linear-gradient" x1="-1.498" y1="-0.285" x2="-1.493" y2="-0.285" gradientUnits="objectBoundingBox">
      <stop offset="0" stop-color="#e465a2"/>
      <stop offset="0.31" stop-color="#e03a90"/>
      <stop offset="0.596" stop-color="#de1a83"/>
      <stop offset="0.835" stop-color="#dc067b"/>
      <stop offset="1" stop-color="#dc0079"/>
    </linearGradient>
    <clipPath id="clip-path-2">
      <path id="Path_5485" data-name="Path 5485" d="M194.273,446.129a4.563,4.563,0,1,0,4.563-4.563,4.562,4.562,0,0,0-4.563,4.563" transform="translate(-194.273 -441.566)" fill="none"/>
    </clipPath>
    <linearGradient id="linear-gradient-2" x1="-9.764" y1="-1.852" x2="-9.739" y2="-1.852" gradientUnits="objectBoundingBox">
      <stop offset="0" stop-color="#e77aae"/>
      <stop offset="1" stop-color="#dc0079"/>
    </linearGradient>
    <clipPath id="clip-path-3">
      <path id="Path_5486" data-name="Path 5486" d="M193.94,496.174a4.5,4.5,0,1,0,4.5-4.5,4.5,4.5,0,0,0-4.5,4.5" transform="translate(-193.94 -491.675)" fill="none"/>
    </clipPath>
    <linearGradient id="linear-gradient-3" x1="-9.908" y1="-4.467" x2="-9.883" y2="-4.467" gradientUnits="objectBoundingBox">
      <stop offset="0" stop-color="#e82728"/>
      <stop offset="0.995" stop-color="#fc9d2d"/>
      <stop offset="1" stop-color="#fc9d2d"/>
    </linearGradient>
    <clipPath id="clip-path-4">
      <path id="Path_5487" data-name="Path 5487" d="M216.995,475.32a4.563,4.563,0,1,0,4.563-4.563,4.563,4.563,0,0,0-4.563,4.563" transform="translate(-216.995 -470.757)" fill="none"/>
    </clipPath>
    <linearGradient id="linear-gradient-4" x1="-12.45" y1="-3.66" x2="-12.422" y2="-3.66" gradientUnits="objectBoundingBox">
      <stop offset="0" stop-color="#48237e"/>
      <stop offset="1" stop-color="#996dac"/>
    </linearGradient>
    <clipPath id="clip-path-5">
      <path id="Path_5488" data-name="Path 5488" d="M176.564,482.92c-1.8,2.494-1.971,5.705-1.462,8.769a15.386,15.386,0,0,0,15.027,12.869h.123a25.005,25.005,0,0,0,4.451-.4c.071-.092.112-.15.112-.15-8.441-.765-13.145-8.96-11.749-15.089,1.768-7.756,11.293-5.995,11.293-5.995a20.406,20.406,0,0,0-10.508-3.541,8.532,8.532,0,0,0-7.287,3.541" transform="translate(-174.852 -479.379)" fill="none"/>
    </clipPath>
    <linearGradient id="linear-gradient-5" x1="-3.339" y1="-1.507" x2="-3.329" y2="-1.507" xlink:href="#linear-gradient-3"/>
    <clipPath id="clip-path-6">
      <path id="Path_5489" data-name="Path 5489" d="M213.549,481.334c5.552,10.2-.348,18.037-.427,18.141A24.888,24.888,0,0,0,227.8,470.161c.221,18.471-14.254,11.173-14.254,11.173" transform="translate(-213.122 -470.161)" fill="none"/>
    </clipPath>
    <linearGradient id="linear-gradient-6" x1="-5.865" y1="-1.251" x2="-5.852" y2="-1.251" xlink:href="#linear-gradient-4"/>
  </defs>
  <g id="Group_11029" data-name="Group 11029" transform="translate(-104 -435.336)">
    <text id="hematology_oncology_network" data-name="hematology oncology network" transform="translate(104 513.57)" fill="#fff" font-size="25" font-family="Gilroy-Light, Gilroy" font-weight="300"><tspan x="0" y="0">hema</tspan><tspan y="0" letter-spacing="-0.029em">t</tspan><tspan y="0">ology on</tspan><tspan y="0" letter-spacing="-0.004em">c</tspan><tspan y="0">ology n</tspan><tspan y="0" letter-spacing="-0.014em">e</tspan><tspan y="0">t</tspan><tspan y="0" letter-spacing="-0.019em">w</tspan><tspan y="0">ork</tspan></text>
    <g id="Group_11028" data-name="Group 11028" transform="translate(141.517 435.336)">
      <g id="Group_11027" data-name="Group 11027" transform="translate(0 4.034)">
        <g id="Group_11016" data-name="Group 11016" transform="translate(0 0.87)">
          <g id="Group_11015" data-name="Group 11015" clip-path="url(#clip-path)">
            <rect id="Rectangle_6758" data-name="Rectangle 6758" width="62.628" height="62.406" transform="matrix(0.607, -0.795, 0.795, 0.607, -24.427, 28.552)" fill="url(#linear-gradient)"/>
          </g>
        </g>
        <g id="Group_11018" data-name="Group 11018" transform="translate(20.942)">
          <g id="Group_11017" data-name="Group 11017" clip-path="url(#clip-path-2)">
            <rect id="Rectangle_6759" data-name="Rectangle 6759" width="12.79" height="12.79" transform="translate(-4.401 5.765) rotate(-52.64)" fill="url(#linear-gradient-2)"/>
          </g>
        </g>
        <g id="Group_11020" data-name="Group 11020" transform="translate(20.726 32.45)">
          <g id="Group_11019" data-name="Group 11019" clip-path="url(#clip-path-3)">
            <rect id="Rectangle_6760" data-name="Rectangle 6760" width="12.575" height="12.575" transform="matrix(0.59, -0.807, 0.807, 0.59, -4.287, 5.867)" fill="url(#linear-gradient-3)"/>
          </g>
        </g>
        <g id="Group_11022" data-name="Group 11022" transform="translate(35.656 18.904)">
          <g id="Group_11021" data-name="Group 11021" clip-path="url(#clip-path-4)">
            <rect id="Rectangle_6761" data-name="Rectangle 6761" width="11.345" height="11.345" transform="translate(-2.49 0.739) rotate(-16.535)" fill="url(#linear-gradient-4)"/>
          </g>
        </g>
        <g id="Group_11024" data-name="Group 11024" transform="translate(8.366 24.487)">
          <g id="Group_11023" data-name="Group 11023" clip-path="url(#clip-path-5)">
            <rect id="Rectangle_6762" data-name="Rectangle 6762" width="32.261" height="31.183" transform="translate(-12.254 16.414) rotate(-53.842)" fill="url(#linear-gradient-5)"/>
          </g>
        </g>
        <g id="Group_11026" data-name="Group 11026" transform="translate(33.148 18.518)">
          <g id="Group_11025" data-name="Group 11025" clip-path="url(#clip-path-6)">
            <rect id="Rectangle_6763" data-name="Rectangle 6763" width="23.186" height="32.508" transform="matrix(0.959, -0.285, 0.285, 0.959, -7.998, 2.375)" fill="url(#linear-gradient-6)"/>
          </g>
        </g>
      </g>
      <path id="Path_5490" data-name="Path 5490" d="M282.6,455.32H271.815l-10.929,12.737V450.451h-9.3V488.61h9.3V474.149l12.576,14.461h10.684L269.082,471.1Z" transform="translate(-193.528 -440.663)" fill="#fff"/>
      <path id="Path_5491" data-name="Path 5491" d="M330.394,461.241a12.651,12.651,0,0,0-9.823-4.053c-9.376,0-16.223,7.092-16.223,17.151,0,9.915,6.846,17.223,16.223,17.223a12.65,12.65,0,0,0,9.823-4.052v3.474h9.3v-33.29h-9.3Zm-8.3,21.666c-5.067,0-8.445-3.671-8.445-8.636s3.378-8.636,8.445-8.636,8.371,3.671,8.371,8.636-3.3,8.636-8.371,8.636" transform="translate(-212.123 -443.037)" fill="#fff"/>
      <path id="Path_5492" data-name="Path 5492" d="M379.221,435.336a4.8,4.8,0,0,0-5.067,4.75,5.067,5.067,0,0,0,10.133,0,4.837,4.837,0,0,0-5.067-4.75" transform="translate(-236.724 -435.336)" fill="#fff"/>
      <path id="Path_5493" data-name="Path 5493" d="M374.807,491.26h9.228l.074-33.29h-9.3Z" transform="translate(-236.954 -443.313)" fill="#fff"/>
      <path id="Path_5494" data-name="Path 5494" d="M428.723,464.687v-6.716H402.777v7.343H417.5l-14.72,19.206v6.74h26.435v-7.833H414.421Z" transform="translate(-246.811 -443.313)" fill="#fff"/>
      <path id="Path_5495" data-name="Path 5495" d="M469.11,457.115c-10.207,0-16.815,7.34-16.815,17.2s6.829,17.271,17.182,17.271c6.168,0,11.308-2.591,14.246-6.765l-6.242-4.462c-1.174,1.511-3.524,3.527-8,3.527a8.306,8.306,0,0,1-8.371-7.125h24.231v-2.447c0-9.859-6.168-17.2-16.228-17.2m-7.792,13.772c.881-4.174,3.672-6.837,7.857-6.837,4.332,0,6.829,2.951,7.636,6.837Z" transform="translate(-264.262 -443.011)" fill="#fff"/>
      <path id="Path_5496" data-name="Path 5496" d="M535.661,457.188a12.62,12.62,0,0,0-9.432,3.691v-3.184h-9.3v33.29h9.3V472.129c0-5.829,3.973-7.2,6.573-7.2,2.528,0,6.645,1.368,6.645,7.2v18.855h9.3V470.649c0-10.2-7.019-13.461-13.088-13.461" transform="translate(-287.04 -443.037)" fill="#fff"/>
    </g>
  </g>
</svg>
