<?xml version="1.0" encoding="UTF-8"?><svg xmlns="http://www.w3.org/2000/svg" viewBox="0 0 92.68 89.56"><defs><style>.d{fill:#fff;}</style></defs><g id="a"/><g id="b"><g id="c"><g><path class="d" d="M43.73,64.95c-3.11-2.2-6.08-4.3-9.04-6.4-5.23-3.71-7.94-8.75-7.74-15.18,.17-5.38,2.47-9.79,6.73-13.07,2.98-2.29,6.12-4.39,9.18-6.57,.25-.18,.49-.36,.81-.61-.29-.23-.52-.42-.76-.59-2.87-2.09-5.88-4-8.57-6.29-4.73-4.03-7.12-9.32-7.41-15.53,0-.21,0-.43,0-.7h2.67c.55,2.27,1.09,4.46,1.6,6.65,.15,.63,.51,.79,1.14,.78,2.49-.04,4.98-.03,7.47,0,.49,0,.75-.09,.96-.61,1-2.52,3.08-3.9,5.69-3.88,2.44,.02,4.51,1.51,5.48,3.93,.07,.17,.15,.34,.25,.55,2.83,0,5.66,.02,8.49-.03,.25,0,.66-.36,.73-.63,.59-2.21,1.11-4.43,1.68-6.76h2.66c.04,2.71-.49,5.27-1.44,7.75-1.59,4.12-4.21,7.45-7.81,10-2.23,1.59-4.47,3.17-6.7,4.75-.24,.17-.48,.37-.81,.62,1.55,1.1,3.03,2.11,4.47,3.17,2.35,1.73,4.89,3.28,6.99,5.28,7.7,7.34,6.96,19.76-1.48,26.22-2.86,2.19-5.87,4.2-8.81,6.29-.35,.25-.7,.51-1.14,.83,.26,.21,.45,.39,.66,.54,2.47,1.79,5.06,3.43,7.38,5.4,5.53,4.69,8.39,10.76,8.7,18.01,0,.16,0,.31-.01,.47,0,.06-.04,.11-.08,.22h-2.76c-.22-1.51-.38-3.05-.68-4.56-.56-2.87-.59-2.86-3.49-2.86h-6.56c-1.02,2.76-2.85,4.49-5.89,4.47-2.99-.02-4.8-1.74-5.8-4.47-2.92,0-5.81,.02-8.71-.02-.58,0-.68,.33-.77,.72-.47,2.21-.92,4.42-1.39,6.72h-2.83c.19-1.59,.26-3.2,.58-4.75,1.35-6.54,4.81-11.71,10.28-15.56,1.98-1.39,3.95-2.8,6.06-4.3Zm-.24-14.19c.99-2.69,2.76-4.41,5.71-4.47,3.08-.06,4.94,1.67,5.98,4.47,1.83,0,3.63,.02,5.43-.02,.24,0,.58-.23,.68-.45,1.72-3.55,1.94-7.21,.65-10.95-.08-.23-.45-.52-.69-.52-4.01-.03-8.03-.02-12.06-.02-.98,2.69-2.76,4.41-5.71,4.46-3.08,.06-4.94-1.67-5.98-4.46-2.05,0-4.07-.01-6.09,.02-.22,0-.57,.24-.65,.45-1.34,3.76-1.1,7.45,.63,11.03,.1,.21,.45,.44,.69,.44,3.8,.03,7.59,.02,11.4,.02Zm-10.77,28.4c2.38,0,4.64-.02,6.91,.01,.63,0,.96-.14,1.22-.79,.89-2.28,3.04-3.7,5.44-3.71,2.48,0,4.59,1.38,5.57,3.67,.11,.26,.21,.51,.31,.75h7.77c-2.99-5.89-8.74-8.57-13.59-12.33-4.86,3.79-10.62,6.44-13.62,12.39Zm4.8-43.39c.06-.11,.13-.22,.17-.34,1.04-2.57,3.03-4.06,5.45-4.1,2.72-.04,4.66,1.27,5.81,3.98,.21,.5,.52,.51,.94,.51,3.17,0,6.35,0,9.52,0,.2,0,.39-.04,.59-.06l.17-.29c-1.29-1.15-2.49-2.4-3.87-3.42-3.27-2.42-6.62-4.73-9.97-7.1-3.74,2.67-7.46,5.27-11.11,7.96-1,.74-1.78,1.77-2.85,2.85h5.14ZM59.55,10.44h-7.35c-.04,.06-.09,.11-.11,.16-.96,2.58-2.72,4.17-5.53,4.26-2.88,.09-4.81-1.37-5.87-4.03-.07-.18-.33-.41-.5-.41-2.29-.03-4.57-.02-7.09-.02,3.52,4.98,8.88,7.31,13.27,10.96,4.39-3.69,9.73-5.98,13.19-10.92Zm-25.57,43.33l-.14,.22c3.94,3.35,8.38,6.03,12.51,9.15,4.16-3.17,8.59-5.8,12.43-9.28-.92-.12-1.78-.08-2.64-.13-.71-.05-1.07,.14-1.36,.86-.87,2.13-2.54,3.37-4.82,3.6-2.4,.25-4.31-.72-5.65-2.73-.34-.51-.55-1.11-.84-1.69h-9.48ZM46.31,11.9c1.58,.02,3-1.37,3.01-2.96,.02-1.59-1.36-2.99-2.96-3.01-1.58-.02-2.99,1.37-3.01,2.96-.02,1.59,1.36,3,2.96,3.02Zm.03,25.43c.02-1.59-1.37-2.99-2.96-3.01-1.58-.02-2.99,1.37-3.01,2.96-.02,1.59,1.37,3,2.96,3.01,1.58,.02,2.99-1.37,3.01-2.96Zm3.01,11.93c-1.58-.01-2.99,1.38-3,2.97-.01,1.59,1.38,2.99,2.97,3,1.59,.01,2.99-1.38,3-2.97,.01-1.59-1.38-2.99-2.97-3Zm-.02,31.34c-.03-1.6-1.44-2.97-3.03-2.95-1.59,.03-2.97,1.45-2.95,3.03,.03,1.6,1.44,2.98,3.03,2.95,1.6-.03,2.98-1.45,2.95-3.03Z"/><path class="d" d="M14.95,72.49c0,.19,.02,.38,0,.56-.13,1.14,.11,1.93,1.24,2.63,1.68,1.03,2.17,3.23,1.48,5.06-.71,1.87-2.48,2.99-4.55,2.89-1.88-.09-3.54-1.52-4.03-3.46-.46-1.82,.35-3.85,2.06-4.79,.7-.38,.91-.8,.84-1.52-.05-.56-.04-1.12,0-1.68,.09-1.29-.03-2.29-1.37-3.14-1.6-1.01-1.97-2.8-1.41-4.65,.15-.5,.08-.8-.3-1.12-.31-.26-.59-.56-.86-.85-.86-.91-1.55-1.69-3.17-1.29-1.96,.49-3.84-.9-4.56-2.76-.71-1.83-.15-3.91,1.37-5.13,1.49-1.2,3.65-1.32,5.23-.29,1.72,1.11,2.42,3.1,1.88,5.14-.08,.3,.03,.78,.24,1.01,.63,.73,1.32,1.42,2.04,2.05,.24,.21,.71,.34,1.01,.26,2.21-.58,4.22,.21,5.31,2.2,.24,.44,.48,.65,.99,.61,.68-.05,1.37-.05,2.05,0,1.29,.08,2.3,0,3.14-1.38,1.03-1.68,3.26-2.04,5.09-1.27,1.81,.76,2.85,2.53,2.72,4.57-.12,1.84-1.55,3.46-3.46,3.94-1.82,.46-3.85-.34-4.79-2.05-.38-.69-.8-.91-1.52-.84-.56,.05-1.12,.05-1.68,0-1.3-.1-2.52-.12-3.09,1.41-.11,.29-.44,.58-.74,.69-1.18,.43-1.27,1.34-1.16,2.37,.03,.28,0,.56,0,.84Zm-8.97-15.79c-.02-.77-.74-1.48-1.51-1.46-.77,.02-1.48,.74-1.46,1.51,.02,.77,.74,1.48,1.51,1.46,.77-.02,1.48-.75,1.46-1.51Zm8.97,8.95c-.03-.77-.77-1.47-1.53-1.44-.78,.03-1.47,.76-1.44,1.53,.03,.77,.76,1.47,1.53,1.44,.77-.03,1.47-.77,1.44-1.53Zm13.45,.07c.02-.77-.68-1.5-1.45-1.52-.77-.02-1.5,.68-1.52,1.46-.02,.77,.68,1.5,1.45,1.52,.77,.02,1.5-.68,1.52-1.46Zm-14.89,14.91c.77-.03,1.47-.77,1.44-1.53-.03-.77-.77-1.47-1.53-1.44-.78,.03-1.47,.76-1.44,1.53,.03,.78,.77,1.47,1.53,1.44Z"/><path class="d" d="M72.46,22.36c-.25,0-.5,.02-.75,0-1.03-.11-1.77,.08-2.4,1.14-1.02,1.72-3.24,2.28-5.11,1.59-1.87-.69-3-2.45-2.92-4.53,.08-1.89,1.48-3.55,3.43-4.06,1.85-.48,3.92,.35,4.86,2.09,.36,.67,.77,.85,1.45,.79,.53-.04,1.06-.03,1.59,0,1.34,.07,2.42,.03,3.31-1.41,.97-1.57,2.76-1.93,4.57-1.37,.55,.17,.86,.06,1.2-.33,.22-.26,.47-.5,.72-.73,1-.88,1.74-1.66,1.37-3.31-.45-1.99,.94-3.83,2.81-4.53,1.83-.69,3.9-.11,5.12,1.44,1.19,1.52,1.28,3.62,.22,5.23-1.11,1.68-3.09,2.42-5.06,1.81-.49-.15-.8-.11-1.13,.28-.28,.33-.6,.63-.92,.93-.89,.84-1.64,1.52-1.23,3.1,.47,1.83-.59,3.37-2.27,4.3-.49,.27-.67,.54-.64,1.07,.04,.56,.04,1.12,0,1.68-.1,1.44-.03,2.61,1.49,3.55,1.62,1,1.91,3.29,1.13,5.05-.81,1.82-2.67,2.88-4.7,2.65-1.82-.2-3.45-1.72-3.83-3.59-.37-1.8,.48-3.8,2.15-4.68,.68-.36,.85-.78,.79-1.45-.04-.53-.03-1.06,0-1.59,.06-1.33,.23-2.69-1.45-3.25-.16-.05-.33-.23-.39-.39-.62-1.72-2.02-1.6-3.43-1.47Zm17.21-10.42c.02-.76-.67-1.5-1.45-1.52-.76-.02-1.5,.67-1.52,1.45-.02,.77,.67,1.5,1.45,1.52,.76,.02,1.5-.68,1.52-1.45Zm-25.39,8.91c-.01,.77,.69,1.49,1.46,1.51,.77,.01,1.49-.69,1.51-1.47,.01-.77-.69-1.49-1.47-1.51-.77-.01-1.49,.69-1.51,1.47Zm14.95-1.47c-.77,0-1.49,.7-1.5,1.47,0,.77,.7,1.49,1.47,1.5,.77,0,1.49-.7,1.5-1.47,0-.77-.7-1.49-1.47-1.5Zm1.47,15.01c.04-.76-.64-1.51-1.41-1.56-.76-.04-1.51,.64-1.56,1.41-.04,.76,.64,1.51,1.41,1.56,.75,.05,1.51-.64,1.56-1.41Z"/></g></g></g></svg>