<?xml version="1.0" encoding="utf-8"?>
<!-- Generator: Adobe Illustrator 26.2.0, SVG Export Plug-In . SVG Version: 6.00 Build 0)  -->
<svg version="1.1" id="Layer_1" xmlns="http://www.w3.org/2000/svg" xmlns:xlink="http://www.w3.org/1999/xlink" x="0px" y="0px"
	 viewBox="0 0 100 100" style="enable-background:new 0 0 100 100;" xml:space="preserve">
<style type="text/css">
	.st0{fill:#FFFFFF;}
</style>
<g id="Group_11064" transform="translate(399.504)">
	<path id="Path_5560" class="st0" d="M-351.6,68.9c-2.9-2-5.6-4-8.3-5.9c-4.8-3.4-7.3-8-7.1-14c0.1-4.7,2.4-9.2,6.2-12
		c2.7-2.1,5.6-4,8.4-6c0.2-0.2,0.4-0.3,0.7-0.6c-0.3-0.2-0.5-0.4-0.7-0.5c-2.6-1.9-5.4-3.7-7.9-5.8c-4.2-3.6-6.7-8.8-6.8-14.3
		c0-0.2,0-0.4,0-0.6h2.5c0.5,2.1,1,4.1,1.5,6.1c0.1,0.6,0.5,0.7,1,0.7c2.3,0,4.6,0,6.9,0c0.4,0.1,0.8-0.2,0.9-0.6
		c0.8-2.2,2.9-3.6,5.2-3.6c2.3,0,4.3,1.5,5,3.6c0.1,0.2,0.1,0.3,0.2,0.5c2.6,0,5.2,0,7.8,0c0.3-0.1,0.6-0.3,0.7-0.6
		c0.5-2,1-4.1,1.5-6.2h2.4c0,2.4-0.4,4.9-1.3,7.1c-1.4,3.7-3.9,6.9-7.2,9.2c-2.1,1.5-4.1,2.9-6.2,4.4c-0.2,0.2-0.4,0.3-0.7,0.6
		c1.4,1,2.8,1.9,4.1,2.9c2.2,1.5,4.4,3.1,6.4,4.9c6.3,6,6.6,16.1,0.5,22.4c-0.6,0.6-1.2,1.2-1.9,1.7c-2.6,2-5.4,3.9-8.1,5.8
		c-0.3,0.2-0.6,0.5-1.1,0.8c0.2,0.2,0.4,0.4,0.6,0.5c2.3,1.6,4.6,3.2,6.8,5c4.9,4.1,7.9,10.1,8,16.6c0,0.1,0,0.3,0,0.4
		c0,0.1,0,0.1-0.1,0.2h-2.5c-0.2-1.4-0.4-2.8-0.6-4.2c-0.5-2.6-0.5-2.6-3.2-2.6h-6c-0.9,2.5-2.6,4.1-5.4,4.1c-2.7,0-4.4-1.6-5.3-4.1
		c-2.7,0-5.3,0-8,0c-0.5,0-0.6,0.3-0.7,0.7c-0.4,2-0.8,4.1-1.3,6.2h-2.6c0.2-1.5,0.2-2.9,0.5-4.4c1.1-5.8,4.5-11,9.4-14.3
		C-355.4,71.6-353.6,70.3-351.6,68.9z M-351.8,55.9c0.9-2.5,2.5-4.1,5.2-4.1c2.8-0.1,4.5,1.5,5.5,4.1c1.7,0,3.3,0,5,0
		c0.3,0,0.5-0.2,0.6-0.4c1.6-3.1,1.8-6.8,0.6-10.1c-0.1-0.3-0.4-0.4-0.6-0.5c-3.7,0-7.4,0-11.1,0c-0.9,2.5-2.5,4.1-5.2,4.1
		c-2.8,0.1-4.5-1.5-5.5-4.1c-1.9,0-3.7,0-5.6,0c-0.3,0-0.5,0.2-0.6,0.4c-1.2,3.3-1,7,0.6,10.1c0.1,0.2,0.4,0.4,0.6,0.4
		C-358.8,55.9-355.3,55.9-351.8,55.9L-351.8,55.9z M-361.7,82c2.2,0,4.3,0,6.3,0c0.5,0.1,1-0.2,1.1-0.7c0.8-2.1,2.8-3.4,5-3.4
		c2.2,0,4.3,1.3,5.1,3.4c0.1,0.2,0.2,0.5,0.3,0.7h7.1c-2.7-5.4-8-7.9-12.5-11.3C-353.7,74.1-359,76.5-361.7,82z M-357.3,42.1
		c0.1-0.1,0.1-0.2,0.2-0.3c0.7-2.2,2.7-3.7,5-3.8c2.4-0.1,4.6,1.4,5.3,3.7c0.2,0.5,0.5,0.5,0.9,0.5c2.9,0,5.8,0,8.8,0
		c0.2,0,0.4,0,0.5-0.1l0.2-0.3c-1.2-1.1-2.3-2.2-3.6-3.1c-3-2.2-6.1-4.3-9.2-6.5c-3.4,2.5-6.9,4.8-10.2,7.3
		c-0.9,0.8-1.8,1.7-2.6,2.6L-357.3,42.1z M-337.1,18.8h-6.8c0,0-0.1,0.1-0.1,0.2c-0.9,2.4-2.5,3.8-5.1,3.9c-2.6,0.1-4.4-1.3-5.4-3.7
		c-0.1-0.2-0.3-0.3-0.5-0.4c-2.1,0-4.2,0-6.5,0c3.2,4.6,8.2,6.7,12.2,10.1C-345.2,25.4-340.2,23.3-337.1,18.8L-337.1,18.8z
		 M-360.6,58.6l-0.1,0.2c3.6,3.1,7.7,5.5,11.5,8.4c3.8-2.9,7.9-5.3,11.4-8.5c-0.8-0.1-1.6-0.1-2.4-0.1c-0.6-0.1-1.1,0.2-1.3,0.8
		c-0.7,1.9-2.4,3.2-4.4,3.3c-2.1,0.3-4.1-0.7-5.2-2.5c-0.3-0.5-0.5-1-0.8-1.6L-360.6,58.6z M-349.2,20.1c1.5,0,2.8-1.2,2.8-2.7
		c0-1.5-1.2-2.8-2.7-2.8c-1.5,0-2.8,1.2-2.8,2.7c0,0,0,0,0,0C-351.9,18.9-350.7,20.1-349.2,20.1L-349.2,20.1z M-349.2,43.5
		c0-1.5-1.2-2.8-2.7-2.8s-2.8,1.2-2.8,2.7c0,1.5,1.2,2.8,2.7,2.8C-350.5,46.2-349.3,45-349.2,43.5L-349.2,43.5z M-346.5,54.5
		c-1.5,0-2.8,1.2-2.8,2.7c0,1.5,1.2,2.8,2.7,2.8c1.5,0,2.8-1.2,2.8-2.7c0,0,0,0,0,0C-343.8,55.8-345,54.5-346.5,54.5L-346.5,54.5z
		 M-346.5,83.3c0-1.5-1.3-2.7-2.8-2.7c-1.5,0-2.7,1.3-2.7,2.8c0,1.5,1.3,2.7,2.8,2.7C-347.7,86-346.5,84.8-346.5,83.3L-346.5,83.3z"
		/>
	<path id="Path_5561" class="st0" d="M-378.1,75.8c0,0.2,0,0.3,0,0.5c-0.2,1,0.3,2,1.1,2.4c1.5,1,2.1,3,1.4,4.6
		c-0.8,2.1-3.2,3.2-5.3,2.4c-1.3-0.5-2.2-1.6-2.6-2.9c-0.4-1.7,0.3-3.5,1.9-4.4c0.6-0.2,0.9-0.8,0.8-1.4c0-0.5,0-1,0-1.5
		c0.3-1.1-0.3-2.3-1.3-2.9c-1.5-0.9-1.8-2.6-1.3-4.3c0.2-0.4,0.1-0.8-0.3-1c-0.3-0.2-0.5-0.5-0.8-0.8c-0.8-0.8-1.4-1.6-2.9-1.2
		c-1.8,0.5-3.5-0.8-4.2-2.5c-0.8-2.1,0.2-4.5,2.4-5.3c1.2-0.5,2.6-0.3,3.7,0.4c1.6,1,2.3,2.9,1.7,4.7c-0.1,0.3,0,0.7,0.2,0.9
		c0.6,0.7,1.2,1.3,1.9,1.9c0.3,0.2,0.6,0.3,0.9,0.2c1.9-0.6,4,0.2,4.9,2c0.1,0.4,0.5,0.6,0.9,0.6c0.6,0,1.3,0,1.9,0
		c1.2,0.1,2.1,0,2.9-1.3c1.1-1.5,3-2,4.7-1.2c2.1,0.9,3.1,3.3,2.2,5.4c-0.5,1.2-1.6,2.1-2.9,2.4c-1.7,0.4-3.5-0.3-4.4-1.9
		c-0.2-0.6-0.8-0.9-1.4-0.8c-0.5,0-1,0-1.5,0c-1.2-0.1-2.3-0.1-2.8,1.3c-0.1,0.3-0.4,0.5-0.7,0.6c-1.1,0.4-1.2,1.2-1.1,2.2
		C-378.1,75.3-378,75.6-378.1,75.8z M-386.3,61.3c0-0.8-0.6-1.4-1.4-1.3c-0.8,0-1.4,0.6-1.3,1.4c0,0.8,0.6,1.4,1.4,1.3
		C-386.9,62.7-386.3,62.1-386.3,61.3L-386.3,61.3z M-378.1,69.6c0-0.8-0.6-1.3-1.4-1.3c-0.8,0-1.3,0.6-1.3,1.4
		c0,0.8,0.6,1.3,1.4,1.3c0,0,0,0,0,0C-378.7,70.9-378.1,70.3-378.1,69.6L-378.1,69.6z M-365.7,69.6c0-0.8-0.6-1.4-1.3-1.4
		c-0.8,0-1.4,0.6-1.4,1.3c0,0.8,0.6,1.4,1.3,1.4C-366.4,70.9-365.8,70.4-365.7,69.6L-365.7,69.6z M-379.4,83.3
		c0.8,0,1.3-0.6,1.3-1.4c0-0.8-0.6-1.3-1.4-1.3c-0.8,0-1.3,0.6-1.3,1.4c0,0,0,0,0,0C-380.7,82.7-380.1,83.3-379.4,83.3L-379.4,83.3z
		"/>
	<path id="Path_5562" class="st0" d="M-325.2,29.8c-0.2,0-0.5,0-0.7,0c-0.9-0.2-1.8,0.2-2.2,1c-1,1.5-3,2.2-4.7,1.5
		c-2.1-0.8-3.2-3.2-2.4-5.3c0.5-1.3,1.6-2.2,2.9-2.6c1.8-0.4,3.6,0.3,4.5,1.9c0.2,0.5,0.8,0.8,1.3,0.7c0.5,0,1,0,1.5,0
		c1.2,0.1,2.2,0,3-1.3c0.9-1.4,2.5-1.8,4.2-1.3c0.4,0.2,0.9,0,1.1-0.3c0.2-0.2,0.4-0.5,0.7-0.7c0.9-0.8,1.6-1.5,1.3-3
		c-0.3-1.8,0.8-3.6,2.6-4.2c2.1-0.8,4.5,0.3,5.3,2.4c0.5,1.2,0.3,2.6-0.4,3.7c-1,1.5-2.9,2.2-4.6,1.7c-0.4-0.2-0.8-0.1-1,0.3
		c-0.3,0.3-0.5,0.6-0.8,0.9c-0.8,0.8-1.5,1.4-1.1,2.8c0.4,1.7-0.5,3.1-2.1,3.9c-0.4,0.2-0.6,0.6-0.6,1c0,0.5,0,1,0,1.5
		c-0.1,1.3,0,2.4,1.4,3.3c1.5,0.9,1.8,3,1,4.6c-0.7,1.7-2.5,2.7-4.3,2.4c-1.8-0.3-3.2-1.6-3.5-3.3c-0.3-1.7,0.5-3.5,2-4.3
		c0.5-0.2,0.8-0.8,0.7-1.3c0-0.5,0-1,0-1.5c0.1-1.2,0.2-2.5-1.3-3c-0.2-0.1-0.3-0.2-0.4-0.4C-322.6,29.5-323.9,29.6-325.2,29.8z
		 M-309.4,20.2c0-0.8-0.6-1.4-1.3-1.4c-0.8,0-1.4,0.6-1.4,1.3c0,0.8,0.6,1.4,1.3,1.4C-310.1,21.5-309.4,20.9-309.4,20.2L-309.4,20.2
		z M-332.7,28.4c0,0.8,0.6,1.4,1.3,1.4c0.8,0,1.4-0.6,1.4-1.3c0-0.8-0.6-1.4-1.3-1.4C-332.1,27-332.7,27.6-332.7,28.4L-332.7,28.4z
		 M-319,27c-0.8,0-1.4,0.6-1.4,1.4c0,0.8,0.6,1.4,1.4,1.4s1.4-0.6,1.4-1.4C-317.7,27.7-318.2,27.1-319,27L-319,27z M-317.6,40.8
		c0-0.8-0.5-1.4-1.3-1.4c-0.8,0-1.4,0.5-1.4,1.3c0,0.8,0.5,1.4,1.3,1.4C-318.3,42.1-317.7,41.6-317.6,40.8L-317.6,40.8z"/>
</g>
</svg>
