<svg id="Group_11127" data-name="Group 11127" xmlns="http://www.w3.org/2000/svg" width="19.373" height="18.72" viewBox="0 0 19.373 18.72">
  <path id="Path_5560" data-name="Path 5560" d="M1018.746,388.618l-1.89-1.339a3.568,3.568,0,0,1-1.618-3.174,3.455,3.455,0,0,1,1.406-2.732c.623-.479,1.279-.917,1.92-1.374.052-.037.1-.076.17-.127-.061-.048-.109-.088-.159-.124-.6-.436-1.229-.837-1.791-1.316a4.363,4.363,0,0,1-1.549-3.247c0-.044,0-.089,0-.145h.559c.115.475.227.932.335,1.39.031.131.106.166.238.163.521-.008,1.041-.006,1.562,0a.176.176,0,0,0,.2-.128,1.219,1.219,0,0,1,1.19-.811,1.238,1.238,0,0,1,1.146.822c.014.036.032.071.052.115.592,0,1.183,0,1.775-.006a.215.215,0,0,0,.153-.131c.122-.461.232-.926.351-1.414h.557a4.278,4.278,0,0,1-.3,1.621,4.517,4.517,0,0,1-1.632,2.091l-1.4.994c-.051.036-.1.076-.169.13.323.229.632.441.934.663a14.6,14.6,0,0,1,1.46,1.1,3.605,3.605,0,0,1-.31,5.48c-.6.458-1.227.878-1.841,1.315l-.239.173c.053.044.094.081.138.114.515.375,1.057.718,1.542,1.129a5.024,5.024,0,0,1,1.818,3.764.836.836,0,0,1,0,.1.217.217,0,0,1-.016.045h-.578c-.046-.316-.08-.637-.142-.953-.117-.6-.124-.6-.729-.6h-1.37a1.266,1.266,0,0,1-2.443,0c-.61,0-1.215,0-1.82,0-.121,0-.143.069-.16.151-.1.461-.191.923-.29,1.4h-.591c.039-.333.055-.669.122-.994a5.111,5.111,0,0,1,2.148-3.252C1017.893,389.225,1018.3,388.931,1018.746,388.618Zm-.051-2.967a1.266,1.266,0,0,1,2.443,0c.382,0,.759,0,1.136,0a.2.2,0,0,0,.142-.094,2.9,2.9,0,0,0,.136-2.288.2.2,0,0,0-.145-.109c-.839-.007-1.678,0-2.521,0a1.266,1.266,0,0,1-2.443,0c-.428,0-.851,0-1.273,0a.181.181,0,0,0-.135.094,2.892,2.892,0,0,0,.131,2.306.2.2,0,0,0,.144.092C1017.105,385.653,1017.9,385.651,1018.695,385.651Zm-2.251,5.936c.5,0,.971,0,1.444,0a.222.222,0,0,0,.254-.165,1.214,1.214,0,0,1,1.136-.775,1.234,1.234,0,0,1,1.164.768c.023.053.044.107.064.156h1.625c-.624-1.232-1.827-1.791-2.841-2.576C1018.275,389.79,1017.073,390.344,1016.444,391.587Zm1-9.07c.013-.024.026-.046.036-.07a1.242,1.242,0,0,1,1.14-.856,1.218,1.218,0,0,1,1.214.831c.044.1.108.107.2.107.664,0,1.327,0,1.991,0a1.236,1.236,0,0,0,.123-.012l.036-.06c-.269-.24-.521-.5-.809-.714-.684-.505-1.384-.988-2.083-1.484-.782.558-1.56,1.1-2.323,1.664a5.756,5.756,0,0,0-.6.6Zm4.607-5.293h-1.537a.178.178,0,0,0-.023.034,1.215,1.215,0,0,1-1.156.89,1.2,1.2,0,0,1-1.228-.842.153.153,0,0,0-.105-.086c-.478-.006-.956,0-1.481,0a13.112,13.112,0,0,0,2.773,2.29A13.244,13.244,0,0,0,1022.054,377.223Zm-5.345,9.058-.029.045c.824.7,1.751,1.26,2.615,1.912.869-.663,1.8-1.213,2.6-1.939-.192-.025-.372-.016-.552-.028a.243.243,0,0,0-.285.18,1.164,1.164,0,0,1-1.008.753,1.2,1.2,0,0,1-1.18-.57,3.107,3.107,0,0,1-.176-.354Zm2.577-8.754a.624.624,0,1,0-.619-.63A.642.642,0,0,0,1019.286,377.527Zm.005,5.317a.624.624,0,1,0-.63.619A.641.641,0,0,0,1019.291,382.844Zm.629,2.494a.624.624,0,1,0,.621.628A.641.641,0,0,0,1019.92,385.339Zm0,6.551a.624.624,0,1,0-.616.633A.641.641,0,0,0,1019.916,391.89Z" transform="translate(-1009.605 -375.041)" fill="#653f8c"/>
  <path id="Path_5561" data-name="Path 5561" d="M956.643,499.5a1.011,1.011,0,0,1,0,.117.494.494,0,0,0,.259.549.871.871,0,0,1,.309,1.057.94.94,0,0,1-1.794-.12.9.9,0,0,1,.43-1,.286.286,0,0,0,.175-.318,2.148,2.148,0,0,1,0-.351.6.6,0,0,0-.287-.656.8.8,0,0,1-.294-.972.189.189,0,0,0-.062-.234,2.208,2.208,0,0,1-.18-.178c-.179-.19-.323-.354-.662-.269a.85.85,0,0,1-.953-.576.94.94,0,0,1,1.381-1.134.954.954,0,0,1,.393,1.075.271.271,0,0,0,.05.212,4.2,4.2,0,0,0,.427.428.269.269,0,0,0,.21.055.929.929,0,0,1,1.11.461.194.194,0,0,0,.208.128,3.257,3.257,0,0,1,.429,0,.6.6,0,0,0,.656-.288.846.846,0,0,1,1.064-.265.938.938,0,0,1-.155,1.778.9.9,0,0,1-1-.429.286.286,0,0,0-.318-.176,2.119,2.119,0,0,1-.351,0c-.271-.02-.526-.024-.647.294a.284.284,0,0,1-.154.144c-.248.089-.265.279-.242.5A1.682,1.682,0,0,1,956.643,499.5Zm-1.876-3.3a.311.311,0,1,0-.305.316A.325.325,0,0,0,954.767,496.2Zm1.874,1.87a.311.311,0,1,0-.3.32A.326.326,0,0,0,956.641,498.07Zm2.812.016a.31.31,0,1,0-.317.3A.325.325,0,0,0,959.453,498.085ZM956.34,501.2a.311.311,0,1,0-.32-.3A.326.326,0,0,0,956.34,501.2Z" transform="translate(-953.517 -484.345)" fill="#653f8c"/>
  <path id="Path_5562" data-name="Path 5562" d="M1096.892,395.2a1.519,1.519,0,0,1-.156,0,.447.447,0,0,0-.5.238.882.882,0,0,1-1.068.333.94.94,0,0,1,.106-1.795.907.907,0,0,1,1.016.437.272.272,0,0,0,.3.166,2.368,2.368,0,0,1,.332,0,.634.634,0,0,0,.692-.3.784.784,0,0,1,.955-.287.2.2,0,0,0,.25-.07,1.42,1.42,0,0,1,.152-.152.636.636,0,0,0,.287-.693.853.853,0,0,1,.588-.947.939.939,0,0,1,1.116,1.394.918.918,0,0,1-1.057.379.188.188,0,0,0-.235.059,2.16,2.16,0,0,1-.192.194c-.186.175-.344.317-.258.648a.8.8,0,0,1-.474.9.208.208,0,0,0-.133.225,2.461,2.461,0,0,1,0,.351.677.677,0,0,0,.311.742.843.843,0,0,1,.237,1.056.945.945,0,0,1-.982.554.96.96,0,0,1-.8-.751.912.912,0,0,1,.449-.978.27.27,0,0,0,.166-.3,2.708,2.708,0,0,1,0-.332c.012-.278.047-.563-.3-.679a.15.15,0,0,1-.082-.081C1097.478,395.146,1097.186,395.171,1096.892,395.2Zm3.6-2.178a.311.311,0,1,0-.318.3A.326.326,0,0,0,1100.489,393.019Zm-5.307,1.862a.31.31,0,1,0,.315-.306A.325.325,0,0,0,1095.182,394.881Zm3.125-.306a.311.311,0,1,0,.307.314A.325.325,0,0,0,1098.307,394.574Zm.307,3.137a.311.311,0,1,0-.326.3A.328.328,0,0,0,1098.615,397.712Z" transform="translate(-1081.745 -390.524)" fill="#653f8c"/>
</svg>
