<svg xmlns="http://www.w3.org/2000/svg" width="85.536" height="81.516" viewBox="0 0 85.536 81.516">
  <g id="Group_11691" data-name="Group 11691" transform="translate(-677.054 -520.247)">
    <path id="Path_6188" data-name="Path 6188" d="M15.578,7.812a1.977,1.977,0,0,0,.3,1.426c.762,1.222,2.718.946,3.364,1.178a.607.607,0,0,1,.424.394c-1.843.43-4.916-.848-6.248.474a2.246,2.246,0,0,0,1.164,3.883c.659.047,1.359.085,1.93.159.97.128,1.61-.111,1.61.661,0,.561-1.015.213-2,.181-1.421-.044-2.923-.589-4.068.475a2.227,2.227,0,0,0-.092,3.231l.678.5.063.028c.573.246,3.5.215,5.054.578a2.058,2.058,0,0,1-.091.454c-1.428.333-3.937-.339-4.792.295-.773.574-1.849,3.633,2.1,4.21l3.414.31a17.326,17.326,0,0,1,1.751.156l3.524.291c1.46.114,2.763.185,4.211.43l3.664.507c.155.034.566.244.566.432a8.531,8.531,0,0,1-.907,2.909l-.717,1.428c-.126.343.056.245.922.361a6.91,6.91,0,0,0,3.787-.34,2.443,2.443,0,0,0,.812-.642A7.866,7.866,0,0,0,37.029,29.9a9.881,9.881,0,0,0,.248-1.205,5.656,5.656,0,0,1,1.454-2.361l.092-.09c.044-.046.11-.129.169-.193.986-1.08,1.377-.813,3.115-1.064l5.264-.641L45.093,13.271c-.122-.6-.224-1.272-.373-1.9a12.6,12.6,0,0,1-.346-1.925c-.761-.063-3.85-.385-4.505-.582l-.06-.021-.16-.046a7.535,7.535,0,0,1-2.207-.866c-1.978-1-4.823-1-7.433-1.288-.659-.074-.762.019-2.022-.158l-8.073-.648a14.832,14.832,0,0,0-2.065-.117,2.2,2.2,0,0,0-2.27,2.091" transform="translate(676.382 516.068)" fill="none" stroke="#653f8c" stroke-width="2"/>
    <path id="Path_6189" data-name="Path 6189" d="M91.765,53.322c0-.246,1.873-1.239,2.208-1.426L95.8,50.548a2.842,2.842,0,0,0,.522-1.758v-.261c0-.015-.01-.039-.014-.054l-.472-.864a2.459,2.459,0,0,0-2.553-.764c-.372.1-3.02,1.833-3.6,2.136l-.118.065c-.835.488-.763-.2.114-.787l.154-.132a1.712,1.712,0,0,1,.561-.348,2.89,2.89,0,0,0,.544-.365c.81-.622,2.465-1.392,1.434-3.162-.074-.127-.119-.2-.207-.338a.72.72,0,0,0-.09-.132l-.066-.06-.037-.027-.228-.169c-.969-.768-1.958-.52-3.041-.1-.021.009-.124.043-.142.052l-4.8,2.87a12.451,12.451,0,0,1-1.5.93l-4.48,2.695c-1.214.575-3.167,1.9-4.285,2.164-.394-.342-.4-.484-.61-1.025l-.5-1.765c-.1-.329-.266-1.934-.429-1.934a3.183,3.183,0,0,0-1.385.614l-1.405,1.047a2.547,2.547,0,0,0-.231.224,2.919,2.919,0,0,0-.976,1.931,6.564,6.564,0,0,0,.768,3.32,6.383,6.383,0,0,1-.172,4.362l-4.866,4.673c.224.335.31.323.609.572a14.4,14.4,0,0,0,1.088,1l.9.826a.759.759,0,0,0,.139.133L68.3,67.79c.234.225.4.315.642.539l.142.13.14.132c.145.133.147.128.294.25l3.473,3.276c.132-.013.1-.071.171.054s-.165.343.219.3c.231-.023.341.124.495.271.458.435.792,1.088,1.534,1.1.1-.284-.018-.11.266-.279a16.857,16.857,0,0,1,2.38-1.344,20.936,20.936,0,0,1,3.3-.881c1.715-.337,3.107-1.407,4.591-2.228l1.115-.632c.122-.071.147-.139.276-.238l2.348-1.38c.087-.044.268-.148.346-.2l1.894-1.195c1.268-.761,5.338-3.1,5.9-3.55a2.435,2.435,0,0,0,.665-3.521,1.685,1.685,0,0,0-1.3-.788c-1.656-.251-1.9.645-3.087,1.066-.764.272-.248-.364.026-.539l.667-.424.051-.039,2.185-1.357A2.79,2.79,0,0,0,98.1,55.3a2.293,2.293,0,0,0-2.063-3.429,6.446,6.446,0,0,0-2.83,1.353,2.385,2.385,0,0,1-1.349.557,1.308,1.308,0,0,1-.091-.454" transform="translate(662.476 510.296)" fill="none" stroke="#653f8c" stroke-width="2"/>
    <path id="Path_6190" data-name="Path 6190" d="M65.088,85.168c0-1.279-.875-2-1.7-2.754-.234-.215-.377-.3-.6-.494-.246-.218-.29-.294-.576-.515l-7.642-6.62c-.588-.492-1.1-1.088-1.639-1.632-.11-.11-.16-.166-.274-.27-.08-.073-.06-.052-.146-.126l-.428-.39c-.412-.363-1.276-.947-.794-1.528a9.937,9.937,0,0,1,2.935-1.978l.954-.5a8.135,8.135,0,0,0-1.776-1.676,4.794,4.794,0,0,0-2.443-1.017,4.22,4.22,0,0,0-2.783,1.051,1.356,1.356,0,0,0-.141.132l-.093.088c-.169.158-.254.244-.422.4-.075.068-.085.074-.146.127a4.944,4.944,0,0,1-1.844.881l-1.032.24a2.8,2.8,0,0,1-1.479.039l-4.843-2.7a3.533,3.533,0,0,0-1.258-.559,12.665,12.665,0,0,1-1.114,2.7L33.6,73.206c-.151.357-.264.549-.389.89l-1.856,4.23c-.664,1.309-.126,1.064.778,2.1.291.332.181.305.574.606a5.015,5.015,0,0,1,.562.528,10.436,10.436,0,0,1,.995,1.276c.732.987.7,1.43,1.764,2.778l6.314,5.677c.2.2.047.1.256.29l3.025,2.607c.238.213.442.286.681.5l2.683,2.4c.258.25.147-.143.2.344.576.013.64.353,1.159.483a4.806,4.806,0,0,0,1.4-.1,2.2,2.2,0,0,0,1.279-2.949,2.333,2.333,0,0,0-.669-.965c-.513-.491-1.175-.784-1.354-1.553a1.309,1.309,0,0,1,1.055.58l2.512,2.12c1.4,1.152,3.882.406,3.882-1.61,0-1.49-.969-1.905-1.894-2.739-.747-.673-1.429-.825-1.195-1.8a.811.811,0,0,1,.764.327,1.957,1.957,0,0,0,.274.27l.452.366a18.608,18.608,0,0,0,1.861,1.591,3,3,0,0,0,1.028.517,2.282,2.282,0,0,0,2.69-3.236,3.949,3.949,0,0,0-.415-.584c-.194-.193-.414-.272-.634-.456-.2-.169-.3-.323-.507-.493-.531-.446-2.008-1.484-2.153-2.026.457-.624,1.476.495,1.892.833l.61.481c.167.13.264.188.418.309,1.2.942,2.308.93,3.109-.5a2.916,2.916,0,0,0,.33-1.123" transform="translate(670.363 502.795)" fill="none" stroke="#653f8c" stroke-width="2"/>
    <path id="Path_6191" data-name="Path 6191" d="M71.615,2.79c0,.837.727,2.383.727,3.815a1.34,1.34,0,0,0-.454.182c-.338-.462-.219.076-.51-1.217-.262-1.166-.6-3.31-1.369-4.08A2.36,2.36,0,0,0,68.87.9a2.209,2.209,0,0,0-1.113.027,2.381,2.381,0,0,0-1.683,2.406A6.1,6.1,0,0,0,66.34,4.34c.088.406.169.739.27,1.092.031.107.986,3.368-.015,2.393a12.356,12.356,0,0,1-.756-2.258L65.4,4.1c-.475-1.254-2.448-.944-3.17-.339l-.193.181c-1.1,1.114-.464,3.439-.068,4.86l.676,2.776c.044.187.054.462.115.7.048.191.068.182.108.347l.414,1.765c.086.407.222.98.321,1.4.116.491.219.879.347,1.379.12.469.2,1.029.286,1.44l.784,4.406c.145,1.091-.958.84-2.488.84L60.49,23.62c-.632-.152-.742-.155-.1,2.115.614,2.18,1.784,3.307,4.323,3.307,1.241,0,1.575-.743,4.559.891.76.416.677.5,1.147,1.488l1.667,3.511a6.591,6.591,0,0,1,.531,1.2c.382,0,.283.026.544-.091.189-.084-.031.015.173-.1l11.132-6.219a12.079,12.079,0,0,1,1.686-.948,3.686,3.686,0,0,0-.171-1.01,9.563,9.563,0,0,1-.45-4.607,9.45,9.45,0,0,0,.167-1.741,25.373,25.373,0,0,0-.977-5.382L83.5,10.8c-.2-.808-.419-1.729-.62-2.56-.055-.231-.068-.417-.13-.688C82.395,6,81.834,2.834,80.9,2.136a2.27,2.27,0,0,0-3.651,1.653c0,.871.363,1.636.363,2.453,0,.347.028.033-.091.272-.427-.114-.439-.567-.582-1.144-.158-.642-.723-3.052-.936-3.515a1.6,1.6,0,0,0-.16-.294c-.014-.023-.055-.089-.07-.111A2.338,2.338,0,0,0,72.5.946l-.157.116a2.471,2.471,0,0,0-.724,1.729" transform="translate(664.96 520.894)" fill="none" stroke="#653f8c" stroke-width="2"/>
    <path id="Path_6192" data-name="Path 6192" d="M26.866,41.438a8.627,8.627,0,0,0,.25-1.658L13.953,38.318a17.507,17.507,0,0,0-1.916-.173,6.883,6.883,0,0,1-.789,1.482,16.059,16.059,0,0,1-1.122,2.148c-.611.938-1.75,1.834-2.072,2.379l-.209.337a36.489,36.489,0,0,0-2.633,5.634L3.3,54.751c-.072.171-.078.153-.175.37L1.084,59.985A6.5,6.5,0,0,0,.5,61.854a2.226,2.226,0,0,0,4.273,1.094c.29-.569.523-1.646,1.177-1.82a2.772,2.772,0,0,1-.337,1.388l-.982,2.47C3.149,68,6.992,69.923,8.536,67.437L9.562,64.92c.425-1.312,1.112-.63,1.112-.523,0,.353-1.26,3.073-1.416,3.489C8,71.223,11.4,72.442,12.969,70.689a24.428,24.428,0,0,0,1.43-3.2c.266-.669.345-1.231.908-1.363.349.521.134.869-.349,2.015-.068.161-.161.324-.195.412l-.1.466a5.422,5.422,0,0,0-.446,1.468c0,1.313,1.468,1.816,1.907,1.816a2.326,2.326,0,0,0,2.525-1.472l.566-1.16c.09-.195.183-.36.258-.56L22.744,61.3c.7-1.769,1.828-4.046,2.712-5.827.251-.505.38-.793.842-.793.355,0,3.364,2.234,3.543,2.907h.272l.808-1.826c1.04-2.874.138-4.414-2.322-5.744a6.557,6.557,0,0,1-2.574-3.694Z" transform="translate(677.554 507.634)" fill="none" stroke="#653f8c" stroke-width="2"/>
    <g id="Group_11679" data-name="Group 11679" transform="translate(711.427 551.826)">
      <g id="Group_11678" data-name="Group 11678" transform="translate(0 0)">
        <path id="Path_6193" data-name="Path 6193" d="M53.644,50.728l.266.645c.572-.22,1.123-.407,1.378-1.036.043-.1.234-.146.356-.216.055.142.193.325.148.417a4.174,4.174,0,0,1-.53.765,2.254,2.254,0,0,1-.387.3,1.829,1.829,0,0,1,.81,1.734c-.026,1.65-.008,3.3-.008,4.952a.827.827,0,0,1-.016.324c-.044.1-.16.226-.236.221a.445.445,0,0,1-.291-.206c-.05-.08-.021-.211-.021-.32,0-1.749,0-3.5,0-5.244a1.054,1.054,0,0,0-.993-1.1c-.37-.053-.347.272-.479.441s.008.267.148.368a1.356,1.356,0,0,1,.4,1.865,2.559,2.559,0,0,1-4.484-.086,5.6,5.6,0,0,1-.326-5.437,4.227,4.227,0,0,1,2.586-2.358,2.1,2.1,0,0,1,2.77,1.127,4.578,4.578,0,0,1,.307.776A1.493,1.493,0,0,1,53.644,50.728Z" transform="translate(-48.823 -46.607)" fill="none" stroke="#653f8c" stroke-width="1"/>
        <path id="Path_6194" data-name="Path 6194" d="M58.917,51.658c-.269-.327-.544-.641-.79-.977a.52.52,0,0,1-.054-.378.293.293,0,0,1,.235-.166.374.374,0,0,1,.27.183,1.968,1.968,0,0,0,1.445,1.072c.083-.216.154-.4.235-.616l-.229-.031A1.3,1.3,0,0,1,58.8,49.558a2.432,2.432,0,0,1,3.251-2.706,4.6,4.6,0,0,1,2.934,3.86,5.6,5.6,0,0,1-.783,3.88,2.622,2.622,0,0,1-3.915.8,3.1,3.1,0,0,1-.654-.862,1.354,1.354,0,0,1,.49-1.731c.084-.065.167-.267.129-.329-.117-.183-.034-.549-.449-.493a1.076,1.076,0,0,0-1.045,1.2c0,1.7.007,3.4,0,5.1,0,.225.088.56-.268.569-.4.01-.289-.347-.291-.578-.007-1.6,0-3.206,0-4.809C58.2,52.419,58.248,52.313,58.917,51.658Z" transform="translate(-50.492 -46.622)" fill="none" stroke="#653f8c" stroke-width="1"/>
      </g>
    </g>
  </g>
</svg>
