<svg xmlns="http://www.w3.org/2000/svg" width="38.525" height="40" viewBox="0 0 38.525 40">
  <path id="Union_11" data-name="Union 11" d="M18.88,32.67l-.219.291v.721a.586.586,0,0,1-.143.385L13.7,39.609a.592.592,0,0,1-.138.113.587.587,0,0,1-.74-.121L8.017,34.067a.588.588,0,0,1-.144-.385v-.721l-2.186-2.9A8.24,8.24,0,0,0,1.174,37.4v1.968a.587.587,0,0,1-1.174,0V37.4a9.414,9.414,0,0,1,4-7.7V27.128a.587.587,0,1,1,1.174,0V29c.152-.077.3-.151.461-.22l3.8-1.667V24.686a7.953,7.953,0,0,1-3.7-6.71v-1.1a2.8,2.8,0,0,1-.561-.152v7.907a.587.587,0,0,1-1.174,0V15.881s0-.009,0-.013a2.807,2.807,0,0,1-.073-3.453.465.465,0,0,1-.006-.047l-.16-1.8a9.93,9.93,0,0,1,.334-3.591.587.587,0,0,1,1.129.32,8.753,8.753,0,0,0-.294,3.168l.095,1.069a2.8,2.8,0,0,1,.722-.216.978.978,0,0,1,.65-.769h0a5.591,5.591,0,0,0,2.773-2.1l1.085-1.57a.91.91,0,0,1,1.441-.073,9.636,9.636,0,0,0,5.986,3.29l2.127.3a1.165,1.165,0,0,1,.976.931,2.8,2.8,0,0,1,.727.239l.1-1.1a8.694,8.694,0,0,0-2.22-6.629,8.03,8.03,0,0,0-5.978-2.659h-.284A8.146,8.146,0,0,0,6.2,5.088a.587.587,0,1,1-1-.62A9.313,9.313,0,0,1,13.125,0h.284a9.19,9.19,0,0,1,6.843,3.041,9.868,9.868,0,0,1,2.524,7.524l-.159,1.8a.584.584,0,0,1-.027.128,2.8,2.8,0,0,1-.052,3.269v6.217A10,10,0,0,1,32.9,21a.587.587,0,1,1-.514,1.055,8.746,8.746,0,0,0-3.864-.888,8.832,8.832,0,1,0,5.864,2.229.587.587,0,1,1,.78-.877A10,10,0,1,1,18.88,32.67ZM9.926,28.182l3.341,9.3,3.33-9.268-.1-.044L14.13,29.772a1.606,1.606,0,0,1-1.816,0l-2.356-1.6Zm4.953,8.283,2.608-3v-.7a.587.587,0,0,1,.118-.353l.975-1.294A10.09,10.09,0,0,1,18.516,30c0-.312.015-.619.043-.924l-.885-.388Zm-8.1-6.9,2.146,2.851a.588.588,0,0,1,.118.353v.7l2.608,3-2.806-7.81Zm3.824-2.372L12.975,28.8a.439.439,0,0,0,.5,0l2.378-1.613V25.353c-.1.04-.2.079-.3.115l-.274.1a5.854,5.854,0,0,1-3.929.008l-.333-.118c-.138-.049-.274-.1-.408-.159Zm10.2-10.33V18a7.959,7.959,0,0,1-3.779,6.758v2.36l1.721.755a10,10,0,0,1,2.619-4.858V16.688A2.789,2.789,0,0,1,20.8,16.858ZM10.132,9.116A6.773,6.773,0,0,1,6.905,11.61v6.366a6.775,6.775,0,0,0,4.5,6.374l.333.118a4.68,4.68,0,0,0,3.139-.006l.274-.1A6.78,6.78,0,0,0,19.629,18V11.558l-2.114-.3a10.807,10.807,0,0,1-6.489-3.434ZM4.54,14.095a1.642,1.642,0,0,0,1.192,1.576V12.519A1.641,1.641,0,0,0,4.54,14.095ZM20.8,15.645a1.636,1.636,0,0,0,0-3.1ZM3.6,39.8a1,1,0,0,1-1-1v-1.25a1,1,0,0,1,1-1H8.437a1,1,0,0,1,1,1v1.25a1,1,0,0,1-1,1Zm.178-1.174H8.258v-.893H3.78ZM20.754,30.6a1.031,1.031,0,0,1,0-1.209c.859-1.191,3.957-5.076,7.766-5.076s6.907,3.885,7.766,5.076a1.031,1.031,0,0,1,0,1.209c-.859,1.191-3.957,5.075-7.766,5.075S21.613,31.79,20.754,30.6Zm3.26-.6a4.506,4.506,0,1,0,4.506-4.506A4.511,4.511,0,0,0,24.015,30Zm-2.248,0a16.16,16.16,0,0,0,1.283,1.523,5.65,5.65,0,0,1,0-3.047A16.1,16.1,0,0,0,21.767,30ZM34.2,30a5.654,5.654,0,0,1-.208,1.522A16.226,16.226,0,0,0,35.275,30h0a16.242,16.242,0,0,0-1.283-1.523A5.646,5.646,0,0,1,34.2,30ZM25.76,30a2.761,2.761,0,1,1,2.761,2.761A2.764,2.764,0,0,1,25.76,30Zm1.174,0a1.587,1.587,0,1,0,1.587-1.587A1.589,1.589,0,0,0,26.934,30Z" fill="#fff"/>
</svg>
