<svg xmlns="http://www.w3.org/2000/svg" width="27.432" height="27.432" viewBox="0 0 27.432 27.432">
  <g id="Group_11657" data-name="Group 11657" transform="translate(-245.902 5172)">
    <path id="Path_6131" data-name="Path 6131" d="M14.734,0A6.348,6.348,0,0,0,15.77.154,13.475,13.475,0,0,1,17.822.64a.651.651,0,0,1,.458.728.678.678,0,0,1-.6.6.954.954,0,0,1-.393-.061A12.122,12.122,0,0,0,6.247,3.9a11.791,11.791,0,0,0-4.691,7.712A11.987,11.987,0,0,0,4.294,21.695a11.911,11.911,0,0,0,7.342,4.19,11.919,11.919,0,0,0,8.5-1.628,12.07,12.07,0,0,0,5.744-8.472,11.993,11.993,0,0,0-.355-5.661.692.692,0,1,1,1.313-.39,14.051,14.051,0,0,1,.541,2.831c0,.048-.02.111.053.133v.268a.069.069,0,0,0,0,.107v.268a1.071,1.071,0,0,0,0,.536v.375c-.043.044-.022.1-.028.15s-.008.085.028.118v.268c-.061.52-.087,1.042-.189,1.558a13.755,13.755,0,0,1-8.736,10.288,12.966,12.966,0,0,1-2.9.728c-.29.035-.584.017-.872.07h-.161c-.03-.033-.069-.026-.107-.028s-.078-.005-.107.028h-.268a.29.29,0,0,0-.268,0h-.214a.41.41,0,0,0-.321,0h-.214c-.044-.043-.1-.022-.15-.028s-.085-.008-.118.028h-.214A12.648,12.648,0,0,1,10.2,27.04,13.83,13.83,0,0,1,.6,17.951a10.1,10.1,0,0,1-.576-2.984A.11.11,0,0,0,0,14.895V14.68c.037-.035.025-.08.028-.123s0-.066,0-.1,0-.067,0-.1C.021,14.3.046,14.245,0,14.2v-.643a.409.409,0,0,0,0-.321v-.161c.043-.044.022-.1.028-.15s.008-.085-.028-.118v-.214c.074-.384.054-.777.122-1.163a13.592,13.592,0,0,1,3.236-6.8A13.7,13.7,0,0,1,10.824.24C11.391.114,11.965.069,12.537,0h.268c.048.047.109.02.164.028h.137c.044,0,.092.012.128-.028H14.2c.045.046.1.021.156.028h.1c.042,0,.087.009.121-.028Z" transform="translate(245.902 -5172)" fill="#fff"/>
    <path id="Path_6132" data-name="Path 6132" d="M510.717,249.441a.614.614,0,0,1,0-.536Z" transform="translate(-237.383 -5407.565)" fill="#fff"/>
    <path id="Path_6133" data-name="Path 6133" d="M0,246.906a.241.241,0,0,1,0,.322Z" transform="translate(245.902 -5405.673)" fill="#fff"/>
    <path id="Path_6134" data-name="Path 6134" d="M247.9,510.73a.243.243,0,0,1,.321,0Z" transform="translate(11.284 -5655.299)" fill="#fff"/>
    <path id="Path_6135" data-name="Path 6135" d="M257.9,510.749a.18.18,0,0,1,.268,0Z" transform="translate(1.824 -5655.318)" fill="#fff"/>
    <path id="Path_6136" data-name="Path 6136" d="M239.065.045c-.056,0-.125.043-.157-.045h.161c.018.012.024.022.016.032a.028.028,0,0,1-.021.013" transform="translate(19.799 -5172)" fill="#fff"/>
    <path id="Path_6137" data-name="Path 6137" d="M241.829.045q0-.022,0-.045h.161q.027.018.016.032a.028.028,0,0,1-.021.013h-.161" transform="translate(17.034 -5172)" fill="#fff"/>
    <path id="Path_6138" data-name="Path 6138" d="M265.063.046C265,.052,264.939.065,264.9,0h.161c.017.009.023.02.018.03s-.01.017-.015.017" transform="translate(-4.799 -5172)" fill="#fff"/>
    <path id="Path_6139" data-name="Path 6139" d="M.046,240.588c.007.061.023.124-.046.164v-.161q.021-.034.046,0" transform="translate(245.902 -5399.679)" fill="#fff"/>
    <path id="Path_6140" data-name="Path 6140" d="M0,264.9c.066.04.053.1.046.164-.017.021-.032.019-.046,0Z" transform="translate(245.902 -5422.702)" fill="#fff"/>
    <path id="Path_6141" data-name="Path 6141" d="M510.818,266.061c-.008-.061-.022-.124.046-.163v.161c-.014.023-.03.025-.046,0" transform="translate(-237.531 -5423.647)" fill="#fff"/>
    <path id="Path_6142" data-name="Path 6142" d="M240.56,510.819c.061-.007.125-.024.164.046h-.161q-.025-.014-.018-.03c0-.011.01-.016.015-.016" transform="translate(18.251 -5655.434)" fill="#fff"/>
    <path id="Path_6143" data-name="Path 6143" d="M0,267.9l.046,0q0,.053,0,.107c-.016.021-.032.02-.045,0Z" transform="translate(245.902 -5425.54)" fill="#fff"/>
    <path id="Path_6144" data-name="Path 6144" d="M510.851,268.9l.046,0V269c-.065-.013-.052-.06-.046-.1" transform="translate(-237.564 -5426.485)" fill="#fff"/>
    <path id="Path_6145" data-name="Path 6145" d="M0,269.9l.045,0v.106c-.016.022-.031.02-.045,0Z" transform="translate(245.902 -5427.432)" fill="#fff"/>
    <path id="Path_6146" data-name="Path 6146" d="M0,271.9l.045,0c.007.044.022.092-.045.1Z" transform="translate(245.902 -5429.323)" fill="#fff"/>
    <path id="Path_6147" data-name="Path 6147" d="M510.888,242.015c-.063-.036-.075-.071,0-.107Z" transform="translate(-237.555 -5400.942)" fill="#fff"/>
    <path id="Path_6148" data-name="Path 6148" d="M244.827.045q0-.022,0-.045h.107a.091.091,0,0,1-.111.045" transform="translate(14.197 -5172)" fill="#fff"/>
    <path id="Path_6149" data-name="Path 6149" d="M239.012,510.848a.235.235,0,0,1,0,.046h-.107c.012-.067.06-.052.1-.046" transform="translate(19.799 -5655.463)" fill="#fff"/>
    <path id="Path_6150" data-name="Path 6150" d="M267.9.046a.364.364,0,0,1,0-.047h.107q.025.014.018.029c0,.011-.01.016-.015.016l-.107,0" transform="translate(-7.638 -5172)" fill="#fff"/>
    <path id="Path_6151" data-name="Path 6151" d="M269.9.044c0-.015,0-.03,0-.045H270c-.014.062-.06.052-.1.045" transform="translate(-9.528 -5172)" fill="#fff"/>
    <path id="Path_6152" data-name="Path 6152" d="M.046,239.013l-.046,0v-.107c.066.012.052.06.046.1" transform="translate(245.902 -5398.104)" fill="#fff"/>
    <path id="Path_6153" data-name="Path 6153" d="M267.9,510.937c.022-.051.063-.054.11-.045q.023.017.014.031c-.006.009-.011.014-.017.014Z" transform="translate(-7.637 -5655.505)" fill="#fff"/>
    <path id="Path_6154" data-name="Path 6154" d="M269.9,510.908a.364.364,0,0,1,0-.045c.044-.006.091-.019.1.045Z" transform="translate(-9.528 -5655.477)" fill="#fff"/>
    <path id="Path_6155" data-name="Path 6155" d="M87.955,95.778A9.57,9.57,0,0,1,86,76.841a8.959,8.959,0,0,1,2.476-.173.771.771,0,0,1,.754.57.654.654,0,0,1-.731.808,7.861,7.861,0,0,0-4.385.919A8.2,8.2,0,1,0,96,87.72a6.805,6.805,0,0,0,.111-2.023.689.689,0,1,1,1.366-.132,8.128,8.128,0,0,1-.134,2.4,9.431,9.431,0,0,1-6.857,7.466,9.035,9.035,0,0,1-2.536.35" transform="translate(171.712 -5244.54)" fill="#fff"/>
    <path id="Path_6156" data-name="Path 6156" d="M160.017,163.976a5.463,5.463,0,0,1-.806-10.839,5.166,5.166,0,0,1,.877-.09.7.7,0,0,1,.769.649.685.685,0,0,1-.727.719,4.1,4.1,0,0,0-.353,8.174,4.082,4.082,0,0,0,4.491-3.919c.023-.556.311-.876.751-.833a.682.682,0,0,1,.623.763,5.393,5.393,0,0,1-3.067,4.823,5.257,5.257,0,0,1-2.559.553" transform="translate(99.486 -5316.844)" fill="#fff"/>
    <path id="Path_6157" data-name="Path 6157" d="M250.929,33.917c-.348,0-.7.009-1.044,0a.518.518,0,0,0-.42.175q-2.124,2.136-4.258,4.263c-.41.41-.8.465-1.116.157s-.265-.709.141-1.115q2.13-2.13,4.263-4.258a.558.558,0,0,0,.181-.444c-.01-.687,0-1.375-.005-2.062a.886.886,0,0,1,.263-.674q1.993-1.984,3.979-3.974a.688.688,0,0,1,1.171.149.964.964,0,0,1,.055.394c0,.527,0,1.053,0,1.58,0,.394-.049.346.335.348.536,0,1.071.006,1.607,0a.691.691,0,0,1,.735.42.71.71,0,0,1-.215.821q-1.982,1.975-3.957,3.958a.853.853,0,0,1-.645.269c-.357,0-.714,0-1.071,0m-.808-3.216a.3.3,0,0,0-.077.243c0,.473.007.945,0,1.418,0,.157.05.191.2.188q.7-.013,1.391,0a.41.41,0,0,0,.325-.141c.8-.81,1.613-1.615,2.418-2.424.043-.043.13-.071.1-.172-.33,0-.659.006-.988,0a.673.673,0,0,1-.7-.711c-.005-.328,0-.655,0-1.057-.918.92-1.786,1.79-2.657,2.658" transform="translate(15.087 -5196.345)" fill="#fff"/>
  </g>
</svg>
