<svg xmlns="http://www.w3.org/2000/svg" width="27.831" height="24.561" viewBox="0 0 27.831 24.561">
  <g id="Group_11660" data-name="Group 11660" transform="translate(-758.008 5162.061)">
    <path id="Path_6158" data-name="Path 6158" d="M1337.632,316.675c0,.271.005.543,0,.814a.813.813,0,1,1-1.627,0c-.007-.561-.009-1.121,0-1.682a.813.813,0,0,1,1.625,0c.008.289,0,.579,0,.868" transform="translate(-564.89 -5455.813)" fill="#fff"/>
    <path id="Path_6159" data-name="Path 6159" d="M1248.465,294.758a.921.921,0,0,1-.139.46c-.263.453-.519.909-.785,1.359a.815.815,0,1,1-1.41-.811c.27-.479.542-.958.826-1.43a.8.8,0,0,1,.914-.363.816.816,0,0,1,.595.784" transform="translate(-481.43 -5436.285)" fill="#fff"/>
    <path id="Path_6160" data-name="Path 6160" d="M1415.628,294.022a.766.766,0,0,1,.6.4c.283.482.568.964.839,1.454a.813.813,0,1,1-1.414.8c-.282-.472-.56-.948-.825-1.43a.822.822,0,0,1,.8-1.23" transform="translate(-637.894 -5436.358)" fill="#fff"/>
    <path id="Path_6161" data-name="Path 6161" d="M1337.632,24.074c0,.262.005.524,0,.787a.813.813,0,1,1-1.627.009q-.012-.814,0-1.627a.813.813,0,0,1,1.625-.009c.009.28,0,.56,0,.841" transform="translate(-564.89 -5184.49)" fill="#fff"/>
    <path id="Path_6162" data-name="Path 6162" d="M1247.557,49.589a.772.772,0,0,1-.695-.4c-.281-.473-.561-.947-.825-1.429a.815.815,0,0,1,.31-1.105.8.8,0,0,1,1.088.287c.292.476.579.957.841,1.451a.806.806,0,0,1-.719,1.193" transform="translate(-481.367 -5206.861)" fill="#fff"/>
    <path id="Path_6163" data-name="Path 6163" d="M1415.781,49.6a.8.8,0,0,1-.721-1.152c.267-.521.567-1.027.876-1.524a.807.807,0,0,1,1.4.787c-.275.527-.58,1.039-.888,1.548a.738.738,0,0,1-.67.341" transform="translate(-638.129 -5206.878)" fill="#fff"/>
    <path id="Path_6164" data-name="Path 6164" d="M1183.442,96.348a5.794,5.794,0,0,1-1.167,1.3,23.259,23.259,0,0,1-7.6,4.967,13.985,13.985,0,0,1-6.6.9,15.763,15.763,0,0,1-5.816-1.87,24.956,24.956,0,0,1-6.3-4.832.848.848,0,0,1,0-1.368,23.9,23.9,0,0,1,7.844-5.563,14.1,14.1,0,0,1,11.9.19,24.35,24.35,0,0,1,7.419,5.386,3.3,3.3,0,0,1,.321.453Zm-7.994-.467a5.923,5.923,0,1,0-5.777,6.1,5.917,5.917,0,0,0,5.777-6.1m.455,4.375a1.513,1.513,0,0,0,.171-.076,23.576,23.576,0,0,0,5.3-3.92c.124-.12.085-.173-.016-.271a23.413,23.413,0,0,0-5.231-3.878c-.082-.044-.157-.126-.271-.1a7.491,7.491,0,0,1,0,8.232c.01,0,.03.017.043.012m-12.7-8.247c-.033,0-.054-.009-.068,0-.082.039-.162.079-.242.122a23.72,23.72,0,0,0-5.2,3.871c-.12.116-.094.169.011.27a23.705,23.705,0,0,0,5.088,3.8c.13.072.265.136.45.231a7.527,7.527,0,0,1-.034-8.3m7.521,3.4c-.352.352-.711.7-1.052,1.06-.126.133-.19.1-.3-.012-.274-.288-.558-.568-.843-.846a.822.822,0,0,0-1.266,0q-.762.754-1.517,1.517a.817.817,0,1,0,1.153,1.152c.285-.278.57-.557.843-.846.112-.119.178-.134.3-.005.264.285.547.554.823.828a.835.835,0,0,0,1.324,0c.54-.536,1.075-1.076,1.615-1.611.045-.044.073-.128.169-.108,0,.038,0,.074,0,.11a.815.815,0,1,0,1.629-.016c0-.706.006-1.412,0-2.118a.794.794,0,0,0-.771-.82q-1.262-.021-2.525,0a.8.8,0,0,0-.776.79.82.82,0,0,0,.763.832c.152.01.306,0,.5,0a1.191,1.191,0,0,1-.072.1" transform="translate(-397.604 -5245.911)" fill="#fff"/>
  </g>
</svg>
