<?xml version="1.0" encoding="utf-8"?>
<!-- Generator: Adobe Illustrator 26.2.0, SVG Export Plug-In . SVG Version: 6.00 Build 0)  -->
<svg version="1.1" id="Layer_1" xmlns="http://www.w3.org/2000/svg" xmlns:xlink="http://www.w3.org/1999/xlink" x="0px" y="0px"
	 viewBox="0 0 100 100" style="enable-background:new 0 0 100 100;" xml:space="preserve">
<style type="text/css">
	.st0{fill:#FFFFFF;}
</style>
<g id="Group_11117" transform="translate(807 443.13)">
	<path id="Path_5538" class="st0" d="M-768.9-352.4c-1.6-0.2-3.2-0.6-4.8-1c-10.1-3.3-16.1-10.1-18.1-20.5c-0.2-1.3-0.3-2.6-0.3-3.9
		c0-10.2,0-20.4,0-30.6c0-10.8,6.9-20.5,17.2-24c0.3-0.1,0.6-0.2,0.8-0.2c0.9-0.2,1.7,0.3,1.9,1.2c0.2,0.8-0.3,1.6-1,1.8
		c-1.6,0.6-3.1,1.3-4.6,2.1c-7.1,4.2-10.9,10.6-11.1,18.8c-0.2,10.4-0.1,20.8,0,31.2c0.1,10.7,7.8,19.8,18.4,21.6
		c6.8,1.3,13.7-0.7,18.8-5.4c0.2-0.1,0.3-0.3,0.7-0.5c-0.5,0-0.7-0.1-0.9-0.1c-1.7,0-3.3,0-5,0c-0.9,0.1-1.6-0.5-1.7-1.4
		c0-0.1,0-0.2,0-0.3c0-3.1,0-6.2,0-9.3c-0.1-0.9,0.5-1.6,1.4-1.7c0.1,0,0.2,0,0.4,0c2.6,0,5.1,0,7.8,0v-1.7c0-2,0-4.1,0-6.1
		c-0.1-0.9,0.5-1.6,1.4-1.7c0.1,0,0.2,0,0.3,0c1,0,2,0,3,0c0-0.3,0-0.5,0-0.8c0-7.7,0-15.5,0-23.2c0.1-9.7-6.1-18.3-15.3-21.3
		c-1-0.4-1.5-1-1.4-1.8c0.2-1.1,1.1-1.6,2.3-1.2c10.5,3.4,17.6,13.3,17.6,24.3c0,7.7,0,15.3,0,23v1.1c1,0,2,0,2.9,0
		c1.3,0,1.8,0.6,1.8,1.9c0,2.3,0,4.6,0,6.8v0.8h6.1c0.6,0,1.3,0,1.9,0c0.8,0,1.5,0.7,1.5,1.5c0,0,0,0,0,0c0,3.2,0,6.5,0,9.7
		c0,0.8-0.7,1.5-1.5,1.5c-0.1,0-0.1,0-0.2,0c-2.6,0-5.1,0-7.8,0v0.9c0,2.2,0,4.4,0,6.6c0.1,0.9-0.3,1.7-1.1,2.1h-10.5
		c-0.8-0.4-1.3-1.2-1.1-2.1c0.1-0.8,0-1.7,0-2.5v-2.3c-0.3,0.3-0.5,0.5-0.7,0.6c-2.9,2.6-6.4,4.4-10.2,5.4c-1.4,0.4-2.9,0.6-4.3,0.9
		L-768.9-352.4z M-730.1-371.5h-0.8c-2.2,0-4.4,0-6.7,0c-1.5,0-2-0.5-2-2c0-1.1,0-2.2,0-3.3v-4.1h-6.4v0.8c0,2.2,0,4.4,0,6.7
		c0,1.5-0.5,2-2,2h-7.5v6.4h7.4c1.6,0,2.1,0.5,2.1,2.1c0,1.2,0,2.4,0,3.6v3.8h6.4v-0.8c0-2.2,0-4.4,0-6.6c0-1.6,0.5-2.1,2.1-2.1h7.4
		L-730.1-371.5z"/>
	<path id="Path_5539" class="st0" d="M-766.7-424.3c8.8,0,15.9,7.1,15.9,15.9c0,6.1-3.4,11.6-8.9,14.3c-0.4,0.1-0.7,0.5-0.7,0.9
		c-0.5,3.5-3.7,5.9-7.2,5.4c-2.8-0.4-5-2.6-5.4-5.4c0-0.4-0.3-0.7-0.6-0.9c-7.9-3.8-11.2-13.3-7.4-21.2c2.3-4.8,6.9-8.1,12.2-8.8
		C-768.1-424.2-767.4-424.2-766.7-424.3z M-761-397.1c3.8-1.4,7-6.5,7-11.3c0-5.4-3.4-9.5-6.3-10.9c-0.5,4.6-2.6,8.2-6.6,10.5
		c-4,2.4-8.1,2.5-12.4,0.8c0,4.4,3.3,9.4,7,10.8c1.7-3.1,5.7-4.3,8.8-2.5C-762.5-399-761.6-398.2-761-397.1L-761-397.1z
		 M-766.2-421.1c-6.1,0-11.1,3.8-12.6,9.1c-0.1,0.5-0.1,0.8,0.4,1c1.9,0.9,4,1.2,6.1,1c5-0.8,8.7-5,8.8-10c0-0.5-0.1-0.7-0.6-0.7
		C-764.9-420.9-765.8-421-766.2-421.1L-766.2-421.1z M-763.5-394.1c0-1.8-1.4-3.2-3.2-3.2c-1.8,0-3.2,1.4-3.2,3.2
		c0,1.7,1.4,3.2,3.2,3.2C-764.9-390.9-763.5-392.3-763.5-394.1L-763.5-394.1z"/>
	<path id="Path_5540" class="st0" d="M-765.1-432.2c0,0.9-0.7,1.6-1.6,1.6s-1.6-0.7-1.6-1.6c0-0.9,0.7-1.6,1.6-1.6
		C-765.8-433.8-765.1-433.1-765.1-432.2C-765.1-432.2-765.1-432.2-765.1-432.2z"/>
</g>
</svg>
