<svg xmlns="http://www.w3.org/2000/svg" width="55.663" height="47.483" viewBox="0 0 55.663 47.483">
  <path id="Path_6112" data-name="Path 6112" d="M43.4,20.167v.148c-.695-.011-1.566-.13-1.577.665-.013.84.9.645,1.594.686.008.7-.123,1.573.682,1.567.854-.007.652-1.042.665-1.591.676-.007,1.581.148,1.588-.662a.674.674,0,0,0-.48-.652c-.359-.095-.755.032-1.113-.048,0-.661.124-1.522-.62-1.569-.923-.059-.74,1.019-.74,1.456M33.875,5.394a1.567,1.567,0,0,1-.035.829c-.378.682-.9-.421-.617,1.446.154,1.01.5.774.673,1.166a4.849,4.849,0,0,0,1.765,2.645,2.991,2.991,0,0,0,3.7.048,5.325,5.325,0,0,0,.607-.634c.839-.957.9-1.872,1.394-2.378.3-.306.3-.3.381-.857.048-.318.176-.854.014-1.115-.312-.13-.575-.11-.637-.517a6.3,6.3,0,0,1,.11-1.06c-.116-.106-.6-.3-.8-.432-.291-.195-.428-.436-.644-.582A7.148,7.148,0,0,1,35.664,5.34c-.6.047-1.211.008-1.789.054M11.305,10.51a4.024,4.024,0,0,0-3.787,4.261,3.939,3.939,0,0,0,4.3,3.754,3.932,3.932,0,0,0,3.709-4.27,4.011,4.011,0,0,0-4.22-3.746M35.857,35.6c-.823.107-1.732-.1-2.533.076a1.585,1.585,0,0,0-.018,3.031,17.118,17.118,0,0,0,2.585.072c.143.637-.113,1.86.078,2.533a1.581,1.581,0,0,0,3.034,0c.189-.689-.065-1.915.076-2.577.713-.092,1.9.107,2.549-.068a1.573,1.573,0,0,0,.006-3.02,20.933,20.933,0,0,0-2.582-.066,16.081,16.081,0,0,0-.062-2.556,1.6,1.6,0,0,0-3.062-.011,18.994,18.994,0,0,0-.069,2.584m13.58,11.825c.011.007.028,0,.034.016s.027.013.035.016l.288.027h5.868V29.522a2.532,2.532,0,0,1-1.552,1.895,15.181,15.181,0,0,1-3.242.14c-.048,1.412-.006,2.9-.006,4.323v8.649a5.137,5.137,0,0,1-.172,2.008,1.541,1.541,0,0,1-1.254.888M34.694,11.788a3.744,3.744,0,0,1,.493.38,2.654,2.654,0,0,1,.505.359,4.167,4.167,0,0,1,.675.26A3.809,3.809,0,0,0,40.932,11a5.16,5.16,0,0,0,.561-1.324c.095-.3.244-.346.425-.517a1.555,1.555,0,0,0,.445-.541,3.86,3.86,0,0,0,.167-2.467c-.144-.28-.234-.288-.521-.457.031-1.244.793-2.575-.487-4.186C40.419.124,38.265.145,37.857,0H36.9a5.187,5.187,0,0,0-1.964.513c-.342.232-.445.479-.624.618a4.031,4.031,0,0,0-.33.271c-.409.385-.316.239-.659.577A2.37,2.37,0,0,0,32.87,3.4a10.778,10.778,0,0,0,.169,2.283c-.651.189-.794.775-.733,1.531.174,2.187.945,1.852,1.108,2.359a5.938,5.938,0,0,0,1.279,2.218M0,25.447v.489c.116.247,1.24,8,1.379,8.949a15.872,15.872,0,0,0,1.01,4.13,7.454,7.454,0,0,0,.953,1.618l.553.729a11.049,11.049,0,0,0,2.088,1.812c3.417,2.15,7.158,1.716,11.143,1.531a6.031,6.031,0,0,0,2.318-.251,1.852,1.852,0,0,0,.017-3.242,4.773,4.773,0,0,0-2.292-.2c-2.76.1-6.811.64-9.142-.915a6.076,6.076,0,0,1-1.365-1.2c-1.45-1.608-1.508-3.75-1.836-5.916L3.805,26.252c-.141-.908-.145-1.372-.7-1.913a1.865,1.865,0,0,0-1.94-.352A2.059,2.059,0,0,0,0,25.447m15.42,8.158c-.079-.6-.076-1.42-.106-2.052-.093-2.067-.189-4.106-.366-6.166a9.858,9.858,0,0,0-.71-3.615A3.864,3.864,0,0,0,7,23.591c-.034.648.452,7.259.5,8.223.16,2.944-.25,5.43,1.683,7a5.683,5.683,0,0,0,3.362.978c1.44.027,2.923,0,4.367,0s2.883.016,4.328-.014c.744-.014.565-.569.565-1.627l.007-3.253c0-.414.075-.726-.237-.9-.244-.136-5.588-.349-6.155-.393M36.33,18.993a2.939,2.939,0,0,1-.411-.493l-1.259-1.61a25.224,25.224,0,0,1-1.583-2.27,19.911,19.911,0,0,0-4.662,1.806,7.448,7.448,0,0,0-.676.394,2.7,2.7,0,0,0-.569.5c-.94.891-.754,2.028-.754,3.53,0,1.443,0,2.887,0,4.33l22.131,0c-.025-1.43,0-2.87,0-4.291,0-1.607.184-2.519-.714-3.558-.817-.946-5.045-2.69-5.913-2.7-.136.16-.271.387-.391.556-.133.188-.251.366-.384.556-.654.933-1.819,2.438-2.5,3.243-.1-.4-.138-.977-.193-1.4a3.712,3.712,0,0,1-.076-1.4c.165-.378.465-.73.28-1.193-.2-.511-.59-.383-1.185-.384-.8,0-.97-.065-1.162.409-.168.412.12.785.28,1.144a3.1,3.1,0,0,1-.061,1.382c-.058.467-.109.978-.191,1.444m-10.8,28.433c.134-.037,23.838-.023,23.911,0a1.541,1.541,0,0,0,1.254-.888,5.137,5.137,0,0,0,.172-2.008V35.88c0-1.42-.042-2.911.006-4.323a15.181,15.181,0,0,0,3.242-.14,2.532,2.532,0,0,0,1.552-1.895V28.95a2.465,2.465,0,0,0-1.224-1.78,5.506,5.506,0,0,0-2.673-.318H33.782c-3.992,0-8-.032-11.99,0a2.351,2.351,0,0,0-2.277,3.3c.95,1.964,3.029,1.278,4.579,1.412.073,2.845,0,5.788,0,8.642,0,1.442,0,2.883,0,4.325a5.322,5.322,0,0,0,.16,1.988,1.542,1.542,0,0,0,1.269.909" fill="#fff"/>
</svg>
