<?xml version="1.0" encoding="utf-8"?>
<!-- Generator: Adobe Illustrator 26.2.0, SVG Export Plug-In . SVG Version: 6.00 Build 0)  -->
<svg version="1.1" id="Layer_1" xmlns="http://www.w3.org/2000/svg" xmlns:xlink="http://www.w3.org/1999/xlink" x="0px" y="0px"
	 viewBox="0 0 100 100" style="enable-background:new 0 0 100 100;" xml:space="preserve">
<style type="text/css">
	.st0{fill:#FFFFFF;}
</style>
<g id="Group_11385" transform="translate(38.158 -3369.8)">
	<path id="Path_6010" class="st0" d="M-17.2,3441.9c-0.3-0.2-0.3-0.2-0.4-0.3c-1.5-0.7-2.5-2.3-2.4-3.9c0-1.2,0-2.3,0-3.5
		c0-6.3,0-12.6,0-18.9c-0.1-1.8,0.9-3.5,2.6-4.2c1.8-0.8,4-0.2,5.2,1.4c1.6,2.1,3.1,4.2,4.6,6.3l0.6,0.8c0.2-0.1,0.4-0.2,0.6-0.3
		c1.9-0.8,3.7-1.7,5.6-2.5c1.8-0.9,3.9-0.2,4.8,1.6c0.9,1.8,0.2,3.9-1.6,4.8c-0.1,0.1-0.2,0.1-0.3,0.1c-2.7,1.2-5.4,2.4-8.1,3.6
		c-2,0.9-3.3,0.7-4.8-0.8c-0.1-0.1-0.2-0.3-0.3-0.5l-0.2,0.1v7.5c0.2,0,0.5,0,0.7,0c4.9,0,9.8,0,14.7,0c2.4-0.1,4.4,1.6,4.6,4
		c0,0.2,0,0.4,0,0.5c0,6.1,0,12.2,0,18.4c0.1,2.4-1.8,4.4-4.1,4.5c-2.4,0.1-4.4-1.8-4.5-4.1c0-0.1,0-0.2,0-0.3c0-4.5,0-8.9,0-13.4
		v-0.8h-2.8c0.9,0.6,0.8,1.5,0.8,2.3c0,4.9,0,9.9,0,14.8c0,0.3,0,0.6-0.1,0.9c-0.2,0.9-1.1,1.4-1.9,1.2c-0.5-0.1-1-0.5-1.2-1.1
		c-0.1-0.3-0.1-0.6-0.1-1c0-4.4,0-8.8,0-13.1v-1H-6c-5.2,0-10.3,0-15.5,0c-0.6,0-0.7,0.2-0.9,0.7c-1.2,4.5-2.4,9.1-3.7,13.6
		c-0.1,0.3-0.2,0.7-0.4,1c-0.4,0.7-1.3,1-2,0.6c-0.7-0.2-1.1-0.9-0.9-1.6c0-0.1,0-0.1,0.1-0.2c1.3-4.9,2.7-9.8,4-14.7
		c0.1-0.4,0.1-0.8,0.1-1.2c-1.4-7.7-2.7-15.5-4.1-23.2c-0.2-0.8,0.2-1.7,1.1-1.9c0.1,0,0.1,0,0.2,0c0.9-0.2,1.7,0.4,1.9,1.3
		c0,0,0,0.1,0,0.1c1.3,7.3,2.6,14.5,3.8,21.8c0.1,0.4,0.2,0.6,0.7,0.6C-20.3,3441.9-18.9,3441.9-17.2,3441.9z"/>
	<path id="Path_6011" class="st0" d="M36.7,3433.5v-7.6l-0.2-0.2c-0.1,0.3-0.3,0.5-0.5,0.7c-1.1,1.2-2.8,1.5-4.2,0.8
		c-2.9-1.3-5.7-2.5-8.5-3.8c-1.8-0.8-2.7-2.8-2-4.7c0.8-1.8,2.9-2.7,4.7-2c0.1,0,0.1,0,0.2,0.1c1.9,0.8,3.9,1.7,5.8,2.6
		c0.3,0.2,0.7,0.1,0.8-0.1c0,0,0-0.1,0.1-0.1c1.6-2.3,3.2-4.5,4.9-6.7c1.4-1.9,4.2-2.2,6-0.8c0.8,0.6,1.3,1.4,1.5,2.3
		c0.1,0.5,0.2,1.1,0.1,1.6c0,7.1,0,14.3,0,21.4c0,2.2-0.7,3.8-2.9,4.8h5c0.3-1.6,0.6-3.3,0.9-4.9c1-5.8,2-11.6,3.1-17.5
		c0.1-0.9,0.9-1.5,1.8-1.3c0,0,0.1,0,0.1,0c0.8,0.1,1.4,0.9,1.3,1.8c0,0,0,0,0,0.1c-1.4,7.6-2.7,15.2-4,22.9
		c-0.1,0.6-0.1,1.2,0.1,1.8c1.3,4.9,2.6,9.7,3.9,14.5c0.3,0.7-0.1,1.5-0.8,1.8c-0.1,0-0.2,0.1-0.4,0.1c-0.6,0.2-1.3-0.1-1.6-0.7
		c-0.2-0.4-0.4-0.8-0.5-1.3c-1.2-4.5-2.4-8.9-3.6-13.4c-0.1-0.2-0.1-0.4-0.2-0.6H30.6v0.8c0,4.5,0,9,0,13.5c0,1.2-0.7,2-1.7,1.9
		c-0.8,0-1.4-0.6-1.5-1.3c0-0.3,0-0.6,0-0.8c0-5,0-10,0-15c-0.1-0.8,0.2-1.6,0.8-2.1h-2.8v1.3c0,4.4,0,8.8,0,13.1
		c0,2.4-1.9,4.3-4.3,4.3c-2,0-3.8-1.4-4.2-3.3c-0.1-0.4-0.1-0.8-0.1-1.2c0-6.1,0-12.2,0-18.4c-0.1-2.4,1.7-4.4,4.1-4.5
		c0.2,0,0.3,0,0.5,0c5,0,9.9,0,14.9,0L36.7,3433.5z"/>
	<path id="Path_6012" class="st0" d="M28.6,3404.1c-2.1-0.8-4.2-1.5-6.2-2.2c-0.5-0.1-0.9-0.1-1.4,0c-5.9,2.1-12.4-1.1-14.5-7
		c-2.1-5.9,1.1-12.4,7-14.5s12.4,1.1,14.5,7c0.3,0.7,0.4,1.5,0.5,2.2c0.3,2.6-0.2,5.2-1.6,7.4c-0.2,0.3-0.2,0.7-0.1,1
		c0.5,1.8,1,3.5,1.6,5.3C28.5,3403.6,28.6,3403.8,28.6,3404.1z"/>
	<path id="Path_6013" class="st0" d="M10.1,3380c-6.1,4-7.9,12.3-3.8,18.4c1,1.5,2.3,2.8,3.8,3.8c-0.1,0.1-0.3,0.1-0.5,0.1
		c-1.9,0.3-3.7,0.1-5.5-0.5c-0.4-0.1-0.8-0.1-1.2,0c-1.9,0.6-3.7,1.3-5.6,2c-0.2,0.1-0.4,0.1-0.7,0.2c0.5-1.6,0.9-3.2,1.4-4.7
		c0.4-1.1,0.4-2.2-0.2-3.2c-2.1-3.8-1.6-8.5,1.1-11.8c2.7-3.6,6.5-5,10.9-4.4C9.9,3380,10,3380,10.1,3380z"/>
	<path id="Path_6014" class="st0" d="M-13.9,3394.3c4.1,0,7.4,3.3,7.4,7.4c0,4.1-3.3,7.4-7.4,7.4c-4.1,0-7.4-3.3-7.4-7.4
		C-21.3,3397.6-18,3394.3-13.9,3394.3z"/>
	<path id="Path_6015" class="st0" d="M39.1,3409.2c-4.1,0-7.4-3.4-7.4-7.5c0-4.1,3.4-7.4,7.5-7.4c4.1,0,7.4,3.4,7.4,7.5
		C46.5,3405.9,43.2,3409.2,39.1,3409.2z"/>
	<path id="Path_6016" class="st0" d="M15.7,3431.6c-0.9,4.1-1.4,8.2-2.8,12l-0.3,0c-0.2-0.4-0.4-0.9-0.6-1.4c-0.7-2.9-1.3-5.8-2-8.7
		c0-0.1-0.1-0.3-0.1-0.4c-0.3-1.5-0.3-1.5-1.9-1.5c-4.4,0-8.9,0-13.3,0c-0.2,0-0.5,0-0.7,0c-0.9-0.1-1.5-1-1.3-1.9
		c0.1-0.7,0.7-1.2,1.4-1.3c0.1,0,0.3,0,0.4,0c12.1,0,24.2,0,36.3,0c0.8-0.1,1.6,0.4,1.8,1.3c0.2,0.9-0.4,1.7-1.3,1.9
		c-0.2,0-0.3,0-0.5,0c-3.4,0-6.8,0-10.2,0L15.7,3431.6z"/>
</g>
</svg>
