<svg xmlns="http://www.w3.org/2000/svg" width="73.57" height="73.849" viewBox="0 0 73.57 73.849">
  <g id="Group_11445" data-name="Group 11445" transform="translate(-429 -771)">
    <path id="Path_5718" data-name="Path 5718" d="M1372.135,477.482c-.492-.093-.882-.327-.851-.915.027-.511-.153-.732-.681-.695a.793.793,0,0,1-.9-.79.849.849,0,0,1,.845-.952c.578-.025.765-.209.758-.786a.757.757,0,0,1,.839-.764.832.832,0,0,1,.877.841c.027.595.221.815.828.8a.7.7,0,0,1,.728.78.784.784,0,0,1-.824.864c-.49,0-.706.12-.709.66A.969.969,0,0,1,1372.135,477.482Z" transform="translate(-884.581 359.106)" fill="#653f8c"/>
    <path id="Path_5719" data-name="Path 5719" d="M1259.032,348.829c1.737-.789,1.853-.9,2.544-2.453a3.253,3.253,0,0,0,2.406,2.379,3.352,3.352,0,0,0-2.4,2.512A3.308,3.308,0,0,0,1259.032,348.829Z" transform="translate(-823.218 429.086)" fill="#653f8c"/>
    <path id="Path_5720" data-name="Path 5720" d="M1265.976,425.6a2.682,2.682,0,0,0-1.687-1.788,2.427,2.427,0,0,0,1.648-1.663,2.346,2.346,0,0,0,1.793,1.623A2.458,2.458,0,0,0,1265.976,425.6Z" transform="translate(-826.133 387.072)" fill="#653f8c"/>
    <path id="Path_5721" data-name="Path 5721" d="M1275.959,337.413a1.062,1.062,0,0,1,.948-1.053,1.038,1.038,0,0,1,.961.969.957.957,0,0,1-1.909.084Z" transform="translate(-832.604 434.64)" fill="#653f8c"/>
    <path id="Path_5722" data-name="Path 5722" d="M1400.87,477.224c-.446-.037-.719-.412-.75-.972a.977.977,0,1,1,1.953.042C1402.1,476.826,1401.611,477.245,1400.87,477.224Z" transform="translate(-901.451 357.612)" fill="#653f8c"/>
    <path id="Path_5723" data-name="Path 5723" d="M1366.778,492.036a.884.884,0,0,1-.835-.937.944.944,0,1,1,1.887.012A.956.956,0,0,1,1366.778,492.036Z" transform="translate(-882.499 349.361)" fill="#653f8c"/>
    <path id="Path_5724" data-name="Path 5724" d="M1356.81,361.441v.84q0,18.762,0,37.524c0,1.238-.141,1.383-1.353,1.383-5.905,0-11.811.065-17.715-.02-4.782-.069-9.564-.012-14.346-.055-1.054-.009-1.154-.1-1.154-1.161q0-22.872,0-45.745c0-.648-.018-1.3-.013-1.943.008-.825.189-1.015,1.021-1.018,2.392-.008,4.784,0,7.176,0,4.136,0,8.272.015,12.408-.016.6,0,.7.183.637.715a9.443,9.443,0,0,0,13.336,9.5ZM1341.2,378.861q4.748,0,9.495,0c.543,0,.979-.157.972-.763-.006-.555-.424-.74-.932-.739h-.374q-9.121,0-18.242,0a2.478,2.478,0,0,0-.81.076.667.667,0,0,0-.415,1.013c.192.425.583.407.961.407Zm0,11.366c3.14,0,6.28,0,9.42,0,.555,0,1.061-.1,1.049-.759s-.53-.761-1.075-.744c-.075,0-.15,0-.224,0h-18.242a3.95,3.95,0,0,0-.67.027.7.7,0,0,0-.645.779.678.678,0,0,0,.67.677c.223.018.448.015.672.015Zm.119-20.442h-9.2a6.143,6.143,0,0,0-.672.018.676.676,0,0,0-.641.7.687.687,0,0,0,.6.739,3.6,3.6,0,0,0,.669.037q9.159,0,18.317,0a4.154,4.154,0,0,0,.6-.021.708.708,0,0,0,.68-.753.69.69,0,0,0-.714-.714c-.2-.011-.4-.009-.6-.009Zm-.075,11.4c-3.165,0-6.33,0-9.494,0-.524,0-.92.174-.934.723s.369.776.892.779h.224q9.307,0,18.615,0c.578,0,1.127-.1,1.119-.782-.009-.71-.594-.725-1.151-.724C1347.42,381.186,1344.33,381.182,1341.24,381.182Zm-.021,5.255h9.107c.174,0,.348,0,.522,0,.507,0,.83-.271.819-.764s-.349-.741-.852-.732c-.1,0-.2,0-.3,0h-18.587c-.124,0-.249-.005-.373,0a.746.746,0,1,0,.034,1.491c.174.006.348,0,.522,0Zm.023-11.366c3.16,0,6.32,0,9.48,0,.521,0,.925-.179.943-.719.02-.586-.39-.787-.947-.786q-9.481.009-18.961,0c-.52,0-.925.176-.943.717-.019.587.391.789.948.788Q1336.5,375.063,1341.241,375.071Zm-1.721-9.77q2.426,0,4.852,0c.574,0,1.19-.011,1.185-.779-.006-.73-.6-.724-1.148-.723q-3.957.006-7.913,0c-.7,0-1.394,0-2.09,0a.7.7,0,0,0-.783.717c-.013.48.3.713.746.767a4.537,4.537,0,0,0,.522.01Zm-11.555,13.556c.483.044.948-.1.97-.7.024-.647-.462-.8-1.019-.8s-1.037.134-1.016.8C1326.92,378.778,1327.4,378.881,1327.965,378.857Zm-.02,11.366c.532.039,1.009-.12.99-.771-.017-.6-.492-.73-1.015-.727-.551,0-1.038.131-1.02.793C1326.917,390.14,1327.392,390.247,1327.945,390.223Zm.088-18.936c.4.011.9-.123.9-.77,0-.6-.456-.744-.992-.739s-1.048.078-1.047.753C1326.9,371.146,1327.366,371.281,1328.033,371.287Zm-.1,11.4c.518.018.979-.153,1-.736.021-.648-.462-.778-1.026-.773-.524.006-.992.1-1.006.715C1326.886,382.544,1327.366,382.691,1327.935,382.682Zm-.025-7.611c.514.045,1.006-.1,1.023-.736.016-.587-.416-.77-.967-.768s-1.049.078-1.064.742C1326.887,374.914,1327.324,375.092,1327.91,375.071Zm.028,9.87c-.492-.039-1,.051-1.035.71-.031.6.39.781.939.792s1.058-.076,1.092-.719C1328.964,385.139,1328.546,384.912,1327.937,384.941Z" transform="translate(-858.262 426.396)" fill="#ebf2fa"/>
    <path id="Path_5725" data-name="Path 5725" d="M1277.207,445.644c0,2.091.063,4.031-.02,5.965a2.468,2.468,0,0,0,2.656,2.624c3.962-.028,7.924.009,11.886-.027.67-.006.928.111.98.843.317,4.472.7,8.94,1.039,13.41a1.284,1.284,0,0,1-1.431,1.5c-1.795.013-3.589-.018-5.383.017-.522.011-.6-.177-.594-.634.017-3.514.01-7.027.008-10.541a2.9,2.9,0,0,0-.03-.669.737.737,0,0,0-1.441.021,3.051,3.051,0,0,0-.024.67c0,3.489-.016,6.978.014,10.466,0,.568-.145.688-.7.687q-15.326-.027-30.651,0c-.576,0-.685-.159-.681-.7.026-3.488.013-6.977.012-10.466a2.835,2.835,0,0,0-.029-.669.737.737,0,0,0-1.441,0,3.135,3.135,0,0,0-.026.67c0,3.489-.014,6.977.013,10.466,0,.551-.117.711-.686.7-1.794-.041-3.589-.012-5.383-.016-1.114,0-1.637-.515-1.554-1.6.357-4.669.734-9.337,1.1-14,.1-1.267.161-2.538.31-3.8a3.947,3.947,0,0,1,3.242-3.621c2.775-.69,5.548-1.391,8.323-2.084a7.52,7.52,0,0,0,1.683-.595.535.535,0,0,1,.8.173,11.952,11.952,0,0,0,17.647,1.482C1276.924,445.852,1277,445.8,1277.207,445.644Z" transform="translate(-814.737 374.87)" fill="#653f8c"/>
    <path id="Path_5726" data-name="Path 5726" d="M1295.136,388.308c0,2.566-.006,5.132.006,7.7a1.506,1.506,0,0,1-.334,1.022,10.631,10.631,0,0,1-11.1,3.358,10.068,10.068,0,0,1-7.481-8.6,40.506,40.506,0,0,1-.1-5.746c-.009-1.32.029-2.641-.014-3.96-.021-.624.213-.728.766-.649a13.653,13.653,0,0,0,7.44-.89,11.723,11.723,0,0,0,4.186-3.037c.274-.308.43-.352.764-.073a10.926,10.926,0,0,0,5.156,2.331c.585.106.736.339.728.92C1295.115,383.226,1295.136,385.767,1295.136,388.308Zm-8.463,7.87a6.2,6.2,0,0,0,4.869-2.495c.32-.443.535-.906-.006-1.3s-.9-.038-1.231.4a4.431,4.431,0,0,1-7.263,0c-.327-.433-.678-.813-1.223-.4-.519.392-.332.871-.008,1.31A5.974,5.974,0,0,0,1286.673,396.178Zm5.068-8.011a1.3,1.3,0,0,0,1.361-1.278,1.349,1.349,0,0,0-1.331-1.4,1.384,1.384,0,0,0-1.34,1.336A1.335,1.335,0,0,0,1291.741,388.166Zm-8.611-1.345a1.383,1.383,0,0,0-1.338-1.338,1.349,1.349,0,0,0-1.332,1.4,1.3,1.3,0,0,0,1.359,1.279A1.332,1.332,0,0,0,1283.131,386.822Z" transform="translate(-832.666 411.967)" fill="#f7ceb2"/>
    <path id="Path_5727" data-name="Path 5727" d="M1290.5,360.041c0,1.4-.02,2.791.01,4.185.011.528-.121.732-.671.59a10.276,10.276,0,0,1-4.5-2.213,1.412,1.412,0,0,0-2.363.147c-2.958,3.429-6.736,4.362-11.053,3.649-.808-.134-1.492-.065-1.9.752-.211.42-.626.214-.94.286-.423.1-.982.47-1.234.225-.232-.225-.1-.844-.094-1.289a22.022,22.022,0,0,1,.284-4.907,10.936,10.936,0,0,1,10.613-8.448c1.071-.01,2.142,0,3.214,0a5.646,5.646,0,0,1,4.952,2.563.945.945,0,0,0,1.493.344,5.224,5.224,0,0,1,1.683-.584c.421-.093.517.046.512.441C1290.495,357.2,1290.5,358.621,1290.5,360.041Z" transform="translate(-828.033 425.405)" fill="#333"/>
    <path id="Path_5728" data-name="Path 5728" d="M1381.127,352.8a7.932,7.932,0,0,1,.072-15.863,7.973,7.973,0,0,1,7.933,7.951A7.888,7.888,0,0,1,1381.127,352.8Zm5.911-9.947a2.219,2.219,0,0,0-1.265-1.9,2.071,2.071,0,0,0-2.428.315c-.674.586-1.285,1.245-1.92,1.876-1.067,1.062-1.065,1.064-2.136.047a2.243,2.243,0,0,0-3.211-.073,2.2,2.2,0,0,0,.019,3.208c.856.9,1.732,1.786,2.64,2.635a2.185,2.185,0,0,0,3.259-.05c1.458-1.426,2.887-2.881,4.33-4.323A2.39,2.39,0,0,0,1387.038,342.851Z" transform="translate(-886.562 434.321)" fill="#808081"/>
    <path id="Path_5729" data-name="Path 5729" d="M1280.977,436.444l1.118-.58a4.351,4.351,0,0,0,2.453-3.739c.033-.437.077-.531.535-.359a11.951,11.951,0,0,0,8.569.012c.271-.1.558-.311.583.25a4.483,4.483,0,0,0,3.1,4.154c.42.173.444.325.163.682A10.57,10.57,0,0,1,1280.977,436.444Z" transform="translate(-835.386 381.799)" fill="#f7ceb2"/>
    <path id="Path_5730" data-name="Path 5730" d="M1267.743,392.781c0,1.146-.021,2.293.01,3.438.013.466-.165.522-.566.478a3.97,3.97,0,0,1-3.359-3.89,3.9,3.9,0,0,1,3.29-3.924c.485-.067.656.005.637.535C1267.716,390.538,1267.743,391.66,1267.743,392.781Z" transform="translate(-825.877 405.528)" fill="#f7ceb2"/>
    <path id="Path_5731" data-name="Path 5731" d="M1390.108,349.629a1.171,1.171,0,0,1-.417.735c-1.34,1.337-2.672,2.681-4.017,4.013-.6.592-.92.588-1.507,0-.759-.756-1.5-1.525-2.264-2.28-.359-.356-.563-.757-.163-1.164.42-.427.852-.252,1.231.136.417.427.862.83,1.265,1.269a.831.831,0,0,0,1.394,0c1.03-1.047,2.078-2.078,3.111-3.122a.809.809,0,0,1,.953-.2A.682.682,0,0,1,1390.108,349.629Z" transform="translate(-891.139 427.664)" fill="#ebf2fa"/>
  </g>
</svg>
