<svg id="Group_11129" data-name="Group 11129" xmlns="http://www.w3.org/2000/svg" width="17.348" height="21.661" viewBox="0 0 17.348 21.661">
  <path id="Path_5538" data-name="Path 5538" d="M2898.709,145.518a11.625,11.625,0,0,1-1.275-.266,6.665,6.665,0,0,1-4.815-5.453,5.8,5.8,0,0,1-.083-1.051q-.01-4.072,0-8.144a6.761,6.761,0,0,1,4.575-6.387,1.446,1.446,0,0,1,.222-.064.422.422,0,0,1,.238.806,11.1,11.1,0,0,0-1.23.548,5.669,5.669,0,0,0-2.946,5.005c-.052,2.77-.035,5.542-.007,8.313a5.881,5.881,0,0,0,4.9,5.75,5.766,5.766,0,0,0,5-1.44c.042-.037.089-.067.184-.138-.131-.01-.19-.018-.249-.018-.444,0-.888,0-1.332,0a.415.415,0,0,1-.462-.454q0-1.237,0-2.475a.414.414,0,0,1,.463-.453c.682,0,1.365,0,2.074,0v-.451c0-.543,0-1.086,0-1.629a.416.416,0,0,1,.458-.458c.26,0,.521,0,.8,0,0-.078.01-.145.01-.213,0-2.059,0-4.118,0-6.177A5.9,5.9,0,0,0,2901.14,125c-.277-.094-.41-.263-.378-.483a.434.434,0,0,1,.625-.33,6.773,6.773,0,0,1,4.683,6.477q0,3.056,0,6.113v.284c.267,0,.525,0,.782,0,.335,0,.486.155.487.494q0,.91,0,1.819v.225h1.623c.169,0,.339,0,.508,0a.4.4,0,0,1,.405.4q.008,1.29,0,2.581a.4.4,0,0,1-.453.4c-.683,0-1.367,0-2.082,0v.232c0,.585-.009,1.171,0,1.755a.532.532,0,0,1-.3.552h-2.792a.514.514,0,0,1-.3-.552c.016-.224,0-.451,0-.676v-.613c-.091.077-.145.121-.2.167a6.614,6.614,0,0,1-2.711,1.447c-.379.1-.769.152-1.154.227Zm10.314-5.078h-2c-.392,0-.528-.139-.529-.537v-1.988H2904.8v.221q0,.888,0,1.777c0,.391-.14.528-.538.528h-1.988v1.694h1.976c.42,0,.549.131.549.559q0,.476,0,.952v1.014h1.694v-1.976c0-.422.13-.549.559-.549h1.97Z" transform="translate(-2892.531 -123.857)" fill="#653f8c"/>
  <path id="Path_5539" data-name="Path 5539" d="M2909.624,135.5a4.24,4.24,0,0,1,1.874,8.043.286.286,0,0,0-.187.242,1.694,1.694,0,0,1-3.355,0,.27.27,0,0,0-.167-.234,4.225,4.225,0,0,1,1.268-7.994C2909.245,135.529,2909.435,135.516,2909.624,135.5Zm1.52,7.246a3.338,3.338,0,0,0,1.874-3,3.28,3.28,0,0,0-1.69-2.9,3.631,3.631,0,0,1-5.059,3.023,3.3,3.3,0,0,0,1.854,2.874A1.726,1.726,0,0,1,2911.143,142.744Zm-1.4-6.388a3.422,3.422,0,0,0-3.35,2.412c-.039.137-.015.2.113.261a2.885,2.885,0,0,0,1.62.256,2.785,2.785,0,0,0,2.354-2.663c0-.124-.036-.177-.161-.19C2910.091,136.409,2909.862,136.372,2909.746,136.356Zm.734,7.189a.846.846,0,1,0-.847.851A.857.857,0,0,0,2910.479,143.545Z" transform="translate(-2902.865 -132.973)" fill="#653f8c"/>
  <path id="Path_5540" data-name="Path 5540" d="M2925.587,123.113a.422.422,0,1,1-.423-.426A.416.416,0,0,1,2925.587,123.113Z" transform="translate(-2918.395 -122.687)" fill="#653f8c"/>
</svg>
