<?xml version="1.0" encoding="utf-8"?>
<!-- Generator: Adobe Illustrator 21.0.0, SVG Export Plug-In . SVG Version: 6.00 Build 0)  -->
<svg version="1.1" id="Layer_1" xmlns="http://www.w3.org/2000/svg" xmlns:xlink="http://www.w3.org/1999/xlink" x="0px" y="0px"
	 viewBox="0 0 200 200" style="enable-background:new 0 0 200 200;" xml:space="preserve">
<style type="text/css">
	.st0{fill:transparent;}
	.st1{fill:white;}
</style>
<rect x="0.2" class="st0" width="200" height="200"/>
<g>
	<path class="st1" d="M88.3,151.2c-2-0.4-4.1-0.6-6.1-1.3c-12.8-4.1-20.6-12.8-23.1-26.1c-0.3-1.6-0.4-3.4-0.4-5c0-13,0-26,0-39
		c0-13.8,8.8-26.1,21.9-30.6c0.3-0.1,0.7-0.2,1.1-0.3c1.1-0.2,2.1,0.4,2.4,1.4c0.3,1-0.2,2-1.2,2.5c-2,0.9-4.1,1.5-5.9,2.6
		c-9.1,5.4-13.9,13.5-14.1,24c-0.3,13.3-0.2,26.5,0,39.8c0.1,13.7,10,25.2,23.5,27.5c9,1.5,17-0.8,23.9-6.9c0.2-0.2,0.4-0.3,0.9-0.7
		c-0.6,0-0.9-0.1-1.2-0.1c-2.1,0-4.3,0-6.4,0c-1.4,0-2.2-0.8-2.2-2.2c0-4,0-7.9,0-11.9c0-1.4,0.8-2.2,2.2-2.2c3.3,0,6.5,0,9.9,0
		c0-0.8,0-1.5,0-2.2c0-2.6,0-5.2,0-7.8c0-1.4,0.8-2.2,2.2-2.2c1.2,0,2.5,0,3.8,0c0-0.4,0-0.7,0-1c0-9.9,0-19.7,0-29.6
		c0-12.6-7.6-23.1-19.6-27.2c-1.3-0.5-2-1.3-1.8-2.3c0.2-1.4,1.4-2.1,3-1.6c5.6,1.8,10.4,4.9,14.3,9.4c5.4,6.2,8.1,13.4,8.1,21.7
		c0,9.8,0,19.5,0,29.3c0,0.4,0,0.8,0,1.4c1.3,0,2.5,0,3.7,0c1.6,0,2.3,0.7,2.3,2.4c0,2.9,0,5.8,0,8.7c0,0.3,0,0.7,0,1.1
		c2.7,0,5.2,0,7.8,0c0.8,0,1.6,0,2.4,0c1.1,0,1.9,0.8,1.9,1.9c0,4.1,0,8.2,0,12.4c0,1.2-0.9,1.9-2.2,1.9c-3.3,0-6.5,0-10,0
		c0,0.4,0,0.8,0,1.1c0,2.8,0,5.6,0,8.4c0,1.2-0.3,2.1-1.4,2.6c-4.5,0-8.9,0-13.4,0c-1.1-0.5-1.5-1.4-1.4-2.6c0.1-1.1,0-2.2,0-3.2
		c0-0.9,0-1.8,0-2.9c-0.4,0.4-0.7,0.6-0.9,0.8c-3.8,3.3-8.1,5.7-13,6.9c-1.8,0.5-3.7,0.7-5.5,1.1C92.1,151.2,90.2,151.2,88.3,151.2z
		 M137.7,126.9c-0.4,0-0.7,0-1.1,0c-2.8,0-5.7,0-8.5,0c-1.9,0-2.5-0.7-2.5-2.6c0-1.4,0-2.8,0-4.3c0-1.7,0-3.5,0-5.3
		c-2.8,0-5.4,0-8.1,0c0,0.4,0,0.7,0,1.1c0,2.8,0,5.7,0,8.5c0,1.9-0.7,2.5-2.6,2.5c-1.5,0-3,0-4.5,0c-1.7,0-3.4,0-5.1,0
		c0,2.8,0,5.4,0,8.1c0.4,0,0.7,0,1.1,0c2.8,0,5.6,0,8.4,0c2,0,2.6,0.6,2.6,2.7c0,1.5,0,3,0,4.6c0,1.6,0,3.2,0,4.9c2.8,0,5.4,0,8.1,0
		c0-0.4,0-0.7,0-1.1c0-2.8,0-5.6,0-8.4c0-2,0.6-2.6,2.7-2.6c1.5,0,2.9,0,4.4,0c1.7,0,3.4,0,5.1,0
		C137.7,132.3,137.7,129.6,137.7,126.9z"/>
	<path class="st1" d="M91.1,76.7c10.2,0.1,18.8,7.5,20.1,17.7c1.1,8.7-3.3,17-11.2,20.9c-0.5,0.3-0.8,0.5-0.9,1.2c-0.7,4.1-4,7-8,7
		c-4,0-7.4-2.9-8-7c-0.1-0.6-0.3-0.9-0.8-1.1c-7.6-3.8-11.9-11.3-11.4-19.8c0.6-9.3,8.2-17.3,17.5-18.5
		C89.3,76.8,90.2,76.8,91.1,76.7z M98.4,111.4c4.9-1.7,9-8.3,9-14.4c0-6.9-4.4-12.2-8.1-13.9c-0.7,5.8-3.4,10.4-8.4,13.5
		c-5,3-10.4,3.2-15.8,1c0,5.6,4.2,12.1,8.9,13.8C87.3,105.7,95,105.7,98.4,111.4z M91.7,80.8c-7.8,0-14.2,4.8-16,11.6
		c-0.2,0.7-0.1,1,0.5,1.3c2.5,1.1,5,1.6,7.8,1.2c6.1-0.8,11.3-6.6,11.3-12.8c0-0.6-0.2-0.8-0.8-0.9C93.3,81,92.2,80.9,91.7,80.8z
		 M95.2,115.2c0-2.2-1.9-4.1-4.1-4c-2.2,0-4,1.9-4,4.1c0,2.1,1.9,4,4,4C93.3,119.3,95.2,117.4,95.2,115.2z"/>
	<path class="st1" d="M93.1,100c0,1.1-0.9,2-2.1,2c-1.1,0-2-0.9-2-2.1c0-1.1,0.9-1.9,2-1.9C92.3,98,93.2,98.9,93.1,100z"/>
</g>
</svg>
