<svg xmlns="http://www.w3.org/2000/svg" width="66.664" height="52.992" viewBox="0 0 66.664 52.992">
  <g id="Group_11677" data-name="Group 11677" transform="translate(19507 -6788.653)">
    <path id="Path_6179" data-name="Path 6179" d="M31.036,60.171H19.9a26.324,26.324,0,0,1,.023-3.376,6,6,0,0,0-3.488-6.633C8.123,46.268,3.22,39.714.837,31.085A21.579,21.579,0,0,1,0,25.353c.009-3.4.34-6.8.535-10.194l.931-.272a11.434,11.434,0,0,1,1.385,2.858c.4,2.284.544,4.616.756,6.931.047.5.153,1.263-.119,1.495-2.59,2.21-.7,3.993.527,5.768,1.529,2.209,3.18,4.334,4.777,6.495l.671-.462-6.07-9.621a3.346,3.346,0,0,1,4.476.88c1.529,1.63,2.89,3.42,4.3,5.156a7.164,7.164,0,0,0,5.655,2.981c6.354.266,12.456,6.136,13.147,12.6a98,98,0,0,1,.062,10.2" transform="translate(-19507 6781.474)" fill="#fff"/>
    <path id="Path_6180" data-name="Path 6180" d="M95.62,28.682,89.68,38.069l.5.421c1.284-1.578,2.612-3.123,3.836-4.746a18.266,18.266,0,0,0,2.353-3.693,3.561,3.561,0,0,0-.028-2.781c-1.334-2.321-.7-10.017,1.206-11.877.1-.1.321-.065.927-.169a45.422,45.422,0,0,0,.528,5.994c1.718,7.847-2.46,14.2-5.391,20.766-.882,1.976-3.483,3.207-5.351,4.711a14.715,14.715,0,0,1-3.01,2c-4.495,2.055-6.917,5.244-6.06,10.394a4.565,4.565,0,0,1-.171,1.183H68.531c-1.541-9.419-.774-16.77,8.126-21.47a10.178,10.178,0,0,1,4.679-1.255c2.577.039,4.18-1.217,5.64-3.024a50.038,50.038,0,0,1,4.334-5.112c.927-.875,2.375-1.2,3.589-1.768l.722,1.045" transform="translate(-19539.744 6781.312)" fill="#fff"/>
    <path id="Path_6181" data-name="Path 6181" d="M43.95,42.037C39,40.859,38.1,37.386,38.861,32.955L38,33.074a12.013,12.013,0,0,0-.9,2.654c-.229,2.359-1.324,3.174-3.577,2.362C32.975,33.043,36.4,26.219,40.7,23.8c.3-.168.655-.512.9-.449,2.727.692,6.031.006,7.756,3.169.108.2.41.288.707.486,1.048-.714,2.175-2.114,3.141-2.011,2.156.23,4.442-1.022,6.54.883,3.7,3.361,5.184,7.591,5.815,12.643l-3.054.621c-.5-1.872-.952-3.564-1.4-5.256l-.532-.17c-.1.222-.322.485-.268.661,1.452,4.689-1.723,6.457-5.147,8.031-3.9-5.444-8.09-4.709-11.21-.366m9.227-7.725a3.827,3.827,0,1,0-7.626-.085,3.932,3.932,0,0,0,3.779,4.079,3.879,3.879,0,0,0,3.847-3.994" transform="translate(-19523.141 6777.398)" fill="#fff"/>
    <path id="Path_6182" data-name="Path 6182" d="M52.915,5.242a4.815,4.815,0,1,1-9.605-.12,4.817,4.817,0,1,1,9.605.12" transform="translate(-19527.885 6788.653)" fill="#fff"/>
    <path id="Path_6183" data-name="Path 6183" d="M76.61,8.45a4.621,4.621,0,0,1-4.539,4.889A4.732,4.732,0,0,1,67.694,8.5a4.533,4.533,0,0,1,4.322-4.8c2.693-.064,4.571,1.878,4.594,4.753" transform="translate(-19539.643 6786.871)" fill="#fff"/>
  </g>
</svg>
