<svg xmlns="http://www.w3.org/2000/svg" width="74.254" height="74" viewBox="0 0 74.254 74">
  <g id="Group_11697" data-name="Group 11697" transform="translate(-2036 -1479.793)">
    <path id="Path_6207" data-name="Path 6207" d="M196.054,204.452c13.239.862,23.528,6.754,30.543,18.077a35.441,35.441,0,0,1,5.228,18.591,2.189,2.189,0,0,1-1.77,2.381,2.152,2.152,0,0,1-2.57-2.229,30.3,30.3,0,0,0-1.387-9.205c-3.933-11.916-12.012-19.445-24.187-22.464a48.081,48.081,0,0,0-6.888-.822c-1.321-.129-2.045-.541-2.374-1.534a2.115,2.115,0,0,1,1.742-2.785,14.74,14.74,0,0,1,1.665-.01" transform="translate(1878.428 1275.362)" fill="#fff"/>
    <path id="Path_6208" data-name="Path 6208" d="M196.08,252.315a28.022,28.022,0,0,1,17.38,7.178,27.615,27.615,0,0,1,8.961,15.825,38.572,38.572,0,0,1,.507,4.888,2.158,2.158,0,0,1-2.093,2.509,2.185,2.185,0,0,1-2.24-2.387,23.986,23.986,0,0,0-18.432-23.015,38.635,38.635,0,0,0-4.217-.606c-.526-.068-1.063-.052-1.588-.124a2.143,2.143,0,0,1,.12-4.262c.479-.04.965-.007,1.6-.007" transform="translate(1878.463 1236.184)" fill="#fff"/>
    <path id="Path_6209" data-name="Path 6209" d="M195.586,300.2a19.529,19.529,0,0,1,18.029,14.786,27.293,27.293,0,0,1,.606,4.51,2.115,2.115,0,0,1-2.042,2.408,2.157,2.157,0,0,1-2.282-2.266,15.05,15.05,0,0,0-5.2-11.3,14.622,14.622,0,0,0-9.13-3.754c-.386-.021-.773-.043-1.156-.1a2.149,2.149,0,0,1,.163-4.283c.337-.019.676,0,1.014,0" transform="translate(1878.463 1196.988)" fill="#fff"/>
    <path id="Path_6206" data-name="Path 6206" d="M60.48,278.524q-2.659-.9-5.318-1.8a82.5,82.5,0,0,1-28.095-16.485A87.148,87.148,0,0,1,6.331,233.7,102.581,102.581,0,0,1,.35,218.436c-.143-.456-.235-.929-.35-1.395v-2.03a21.7,21.7,0,0,1,.735-2.4,6.6,6.6,0,0,1,4.356-3.962c5.019-1.4,10.062-2.705,15.1-4.016,1.234-.321,2.148.247,2.736,1.564q2.095,4.691,4.176,9.388,1.94,4.364,3.876,8.729a2.379,2.379,0,0,1-.594,3.192c-1.9,1.92-3.8,3.843-5.767,5.831a101.645,101.645,0,0,0,20.834,20.827c.733-.726,1.436-1.416,2.131-2.114,1.262-1.267,2.514-2.543,3.78-3.805a2.264,2.264,0,0,1,2.892-.555q9.193,4.084,18.378,8.185a2.264,2.264,0,0,1,1.454,3.037q-1.878,7.1-3.788,14.19a7.3,7.3,0,0,1-4.955,5.237,3.117,3.117,0,0,0-.374.186Zm9.009-19.24a2.411,2.411,0,0,0-.277-.179q-7.572-3.372-15.14-6.751a.658.658,0,0,0-.867.207q-2.863,2.879-5.751,5.732a2.228,2.228,0,0,1-3.19.263c-1.014-.7-2.053-1.37-3.018-2.132a101.641,101.641,0,0,1-20.932-21.748c-.969-1.4-.9-2.336.29-3.529,1.86-1.866,3.715-3.736,5.59-5.587a.7.7,0,0,0,.183-.935q-3.317-7.4-6.594-14.812c-.139-.314-.25-.538-.678-.424-4.149,1.111-8.3,2.2-12.452,3.309a2.907,2.907,0,0,0-2.018,1.824,4.011,4.011,0,0,0-.04,2.908c1.274,3.564,2.391,7.2,3.9,10.661a81.954,81.954,0,0,0,21.035,28.525,75.717,75.717,0,0,0,22.594,14.3c3.115,1.228,6.3,2.294,9.5,3.287a3.325,3.325,0,0,0,4.5-2.338c1.129-4.167,2.232-8.341,3.364-12.578" transform="translate(2036 1275.269)" fill="#fff"/>
  </g>
</svg>
