<svg xmlns="http://www.w3.org/2000/svg" width="16.466" height="17.333" viewBox="0 0 16.466 17.333">
  <path id="Path_5647" data-name="Path 5647" d="M383.384,611.651c.091,2.375,1.692,4.671,3.047,6.526a24.164,24.164,0,0,0,4.305,4.539,20.259,20.259,0,0,0,3.315,2.205,2.391,2.391,0,0,0,2.025.369c1.276-.362,4.212-1.867,3.719-3.515a5.729,5.729,0,0,0-1.911-2.184c-.777-.64-2.142-1.767-3.052-.715-.545.525-1.11,1.729-1.965,1.812-.916.09-1.731-.972-2.3-1.554a22.588,22.588,0,0,1-2.535-3.093c-.706-1.151.176-1.627,1.032-2.253.392-.287.89-.557,1.081-1.028.356-.879-.481-1.966-.963-2.642a10.808,10.808,0,0,0-1.56-1.744c-.759-.686-1.6-.141-2.233.4A6.836,6.836,0,0,0,383.384,611.651Z" transform="translate(-383.384 -608.053)" fill="#737373"/>
</svg>
