<svg xmlns="http://www.w3.org/2000/svg" width="40.007" height="40" viewBox="0 0 40.007 40">
  <path id="Union_10" data-name="Union 10" d="M11.341,40H2.674A1.987,1.987,0,0,1,.94,37.019,1.981,1.981,0,0,1,.527,34a1.973,1.973,0,0,1,.025-2.7A1.973,1.973,0,0,1,.007,30a1.843,1.843,0,0,1,1.928-2h3.4v-.666a2,2,0,0,1,2-2h2.666a.666.666,0,0,1,.6.37l1.233,2.466,2.328,1.164H32.674V28a.667.667,0,0,0-.667-.666h-2a2,2,0,0,1-2-2v-.667h-.666A.667.667,0,0,1,26.674,24V21.333h-2a2,2,0,0,1-2-2V13.321a6.667,6.667,0,1,1,0-10.641V2a2,2,0,0,1,2-2H38.007a2,2,0,0,1,2,2V19.333a2,2,0,0,1-2,2h-2v1.333a.667.667,0,0,1-.666.667H32.674a.667.667,0,0,1-.667-.667V21.333H30.674V24a.667.667,0,0,1-.667.666h-.666v.667a.666.666,0,0,0,.666.666h2a2,2,0,0,1,2,2v1.333H39.34a.667.667,0,0,1,.667.666v8a.667.667,0,0,1-.667.666H14.165l-2.526,1.267a.663.663,0,0,1-.29.067ZM2.007,38a.666.666,0,0,0,.666.666h8.509L13.709,37.4a.667.667,0,0,1,.3-.067H27.341V36h-2a.676.676,0,0,1-.3-.067l-1.333-.666a.665.665,0,0,1-.369-.6H22.007v.666a.667.667,0,0,1-.666.667H18.674a.667.667,0,0,1-.666-.667V32.667A.667.667,0,0,1,18.674,32h2.667a.667.667,0,0,1,.666.667v.666h1.333a.665.665,0,0,1,.369-.6l1.333-.667a.667.667,0,0,1,.3-.067h2V30.667H14.007a.667.667,0,0,1-.3-.07l-2.666-1.333a.666.666,0,0,1-.3-.3L9.6,26.666H7.341a.667.667,0,0,0-.666.667V28H8.007v1.333H1.936c-.367,0-.595.111-.595.666a.794.794,0,0,0,.666.667H8.674V32H2.007a.667.667,0,0,0,0,1.333h6v1.333h-6a.667.667,0,0,0,0,1.333H7.341v1.333H2.674A.667.667,0,0,0,2.007,38Zm29.333-.667h7.333V30.667H34.007v2a2,2,0,0,1-2,2H31.34Zm-2.667,0h1.333V30.667H28.673Zm-4-3.588v.51l.824.412h1.843V33.333H25.5Zm-5.333.922h1.333V33.333H19.34Zm12-1.333h.666a.667.667,0,0,0,.667-.666v-2H31.34Zm-7.333-21.35v7.35a.667.667,0,0,0,.666.667h2.667a.666.666,0,0,1,.666.666v2.667h1.333V20.666A.666.666,0,0,1,30.007,20h2.667a.666.666,0,0,1,.666.666V22h1.333V20.666A.666.666,0,0,1,35.34,20h2.667a.667.667,0,0,0,.666-.667V2a.666.666,0,0,0-.666-.666H24.674A.666.666,0,0,0,24.007,2V4.017A6.605,6.605,0,0,1,25.34,7.925V3.333a.667.667,0,0,1,.667-.667H36.674a.667.667,0,0,1,.666.667V18a.666.666,0,0,1-.666.666H26.007A.667.667,0,0,1,25.34,18V8.076A6.605,6.605,0,0,1,24.007,11.983Zm2.666,5.35h9.333V6.773a3.292,3.292,0,0,0-.375.164,3.542,3.542,0,0,1-3.256,0,2.215,2.215,0,0,0-2.079,0,3.531,3.531,0,0,1-3.252,0,3.353,3.353,0,0,0-.372-.163ZM13.34,8a5.333,5.333,0,1,0,5.333-5.333A5.333,5.333,0,0,0,13.34,8ZM32.965,5.74a2.212,2.212,0,0,0,2.08,0,3.5,3.5,0,0,1,.961-.333V4H26.674V5.407a3.528,3.528,0,0,1,.959.333,2.207,2.207,0,0,0,2.076,0,3.546,3.546,0,0,1,3.256,0ZM17.478,24.613a1.975,1.975,0,0,1-2.271-.384l-.833-.829L11.7,22.5a1.208,1.208,0,0,1-.26-.16L6.25,17.156l-.471.471a.666.666,0,0,1-.943,0L2.95,15.743a.666.666,0,0,1,0-.943l1.415-1.413-.943-.943A2,2,0,0,1,.593,9.615L3.421,6.788A2,2,0,1,1,6.25,9.618l.943.943L8.607,9.147a.667.667,0,0,1,.943,0l1.886,1.885a.666.666,0,0,1,0,.943l-.471.471,5.186,5.186a1.184,1.184,0,0,1,.16.261l.893,2.679.833.832a2,2,0,0,1,.385,2.267l3.857,3.859-.943.943Zm-1.8-1.8.471.471a.667.667,0,1,0,.943-.943l-.471-.471ZM13.141,21.58l1.413.471,1.3-1.3-.471-1.416ZM7.192,16.214l4.714,4.715,2.828-2.83-.943-.943-.943.943-.943-.943.943-.943-.943-.943-.943.943-.943-.943.943-.943-.943-.943Zm-2.828-.943.943.943L10.021,11.5l-.943-.943Zm0-3.771.943.943L6.25,11.5l-.943-.943Zm0-3.768L1.535,10.559a.667.667,0,0,0,.943.942L5.306,8.676a.667.667,0,1,0-.943-.943ZM33.34,16V14.667h1.333V16Zm-2.667,0V14.667h1.333V16ZM17.34,12a.666.666,0,0,1-.666-.666V10H15.34a.666.666,0,0,1-.666-.666V6.667A.667.667,0,0,1,15.34,6h1.333V4.666A.666.666,0,0,1,17.34,4h2.666a.667.667,0,0,1,.667.666V6h1.333a.667.667,0,0,1,.666.667V9.333a.666.666,0,0,1-.666.666H20.674v1.333a.667.667,0,0,1-.667.666ZM16.007,8.667H17.34a.666.666,0,0,1,.666.666v1.333H19.34V9.333a.666.666,0,0,1,.666-.666H21.34V7.333H20.007a.666.666,0,0,1-.666-.666V5.333H18.007V6.667a.666.666,0,0,1-.666.666H16.007Z" transform="translate(0)" fill="#fff"/>
</svg>
