<svg xmlns="http://www.w3.org/2000/svg" width="23.424" height="30" viewBox="0 0 23.424 30">
  <g id="Group_8082" data-name="Group 8082" transform="translate(2450 -1856)">
    <path id="Union_1" data-name="Union 1" d="M14.334,29.953a.439.439,0,0,1-.2-.59l2.985-5.97a.5.5,0,0,0-.094-.577l-.93-.93a.44.44,0,0,1-.041-.574l1-1.327a.136.136,0,0,0-.048-.2l-1.731-.865-3.14,10.767a.439.439,0,0,1-.844,0l-1.37-4.7a.439.439,0,1,1,.844-.246l.948,3.252L13.4,22.2a5.142,5.142,0,0,1-3.378,0l.193.66a.439.439,0,1,1-.844.246L8.15,18.916l-1.731.865a.136.136,0,0,0-.048.2l1,1.327a.439.439,0,0,1-.041.574l-.93.93a.5.5,0,0,0-.094.577l2.985,5.97a.439.439,0,1,1-.786.393L7.924,28.6v.957A.439.439,0,0,1,7.485,30h-4.7a.439.439,0,0,1-.439-.439V26.742a.439.439,0,0,1,.439-.439H4.7v-.5a.439.439,0,0,1,.879,0v.5h1.2L5.516,23.787A1.377,1.377,0,0,1,5.774,22.2l.661-.661-.582-.775L2.559,21.772a2.367,2.367,0,0,0-1.68,2.274V29.56a.439.439,0,0,1-.879,0V24.046a3.241,3.241,0,0,1,2.3-3.114l3.168-.974A1.008,1.008,0,0,1,6.026,19l1.959-.979v-1.4A6.553,6.553,0,0,1,5.23,12.151H4.9a1.6,1.6,0,0,1-.674-3.059V6.232A3.594,3.594,0,0,1,4.86,3.921a3.988,3.988,0,0,1-.716-1.041.44.44,0,0,1,.282-.591,19.06,19.06,0,0,0,2.73-1.054A11.2,11.2,0,0,1,12.622,0a5.54,5.54,0,0,1,3.243.939h.074A3.261,3.261,0,0,1,19.2,4.2V9.073a1.611,1.611,0,0,1,.931,1.63,1.665,1.665,0,0,1-1.672,1.449h-.261a6.555,6.555,0,0,1-2.755,4.468v1.4L17.4,19a1.008,1.008,0,0,1,.558.963l3.167.974a3.241,3.241,0,0,1,2.3,3.114V29.56a.439.439,0,0,1-.879,0V24.046a2.367,2.367,0,0,0-1.68-2.274l-3.295-1.013-.581.775.661.661a1.377,1.377,0,0,1,.258,1.592l-2.985,5.97a.439.439,0,0,1-.59.2ZM3.227,29.121H7.045V27.182H5.576v.03a.439.439,0,1,1-.879,0v-.03H3.227Zm5.636-10.9L9.7,21.1a4.264,4.264,0,0,0,4.018,0l.839-2.878V17.134a6.536,6.536,0,0,1-5.7,0ZM6.046,11.242a5.666,5.666,0,0,0,11.333,0,.439.439,0,0,1,.439-.439h0a.44.44,0,0,1,.439.439v.026h.2a.78.78,0,0,0,.8-.658.735.735,0,0,0-.731-.812h-.7a1.38,1.38,0,0,1-1.379-1.379v-.47a4.631,4.631,0,0,0-1.11-2.784,16.632,16.632,0,0,1-5.346.819A8.2,8.2,0,0,1,6.46,5.135a6.037,6.037,0,0,1-.952-.614,2.962,2.962,0,0,0-.4,1.711V8.924h.5a.5.5,0,0,0,.5-.5V6.766a.439.439,0,1,1,.879,0V8.424A1.38,1.38,0,0,1,5.606,9.8H4.969a.78.78,0,0,0-.8.657.735.735,0,0,0,.731.812h.265v-.03a.439.439,0,1,1,.879,0ZM15.78,4.356a5.6,5.6,0,0,1,1.538,3.6v.47a.5.5,0,0,0,.5.5h.5V4.2a2.383,2.383,0,0,0-1.582-2.241,2.073,2.073,0,0,1,.09.223.439.439,0,0,1-.834.278c-.3-.9-1.749-1.578-3.37-1.578a10.351,10.351,0,0,0-5.1,1.156,21.612,21.612,0,0,1-2.306.929A4.727,4.727,0,0,0,6.926,4.386c2.532,1.281,5.972.632,8.411-.138a.44.44,0,0,1,.443.108Zm3.242,23.8v-.735h-.735a.439.439,0,0,1,0-.879h.735V25.8a.439.439,0,0,1,.879,0v.735h.735a.439.439,0,0,1,0,.879H19.9v.735a.439.439,0,1,1-.879,0ZM9.994,13.434a.439.439,0,1,1,.617-.626,1.628,1.628,0,0,0,1.1.343,1.628,1.628,0,0,0,1.1-.343.439.439,0,1,1,.617.626,2.484,2.484,0,0,1-1.718.6A2.484,2.484,0,0,1,9.994,13.434Zm4.1-3.131v-.47a.439.439,0,0,1,.879,0v.47a.439.439,0,0,1-.879,0Zm-5.636,0v-.47a.439.439,0,0,1,.879,0v.47a.439.439,0,0,1-.879,0Zm5.606-1.439a.439.439,0,1,1,0-.879H15a.439.439,0,1,1,0,.879Zm-5.636,0a.439.439,0,1,1,0-.879h.939a.439.439,0,1,1,0,.879Z" transform="translate(-2450 1856)" fill="#fff"/>
  </g>
</svg>
