<svg id="Group_11128" data-name="Group 11128" xmlns="http://www.w3.org/2000/svg" width="22.85" height="17.577" viewBox="0 0 22.85 17.577">
  <path id="Path_5515" data-name="Path 5515" d="M2269.7,100.955c-.187,1.336-.187,1.336-1.532,1.336h-1.744c-.82,0-.979-.158-1-.976,0-.1-.016-.206-.028-.347h-4.325c-.009.177-.026.364-.027.551q0,3.117,0,6.235a1.92,1.92,0,0,0,1.751,2.018c.427.047.531.225.525.6-.013.928,0,1.857,0,2.812h1.831v-1.573c-.147-.008-.285-.026-.423-.022-.313.008-.447-.144-.443-.451.006-.511,0-1.022,0-1.532,0-.309.143-.446.452-.446q2.8.005,5.6,0c.287,0,.42.128.419.414q0,.792,0,1.585c0,.639-.527.337-.847.474v1.578h1.983c.546,0,1.094-.026,1.637.016.17.013.326.213.489.327-.163.09-.325.258-.488.26-2.448.017-4.9.011-7.344.011h-14.266a1.049,1.049,0,0,1-.366-.01,2.026,2.026,0,0,1-.385-.261c.127-.113.246-.311.382-.324a7.04,7.04,0,0,1,1.319-.01c.427.038.557-.149.657-.533q1.772-6.806,3.578-13.6a3.643,3.643,0,0,1,3.617-2.821q4.57-.008,9.141,0a1.228,1.228,0,0,1,1.395,1.388q0,.925,0,1.849C2271.251,100.5,2270.865,100.866,2269.7,100.955Zm-15.669,12.213h8.656c0-.821-.011-1.594.006-2.367.006-.295-.073-.425-.386-.495a2.666,2.666,0,0,1-1.89-2.5c.066-2.269.019-4.542.021-6.813,0-.658.032-.69.682-.69q3.037,0,6.074,0c.916,0,1.833.03,2.746-.022a.86.86,0,0,0,.644-.451,4.019,4.019,0,0,0,.03-1.141c-3.193,0-6.309,0-9.425,0a1.514,1.514,0,0,1-.52-.039.417.417,0,0,1-.2-.316c0-.082.121-.219.214-.248a1.643,1.643,0,0,1,.472-.022h9.43c.1-1.052-.013-1.175-1-1.175-2.958,0-5.916-.005-8.874,0a2.971,2.971,0,0,0-3,2.327c-.376,1.389-.74,2.782-1.107,4.173C2255.755,106.636,2254.9,109.877,2254.035,113.168Zm16.083-3.342h-5.171v1.118h5.171Zm-4.286,3.349h3.383v-1.548h-3.383Zm.24-11.547H2269v-.672h-2.928Z" transform="translate(-2251.165 -96.265)" fill="#653f8c"/>
  <path id="Path_5516" data-name="Path 5516" d="M2252.954,114.536a.229.229,0,0,1-.08-.011.934.934,0,0,1-.213-.137l0,0c.045-.051.131-.147.165-.151.238-.023.476-.035.707-.035.2,0,.394.009.583.026.042,0,.081.006.118.006.49,0,.619-.337.7-.652.963-3.7,1.956-7.457,2.915-11.091l.663-2.511a3.484,3.484,0,0,1,3.469-2.707q2.083,0,4.167,0l4.974,0a1.084,1.084,0,0,1,1.242,1.236q0,.924,0,1.848c0,.913-.332,1.216-1.408,1.3l-.123.009-.017.122c-.085.61-.133.946-.281,1.075s-.486.129-1.1.129H2267.7c-.734,0-.83-.094-.85-.827,0-.072-.009-.144-.017-.228,0-.039-.023-.268-.023-.268H2262.2l-.007.145c0,.054-.006.11-.01.166-.008.127-.017.259-.017.393q0,3.117,0,6.235a2.079,2.079,0,0,0,1.887,2.17c.34.037.393.14.389.45-.009.661-.008,1.307-.006,1.991q0,.409,0,.823v.153h2.136v-1.87l-.144-.008-.134-.009c-.089-.007-.175-.013-.262-.013h-.058a.286.286,0,0,1-.206-.059.332.332,0,0,1-.062-.237c.005-.443.006-.916,0-1.535a.317.317,0,0,1,.062-.227.332.332,0,0,1,.236-.065l2.85,0,2.753,0a.3.3,0,0,1,.211.057.288.288,0,0,1,.054.2c0,.529,0,1.058,0,1.587a.342.342,0,0,1-.055.231c-.041.04-.124.049-.247.049h-.094a.9.9,0,0,0-.358.055l-.092.04v1.831h2.136c.152,0,.3,0,.455,0s.3,0,.451,0c.283,0,.511.008.718.024a.6.6,0,0,1,.244.161.555.555,0,0,1-.232.12c-1.569.011-3.14.012-4.469.012h-17.14c-.041,0-.084,0-.127.007S2252.988,114.536,2252.954,114.536Zm13.993-.361h3.688v-1.854h-3.688Zm-.992-16.592q-1.986,0-3.971,0a3.135,3.135,0,0,0-3.147,2.44c-.312,1.154-.621,2.328-.92,3.464l-2.812,10.675h9.007v-.153c0-.236,0-.468,0-.7,0-.574,0-1.117.007-1.665a.554.554,0,0,0-.506-.647,2.5,2.5,0,0,1-1.77-2.344c.046-1.582.037-3.192.028-4.748,0-.69-.008-1.38-.007-2.07a1.137,1.137,0,0,1,.054-.485,1.1,1.1,0,0,1,.476-.053h6.074c.246,0,.491,0,.737,0s.493,0,.74,0c.51,0,.9-.009,1.277-.031a1,1,0,0,0,.781-.558,2.374,2.374,0,0,0,.05-.841c-.007-.114-.014-.232-.014-.345v-.153h-9.577l-.113,0-.106,0a.725.725,0,0,1-.248-.032.3.3,0,0,1-.1-.171.267.267,0,0,1,.106-.1.624.624,0,0,1,.184-.021l.116,0,.126,0H2272l.013-.139c.054-.574.047-.9-.139-1.107s-.482-.235-1.012-.235Zm.107,14.36h5.477v-1.424h-5.477Zm1.125-9.316h3.233v-.977h-3.233Z" transform="translate(-2252.432 -97.112)" fill="#653f8c"/>
  <path id="Path_5517" data-name="Path 5517" d="M2339.974,149.044a1.674,1.674,0,0,1,.592-1.922,1.539,1.539,0,0,1,1.784-.118,1.728,1.728,0,0,1,.789,2.036,1.848,1.848,0,0,1,1.341,1.221c.211.7-.019,1.231-.861,1.205-1.39-.044-2.782-.008-4.174-.013-.783,0-1.046-.361-.848-1.114A1.814,1.814,0,0,1,2339.974,149.044Zm-.784,1.769h4.719a.985.985,0,0,0-.525-.991.812.812,0,0,0-.972.031,1.526,1.526,0,0,1-1.694.033C2339.941,149.45,2339.235,149.856,2339.189,150.813Zm3.4-2.37a1.055,1.055,0,0,0-1.054-1.03,1.026,1.026,0,0,0-1.021,1.051,1.057,1.057,0,0,0,1.043,1.041A1.077,1.077,0,0,0,2342.592,148.443Z" transform="translate(-2325.187 -139.057)" fill="#653f8c"/>
  <path id="Path_5518" data-name="Path 5518" d="M2344.473,152.16c-.479-.015-1-.022-1.631-.022-.38,0-.762,0-1.142,0s-.76.005-1.14.005h-.264a.827.827,0,0,1-.669-.212.84.84,0,0,1-.032-.71,1.667,1.667,0,0,1,1.273-1.188l.14-.043-.037-.141a1.525,1.525,0,0,1,.536-1.762,1.448,1.448,0,0,1,.876-.317,1.506,1.506,0,0,1,.741.21,1.573,1.573,0,0,1,.714,1.876l-.024.132.128.041a1.683,1.683,0,0,1,1.241,1.119.894.894,0,0,1-.039.779.725.725,0,0,1-.616.231Zm-3.512-1.754c-.607,0-1.04.5-1.076,1.247l-.007.16h5.02l.011-.141a1.129,1.129,0,0,0-.6-1.134.964.964,0,0,0-1.137.036,1.331,1.331,0,0,1-.76.246,1.581,1.581,0,0,1-.773-.221A1.391,1.391,0,0,0,2340.961,150.406Zm1.423-2.3a1.177,1.177,0,0,0-1.172,1.205,1.212,1.212,0,0,0,1.18,1.193h.019a1.233,1.233,0,0,0,1.182-1.217,1.2,1.2,0,0,0-1.195-1.18h-.014Z" transform="translate(-2326.036 -139.904)" fill="#653f8c"/>
</svg>
