<?xml version="1.0" encoding="UTF-8"?><svg xmlns="http://www.w3.org/2000/svg" viewBox="0 0 110.18 84.75"><defs><style>.d{fill:#fff;}</style></defs><g id="a"/><g id="b"><g id="c"><g><path class="d" d="M89.39,22.61q-.9,6.44-7.39,6.44c-2.8,0-5.61,0-8.41,0-3.95,0-4.72-.76-4.83-4.71-.01-.5-.08-1-.13-1.67h-20.86c-.04,.85-.13,1.76-.13,2.66,0,10.02-.01,20.04,0,30.06,0,5.23,3.28,9.16,8.45,9.73,2.06,.23,2.56,1.08,2.53,2.91-.06,4.48-.02,8.95-.02,13.56h8.83v-7.58c-.71-.04-1.38-.12-2.04-.11-1.51,.04-2.15-.69-2.14-2.17,.03-2.46,.02-4.93,0-7.39-.01-1.49,.69-2.15,2.18-2.15,9,.02,18,.02,27.01,0,1.39,0,2.03,.62,2.02,2-.02,2.55,0,5.1,0,7.64,0,3.08-2.54,1.62-4.09,2.29v7.61c3.19,0,6.38,0,9.56,0,2.63,0,5.28-.13,7.89,.08,.82,.06,1.57,1.03,2.36,1.58-.78,.44-1.57,1.25-2.35,1.25-11.8,.08-23.61,.05-35.41,.05-22.93,0-45.86,0-68.79,0-.59,0-1.25,.16-1.77-.05-.68-.27-1.24-.83-1.86-1.26,.61-.55,1.18-1.5,1.84-1.56,2.1-.21,4.25-.24,6.36-.05,2.06,.19,2.69-.72,3.17-2.57,5.7-21.88,11.48-43.73,17.25-65.59C30.82,5.29,37.53,.03,46.06,.02c14.69-.03,29.38-.01,44.08,0,4.51,0,6.7,2.2,6.72,6.69,.01,2.97,0,5.94,0,8.92-.01,4.79-1.88,6.57-7.47,6.99ZM13.84,81.5H55.58c0-3.96-.05-7.69,.03-11.41,.03-1.42-.35-2.05-1.86-2.38-4.86-1.07-9.27-6.76-9.11-12.04,.32-10.94,.09-21.9,.1-32.85,0-3.17,.16-3.33,3.29-3.33,9.76,0,19.53,0,29.29,0,4.41,0,8.84,.15,13.24-.1,1.12-.06,2.8-1.19,3.1-2.17,.52-1.66,.14-3.6,.14-5.5-15.4,0-30.42,0-45.44,0-.84,0-1.76,.1-2.51-.19-.47-.18-.92-.98-.95-1.52-.02-.39,.58-1.06,1.03-1.19,.7-.22,1.51-.11,2.27-.11,14.26,0,28.53,0,42.79,0,.91,0,1.81,0,2.68,0,.47-5.07-.06-5.66-4.82-5.66-14.26,0-28.53-.02-42.79,.02-7.24,.02-12.56,4.18-14.47,11.22-1.81,6.7-3.57,13.41-5.34,20.12-4.12,15.63-8.23,31.26-12.41,47.12Zm77.55-16.11h-24.93v5.39h24.93v-5.39Zm-20.67,16.15h16.31v-7.47h-16.31v7.47Zm1.16-55.68h14.12v-3.24h-14.12v3.24Z"/><path class="d" d="M2.52,84.02c-.17,0-.3-.02-.39-.05-.34-.14-.68-.39-1.03-.66l.02-.02c.22-.25,.63-.71,.8-.73,1.15-.11,2.29-.17,3.41-.17,.95,0,1.9,.04,2.81,.12,.2,.02,.39,.03,.57,.03,2.36,0,2.99-1.62,3.38-3.14,4.64-17.84,9.43-35.96,14.06-53.48l3.2-12.11C31.46,5.77,37.87,.77,46.06,.75c6.7-.01,13.39-.02,20.09-.02,7.99,0,15.99,0,23.98,.01,4.07,0,5.97,1.9,5.99,5.96,.01,2.97,0,5.94,0,8.91-.01,4.4-1.6,5.86-6.79,6.26l-.59,.04-.08,.59c-.41,2.94-.64,4.56-1.35,5.18-.72,.62-2.35,.62-5.3,.62h-8.41c-3.54,0-4-.45-4.1-3.99-.01-.35-.04-.69-.08-1.1-.02-.19-.11-1.29-.11-1.29h-22.23l-.04,.7c-.01,.26-.03,.53-.05,.8-.04,.62-.08,1.25-.08,1.9-.01,10.02-.01,20.04,0,30.06,0,5.66,3.66,9.86,9.1,10.46,1.64,.18,1.9,.67,1.87,2.17-.05,3.19-.04,6.3-.03,9.6,0,1.31,0,2.64,0,3.97v.74h10.3v-9.02l-.69-.04c-.22-.01-.43-.03-.65-.05-.43-.03-.85-.06-1.26-.06h-.28c-.47,0-.81-.09-.99-.28-.2-.21-.3-.59-.3-1.14,.03-2.13,.03-4.42,0-7.4,0-.52,.1-.89,.3-1.09,.21-.21,.59-.31,1.13-.31,4.59,0,9.16,.01,13.74,.01s8.85,0,13.27-.01c.5,0,.84,.09,1.02,.27,.18,.18,.26,.51,.26,.98-.02,2.55,0,5.1,0,7.65,0,.55-.09,.93-.27,1.11-.19,.2-.6,.23-1.19,.23h-.46c-.54,0-1.16,.02-1.73,.26l-.45,.19v8.83h10.3c.73,0,1.46,0,2.2-.02,.73-.01,1.45-.02,2.18-.02,1.36,0,2.46,.04,3.46,.12,.31,.02,.77,.42,1.18,.78-.4,.28-.83,.58-1.12,.58-7.57,.05-15.14,.06-21.55,.06H3.62c-.2,0-.4,0-.61,.03-.17,.01-.34,.03-.5,.03Zm67.47-1.74h17.78v-8.94h-17.78v8.94ZM65.2,2.28c-6.38,0-12.77,0-19.15,.02-7.52,.02-13.19,4.42-15.17,11.77-1.5,5.56-3,11.23-4.44,16.7l-13.56,51.47H56.31v-.74c0-1.14,0-2.26,0-3.37-.01-2.77-.02-5.38,.04-8.03,.04-1.85-.64-2.72-2.44-3.12-4.61-1.02-8.68-6.4-8.53-11.3,.22-7.63,.18-15.39,.13-22.89-.02-3.33-.04-6.65-.03-9.98,0-.93,0-2.08,.26-2.34,.25-.25,1.38-.26,2.29-.26,4.47,0,20.39,0,20.39,0h8.9c1.18,0,2.37,.01,3.55,.02,1.19,.01,2.38,.02,3.57,.02,2.46,0,4.36-.05,6.16-.15,1.34-.08,3.34-1.33,3.77-2.69,.4-1.29,.32-2.7,.24-4.06-.03-.55-.07-1.12-.07-1.66v-.74h-17.43c-9.65,0-19.2,0-28.75,0-.18,0-.36,0-.54,0-.17,0-.34,0-.51,0-.39,0-.83-.02-1.19-.16-.14-.07-.43-.51-.47-.83,.07-.16,.37-.45,.51-.5,.23-.07,.5-.1,.89-.1,.19,0,.37,0,.56,.01,.2,0,.41,.01,.61,.01h46.14l.06-.67c.26-2.77,.23-4.35-.67-5.34-.87-.96-2.33-1.13-4.88-1.13h-23.65Zm.52,69.24h26.41v-6.86h-26.41v6.86Zm5.43-44.92h15.59v-4.71h-15.59v4.71Z"/><path class="d" d="M71.3,48.15c-.99-3.84-.2-6.98,2.85-9.27,2.68-2.02,5.67-2.23,8.6-.57,3.81,2.15,4.57,5.64,3.81,9.82,3.07,.98,5.5,2.69,6.47,5.89,1.02,3.37-.09,5.94-4.15,5.81-6.7-.21-13.42-.04-20.12-.06-3.78-.01-5.05-1.74-4.09-5.37,.89-3.39,3.26-5.21,6.63-6.24Zm-3.78,8.53h22.75c.17-2.3-.84-3.76-2.53-4.78-1.55-.93-3.01-1-4.69,.15-2.58,1.77-5.43,1.69-8.17,.16-3.75-2.1-7.15-.14-7.37,4.47Zm16.41-11.43c-.04-2.74-2.36-5-5.08-4.96-2.79,.03-4.96,2.26-4.92,5.07,.03,2.75,2.36,5.07,5.03,5.02,2.69-.05,5.02-2.44,4.98-5.12Z"/><path class="d" d="M88.9,59.09c-2.31-.07-4.81-.11-7.86-.11-1.84,0-3.67,.01-5.51,.02-1.83,.01-3.67,.02-5.5,.02h-1.28c-1.62,0-2.71-.35-3.22-1.03-.52-.68-.57-1.83-.15-3.42,.75-2.85,2.7-4.67,6.14-5.73l.67-.21-.18-.68c-.95-3.7-.11-6.48,2.58-8.5,1.35-1.02,2.77-1.53,4.23-1.53,1.18,0,2.38,.34,3.57,1.01,3.15,1.78,4.25,4.65,3.44,9.04l-.12,.64,.62,.2c3.29,1.05,5.19,2.77,5.99,5.4,.48,1.61,.42,2.94-.19,3.75-.55,.74-1.55,1.11-2.97,1.11-.09,0-.17,0-.26,0Zm-16.93-8.46c-2.93,0-5.01,2.42-5.19,6.01l-.04,.77h24.21l.05-.68c.18-2.4-.76-4.19-2.89-5.47-.91-.55-1.77-.81-2.63-.81-.95,0-1.89,.32-2.85,.98-1.15,.79-2.38,1.19-3.66,1.19s-2.47-.36-3.73-1.06c-1.11-.62-2.21-.93-3.28-.93Zm6.86-11.08c-3.21,.04-5.69,2.59-5.65,5.81,.04,3.12,2.64,5.75,5.69,5.75h.09c3.09-.06,5.75-2.8,5.7-5.87-.05-3.14-2.63-5.69-5.76-5.69h-.07Z"/></g></g></g></svg>