<?xml version="1.0" encoding="utf-8"?>
<!-- Generator: Adobe Illustrator 26.2.0, SVG Export Plug-In . SVG Version: 6.00 Build 0)  -->
<svg version="1.1" id="Layer_1" xmlns="http://www.w3.org/2000/svg" xmlns:xlink="http://www.w3.org/1999/xlink" x="0px" y="0px"
	 viewBox="0 0 100 100" style="enable-background:new 0 0 100 100;" xml:space="preserve">
<style type="text/css">
	.st0{fill:#FFFFFF;}
</style>
<g id="Group_11384" transform="translate(103.652 -3383.893)">
	<path id="Path_6008" class="st0" d="M-59.2,3448.1c-0.1,0.8-0.1,1.4-0.2,2c-0.5,2.4-2.5,4.1-4.9,4.1c-8,0-16.1,0-24.1,0
		c-2.9,0-5.2-2.4-5.1-5.3c0,0,0,0,0,0c0-4.8,0-9.5,0-14.3c0-11.8,0-23.5,0-35.3c0-3.7,2.1-5.8,5.8-5.8c7.6,0,15.2,0,22.8,0
		c3.5,0,5.7,2.2,5.7,5.7c0,2,0,4.1,0,6.2h5.6c0.4,0,0.7,0,1.1,0c1.4,0,2.4,1.1,2.5,2.5c0,1.8,0,3.7,0,5.5c0,1.4-1.1,2.5-2.5,2.5
		c-7,0-13.9,0-20.9,0c-0.1,0-0.2,0-0.3-0.1c0.7-1.1,1.5-2.2,2.2-3.3c0.2-0.4,0.4-0.8,0.4-1.3c0.1-1,0-2.1,0-3.1
		c-0.1-1.4,1-2.7,2.5-2.8c0.1,0,0.2,0,0.3,0c1.9,0,3.7,0,5.6,0h0.8v-3.9h-28.9v44.8h2.6c0-1.2,0-2.4,0-3.7c-0.1-4.1,2.8-7.6,6.9-8.1
		c0.8-0.1,1.6-0.1,2.6-0.1c-1.8-0.3-3.5-1.4-4.5-3c-1-1.5-1.3-3.4-0.9-5.1c0.9-3.5,4.4-5.7,8-4.9c2.7,0.7,4.8,3,5,5.8
		c0.3,3.3-1.8,6.1-5.4,7.1c1,0.1,2,0.1,2.8,0.2c3.7,0.6,6.4,3.7,6.5,7.4c0,1.4,0,2.8,0,4.3h5.3v-9.8l2.6,0.7c0,2.3,0,4.6,0,6.9
		c-0.1,0.5,0.2,1.1,0.7,1.3c1.8,1,3.5,2,5.2,3c0.4,0.3,0.9,0.3,1.3,0c1.8-1.1,3.6-2.1,5.4-3.1c0.4-0.2,0.7-0.6,0.6-1.1
		c0-2.4,0-4.7,0-7.1h2.6v9.1h5.3c0-1.3,0-2.7,0-4c0.1-4,3.1-7.4,7.1-7.8c0.2,0,0.5,0,0.8,0c0.4,1.1,0.9,2.1,1.3,3.2
		c0.4,1,0.8,2.1,1.3,3.3l2.6-6.5c3.8-0.1,7.1,2.6,7.7,6.4c0.1,1.8,0.2,3.6,0,5.4h2.7v-44.8h-28.9v9.1c2,0.6,2.6,1.3,2.6,3.5
		c0,5.3,0,10.5,0,15.8c0,0.4,0.1,0.8,0.4,1.2c0.7,1.1,1.4,2.2,2.2,3.4c-0.4,0-0.6,0-0.9,0c-6.6,0-13.1,0-19.7,0
		c-2.1,0-3.1-1-3.1-3.1c0-4,0-7.9,0-11.9v-0.9h2.3c2.3,0,4.6,0,6.9,0c2.9,0,5.3-2.3,5.3-5.2c0,0,0,0,0-0.1c0-0.8,0-1.7,0-2.6
		l1.3-0.1v-2.9c0-2.9,0-5.8,0-8.7c-0.2-2.9,2.1-5.4,5-5.5c0.2,0,0.4,0,0.6,0c7.8,0,15.5,0,23.3,0c2.9-0.1,5.4,2.1,5.5,5
		c0,0.2,0,0.3,0,0.5c0,16.6,0,33.2,0,49.7c0.1,2.9-2.1,5.4-5,5.5c-0.2,0-0.3,0-0.5,0c-7.7,0-15.4,0-23.1,0c-3.4,0-5.6-2.1-5.7-5.6
		c0-0.2,0-0.3,0-0.6c-1.7,1-3.4,1.9-5,2.9c-0.1,0.1-0.2,0.3-0.2,0.5c0,1.8,0,3.6,0,5.5c3,0.4,5.5,2.3,6.9,5c1,1.9,1.3,4.1,0.8,6.2
		c-1.1,5-6.1,8.1-11.1,6.9c-5-1.1-8.1-6.1-6.9-11.1c0.9-3.7,3.9-6.5,7.7-7.1c0-1.9,0-3.8,0-5.7c0-0.2-0.1-0.3-0.2-0.4
		C-55.8,3450-57.5,3449-59.2,3448.1z M-67.1,3412H-54v-2.5h-13.1V3412z M-44.8,3425.2v-2.6h-13.1v2.6H-44.8z M-57.9,3430.4h13.1
		v-2.5h-13.1L-57.9,3430.4z M-57.3,3466.9l3.4,3.4l6-6l-1.8-1.8l-4.5,4.5l-1.3-1.8L-57.3,3466.9z M-76.4,3438.4H-79v2.5h2.6V3438.4z
		"/>
	<path id="Path_6009" class="st0" d="M-27.6,3434.4c-3.6,0-6.6-3-6.6-6.6s3-6.6,6.6-6.6c3.6,0,6.6,3,6.6,6.6
		C-21,3431.5-23.9,3434.4-27.6,3434.4z"/>
</g>
</svg>
