<svg id="Group_11132" data-name="Group 11132" xmlns="http://www.w3.org/2000/svg" width="21.529" height="21.642" viewBox="0 0 21.529 21.642">
  <path id="Path_5545" data-name="Path 5545" d="M2738.833,240.835c.311.115.362.186.362.5q0,1.345,0,2.69c0,.332-.118.454-.443.454h-4.906c-.315,0-.437-.122-.437-.437q0-1.345,0-2.69c0-.332.043-.394.362-.52,0-1.088,0-2.18,0-3.272a3.229,3.229,0,0,1,1.69-2.963c1-.595,2.014-1.177,3.016-1.774a.57.57,0,0,0,.227-.279c.525-1.488,1.04-2.979,1.558-4.469a1.447,1.447,0,0,1,2.83.454.383.383,0,0,0,.132.249,1.405,1.405,0,0,1,.54,1.524c-.519,1.984-1.053,3.964-1.584,5.945a1.787,1.787,0,0,1-.575.874c-.755.67-1.5,1.35-2.266,2.009a1.3,1.3,0,0,0-.5,1.1C2738.84,240.433,2738.833,240.636,2738.833,240.835Zm-.722.018c0-.235.008-.446,0-.656a1.919,1.919,0,0,1,.727-1.6c.751-.651,1.5-1.31,2.227-1.985a1.444,1.444,0,0,0,.418-.623c.539-1.948,1.053-3.9,1.571-5.855a.732.732,0,0,0,.017-.31.707.707,0,0,0-.632-.584.748.748,0,0,0-.759.524q-.551,1.682-1.087,3.368a.417.417,0,0,0,.024.272,1.447,1.447,0,0,1-.595,1.88c-.655.386-1.315.762-1.974,1.141a.69.69,0,0,1-.162.079.307.307,0,0,1-.4-.164.737.737,0,0,1,.031-.415c.018-.062.122-.1.192-.146q.947-.55,1.9-1.1a.723.723,0,0,0,.407-.561.689.689,0,0,0-.321-.7.707.707,0,0,0-.789,0q-1.538.9-3.078,1.8a2.546,2.546,0,0,0-1.332,2.329c-.005,1.025,0,2.05,0,3.075,0,.073.007.145.01.223Zm.352.747h-4.314v2.144h4.314Zm1.48-8.891c.022-.059.046-.113.064-.17q.479-1.479.956-2.958a1.481,1.481,0,0,1,1.114-1.044c.091-.022.186-.03.277-.044a.722.722,0,0,0-.608-.7.763.763,0,0,0-.79.513c-.039.106-.073.213-.11.32l-1.371,3.945Z" transform="translate(-2722.286 -222.835)" fill="#653f8c"/>
  <path id="Path_5546" data-name="Path 5546" d="M2710.778,240.835c.324.13.362.188.362.543q0,1.322,0,2.645c0,.345-.115.46-.459.46h-4.86c-.356,0-.467-.113-.467-.475q0-1.334,0-2.667c0-.315.052-.387.36-.5,0-.267.01-.538,0-.808a1.163,1.163,0,0,0-.432-.838c-.758-.667-1.505-1.346-2.266-2.009a2.217,2.217,0,0,1-.7-1.152q-.728-2.779-1.486-5.551a1.489,1.489,0,0,1,.558-1.739.271.271,0,0,0,.08-.188,1.46,1.46,0,0,1,1.2-1.48,1.5,1.5,0,0,1,1.66,1.083c.5,1.479,1.021,2.954,1.539,4.429a.434.434,0,0,0,.178.211c1.009.6,2.023,1.19,3.035,1.785a3.249,3.249,0,0,1,1.71,3C2710.774,238.67,2710.778,239.754,2710.778,240.835Zm-.722.023v-.2c0-1.047.01-2.1,0-3.142a2.511,2.511,0,0,0-1.291-2.261q-1.544-.916-3.1-1.813a.939.939,0,0,0-.356-.126.715.715,0,0,0-.422,1.33c.655.386,1.315.761,1.972,1.143.26.151.336.354.216.555s-.32.228-.571.083c-.652-.375-1.306-.749-1.954-1.13a1.44,1.44,0,0,1-.606-1.91.334.334,0,0,0,.032-.21c-.367-1.152-.737-2.3-1.118-3.452a.753.753,0,0,0-.768-.482.7.7,0,0,0-.608.581,1.12,1.12,0,0,0,.039.443c.484,1.815.985,3.625,1.456,5.443a2,2,0,0,0,.665,1.064c.727.622,1.436,1.265,2.15,1.9a1.825,1.825,0,0,1,.646,1.457c-.005.239,0,.477,0,.725Zm.343,2.895V241.6h-4.31v2.151Zm-5.325-11.177-1.329-3.826c-.054-.156-.1-.316-.159-.47a.778.778,0,0,0-.859-.47.668.668,0,0,0-.513.69,1.538,1.538,0,0,1,1.422,1.245c.186.579.375,1.157.563,1.736l.4,1.234Z" transform="translate(-2700.743 -222.841)" fill="#653f8c"/>
  <path id="Path_5547" data-name="Path 5547" d="M2720.35,215.717a3.73,3.73,0,0,1,1.533-.9,3.606,3.606,0,0,1,4.619,3.111,3.468,3.468,0,0,1-1.022,2.9c-1.593,1.614-3.2,3.21-4.808,4.813-.241.241-.41.238-.655-.007-1.593-1.592-3.2-3.175-4.775-4.782a3.618,3.618,0,0,1,4.846-5.362c.041.033.08.069.12.1Zm-.009,9.2a.479.479,0,0,0,.066-.042c1.544-1.546,3.1-3.081,4.629-4.643a2.662,2.662,0,0,0,.72-2.378,2.733,2.733,0,0,0-1.949-2.3,2.786,2.786,0,0,0-2.939.692c-.525.5-.519.5-1.042,0a2.785,2.785,0,0,0-2.876-.709,2.879,2.879,0,0,0-1.2,4.8c1.482,1.5,2.982,2.986,4.475,4.478C2720.263,224.849,2720.3,224.881,2720.341,224.916Z" transform="translate(-2709.588 -214.661)" fill="#653f8c"/>
  <path id="Path_5548" data-name="Path 5548" d="M2728.523,225.531c0,.361,0,.692,0,1.022,0,.3-.127.423-.427.424q-.656,0-1.311,0c-.309,0-.429-.126-.43-.443s0-.647,0-1h-.972c-.362,0-.474-.111-.475-.467,0-.429,0-.859,0-1.288,0-.285.128-.411.415-.413.337,0,.674,0,1.032,0,0-.352,0-.682,0-1.011s.122-.434.438-.436q.644,0,1.288,0c.325,0,.441.121.442.454s0,.645,0,.993c.347,0,.676,0,1,0s.44.122.442.432q0,.656,0,1.311c0,.3-.127.423-.426.425C2729.213,225.533,2728.883,225.531,2728.523,225.531Zm-.722.72c0-.357,0-.694,0-1.031,0-.283.13-.409.416-.411.336,0,.673,0,1.016,0v-.725h-.982c-.331,0-.45-.118-.451-.445s0-.657,0-.985h-.725c0,.339,0,.663,0,.986s-.122.444-.452.445h-.977v.725h.944c.377,0,.484.107.485.48,0,.32,0,.64,0,.963Z" transform="translate(-2716.679 -219.445)" fill="#653f8c"/>
</svg>
