<?xml version="1.0" encoding="utf-8"?>
<!-- Generator: Adobe Illustrator 26.2.0, SVG Export Plug-In . SVG Version: 6.00 Build 0)  -->
<svg version="1.1" id="Layer_1" xmlns="http://www.w3.org/2000/svg" xmlns:xlink="http://www.w3.org/1999/xlink" x="0px" y="0px"
	 viewBox="0 0 100 100" style="enable-background:new 0 0 100 100;" xml:space="preserve">
<style type="text/css">
	.st0{fill:#FFFFFF;}
</style>
<g id="Group_11119" transform="translate(399 879.13)">
	<path id="Path_5545" class="st0" d="M-326.1-801.3c1.2,0.4,1.4,0.7,1.4,1.9c0,3.4,0,6.8,0,10.2c0,1.3-0.4,1.7-1.7,1.7
		c-6.2,0-12.4,0-18.5,0c-1.2,0-1.7-0.5-1.7-1.7c0-3.4,0-6.8,0-10.2c0-1.3,0.2-1.5,1.4-2c0-4.1,0-8.2,0-12.4c-0.2-4.6,2.3-9,6.4-11.2
		c3.8-2.2,7.6-4.4,11.4-6.7c0.4-0.2,0.7-0.6,0.9-1.1c2-5.6,3.9-11.3,5.9-16.9c0.9-2.9,3.9-4.5,6.8-3.6c2.3,0.7,3.9,2.9,3.9,5.3
		c0,0.4,0.2,0.7,0.5,0.9c1.8,1.3,2.6,3.6,2,5.8c-2,7.5-4,15-6,22.5c-0.4,1.3-1.1,2.4-2.2,3.3c-2.9,2.5-5.7,5.1-8.6,7.6
		c-1.3,1-2,2.5-1.9,4.2C-326-802.9-326.1-802.1-326.1-801.3z M-328.8-801.3c0-0.9,0-1.7,0-2.5c-0.1-2.3,0.9-4.6,2.7-6.1
		c2.8-2.5,5.7-4.9,8.4-7.5c0.7-0.6,1.3-1.4,1.6-2.4c2-7.4,4-14.7,5.9-22.1c0.1-0.4,0.1-0.8,0.1-1.2c-0.2-1.2-1.2-2.1-2.4-2.2
		c-1.3-0.1-2.5,0.7-2.9,2c-1.4,4.2-2.8,8.5-4.1,12.7c-0.1,0.3-0.1,0.7,0.1,1c1.2,2.6,0.3,5.7-2.2,7.1c-2.5,1.5-5,2.9-7.5,4.3
		c-0.2,0.1-0.4,0.2-0.6,0.3c-0.6,0.2-1.3,0-1.5-0.6c-0.1-0.5-0.1-1.1,0.1-1.6c0.1-0.2,0.5-0.4,0.7-0.6c2.4-1.4,4.8-2.8,7.2-4.1
		c0.8-0.4,1.4-1.2,1.5-2.1c0.2-1-0.3-2.1-1.2-2.6c-0.9-0.6-2.1-0.6-3,0c-3.9,2.3-7.8,4.5-11.6,6.8c-3.2,1.7-5.2,5.2-5,8.8
		c0,3.9,0,7.7,0,11.6c0,0.3,0,0.5,0,0.8L-328.8-801.3z M-327.5-798.5h-16.3v8.1h16.3V-798.5z M-321.9-832.1c0.1-0.2,0.2-0.4,0.2-0.6
		c1.2-3.7,2.4-7.5,3.6-11.2c0.6-2,2.2-3.5,4.2-3.9c0.3-0.1,0.7-0.1,1-0.2c0-1.3-1-2.4-2.3-2.6c-1.3-0.1-2.6,0.7-3,1.9
		c-0.1,0.4-0.3,0.8-0.4,1.2c-1.7,5-3.5,9.9-5.2,14.9L-321.9-832.1z"/>
	<path id="Path_5546" class="st0" d="M-350.7-801.4c1.2,0.5,1.4,0.7,1.4,2.1c0,3.3,0,6.7,0,10c0,1.3-0.4,1.7-1.7,1.7
		c-6.1,0-12.2,0-18.4,0c-1.3,0-1.8-0.4-1.8-1.8c0-3.4,0-6.7,0-10.1c0-1.2,0.2-1.5,1.4-1.9c0-1,0-2,0-3.1c-0.1-1.2-0.7-2.4-1.6-3.2
		c-2.9-2.5-5.7-5.1-8.6-7.6c-1.3-1.1-2.2-2.7-2.7-4.4c-1.8-7-3.7-14-5.6-21c-0.7-2.7-0.2-4.9,2.1-6.6c0.2-0.2,0.3-0.4,0.3-0.7
		c0.1-2.9,2-5.3,4.5-5.6c2.8-0.4,5.5,1.3,6.3,4.1c1.9,5.6,3.9,11.2,5.8,16.7c0.1,0.3,0.4,0.6,0.7,0.8c3.8,2.3,7.6,4.5,11.5,6.7
		c4.1,2.2,6.7,6.6,6.5,11.3C-350.7-809.6-350.7-805.5-350.7-801.4z M-353.4-801.3v-0.8c0-4,0-7.9,0-11.9c0.1-3.5-1.8-6.8-4.9-8.5
		c-3.9-2.3-7.8-4.6-11.7-6.9c-0.4-0.2-0.9-0.4-1.3-0.5c-1.5-0.1-2.8,1-2.9,2.5c-0.1,1,0.4,2,1.3,2.6c2.5,1.5,5,2.9,7.5,4.3
		c1,0.6,1.3,1.3,0.8,2.1c-0.4,0.7-1.2,0.9-2.2,0.3c-2.5-1.4-4.9-2.8-7.4-4.3c-2.6-1.4-3.6-4.6-2.3-7.2c0.1-0.2,0.2-0.5,0.1-0.8
		c-1.4-4.4-2.8-8.7-4.2-13c-0.5-1.2-1.6-1.9-2.9-1.8c-1.2,0.1-2.1,1-2.3,2.2c-0.1,0.6,0,1.1,0.1,1.7c1.8,6.9,3.7,13.7,5.5,20.6
		c0.4,1.6,1.3,3,2.5,4c2.7,2.3,5.4,4.8,8.1,7.2c1.6,1.4,2.5,3.4,2.4,5.5c0,0.9,0,1.8,0,2.7H-353.4z M-352.1-790.3v-8.1h-16.3v8.1
		H-352.1z M-372.2-832.6c-1.7-4.9-3.4-9.7-5-14.5c-0.2-0.6-0.4-1.2-0.6-1.8c-0.5-1.3-1.9-2-3.2-1.8c-1.1,0.3-2.2,1.4-1.9,2.6
		c3.1,0.5,4.4,1.7,5.4,4.7c0.7,2.2,1.4,4.4,2.1,6.6l1.5,4.7L-372.2-832.6z"/>
	<path id="Path_5547" class="st0" d="M-347.9-865.4c1.6-1.6,3.6-2.8,5.8-3.4c7.2-2.1,14.8,2,16.9,9.2c0.3,0.8,0.4,1.7,0.5,2.6
		c0.5,4.1-0.9,8.1-3.9,11c-6,6.1-12.1,12.1-18.2,18.2c-0.9,0.9-1.5,0.9-2.5,0c-6-6-12.1-12-18-18.1c-3.9-4-5.1-8.7-3.3-14
		c1.7-5.2,5.5-8.3,10.9-9.2c3.8-0.6,7.7,0.4,10.7,3c0.2,0.1,0.3,0.3,0.5,0.4L-347.9-865.4z M-347.9-830.6c0.1,0,0.2-0.1,0.2-0.2
		c5.8-5.8,11.7-11.6,17.5-17.5c2.3-2.4,3.4-5.7,2.7-9c-0.5-4.1-3.4-7.5-7.4-8.7c-4.2-1.4-7.9-0.4-11.1,2.6c-2,1.9-2,1.9-3.9,0
		c-2.8-2.9-7-3.9-10.9-2.7c-5.8,1.7-9,7.8-7.3,13.6c0.5,1.7,1.5,3.3,2.8,4.6c5.6,5.7,11.3,11.3,16.9,16.9
		C-348.2-830.9-348.1-830.7-347.9-830.6L-347.9-830.6z"/>
	<path id="Path_5548" class="st0" d="M-343.8-846.4c0,1.4,0,2.6,0,3.9c0,1.1-0.5,1.6-1.6,1.6c-1.7,0-3.3,0-5,0
		c-1.2,0-1.6-0.5-1.6-1.7c0-1.2,0-2.4,0-3.8c-1.2,0-2.5,0-3.7,0c-1.4,0-1.8-0.4-1.8-1.8c0-1.6,0-3.2,0-4.9c0-1.1,0.5-1.6,1.6-1.6
		c1.3,0,2.5,0,3.9,0c0-1.3,0-2.6,0-3.8c0-1.2,0.5-1.6,1.7-1.6c1.6,0,3.2,0,4.9,0c1.2,0,1.7,0.5,1.7,1.7c0,1.2,0,2.4,0,3.8
		c1.3,0,2.6,0,3.8,0c1.2,0,1.7,0.5,1.7,1.6c0,1.7,0,3.3,0,5c0,1.1-0.5,1.6-1.6,1.6C-341.2-846.4-342.5-846.4-343.8-846.4z
		 M-346.6-843.6c0-1.3,0-2.6,0-3.9c0-1.1,0.5-1.5,1.6-1.6c1.3,0,2.5,0,3.8,0v-2.7c-1.3,0-2.5,0-3.7,0c-1.2,0-1.7-0.4-1.7-1.7
		s0-2.5,0-3.7h-2.7c0,1.3,0,2.5,0,3.7s-0.5,1.7-1.7,1.7s-2.5,0-3.7,0v2.7c1.2,0,2.4,0,3.6,0c1.4,0,1.8,0.4,1.8,1.8
		c0,1.2,0,2.4,0,3.6L-346.6-843.6z"/>
</g>
</svg>
