<svg id="Group_11101" data-name="Group 11101" xmlns="http://www.w3.org/2000/svg" width="22.089" height="24.267" viewBox="0 0 22.089 24.267">
  <path id="Path_5510" data-name="Path 5510" d="M2043.49,99.759q1.694,1.686,3.388,3.372,1.141,1.137,2.278,2.279a2.48,2.48,0,0,1,.16.2c.408-.3.51-.291.837.037q3.719,3.721,7.438,7.442a1.38,1.38,0,0,1,.153,1.971,1.357,1.357,0,0,1-1.856.181,2.566,2.566,0,0,1-.229-.205q-3.746-3.744-7.491-7.489c-.267-.267-.279-.361-.1-.681a1.83,1.83,0,0,0-2.27-.531.437.437,0,0,1-.556-.1c-.735-.74-1.485-1.464-2.207-2.217a2.94,2.94,0,0,1-.061-4.051c.07-.074.151-.136.227-.2Zm5.4,7.408c.044.047.076.082.109.115l7.219,7.219c.034.033.067.067.1.1a.589.589,0,0,0,.62.11.543.543,0,0,0,.368-.478.712.712,0,0,0-.272-.619q-3.57-3.565-7.136-7.134c-.055-.054-.112-.105-.152-.143Zm-.182-.9.1-.094-5.442-5.438a2.069,2.069,0,0,0,.051,2.515c.69.769,1.439,1.486,2.17,2.217a.3.3,0,0,0,.249.018,2.215,2.215,0,0,1,1.642.05A12.625,12.625,0,0,1,2048.706,106.267Z" transform="translate(-2036.001 -99.759)" fill="#653f8c"/>
  <path id="Path_5511" data-name="Path 5511" d="M2018.813,132.533c.65.1,1.273.151,1.874.294a6.7,6.7,0,0,1,3.213,1.861q1.566,1.567,3.132,3.135a1.962,1.962,0,0,1,.176.255,2.091,2.091,0,0,1,2.828-1.69,2.037,2.037,0,0,1,1.074,2.723,2.058,2.058,0,0,1-3.012.829c-.135.147-.273.309-.423.458-.212.21-.436.223-.6.05a.4.4,0,0,1,.057-.586c.136-.14.279-.274.427-.419-.071-.076-.122-.134-.177-.188q-2.01-2.011-4.021-4.022a6.1,6.1,0,0,0-3.517-1.8c-.356-.051-.719-.06-1.1-.089a5.664,5.664,0,0,0,.135,1.581,5.944,5.944,0,0,0,1.632,2.963q2.091,2.1,4.189,4.189c.033.033.071.06.135.112.141-.153.274-.311.422-.453a.388.388,0,0,1,.569-.032.368.368,0,0,1-.032.564c-.407.3-.427.587-.231,1.055a1.941,1.941,0,0,1-.8,2.261,2.032,2.032,0,0,1-2.369-.089,2.027,2.027,0,0,1,.817-3.584c.045-.011.091-.019.176-.037-.08-.084-.141-.152-.2-.216-1.13-1.137-2.282-2.254-3.386-3.417a6.63,6.63,0,0,1-1.831-4.567c0-.07-.007-.14-.013-.244-.3.075-.583.136-.859.221a.435.435,0,0,1-.475-.113q-1.786-1.784-3.569-3.57a.385.385,0,0,1-.044-.586c.162-.163.4-.144.6.063q1.611,1.606,3.215,3.22a.4.4,0,0,0,.473.138c.229-.079.544-.043.69-.189s.113-.458.186-.689a.389.389,0,0,0-.116-.452c-1.063-1.049-2.115-2.108-3.171-3.163-.27-.27-.314-.487-.138-.671s.41-.143.688.135c1.128,1.128,2.252,2.261,3.389,3.381a.586.586,0,0,1,.171.678C2018.916,132.072,2018.868,132.32,2018.813,132.533Zm10.46,4.478a1.259,1.259,0,1,0,1.251,1.271A1.258,1.258,0,0,0,2029.274,137.01Zm-5.632,5.638a1.252,1.252,0,0,0-1.273,1.25,1.28,1.28,0,0,0,1.247,1.265,1.266,1.266,0,0,0,1.27-1.261A1.247,1.247,0,0,0,2023.642,142.648Z" transform="translate(-2012.89 -121.657)" fill="#653f8c"/>
</svg>
