<?xml version="1.0" encoding="utf-8"?>
<!-- Generator: Adobe Illustrator 26.2.0, SVG Export Plug-In . SVG Version: 6.00 Build 0)  -->
<svg version="1.1" id="Layer_1" xmlns="http://www.w3.org/2000/svg" xmlns:xlink="http://www.w3.org/1999/xlink" x="0px" y="0px"
	 viewBox="0 0 100 100" style="enable-background:new 0 0 100 100;" xml:space="preserve">
<style type="text/css">
	.st0{fill:#FFFFFF;}
</style>
<g id="Group_11380" transform="translate(5 0.13)">
	<path id="Path_5510" class="st0" d="M32.2,8.7c3.8,3.8,7.6,7.6,11.5,11.4c2.6,2.6,5.1,5.1,7.7,7.7c0.2,0.2,0.4,0.4,0.5,0.7
		c1.4-1,1.7-1,2.8,0.1c8.4,8.4,16.8,16.8,25.2,25.2c2,2,2.2,4.7,0.5,6.7c-1.6,1.8-4.4,2.1-6.3,0.6c-0.3-0.2-0.5-0.4-0.8-0.7
		C65,52,56.5,43.5,48,35.1c-0.9-0.9-0.9-1.2-0.3-2.3c-2-2.3-4.8-3.2-7.7-1.8c-0.6,0.4-1.4,0.2-1.9-0.3c-2.5-2.5-5-5-7.5-7.5
		c-3.7-3.8-3.8-9.8-0.2-13.7C30.7,9.2,31,9,31.2,8.7L32.2,8.7z M50.5,33.8c0.2,0.2,0.3,0.3,0.4,0.4l24.4,24.4
		c0.1,0.1,0.2,0.2,0.3,0.3c0.6,0.5,1.4,0.7,2.1,0.4c0.7-0.2,1.2-0.9,1.2-1.6c0.1-0.8-0.3-1.6-0.9-2.1C70,47.6,62,39.5,53.9,31.5
		c-0.2-0.2-0.4-0.4-0.5-0.5L50.5,33.8z M49.9,30.8l0.3-0.3C44,24.2,37.9,18.1,31.8,12c-1.9,2.6-1.8,6,0.2,8.5c2.3,2.6,4.9,5,7.3,7.5
		c0.3,0.1,0.6,0.2,0.8,0.1c1.8-0.7,3.8-0.6,5.6,0.2C47.1,29,48.5,29.9,49.9,30.8L49.9,30.8z"/>
	<path id="Path_5511" class="st0" d="M26.9,45.5c2.2,0.3,4.3,0.5,6.3,1c4.1,1,7.9,3.2,10.9,6.3c3.5,3.5,7.1,7.1,10.6,10.6
		c0.2,0.3,0.4,0.6,0.6,0.9c1.3-5.9,6.5-7,9.6-5.7c3.5,1.5,5.2,5.5,3.7,9c0,0.1-0.1,0.1-0.1,0.2c-1.6,3.5-5.8,5-9.3,3.3
		c-0.3-0.2-0.6-0.3-0.9-0.5c-0.5,0.5-0.9,1-1.4,1.5c-0.7,0.7-1.5,0.8-2,0.2c-0.5-0.5-0.5-1.4,0.1-1.9c0,0,0.1-0.1,0.1-0.1
		c0.5-0.5,0.9-0.9,1.4-1.4c-0.2-0.3-0.4-0.5-0.6-0.6c-4.5-4.5-9.1-9.1-13.6-13.6c-3.2-3.3-7.4-5.4-11.9-6.1
		c-1.2-0.2-2.4-0.2-3.7-0.3c-0.1,1.8,0.1,3.6,0.5,5.4c0.8,3.8,2.8,7.3,5.5,10c4.7,4.7,9.4,9.5,14.2,14.2c0.1,0.1,0.2,0.2,0.5,0.4
		c0.5-0.5,0.9-1.1,1.4-1.5c0.5-0.6,1.3-0.6,1.8-0.2c0,0,0.1,0,0.1,0.1c0.5,0.5,0.5,1.3,0.1,1.8c-0.1,0.1-0.1,0.1-0.2,0.2
		c-1.4,1-1.4,2-0.8,3.6c1.1,2.7-0.2,6-2.7,7.7c-2.5,1.6-5.7,1.5-8-0.3c-3-2.3-3.5-6.6-1.2-9.6c1-1.3,2.4-2.2,4-2.5
		c0.2,0,0.3-0.1,0.6-0.1c-0.3-0.3-0.5-0.5-0.7-0.7c-3.8-3.9-7.7-7.6-11.5-11.6c-4-4.2-6.2-9.7-6.2-15.5c0-0.2,0-0.5,0-0.8
		c-1,0.3-2,0.5-2.9,0.7c-0.6,0.2-1.2,0.1-1.6-0.4c-4-4-8.1-8.1-12.1-12.1c-0.6-0.4-0.7-1.2-0.3-1.8c0-0.1,0.1-0.1,0.1-0.2
		c0.5-0.6,1.3-0.5,2,0.2c3.6,3.6,7.3,7.3,10.9,10.9c0.4,0.5,1,0.7,1.6,0.5c0.8-0.3,1.8-0.1,2.3-0.6c0.5-0.5,0.4-1.6,0.6-2.3
		c0.2-0.5,0.1-1.2-0.4-1.5c-3.6-3.6-7.2-7.1-10.7-10.7c-0.9-0.9-1.1-1.6-0.5-2.3c0.6-0.6,1.4-0.5,2.3,0.5c3.8,3.8,7.6,7.7,11.5,11.4
		c0.7,0.6,0.9,1.5,0.6,2.3C27.3,44,27.1,44.8,26.9,45.5z M62.3,60.7c-2.4,0-4.3,1.9-4.3,4.2c0,2.4,1.9,4.3,4.2,4.3
		c2.4,0,4.3-1.9,4.3-4.2C66.6,62.7,64.7,60.7,62.3,60.7C62.3,60.7,62.3,60.7,62.3,60.7L62.3,60.7z M43.3,79.8
		c-2.3,0-4.3,1.8-4.3,4.2c0,0,0,0,0,0.1c0,2.3,1.9,4.2,4.2,4.3c2.4,0,4.3-1.9,4.3-4.3C47.5,81.7,45.6,79.8,43.3,79.8
		C43.3,79.8,43.3,79.8,43.3,79.8L43.3,79.8z"/>
</g>
</svg>
