<svg id="Group_11625" data-name="Group 11625" xmlns="http://www.w3.org/2000/svg" width="73.64" height="48.872" viewBox="0 0 73.64 48.872">
  <path id="Path_6104" data-name="Path 6104" d="M216.852,22.039l-1.734-.467c.706,2.983,1.19,3.963.875,7.5a2.756,2.756,0,0,0,.408.469c.426.454.9.767.926,1.6.087,2.472-4.026,2.644-3.674-.274.176-1.449,1.417-.989,1.8-1.966.454-1.151-.15-5.164-.61-6.352-.495-1.284-.673-1.375-1.864-1.947-2.009-.967-1.01-.928-2.337-1.584-.233,2.17-2.85,15.7-3.526,16.852l-.626-10.925a12.216,12.216,0,0,1,1-3.12c-2,.352-2.526.611-4.66.017,1.1,3.217,1.058,2.768.834,6.635-.145,2.489-.1,5.442-.495,7.849-.634-2.792-3.08-15.867-3.958-17.247a7.912,7.912,0,0,1-3.925,2.216c-.191,1.784-.437,1.749.195,3.524,2.564-.094,4.388.637,5.2,2.526a38.622,38.622,0,0,1,1,6.487c-.567.867-.4.626-1.4,1.03-1.4.561-1,.71-1.434-.2l2.448-.469c.271-1.94-.135-10.2-6.443-8.616-5.764,1.453-2.275,9.554-1.7,10.169,1.138-.046,1.984-1.143,2.031.056-.578.387.6.265-.954.35-1.964.106-2.066-1.067-2.405-2.9-.4-2.161-2.637-7.126,2.918-8.073l-.159-3.391a16.5,16.5,0,0,0-8.455,4.782c-2.016,2.527-3.194,7.128-2.485,11.329.395,2.335,5.853,4.31,8.472,5.062,7.79,2.236,16.436,2.012,24.279.35,2.781-.589,8.183-2.705,9.441-4.371,1.662-2.2.176-9.076-1-11.092a15.224,15.224,0,0,0-3.339-3.409c-1.375-.947-3.395-1.532-4.651-2.392m-4.44,11.709,6.185-.106-.019,2.54-6.339-.161Z" transform="translate(-168.18 4.282)" fill="#fff"/>
  <path id="Path_6105" data-name="Path 6105" d="M185.015,9.174c-.38,3.917-1.723,1.629-3.328,7.275-.912,3.211.523,6.6-.169,9.834l-2.744.467c-.174.445-.482.68-.132,1.5l.682.806c-2.9.991-4.955,5.735-3.787,9.911.6,1.51,4.632,2.768,6.044,3.143a28.86,28.86,0,0,0,8.436.863c.4-2.055.2-3.015,1.112-5.014.988-2.164,1.436-1.669,1.959-4.182,1.649.02,3.328-1.221,6.079-2.453.065-.03.143-.057.208-.089s.146-.069.213-.1a2.076,2.076,0,0,0,.613-.421l-.863-1.045c-.3-.224-.912-.606-1.219-.817,1.206-.613,1.01-.467.912-1.968-.923-.282-2.755-.067-3.307-1.169-.458-3.035.817-6.016-.022-9.417-.914-3.7-2.941-3.721-3.22-7.125-4.045-.889-3.4-.943-7.466.009m.864,4.175c.006-2.818.1-4.7,5.22-3.341a8.337,8.337,0,0,1,.536,3.459Zm-3.033,6.771a4.348,4.348,0,0,0,.967-2.142c2.652.836,5.646-.756,8.018-1.757l1.021,1.119a5.248,5.248,0,0,0,1.182.839c1.132,4.017.332,1.575-.88,4.734-2.072,5.4-7.162,5.462-9.109-.606-.428-1.329-.109-.334-1.2-2.188m2.516,6.265c2.548,2.135,4.238,1.594,6.763,0,.56.632.787,1.356,1.369,2.072.819,1.01.919.88.776,2.392-2.587,1.008-14.108,2.161-10.2-2.613.526-.641.914-1.417,1.288-1.851" transform="translate(-175.204 -4.703)" fill="#fff"/>
  <path id="Path_6106" data-name="Path 6106" d="M201.472,31.047a16.058,16.058,0,0,1,7.01,3.856c2.368,2.529,2.357,4.017,3.215,7.906,3.222,1.245,10.7-1.191,13.239-2.742,1.742-1.064,1.714-4.058,1.2-6.328a7.448,7.448,0,0,0-3.726-4.827c1.028-.628,1.167-.6.871-2.007-1.48-.567-1.979.211-3.261-1.177-.46-3.052.8-5.863-.039-9.393-1.1-4.623-2.774-2.954-3.211-7.1-2.376-.776-4.884-1.321-7.347.067-1.369,5.173-1.512,1.119-3.389,7.128-1.006,3.222.524,6.591-.222,9.821a8.485,8.485,0,0,1-2.726.463c-.441,1.241-.534,1.28.554,2.325a3.176,3.176,0,0,0-2.162,2m8.672-17.962.322-2.835a6.989,6.989,0,0,1,4.951-.2l.565,3.03c-.1.044-.206.033-.241.126l-.843.259c-1.4.191-3.621.248-4.755-.38m-1.9,5.008c2.737.567,5.451-.954,7.94-1.847,1.514,1.818,1.9.863,2.438,2.944.715,2.766-.156.969-1.034,3.244-2.036,5.288-5.976,6.085-8.316,1.964a10.624,10.624,0,0,1-.93-2.027c-.886-2.446-2.205-.5-.1-4.278m1.543,8.246c2.527,3.065,4.623,1.078,6.759.03a16.611,16.611,0,0,0,1.1,2.018c.682.941,1.077.836.917,2.425-2.162.954-11.929,2.157-10.914-1.48Zm7.473,7.625,5.472-.152.046,1.436-5.429.119Z" transform="translate(-152.801 -4.726)" fill="#fff"/>
  <path id="Path_6107" data-name="Path 6107" d="M197.06,6.8c-4.962,1.054-3.876,2.807-5.212,3.758-2.453,1.744-1.256,2.7-2.329,6.467-1.143,4.019.917,4.8,1.825,6.93,4.076,9.6,11.49,12.1,16.958,1.3,1.475-2.913,3.282-4.836,2.32-8.816-.452-1.864.3-5.2-3.771-8A12.154,12.154,0,0,0,197.06,6.8m-5.991,10.808c.057-.022.15-.115.176-.065l.832-.389a6.131,6.131,0,0,1,1.8-3.395c1.306-1.125,2.463-.485,4.017-.167,4.058.83,4.59-1.71,8.266.5l.508-.8a5.288,5.288,0,0,1,1.316,2.242c.452,1.542.2,1.321,1.34,2.086.287,2.073.254,3.3-1.082,4.323-1.11.851-1.342,2.446-1.994,3.6-4.7,8.36-11.19,4.314-13.141-1.59-1.256-3.8-2.555-1.091-2.038-6.354" transform="translate(-163.285 -6.441)" fill="#fff"/>
</svg>
