<svg id="outline" xmlns="http://www.w3.org/2000/svg" width="59.97" height="59.959" viewBox="0 0 59.97 59.959">
  <path id="Path_3531" data-name="Path 3531" d="M58.962,2H38.975a3,3,0,0,0-3,3V6.016a9.993,9.993,0,1,0,0,15.951V30.98a3,3,0,0,0,3,3h3v4a1,1,0,0,0,1,1h1v1a3,3,0,0,0,3,3h3a1,1,0,0,1,1,1v2H23.222l-3.489-1.744-1.849-3.7a1,1,0,0,0-.894-.555h-4a3,3,0,0,0-3,3v1h-5.1A2.761,2.761,0,0,0,2,46.97a2.957,2.957,0,0,0,.817,1.954,2.958,2.958,0,0,0-.038,4.042,2.969,2.969,0,0,0,.62,4.526,2.965,2.965,0,0,0-.4,1.47,3,3,0,0,0,3,3H18.989a1,1,0,0,0,.447-.1l3.786-1.9H60.96a1,1,0,0,0,1-1V46.97a1,1,0,0,0-1-1H52.966v-2a3,3,0,0,0-3-3h-3a1,1,0,0,1-1-1v-1h1a1,1,0,0,0,1-1v-4h2v2a1,1,0,0,0,1,1h4a1,1,0,0,0,1-1v-2h3a3,3,0,0,0,3-3V5A3,3,0,0,0,58.962,2ZM48.968,47.969h2v3a1,1,0,0,1-1,1h-1Zm-6,6H40.21l-1.235-.618v-.763l1.235-.618h2.762Zm0-4h-3a1,1,0,0,0-.447.1l-2,1a1,1,0,0,0-.553.9h-2v-1a1,1,0,0,0-1-1h-4a1,1,0,0,0-1,1v4a1,1,0,0,0,1,1h4a1,1,0,0,0,1-1v-1h2a1,1,0,0,0,.553.9l2,1a1,1,0,0,0,.447.1h3v2H22.986a1,1,0,0,0-.447.1l-3.786,1.9H6a1,1,0,1,1,0-2h7v-2H5a1,1,0,0,1,0-2h8.994v-2H5a1,1,0,1,1,0-2h9.993v-2H5a1.189,1.189,0,0,1-1-1c0-.832.342-1,.892-1h9.1v-2h-2v-1a1,1,0,0,1,1-1h3.38l1.722,3.445a1,1,0,0,0,.448.448l4,2a1,1,0,0,0,.447.1H42.972Zm-9.993,2v2h-2v-2Zm13.991,6h-2V47.969h2Zm6-7v-3h7v9.993H48.968v-4h1a3,3,0,0,0,3-3ZM29.981,21.987a7.995,7.995,0,1,1,7.995-7.995A7.995,7.995,0,0,1,29.981,21.987Zm29.98,8.994a1,1,0,0,1-1,1h-4a1,1,0,0,0-1,1v2h-2v-2a1,1,0,0,0-1-1h-4a1,1,0,0,0-1,1v4h-2v-4a1,1,0,0,0-1-1h-4a1,1,0,0,1-1-1V19.962a9.915,9.915,0,0,0,0-11.94V5a1,1,0,0,1,1-1H58.962a1,1,0,0,1,1,1Z" transform="translate(-1.989 -2)" fill=""/>
  <path id="Path_3532" data-name="Path 3532" d="M41,29.984H56.989a1,1,0,0,0,1-1V7a1,1,0,0,0-1-1H41a1,1,0,0,0-1,1V28.984A1,1,0,0,0,41,29.984ZM42,8H55.989v2.109a5.211,5.211,0,0,0-1.441.5,3.319,3.319,0,0,1-3.119,0,5.313,5.313,0,0,0-4.881,0,3.309,3.309,0,0,1-3.112,0,5.251,5.251,0,0,0-1.438-.5Zm0,4.157a4.95,4.95,0,0,1,.557.245,5.3,5.3,0,0,0,4.876,0,3.32,3.32,0,0,1,3.116,0,5.313,5.313,0,0,0,4.881,0,4.934,4.934,0,0,1,.562-.246v15.83H42Z" transform="translate(-2.015 -2.003)" fill=""/>
  <path id="Path_3533" data-name="Path 3533" d="M11.358,12.18a3,3,0,0,0-4.24,0L2.878,16.42a3,3,0,1,0,4.239,4.239l1.414,1.414L6.411,24.191a1,1,0,0,0,0,1.413L9.238,28.43a1,1,0,0,0,1.413,0l.707-.707L19.131,35.5a1.8,1.8,0,0,0,.39.241l4.015,1.344,1.248,1.242a2.96,2.96,0,0,0,3.4.577l5.782,5.783,1.413-1.413L29.6,37.487a3,3,0,0,0-.577-3.4l-1.248-1.247-1.338-4.016a1.772,1.772,0,0,0-.241-.391l-7.773-7.773.707-.707a1,1,0,0,0,0-1.413L16.3,15.717a1,1,0,0,0-1.413,0l-2.12,2.12-1.413-1.413h0a3,3,0,0,0,0-4.243ZM5.7,19.246a1,1,0,0,1-1.413-1.412L8.531,13.6a1,1,0,1,1,1.413,1.413Zm2.826,0,1.414-1.413,1.413,1.413L9.945,20.66ZM26.9,34.792l.707.707A1,1,0,1,1,26.2,36.912l-.706-.707Zm-1.144-1.684-1.953,1.953-2.119-.706,3.366-3.369Zm-7.335-9.623L17.011,24.9l1.413,1.413L19.837,24.9l1.414,1.413-1.413,1.413,1.413,1.413,1.413-1.413,1.413,1.413-4.239,4.241-7.067-7.067,4.24-4.24ZM15.6,17.833l1.414,1.413L9.945,26.312,8.531,24.9Z" transform="translate(-1.99 -2.006)" fill=""/>
  <path id="Path_3534" data-name="Path 3534" d="M34.993,11h-2V9a1,1,0,0,0-1-1H28a1,1,0,0,0-1,1v2H25a1,1,0,0,0-1,1v4a1,1,0,0,0,1,1h2v2a1,1,0,0,0,1,1h4a1,1,0,0,0,1-1v-2h2a1,1,0,0,0,1-1V12A1,1,0,0,0,34.993,11Zm-1,4h-2a1,1,0,0,0-1,1v2H29v-2a1,1,0,0,0-1-1H26V13h2a1,1,0,0,0,1-1V10h2v2a1,1,0,0,0,1,1h2Z" transform="translate(-2.004 -2.004)" fill=""/>
  <rect id="Rectangle_2674" data-name="Rectangle 2674" width="1.999" height="1.999" transform="translate(49.977 21.985)" fill=""/>
  <rect id="Rectangle_2675" data-name="Rectangle 2675" width="1.999" height="1.999" transform="translate(45.979 21.985)" fill=""/>
</svg>
