<svg xmlns="http://www.w3.org/2000/svg" width="15.01" height="18" viewBox="0 0 15.01 18">
  <g id="Group_11457" data-name="Group 11457" transform="translate(-584 -995)">
    <path id="Path_6049" data-name="Path 6049" d="M2.7,206.662c-.221-.086-.46-.1-.686-.169a2.8,2.8,0,0,1-1.982-2.437,9.441,9.441,0,0,1,.608-4.306A3.683,3.683,0,0,1,2.3,197.755a3.538,3.538,0,0,1,1.637-.4.99.99,0,0,1,.539.19c.257.162.511.33.77.489a4,4,0,0,0,4.513,0c.288-.178.574-.361.861-.542a1.323,1.323,0,0,1,.939-.1,3.291,3.291,0,0,1,2.532,1.792,7.785,7.785,0,0,1,.843,2.947,11.513,11.513,0,0,1,.069,1.544,2.882,2.882,0,0,1-2.724,2.954c-.024,0-.046,0-.054.032H2.984a.269.269,0,0,0-.211,0Zm4.8-1.057c1.482,0,2.963.012,4.445,0a1.884,1.884,0,0,0,2-2.054,11.568,11.568,0,0,0-.073-1.385,6.724,6.724,0,0,0-.681-2.414,2.321,2.321,0,0,0-1.667-1.3.786.786,0,0,0-.675.126,5.922,5.922,0,0,1-.558.364,5.023,5.023,0,0,1-5.03.316A14.675,14.675,0,0,1,4,198.486a.321.321,0,0,0-.192-.071,2.386,2.386,0,0,0-1.007.273,2.789,2.789,0,0,0-1.2,1.523,8.857,8.857,0,0,0-.53,3.568,1.744,1.744,0,0,0,.89,1.54,2.433,2.433,0,0,0,1.266.289H7.506Z" transform="translate(584 806.338)" fill="#653f8c"/>
    <path id="Path_6050" data-name="Path 6050" d="M78.048,4.336A4.336,4.336,0,1,1,73.721,0a4.331,4.331,0,0,1,4.327,4.335m-4.277-3.28a3.283,3.283,0,1,0,3.222,3.3,3.272,3.272,0,0,0-3.222-3.3" transform="translate(517.68 995)" fill="#653f8c"/>
  </g>
</svg>
