<svg xmlns="http://www.w3.org/2000/svg" width="74.361" height="74.403" viewBox="0 0 74.361 74.403">
  <g id="Group_11698" data-name="Group 11698" transform="translate(-2197.687 -1449.111)">
    <path id="Path_6211" data-name="Path 6211" d="M962.268,162.258a30.854,30.854,0,0,1-18.078-6.69,46.16,46.16,0,0,1-14.315-18.51,16.442,16.442,0,0,1,1.016-15.5,38.516,38.516,0,0,1,2.865-4,1.6,1.6,0,0,1,.92-.644,42.026,42.026,0,0,1,4.246-.289,2.084,2.084,0,0,1,1.782,1.1,51.95,51.95,0,0,1,4.788,9.339,4.489,4.489,0,0,1-.6,4.151,28.167,28.167,0,0,1-2.243,2.84.993.993,0,0,0-.235,1.1,12.972,12.972,0,0,0,2.914,4.465,45.585,45.585,0,0,0,11.48,8.9c1.186.662,1.4.655,2.293-.354,1.295-1.465,2.539-2.98,3.744-4.52a2.979,2.979,0,0,1,3.759-1.13,14.549,14.549,0,0,1,2.159,1.177c2.432,1.491,4.847,3.01,7.277,4.5,1.165.716,1.3,1.024,1.047,2.378a15.618,15.618,0,0,1-2.941,6.941,12.414,12.414,0,0,1-8.836,4.56c-1.007.113-2.025.131-3.039.193m3.112-17.205c-.308.423-.5.73-.738,1.005a43.459,43.459,0,0,1-3.609,4.153c-2.346,2.137-3.169,2.006-5.385.856a42.184,42.184,0,0,1-13.7-11.02,12.806,12.806,0,0,1-2.4-4.52,2.826,2.826,0,0,1,.734-3.171,17.8,17.8,0,0,0,1.919-2.266,2.5,2.5,0,0,0,.343-2.9c-1.219-2.307-2.439-4.615-3.592-6.955a1.484,1.484,0,0,0-1.674-.871,2.63,2.63,0,0,0-2.436,1.348c-.763,1.4-1.711,2.707-2.353,4.154a12.776,12.776,0,0,0-.182,10.564,44.516,44.516,0,0,0,12.237,16.8c5.609,4.755,12.043,7.381,19.5,7.078a10.83,10.83,0,0,0,6.555-2.2,10.427,10.427,0,0,0,3.493-6.269.833.833,0,0,0-.359-.652q-3.391-2.172-6.816-4.29c-.486-.3-1-.553-1.539-.846" transform="translate(1282.656 1346.617)" fill="#fff"/>
    <path id="Path_6210" data-name="Path 6210" d="M892.509,116.112c-1.554-.214-3.118-.374-4.661-.654a35.189,35.189,0,0,1-11.513-4.223,1.92,1.92,0,0,0-1.7-.187c-4.449,1.4-8.909,2.762-13.365,4.137-.069.021-.141.035-.209.06a1.5,1.5,0,0,1-1.689-.264,1.557,1.557,0,0,1-.314-1.681c1.3-4.657,2.572-9.32,3.874-13.975a1.558,1.558,0,0,0-.162-1.355,35.584,35.584,0,0,1-4.917-14,36.354,36.354,0,0,1,7.306-27.6,37.169,37.169,0,0,1,65.871,14.786c.343,1.578.475,3.2.708,4.8.038.258.089.514.134.772V81.1c-.059.523-.12,1.045-.178,1.568a37.306,37.306,0,0,1-30.6,32.869c-1.4.248-2.817.388-4.227.578Zm-30.071-4.32c.3-.077.484-.116.662-.17,3.488-1.07,6.973-2.151,10.464-3.211,2.716-.825,1.945-.884,4.434.493a33.767,33.767,0,0,0,21.867,3.945,32.847,32.847,0,0,0,18.652-9.282c8.3-8.213,11.669-18.2,10.1-29.747a32.337,32.337,0,0,0-9.228-18.677c-8.215-8.338-18.218-11.716-29.791-10.157a32.5,32.5,0,0,0-17.618,8.235,34.274,34.274,0,0,0-6.452,43.761,2.9,2.9,0,0,1,.346,2.533c-1.164,4.04-2.268,8.1-3.431,12.28" transform="translate(1340.172 1407.402)" fill="#fff"/>
  </g>
</svg>
