<?xml version="1.0" encoding="utf-8"?>
<!-- Generator: Adobe Illustrator 21.0.0, SVG Export Plug-In . SVG Version: 6.00 Build 0)  -->
<svg version="1.1" id="Layer_1" xmlns="http://www.w3.org/2000/svg" xmlns:xlink="http://www.w3.org/1999/xlink" x="0px" y="0px"
	 viewBox="0 0 720 405" style="enable-background:new 0 0 720 405;" xml:space="preserve">
<style type="text/css">
	.st0{font-family:'Gilroy-Light';}
	.st1{font-size:36.5898px;}
	.st2{letter-spacing:-1;}
	.st3{clip-path:url(#SVGID_2_);fill:url(#SVGID_3_);}
	.st4{clip-path:url(#SVGID_5_);fill:url(#SVGID_6_);}
	.st5{clip-path:url(#SVGID_8_);fill:url(#SVGID_9_);}
	.st6{clip-path:url(#SVGID_11_);fill:url(#SVGID_12_);}
	.st7{clip-path:url(#SVGID_14_);fill:url(#SVGID_15_);}
	.st8{clip-path:url(#SVGID_17_);fill:url(#SVGID_18_);}
	.st9{clip-path:url(#SVGID_20_);}
</style>
<text fill="#ffffff" transform="matrix(1 0 0 1 182.0962 283.9121)"><tspan x="0" y="0" class="st0 st1">hema</tspan><tspan x="97.1" y="0" class="st0 st1 st2">t</tspan><tspan x="109.8" y="0" class="st0 st1">ology on</tspan><tspan x="257.1" y="0" class="st0 st1">c</tspan><tspan x="277.5" y="0" class="st0 st1">ology n</tspan><tspan x="402.5" y="0" class="st0 st1">e</tspan><tspan x="423.5" y="0" class="st0 st1">t</tspan><tspan x="437.3" y="0" class="st0 st1">w</tspan><tspan x="464.8" y="0" class="st0 st1">ork</tspan></text>
<g>
	<defs>
		<path id="SVGID_1_" d="M108.6,156.5c-6.9,7.5-20.6,6.5-35.7,5.5c-19.2-1.3-40.6-2.5-52.8,13.8C0.5,201.9,5.3,249.6,43,272.6
			c0,0-9.1-9.4-12.5-23c-3.7-14.5-1.9-29.3,6.9-39.6c22.7-26.5,71.4-4.4,89.7-24.2c12-13,10.5-43.9-22.2-55.5
			C104.9,130.3,121.6,142.4,108.6,156.5"/>
	</defs>
	<clipPath id="SVGID_2_">
		<use xlink:href="#SVGID_1_"  style="overflow:visible;"/>
	</clipPath>
	
		<linearGradient id="SVGID_3_" gradientUnits="userSpaceOnUse" x1="0" y1="404.9021" x2="1" y2="404.9021" gradientTransform="matrix(58.755 -76.9608 -76.9608 -58.755 31219.6348 24006.8516)">
		<stop  offset="0" style="stop-color:#EF7DB1"/>
		<stop  offset="0.2343" style="stop-color:#ED64A4"/>
		<stop  offset="0.5504" style="stop-color:#EA4296"/>
		<stop  offset="0.817" style="stop-color:#E9238E"/>
		<stop  offset="1" style="stop-color:#E90E8B"/>
	</linearGradient>
	<polygon class="st3" points="-68.1,220.2 51.6,63.4 207.7,182.7 88.1,339.4 	"/>
</g>
<g>
	<defs>
		<path id="SVGID_4_" d="M74.7,141.9c0,7.9,6.4,14.4,14.4,14.4c7.9,0,14.4-6.4,14.4-14.4c0-7.9-6.4-14.4-14.4-14.4
			C81.2,127.5,74.7,134,74.7,141.9"/>
	</defs>
	<clipPath id="SVGID_5_">
		<use xlink:href="#SVGID_4_"  style="overflow:visible;"/>
	</clipPath>
	
		<linearGradient id="SVGID_6_" gradientUnits="userSpaceOnUse" x1="0" y1="405" x2="1" y2="405" gradientTransform="matrix(58.755 -76.9608 -76.9608 -58.755 31210.6504 23999.9922)">
		<stop  offset="0" style="stop-color:#F090BC"/>
		<stop  offset="1" style="stop-color:#E90E8B"/>
	</linearGradient>
	<polygon class="st4" points="60.9,145.7 85.3,113.7 117.3,138.1 92.9,170.1 	"/>
</g>
<g>
	<defs>
		<path id="SVGID_7_" d="M74.1,243.9c0,7.8,6.3,14.2,14.2,14.2c7.8,0,14.2-6.3,14.2-14.2c0-7.8-6.3-14.2-14.2-14.2
			C80.4,229.7,74.1,236,74.1,243.9"/>
	</defs>
	<clipPath id="SVGID_8_">
		<use xlink:href="#SVGID_7_"  style="overflow:visible;"/>
	</clipPath>
	
		<linearGradient id="SVGID_9_" gradientUnits="userSpaceOnUse" x1="0" y1="405" x2="1" y2="405" gradientTransform="matrix(50.1586 -68.6381 -68.6381 -50.1586 27845.4902 20614.4844)">
		<stop  offset="0" style="stop-color:#EF4137"/>
		<stop  offset="0.9949" style="stop-color:#FAAF43"/>
		<stop  offset="1" style="stop-color:#FAAF43"/>
	</linearGradient>
	<polygon class="st5" points="60.6,248.2 83.9,216.2 115.9,239.6 92.5,271.5 	"/>
</g>
<g>
	<defs>
		<path id="SVGID_10_" d="M121.1,201.4c0,7.9,6.4,14.4,14.4,14.4c7.9,0,14.4-6.4,14.4-14.4c0-7.9-6.4-14.4-14.4-14.4
			C127.5,187,121.1,193.5,121.1,201.4"/>
	</defs>
	<clipPath id="SVGID_11_">
		<use xlink:href="#SVGID_10_"  style="overflow:visible;"/>
	</clipPath>
	
		<linearGradient id="SVGID_12_" gradientUnits="userSpaceOnUse" x1="0" y1="405" x2="1" y2="405" gradientTransform="matrix(-25.4395 -85.6911 -85.6911 25.4395 34861.0391 -10031.8945)">
		<stop  offset="0" style="stop-color:#65308F"/>
		<stop  offset="1" style="stop-color:#B081BA"/>
	</linearGradient>
	<polygon class="st6" points="123.4,223.6 113.2,189.4 147.5,179.2 157.6,213.4 	"/>
</g>
<g>
	<defs>
		<path id="SVGID_13_" d="M40.5,215.8c-5.7,7.9-6.2,18-4.6,27.6c3.8,23.1,23.9,40.4,47.3,40.5c0.1,0,0.3,0,0.4,0
			c4.8,0,9.5-0.5,14-1.3c0.2-0.3,0.4-0.5,0.4-0.5c-26.6-2.4-41.4-28.2-37-47.5c5.6-24.4,35.6-18.9,35.6-18.9
			c-5.7-4.1-19.6-11.1-33.1-11.1C54.9,204.6,46.5,207.5,40.5,215.8"/>
	</defs>
	<clipPath id="SVGID_14_">
		<use xlink:href="#SVGID_13_"  style="overflow:visible;"/>
	</clipPath>
	
		<linearGradient id="SVGID_15_" gradientUnits="userSpaceOnUse" x1="0" y1="405.0612" x2="1" y2="405.0612" gradientTransform="matrix(50.8791 -69.624 -69.624 -50.8791 28233.8809 20900.3262)">
		<stop  offset="0" style="stop-color:#EF4137"/>
		<stop  offset="0.9949" style="stop-color:#FAAF43"/>
		<stop  offset="1" style="stop-color:#FAAF43"/>
	</linearGradient>
	<polygon class="st7" points="-3.4,256.3 56.5,174.3 135.8,232.2 75.8,314.2 	"/>
</g>
<g>
	<defs>
		<path id="SVGID_16_" d="M114.5,221c17.5,32.1-1.1,56.8-1.3,57.1c28.6-11.7,48.8-39.7,48.8-72.5c0-6.8-0.9-13.5-2.5-19.8
			C160.1,244,114.5,221,114.5,221"/>
	</defs>
	<clipPath id="SVGID_17_">
		<use xlink:href="#SVGID_16_"  style="overflow:visible;"/>
	</clipPath>
	
		<linearGradient id="SVGID_18_" gradientUnits="userSpaceOnUse" x1="0" y1="404.9865" x2="1" y2="404.9865" gradientTransform="matrix(-25.4395 -85.6911 -85.6911 25.4395 34853.4766 -10029.6504)">
		<stop  offset="0" style="stop-color:#65308F"/>
		<stop  offset="1" style="stop-color:#B081BA"/>
	</linearGradient>
	<polygon class="st8" points="117.1,291.4 88,193.3 158,172.5 187.1,270.7 	"/>
</g>
<g>
	<defs>
		<rect id="SVGID_19_" width="720" height="405"/>
	</defs>
	<clipPath id="SVGID_20_">
		<use xlink:href="#SVGID_19_"  style="overflow:visible;"/>
	</clipPath>
	<polygon fill="#ffffff" points="263,164.4 235.9,164.4 208.4,196.5 208.4,152.1 184.9,152.1 184.9,248.2 208.4,248.2 208.4,211.8 
		240,248.2 266.9,248.2 229,204.1 	"/>
	<path fill="#ffffff" d="M336.5,173.3c-5.8-6.4-13.9-10.2-24.7-10.2c-23.6,0-40.8,17.8-40.8,43.2c0,25,17.2,43.3,40.8,43.3
		c10.9,0,18.9-3.8,24.7-10.2v8.7h23.4v-83.8h-23.4V173.3z M315.6,227.8c-12.8,0-21.3-9.2-21.3-21.7c0-12.5,8.5-21.7,21.3-21.7
		s21.1,9.2,21.1,21.7C336.6,218.6,328.3,227.8,315.6,227.8"/>
	<path fill="#ffffff" d="M397.4,127.5c-6.3,0-12.8,4.2-12.8,12c0,8,6.5,12.7,12.8,12.7c6.1,0,12.8-4.7,12.8-12.7
		C410.2,131.7,403.5,127.5,397.4,127.5"/>
	<polygon fill="#ffffff" points="385.8,248.2 409,248.2 409.2,164.4 385.8,164.4 	"/>
	<polygon fill="#ffffff" points="496.6,181.3 496.6,164.4 431.3,164.4 431.3,182.9 468.4,182.9 431.3,231.2 431.3,248.2 497.9,248.2 
		497.9,228.5 460.6,228.5 	"/>
	<path fill="#ffffff" d="M554.4,163c-25.7,0-42.3,18.5-42.3,43.3c0,24.8,17.2,43.5,43.2,43.5c15.5,0,28.5-6.5,35.8-17l-15.7-11.2
		c-3,3.8-8.9,8.9-20.1,8.9c-10.5,0-18.8-6.7-21.1-17.9h61v-6.2C595.2,181.5,579.7,163,554.4,163 M534.7,197.7
		c2.2-10.5,9.2-17.2,19.8-17.2c10.9,0,17.2,7.4,19.2,17.2H534.7z"/>
	<path fill="#ffffff" d="M664.5,163.1c-8.3,0-17.3,2.4-23.7,9.3v-8h-23.4v83.8h23.4v-47.4c0-14.7,10-18.1,16.5-18.1
		c6.4,0,16.7,3.4,16.7,18.1v47.4h23.4V197C697.4,171.3,679.8,163.1,664.5,163.1"/>
</g>
</svg>
