<?xml version="1.0" encoding="utf-8"?>
<!-- Generator: Adobe Illustrator 25.0.0, SVG Export Plug-In . SVG Version: 6.00 Build 0)  -->
<svg version="1.1" xmlns="http://www.w3.org/2000/svg" xmlns:xlink="http://www.w3.org/1999/xlink" x="0px" y="0px"
	 viewBox="0 0 200 200" style="enable-background:new 0 0 200 200;" xml:space="preserve">
<style type="text/css">
	.st0{fill:#FFFFFF;}
	.st1{fill:#70108E;}
</style>
<g id="BACKGROUND">
</g>
<g id="OBJECTS">
	<rect x="0.48" y="0.98" class="st0" width="199.56" height="199.56"/>
	<g>
		<g>
			<path class="st1" d="M38.83,97.14c0.32-2.37,0.55-4.75,0.96-7.09c1.96-11.03,6.6-20.8,13.87-29.32c0.82-0.96,1.93-1.09,2.73-0.37
				c0.84,0.76,0.82,1.74-0.13,2.86c-4.2,4.95-7.64,10.38-9.83,16.49c-7.67,21.35-4.55,41.01,9.92,58.54
				c8.51,10.31,19.61,16.62,32.73,19.22c10.72,2.12,21.23,1.2,31.49-2.58c0.15-0.05,0.28-0.15,0.47-0.24
				c-0.74-1-1.44-2.01-2.23-2.94c-0.19-0.22-0.76-0.24-1.11-0.17c-3.9,0.82-7.75,2-11.69,2.47c-10.94,1.32-21.38-0.66-31.04-5.96
				c-13.93-7.64-23.07-19.18-26.84-34.67c-6.03-24.78,5.96-49.91,28.93-61.08c25.51-12.41,57.14-2.11,70.45,22.94
				c0.69,1.29,0.49,2.37-0.53,2.89c-1.01,0.51-1.92,0.09-2.68-1.25c-7.09-12.56-17.52-20.91-31.49-24.61
				c-27.35-7.24-55.59,10.18-61.5,37.84c-5.65,26.43,10.38,52.41,36.53,59.12c9.45,2.42,18.84,2.08,28.12-0.96
				c0.19-0.06,0.38-0.13,0.56-0.2c0.07-0.03,0.12-0.1,0.01,0c-0.51-2.44-1.17-4.75-1.44-7.1c-1.09-9.57,4.44-19.24,13.19-23.28
				c1.19-0.55,2.18-0.31,2.68,0.64c0.52,1,0.12,1.97-1.14,2.6c-5.09,2.53-8.66,6.44-10.31,11.87c-2.33,7.67-0.66,14.57,5.09,20.14
				c5.71,5.53,12.65,7.1,20.17,4.47c7.5-2.62,11.97-8.1,13.09-16c1.67-11.82-7.49-22.28-19.42-22.4c-1.9-0.02-2.69-0.54-2.68-1.78
				c0.01-1.28,0.88-1.9,2.81-1.8c1.51,0.08,3.04,0.21,4.52,0.51c1.47,0.29,2.9,0.81,4.65,1.32c0.65-2.84,1.45-5.68,1.93-8.57
				c1.32-7.94,0.67-15.77-1.77-23.44c-0.43-1.34-0.01-2.34,1.03-2.67c1.05-0.33,1.98,0.25,2.39,1.57
				c3.49,11.17,3.52,22.33-0.13,33.47c-0.34,1.03-0.34,1.66,0.7,2.23c0.8,0.43,1.46,1.1,2.41,1.84c0.79-2.69,1.71-5.23,2.27-7.84
				c3.64-16.91,0.79-32.63-9.34-46.71c-9.83-13.66-23.25-21.72-40.03-23.72c-16.61-1.98-31.38,2.59-44.29,13.21
				c-0.19,0.15-0.36,0.31-0.56,0.45c-0.95,0.68-1.91,0.62-2.58-0.15c-0.68-0.79-0.6-1.91,0.34-2.64c2.17-1.7,4.31-3.46,6.61-4.96
				c10.76-7,22.6-10.25,35.43-9.97c27.78,0.61,52.4,21.07,58.11,48.27c2.59,12.35,1.64,24.39-3.06,36.11
				c-0.25,0.61-0.22,1.05,0.17,1.62c9.85,14.29,1.83,33.54-15.25,36.5c-6.18,1.07-11.92-0.29-17.09-3.85
				c-0.72-0.5-1.25-0.51-2.04-0.2c-35.38,14.17-75.22-7.25-82.9-44.58c-0.51-2.46-0.71-4.98-1.06-7.47
				c-0.05-0.39-0.14-0.77-0.21-1.16C38.83,102.1,38.83,99.62,38.83,97.14z"/>
			<path class="st1" d="M130.36,126.59c0.25,0.03,0.66,0.03,1.04,0.14c1.43,0.4,2.44-0.1,3.25-1.32c2.01-3.02,5.3-3.02,7.32,0.01
				c0.81,1.22,1.8,1.62,3.25,1.32c3.46-0.72,5.82,1.61,5.14,5.1c-0.29,1.5,0.13,2.49,1.38,3.33c2.96,1.97,2.95,5.27-0.01,7.25
				c-1.26,0.84-1.66,1.84-1.37,3.34c0.68,3.51-1.62,5.77-5.15,5.09c-1.51-0.29-2.49,0.18-3.32,1.42c-1.92,2.89-5.25,2.9-7.17,0.01
				c-0.86-1.3-1.89-1.71-3.43-1.42c-3.49,0.66-5.78-1.72-5.04-5.21c0.3-1.4-0.11-2.38-1.28-3.16c-3.1-2.08-3.1-5.3-0.01-7.38
				c1.16-0.78,1.59-1.75,1.29-3.16C125.61,128.93,127.41,126.55,130.36,126.59z M129.71,147.51c3.85-1.1,6.59,0.18,8.44,3.35
				c0.26-0.13,0.38-0.16,0.46-0.24c0.14-0.14,0.27-0.3,0.37-0.46c1.61-2.49,3.85-3.5,6.76-2.85c1.09,0.24,1.25-0.18,1.05-1.12
				c-0.59-2.86,0.38-5.08,2.82-6.67c0.28-0.18,0.5-0.45,0.74-0.67c-0.14-0.22-0.19-0.33-0.27-0.41c-0.15-0.13-0.31-0.25-0.48-0.36
				c-2.44-1.59-3.37-3.81-2.82-6.68c0.22-1.17,0.05-1.32-1.17-1.09c-2.76,0.52-4.93-0.36-6.51-2.7c-0.71-1.05-0.9-1.06-1.59-0.04
				c-1.6,2.37-3.79,3.29-6.6,2.74c-0.36-0.07-0.75-0.01-1.15-0.01c0,0.4-0.05,0.68,0.01,0.94c0.64,2.96-0.32,5.26-2.86,6.88
				c-1,0.64-0.52,1.01,0.15,1.46c2.37,1.59,3.3,3.78,2.74,6.6C129.74,146.51,129.76,146.87,129.71,147.51z"/>
			<path class="st1" d="M100.09,77.32c-3.96-0.04-7.67-1.28-10.6-4.33c-4.08-4.26-3.84-10.29,0.47-14.3
				c5.5-5.11,14.97-5.14,20.5-0.06c4.58,4.2,4.6,10.68,0.02,14.89C107.62,76.15,104.16,77.27,100.09,77.32z M100.29,73.71
				c2.76-0.01,5.29-0.74,7.44-2.52c3.42-2.83,3.45-7.27,0.09-10.15c-4.06-3.49-11.12-3.47-15.17,0.05
				c-3.28,2.85-3.29,7.15,0.01,9.99C94.84,72.96,97.44,73.7,100.29,73.71z"/>
			<path class="st1" d="M83.23,118.72c3.36,0.07,6.53,0.98,9.27,3.14c5.7,4.49,5.61,11.96-0.17,16.36
				c-5.04,3.84-12.72,4.01-17.99,0.4c-6.7-4.58-6.56-13.09,0.28-17.48C77.21,119.48,80.07,118.75,83.23,118.72z M82.98,122.32
				c-2.91,0.06-5.67,0.85-7.88,3c-2.86,2.77-2.8,6.69,0.09,9.43c3.93,3.72,11.36,3.85,15.44,0.27c3.43-3.02,3.31-7.47-0.29-10.31
				C88.21,123.03,85.75,122.37,82.98,122.32z"/>
			<path class="st1" d="M126.17,74.47c4.17,0.04,7.75,1.18,10.68,3.98c4.19,4.01,4.34,9.89,0.39,14.13c-5.4,5.8-16.2,5.81-21.6,0.01
				c-4.56-4.89-3.57-11.83,2.24-15.63C120.35,75.34,123.24,74.49,126.17,74.47z M126.22,93.35c3-0.01,5.53-0.74,7.68-2.51
				c3.47-2.86,3.46-7.34,0.02-10.24c-4.05-3.41-11.07-3.36-15.09,0.11c-3.25,2.81-3.3,7.06-0.1,9.91
				C120.92,92.57,123.56,93.34,126.22,93.35z"/>
			<path class="st1" d="M74.27,106.03c-3.05-0.08-6.56-1.21-9.43-3.91c-4.41-4.15-4.39-10.49,0.01-14.65
				c5.54-5.24,15.23-5.22,20.76,0.05c4.66,4.44,4.26,11.27-0.91,15.36C82.1,104.93,78.72,106.04,74.27,106.03z M75.37,102.45
				c2.84-0.07,5.55-0.85,7.75-2.94c2.91-2.78,2.85-6.77-0.08-9.51c-4.04-3.78-11.56-3.79-15.62-0.03c-3.09,2.87-3.03,7.1,0.18,9.84
				C69.79,101.67,72.39,102.41,75.37,102.45z"/>
			<path class="st1" d="M107.73,119.49c-3.12-0.06-6.52-1.12-9.37-3.65c-4.93-4.4-4.78-11.23,0.3-15.44
				c5.1-4.23,13.26-4.52,18.66-0.66c6.44,4.6,6.33,12.8-0.24,17.22C114.45,118.72,111.52,119.49,107.73,119.49z M108.61,115.9
				c2.66-0.04,5.23-0.76,7.39-2.62c3.38-2.9,3.32-7.3-0.1-10.15c-4.07-3.38-10.96-3.35-15,0.06c-3.32,2.81-3.4,7.1-0.15,9.99
				C102.94,115.13,105.58,115.88,108.61,115.9z"/>
			<path class="st1" d="M143.96,138.78c0.01,3.18-2.51,5.69-5.7,5.67c-3.12-0.02-5.61-2.52-5.62-5.64c0-3.16,2.54-5.7,5.71-5.68
				C141.47,133.15,143.95,135.65,143.96,138.78z M138.35,140.84c1.15-0.02,2.01-0.9,2.01-2.06c-0.01-1.14-0.9-2.04-2.03-2.05
				c-1.17-0.01-2.12,0.97-2.08,2.13C136.28,140,137.2,140.86,138.35,140.84z"/>
			<path class="st1" d="M100.23,67.72c-1.45-0.25-2.87-0.42-4.26-0.74c-1.18-0.27-1.71-1.18-1.46-2.21c0.23-0.95,1.11-1.5,2.24-1.24
				c2.33,0.55,4.64,0.56,6.97,0.01c1.14-0.27,2.02,0.26,2.27,1.2c0.27,1.02-0.25,1.96-1.42,2.23
				C103.14,67.29,101.68,67.47,100.23,67.72z"/>
			<path class="st1" d="M83.06,131.59c-1.43-0.23-2.85-0.4-4.25-0.7c-1.16-0.25-1.76-1.22-1.51-2.19c0.26-1.01,1.17-1.58,2.33-1.29
				c2.29,0.57,4.56,0.57,6.85,0c1.19-0.3,2.08,0.26,2.32,1.29c0.24,1.04-0.3,1.94-1.49,2.2C85.91,131.2,84.49,131.37,83.06,131.59z"
				/>
			<path class="st1" d="M126.22,87.34c-1.53-0.27-2.87-0.45-4.18-0.76c-1.08-0.26-1.6-1.2-1.36-2.17c0.24-0.96,1.15-1.52,2.23-1.26
				c2.37,0.58,4.72,0.57,7.09-0.01c1.02-0.25,1.91,0.31,2.15,1.22c0.27,1-0.2,1.97-1.28,2.21
				C129.29,86.92,127.67,87.11,126.22,87.34z"/>
			<path class="st1" d="M75.2,96.4c-1.44-0.23-2.91-0.41-4.34-0.73c-1.11-0.24-1.63-1.16-1.41-2.13c0.24-1.04,1.16-1.6,2.3-1.32
				c2.29,0.57,4.57,0.57,6.86,0.01c1.15-0.28,2.06,0.24,2.34,1.26c0.27,0.99-0.29,1.94-1.48,2.2C78.08,96,76.66,96.17,75.2,96.4z"/>
			<path class="st1" d="M108.41,109.88c-1.48-0.25-2.94-0.44-4.37-0.76c-1.08-0.25-1.6-1.19-1.37-2.17
				c0.23-0.96,1.15-1.53,2.22-1.27c2.37,0.58,4.72,0.58,7.09-0.01c1.01-0.25,1.91,0.31,2.16,1.21c0.27,0.99-0.2,1.97-1.27,2.22
				C111.41,109.45,109.91,109.63,108.41,109.88z"/>
		</g>
	</g>
</g>
</svg>
