<?xml version="1.0" encoding="utf-8"?>
<!-- Generator: Adobe Illustrator 25.0.0, SVG Export Plug-In . SVG Version: 6.00 Build 0)  -->
<svg version="1.1" xmlns="http://www.w3.org/2000/svg" xmlns:xlink="http://www.w3.org/1999/xlink" x="0px" y="0px"
	 viewBox="0 0 200 200" style="enable-background:new 0 0 200 200;" xml:space="preserve">
<style type="text/css">
	.st0{fill:#FFFFFF;}
	.st1{fill:#70108E;}
</style>
<g id="BACKGROUND">
</g>
<g id="OBJECTS">
	<rect x="0.48" y="0.98" class="st0" width="199.56" height="199.56"/>
	<g>
		<g>
			<path class="st1" d="M161.43,104.58c-0.31,2.28-0.58,4.57-0.94,6.84c-3.87,23.87-23.26,44.17-47,49.03
				c-19.05,3.91-36.36-0.04-51.6-12.18c-9.65-7.68-16.24-17.58-19.98-29.35c-0.49-1.54-0.16-2.54,0.95-2.87
				c1.15-0.34,1.98,0.24,2.46,1.78c3.45,10.97,9.68,20.05,18.52,27.37c21.5,17.8,53.05,17.43,74.04-0.93
				c11.4-9.97,18.2-22.5,19.6-37.56c1.91-20.39-5.2-37.39-20.91-50.52c-10.92-9.13-23.76-13.52-37.99-12.91
				c-20.86,0.89-36.87,10.49-47.79,28.24c-6.59,10.71-8.95,22.51-7.78,35.02c0.08,0.83,0.2,1.66,0.31,2.49
				c0.16,1.23-0.36,2.09-1.38,2.27c-1.11,0.2-1.93-0.41-2.13-1.69c-1.03-6.71-1.02-13.44,0.38-20.07
				c4.72-22.46,17.89-37.86,39.21-46.26c5.13-2.02,10.52-3.07,16.03-3.47c0.35-0.02,0.69-0.13,1.04-0.2c2.55,0,5.1,0,7.64,0
				c0.31,0.07,0.61,0.15,0.92,0.2c3.14,0.49,6.32,0.78,9.41,1.48c23.55,5.38,42.08,25.1,46.06,48.92c0.37,2.23,0.62,4.48,0.93,6.72
				C161.43,99.48,161.43,102.03,161.43,104.58z"/>
			<path class="st1" d="M100.36,48.65c10.64,0.05,20.37,3.04,29.19,8.98c0.17,0.11,0.33,0.22,0.49,0.34
				c0.93,0.72,1.15,1.77,0.55,2.6c-0.6,0.83-1.53,0.98-2.54,0.37c-1.39-0.85-2.74-1.77-4.16-2.58
				C97.97,43.65,64.1,56.51,54.47,84.74c-8.02,23.5,2.39,48.7,24.65,59.68c24.12,11.89,54.06,1.2,65.18-23.28
				c8.49-18.68,4.85-39.67-9.45-54.45c-0.17-0.17-0.34-0.33-0.5-0.52c-0.74-0.88-0.73-1.85,0.01-2.56c0.74-0.7,1.78-0.73,2.55,0.11
				c1.77,1.94,3.61,3.83,5.17,5.93c21.49,29.02,7.87,70.35-26.65,80.99c-28.83,8.88-59.66-9.16-66.03-38.64
				c-5.58-25.8,8.52-51.37,33.3-60.33C88.4,49.62,94.29,48.62,100.36,48.65z"/>
			<path class="st1" d="M86.42,68.22c5.95,0.09,10.95,1.49,15.11,5.19c6.3,5.61,6.15,14.28-0.42,19.59
				c-5.97,4.82-12.85,5.76-20.16,4.08c-4.22-0.97-7.86-3.01-10.57-6.48c-3.72-4.76-3.58-10.97,0.34-15.57
				c3.28-3.85,7.61-5.75,12.51-6.51C84.45,68.32,85.68,68.28,86.42,68.22z M87.28,71.81c-4.66,0.04-8.68,1.07-12.11,3.83
				c-5.21,4.2-5.19,10.59,0.01,14.78c3.09,2.49,6.7,3.61,10.6,3.78c5.1,0.22,9.83-0.91,13.66-4.51c4.15-3.89,4.16-9.32,0.07-13.26
				C96.02,73.06,91.67,71.92,87.28,71.81z"/>
			<path class="st1" d="M93.55,105.18c6.23,0.38,11.68,3.87,15.83,9.56c2.4,3.28,3.81,6.96,3.83,11.09
				c0.04,7.95-6.23,13.51-14.11,12.3c-2.28-0.35-4.49-1.27-6.67-2.09c-1.3-0.49-1.68-1.57-1.19-2.56c0.49-1,1.51-1.24,2.77-0.62
				c2.81,1.38,5.71,2.18,8.87,1.6c3.84-0.7,6.48-3.68,6.71-7.6c0.25-4.34-1.35-8.03-4.07-11.27c-3.12-3.72-6.97-6.29-11.93-6.75
				c-6.62-0.61-10.85,4.09-9.71,10.67c0.47,2.72,1.59,5.15,3.21,7.37c0.21,0.29,0.45,0.56,0.65,0.86c0.63,0.93,0.54,1.96-0.22,2.57
				c-0.79,0.63-1.89,0.48-2.62-0.42c-2.19-2.7-3.87-5.71-4.34-9.16c-0.3-2.17-0.36-4.49,0.09-6.61
				C81.82,108.56,86.69,105.07,93.55,105.18z"/>
			<path class="st1" d="M125.8,83.25c4.25,0.01,8.18,1.07,11.64,3.62c6.88,5.09,6.82,13.68-0.13,18.68
				c-3.52,2.53-7.5,3.55-11.78,3.55c-1.3,0-2.08-0.71-2.08-1.8c0-1.1,0.75-1.78,2.07-1.77c2.79,0.01,5.45-0.5,7.95-1.78
				c0.42-0.22,0.84-0.45,1.24-0.71c5.67-3.69,5.7-9.97,0.06-13.72c-5.12-3.4-13.15-3.3-18.18,0.23c-5.06,3.56-5.17,9.31-0.23,13.04
				c0.54,0.41,1.15,0.72,1.7,1.11c0.86,0.61,1.08,1.57,0.59,2.41c-0.49,0.83-1.46,1.14-2.39,0.65c-8.15-4.32-9.94-13.86-2.07-19.82
				C117.6,84.33,121.55,83.28,125.8,83.25z"/>
			<path class="st1" d="M106.04,125.89c-0.01,3.38-1.9,5.24-5.28,5.19c-6.09-0.09-12.97-6.62-13.38-12.7
				c-0.29-4.26,1.82-6.31,6.09-5.95C99.67,112.95,106.05,119.79,106.04,125.89z M102.48,125.85c0-3.96-4.46-8.97-8.72-9.8
				c-2.57-0.5-3.39,0.32-2.66,2.87c1.2,4.16,3.97,6.88,8.03,8.3c0.51,0.18,1.09,0.24,1.64,0.26
				C102.16,127.54,102.48,127.22,102.48,125.85z"/>
			<path class="st1" d="M125.82,90.41c2.77,0.01,5.36,0.63,7.58,2.38c2.62,2.07,2.64,4.52,0.08,6.67
				c-3.9,3.28-11.46,3.26-15.33-0.05c-2.5-2.14-2.48-4.54,0.1-6.59C120.46,91.06,123.04,90.43,125.82,90.41z M120.07,96.14
				c2.02,2.98,9.71,2.88,11.55-0.03C129.12,93.24,122.42,93.26,120.07,96.14z"/>
			<path class="st1" d="M87.35,76.35c2.36-0.01,4.97,0.55,7.33,2.01c0.67,0.41,1.3,0.92,1.85,1.49c1.99,2.07,2.01,4.39-0.05,6.41
				c-3,2.94-6.79,3.64-10.8,3.41c-2.66-0.15-5.16-0.89-7.34-2.51c-3.35-2.49-3.38-5.74-0.04-8.24
				C80.86,77.01,83.81,76.34,87.35,76.35z M86.88,79.93c-2.7,0.01-5.07,0.72-6.6,2c-1.07,0.9-1.08,1.27-0.04,2.14
				c3.25,2.73,10.02,2.75,13.31,0.03c1.1-0.91,1.11-1.31-0.05-2.21C91.55,80.38,89.28,79.93,86.88,79.93z"/>
		</g>
	</g>
</g>
</svg>
