<?xml version="1.0" encoding="utf-8"?>
<!-- Generator: Adobe Illustrator 25.0.0, SVG Export Plug-In . SVG Version: 6.00 Build 0)  -->
<svg version="1.1" xmlns="http://www.w3.org/2000/svg" xmlns:xlink="http://www.w3.org/1999/xlink" x="0px" y="0px"
	 viewBox="0 0 200 200" style="enable-background:new 0 0 200 200;" xml:space="preserve">
<style type="text/css">
	.st0{fill:#FFFFFF;}
	.st1{fill:#70108E;}
</style>
<g id="BACKGROUND">
</g>
<g id="OBJECTS">
	<rect x="0.48" y="0.98" class="st0" width="199.56" height="199.56"/>
	<g>
		<g>
			<path class="st1" d="M122.74,105.9c6.58-2.01,13.03-1.74,19.33,1.05c11.14,4.94,17.55,16.75,15.68,28.89
				c-1.8,11.71-11.41,21.01-23.24,22.51c-19.69,2.49-35.27-16.27-29.08-35.09c0.55-1.67-0.13-2.91-0.6-4.52
				c-1.69,2.01-2.89,4.14-3.47,6.49c-0.59,2.41-0.94,4.9-1.1,7.38c-0.18,2.88-0.04,5.78-0.05,8.68c-0.01,1.57-0.43,1.98-2.01,1.98
				c-5.14,0.01-10.28,0.01-15.42,0c-1.66,0-1.99-0.37-2.01-2.09c-0.06-3.88,0.16-7.8-0.26-11.64c-0.82-7.5-4.68-13.18-11.42-16.66
				c-4.84-2.5-9.42-5.29-12.98-9.47c-6.78-7.97-8.77-16.83-4.65-26.71c0.34-0.81,0-1.17-0.45-1.65c-4.18-4.49-7.08-9.65-8.17-15.74
				c-0.7-3.88-0.56-7.74,0.42-11.56c0.79-3.09,3.81-5.07,7.12-4.76c3.04,0.29,5.66,2.92,5.78,6.01c0.06,1.45-0.23,2.92-0.31,4.38
				c-0.28,4.57,1.06,8.67,3.68,12.58c9.03-7.31,19.46-10.48,30.87-10.49c11.43-0.01,21.88,3.11,31.01,10.49
				c1.75-2.35,3-4.95,3.38-7.81c0.3-2.24,0.36-4.57,0.07-6.81c-0.71-5.46,3.48-9.59,8.46-8.06c2.42,0.74,3.95,2.4,4.5,4.89
				c2.26,10.24-0.77,18.99-7.61,26.62c-0.73,0.81-0.89,1.36-0.47,2.43c3.99,10.19,1.55,19.09-5.61,26.98
				c-0.49,0.54-1.11,0.96-1.66,1.43C122.57,105.71,122.66,105.8,122.74,105.9z M97.53,140.5c0-2.69,0.01-5.32,0-7.94
				c-0.02-6.1,1.85-11.52,5.72-16.27c0.3-0.36,0.4-1.12,0.25-1.58c-1.41-4.39-2.92-8.75-4.33-13.14c-0.16-0.5-0.13-1.35,0.18-1.63
				c0.38-0.33,1.15-0.33,1.74-0.29c0.8,0.06,1.6,0.5,2.37,0.42c5.23-0.51,9.07-4.73,9.2-10c0.14-5.58-4.09-10.2-9.64-10.53
				c-5.81-0.35-10.49,3.76-11.01,9.68c-0.06,0.65,0.02,1.44-0.91,1.41c-0.99-0.03-0.92-0.85-0.87-1.55c0.5-7.99,8.35-13.26,16-10.73
				c4.71,1.55,7.84,5.65,8.21,10.74c0.35,4.82-2.35,9.5-6.7,11.65c-0.38,0.18-0.75,0.37-1.31,0.65c4.07,1.37,7.94,2.68,11.81,3.94
				c0.26,0.09,0.7-0.04,0.92-0.22c0.88-0.73,1.71-1.53,2.67-2.4c-2.54-0.55-4.14-1.83-4.46-4.29c-0.28-2.13,0.48-3.91,2.41-4.9
				c2.88-1.48,5.2-0.47,7.02,2.14c2.6-5.61,2.94-11.15,0.8-16.76c-2.68-7.01-7.84-11.79-14.3-15.24
				c-10.01-5.35-20.7-6.61-31.79-4.72c-8.08,1.37-15.37,4.53-21.42,10.2c-10.24,9.59-10.72,22.99-1.2,33.27
				c2.91,3.14,6.46,5.4,10.21,7.43c2.26,1.22,4.55,2.55,6.45,4.25c5.16,4.65,7.74,10.59,7.9,17.54c0.07,2.92,0.01,5.85,0.01,8.86
				C88.18,140.5,92.78,140.5,97.53,140.5z M102.48,102.95c0.19,0.69,0.28,1.1,0.41,1.49c1.75,5.23,3.49,10.47,5.29,15.68
				c0.4,1.16,0.41,2.17-0.02,3.36c-5.75,15.85,6.55,32.86,23.41,32.43c14.2-0.36,25.01-12.57,23.67-26.75
				c-1.38-14.65-15.83-24.95-29.98-21.09c-3.12,0.85-5.77,0.71-8.68-0.37C112.03,106.01,107.37,104.58,102.48,102.95z M57.51,67.75
				c-3.67-5.38-5.17-11.21-3.97-17.69c0.39-2.1-1.13-3.93-3.21-4.3c-2.18-0.39-4,0.81-4.51,3.04c-1.85,8.02,0.1,15.18,4.9,21.69
				c0.73,0.99,1.57,1.9,2.33,2.82C54.58,71.4,56.01,69.62,57.51,67.75z M127.92,73.2c6.76-6.79,9.36-16.06,7.26-24.62
				c-0.34-1.4-1.25-2.34-2.65-2.76c-2.93-0.87-5.43,1.5-5.03,4.69c0.2,1.58,0.39,3.18,0.35,4.76c-0.11,4.24-1.52,8.09-3.8,11.66
				c-0.22,0.35-0.38,1.04-0.19,1.29C125.16,69.93,126.56,71.55,127.92,73.2z M122.22,94.66c-1.75,0-3.1,1.36-3.1,3.1
				c0,1.76,1.33,3.09,3.1,3.09c1.35,0.01,3.07-1.69,3.11-3.08C125.38,96.11,123.94,94.67,122.22,94.66z"/>
			<path class="st1" d="M95.34,89.81c0.01-3.89,3.11-6.94,7.03-6.92c3.84,0.02,6.98,3.2,6.94,7.04c-0.04,3.89-3.18,6.97-7.05,6.92
				C98.37,96.82,95.32,93.71,95.34,89.81z M97.14,89.82c-0.01,2.95,2.28,5.26,5.23,5.24c2.87-0.01,5.14-2.32,5.14-5.21
				c0-2.89-2.27-5.16-5.17-5.16C99.42,84.7,97.15,86.93,97.14,89.82z"/>
			<path class="st1" d="M102.53,71.98c-0.01-2.79,2.1-4.91,4.89-4.91c2.68,0,4.85,2.14,4.89,4.82c0.05,2.73-2.14,4.98-4.86,5
				C104.72,76.91,102.54,74.75,102.53,71.98z M107.41,68.88c-1.78,0.01-3.1,1.36-3.08,3.13c0.03,1.76,1.42,3.12,3.16,3.08
				c1.68-0.04,3.01-1.4,3.03-3.1C110.55,70.26,109.17,68.87,107.41,68.88z"/>
			<path class="st1" d="M93.08,78.01c-0.01,2.8-2.13,4.91-4.91,4.89c-2.76-0.02-4.9-2.19-4.87-4.95c0.03-2.7,2.15-4.82,4.86-4.86
				C90.86,73.06,93.08,75.27,93.08,78.01z M91.31,78.06c0.04-1.75-1.33-3.16-3.07-3.17c-1.69-0.01-3.06,1.31-3.12,3
				c-0.06,1.77,1.25,3.17,3.01,3.21C89.9,81.14,91.27,79.84,91.31,78.06z"/>
			<path class="st1" d="M86.22,99.38c-0.02-2.79,2.08-4.9,4.88-4.91c2.72-0.01,4.94,2.22,4.91,4.93c-0.03,2.7-2.15,4.82-4.85,4.84
				C88.37,104.26,86.23,102.15,86.22,99.38z M91.09,102.46c1.71,0.01,3.13-1.41,3.13-3.13c0-1.69-1.32-3.03-3.04-3.06
				c-1.78-0.04-3.15,1.27-3.17,3.03C88,101.06,89.34,102.44,91.09,102.46z"/>
			<path class="st1" d="M136.45,138.91c1.4,1.88,2.87,3.85,4.33,5.82c0.93,1.26,0.9,1.46-0.34,2.38c-1.28,0.95-2.57,1.89-3.84,2.86
				c-0.78,0.6-1.37,0.5-1.94-0.31c-0.99-1.41-2.05-2.77-3.23-4.35c-1.04,1.39-2.02,2.72-3,4.04c-0.98,1.31-1.15,1.34-2.48,0.36
				c-1.22-0.9-2.4-1.84-3.65-2.69c-1-0.68-1-1.33-0.3-2.24c1.51-1.94,2.94-3.94,4.32-5.79c-1.78-3.02-3.66-5.87-5.19-8.89
				c-2.7-5.33-1.81-10.6,2.34-14.27c3.74-3.31,8.08-4.08,12.65-2.06c4.61,2.03,6.99,5.78,7.13,10.81c0.07,2.72-1.16,5.12-2.48,7.4
				C139.43,134.3,137.95,136.52,136.45,138.91z M135.28,137.47c1.64-2.78,3.22-5.3,4.62-7.91c1.09-2.03,1.8-4.2,1.32-6.59
				c-0.78-3.94-3.03-6.67-6.83-7.9c-3.87-1.25-7.4-0.36-10.22,2.56c-2.73,2.83-3.68,6.22-2.21,10.01c0.62,1.6,1.31,3.23,2.27,4.63
				c2.8,4.09,5.74,8.09,8.65,12.11c0.93,1.29,1.9,2.54,2.91,3.89c1.17-0.87,2.26-1.68,3.42-2.54c-2.32-3.1-4.67-6.04-6.79-9.13
				c-2.19-3.19-4.32-6.45-6.18-9.84c-1.36-2.48-0.52-5.15,1.64-6.8c2.06-1.58,5.07-1.54,7.09,0.09c2.12,1.71,2.77,4.29,1.51,6.86
				c-0.95,1.93-2.13,3.74-3.22,5.6c-0.25,0.43-0.54,0.85-0.81,1.28C133.35,134.98,134.2,136.07,135.28,137.47z M131.12,132.08
				c0.19-0.01,0.38-0.03,0.57-0.04c1.15-2.16,2.39-4.28,3.42-6.49c0.68-1.46-0.02-3.2-1.41-4.2c-1.36-0.98-3.24-0.99-4.6-0.02
				c-1.39,0.99-2.13,2.74-1.46,4.19C128.69,127.75,129.95,129.89,131.12,132.08z M123.54,145.71c1.15,0.86,2.24,1.67,3.4,2.53
				c1.01-1.36,1.98-2.61,2.89-3.91c0.17-0.24,0.2-0.77,0.05-1c-0.68-1.02-1.46-1.99-2.28-3.08
				C126.2,142.15,124.89,143.9,123.54,145.71z"/>
		</g>
	</g>
</g>
</svg>
