<?xml version="1.0" encoding="UTF-8"?><svg xmlns="http://www.w3.org/2000/svg" viewBox="0 0 204.63 204.63"><defs><style>.d{fill:#fff;}.e{fill:#653f8c;}</style></defs><g id="a"/><g id="b"><g id="c"><circle class="d" cx="102.32" cy="102.32" r="102.32"/><g><path class="e" d="M104.78,90.86c5.09,4,8.19,9.01,9.15,15.26,.52,3.4,.28,6.85,.26,10.27,0,1.06,.23,1.38,1.33,1.34,2.77-.09,5.54-.06,8.31-.01,.87,.02,1.16-.29,1.11-1.13-.05-1.02-.01-2.04-.01-3.06,0-1.02,.33-1.83,1.36-2.24,.97-.38,1.74-.04,2.42,.64,3.09,3.08,6.19,6.15,9.25,9.26,1.43,1.45,1.44,3.09,.01,4.53-3.07,3.1-6.17,6.17-9.26,9.26-.68,.68-1.44,1.04-2.42,.65-1.03-.4-1.36-1.2-1.37-2.22,0-1.02-.04-2.04,.01-3.06,.04-.83-.2-1.15-1.09-1.13-2.89,.05-5.79,.06-8.68,0-.86-.02-.97,.3-.96,1.04,.02,7.18,.01,14.37,.01,21.55,0,.86,0,1.71,0,2.57,0,.96,.06,1.99-1.27,2.1-.9,.08-1.31-.61-1.31-2.05,0-5.31,0-10.61,0-15.92,0-2.78-.02-5.55,.02-8.33,.01-.71-.12-.97-.91-.97-4.73,.04-9.45,.04-14.18,0-.67,0-1.02,.22-1.33,.79-1.11,2.1-1.58,4.33-1.56,6.71,.03,5.88,.01,11.76,0,17.63,0,.41,0,.82-.09,1.21-.15,.63-.6,.96-1.26,.94-.6-.02-1-.36-1.15-.92-.09-.35-.08-.73-.08-1.09,0-5.96-.04-11.92,0-17.88,.04-5.5,2.16-9.91,6.8-13.07,5.12-3.49,6.35-10.36,2.86-15.32-3.52-5.01-10.23-6.13-15.35-2.56-3.09,2.15-5.43,2.15-8.52-.01-5.1-3.56-11.81-2.42-15.33,2.61-3.47,4.96-2.21,11.81,2.92,15.31,4.59,3.13,6.72,7.5,6.75,12.97,.04,6,0,12,0,18,0,.24,.01,.49,0,.73-.07,.76-.48,1.22-1.25,1.23-.77,0-1.21-.44-1.24-1.22-.03-.94-.02-1.88-.02-2.82,0-5.22,0-10.45,0-15.67,0-4.78-1.82-8.53-5.86-11.29-4.2-2.87-6.11-7.07-5.69-12.12,.42-5.17,3.12-8.96,7.84-11.11,4.57-2.08,9.04-1.62,13.21,1.2,2.49,1.68,3.47,1.7,5.94-.02,4.43-3.08,10.38-3.23,14.85-.37,4.63,2.97,6.98,8.21,6.05,13.57-.13,.74-.11,1.11,.82,1.06,1.67-.08,3.34-.02,5.01-.02,.36,0,.78,.08,.75-.5-.17-4.43,.47-8.9-.77-13.27-2.51-8.84-10.54-15.04-19.69-15.1-6.64-.04-13.28-.04-19.92,0-11.3,.07-20.5,9.25-20.53,20.58-.05,14.94-.01,29.88-.01,44.82,0,.37,.03,.74-.02,1.1-.1,.75-.55,1.19-1.32,1.16-.71-.03-1.11-.45-1.17-1.16-.02-.28-.02-.57-.02-.86,0-14.82-.02-29.63,0-44.45,.02-11.57,7.38-20.77,18.51-23.26,1.32-.29,2.65-.45,4-.45,7.01,0,14.01-.02,21.02,.02,3.44,.02,6.67,.93,9.71,2.5,.54,.28,.96,.39,1.57,.07,3.22-1.7,6.66-2.59,10.31-2.59,7.21,0,14.43-.16,21.63,.1,10.29,.38,19.58,8.98,21.14,19.18,.24,1.54,.32,3.08,.32,4.63,0,14.69,0,29.39,0,44.08,0,.37,0,.74-.03,1.1-.08,.72-.53,1.09-1.23,1.09-.72,0-1.13-.42-1.23-1.11-.05-.36-.02-.73-.02-1.1,0-14.82,.01-29.63,0-44.45-.01-10.22-6.76-18.51-16.74-20.62-1.11-.24-2.25-.38-3.39-.38-6.88,0-13.77-.02-20.65,.01-2.88,.01-5.63,.71-8.32,2.01Zm31.36,33.19c.57-.57,.23-.89-.17-1.29-2.57-2.56-5.13-5.13-7.71-7.68-.2-.2-.32-.58-.77-.49,0,.58,0,1.15,0,1.72,0,2.96-.99,3.94-3.96,3.94-6.15,0-12.3,.02-18.45-.02-.81,0-1.22,.23-1.59,.95-.84,1.66-2.09,3-3.56,4.13-.56,.43-1.15,.83-2.03,1.46h1.55c8.14,0,16.29,0,24.43,0,2.55,0,3.6,1.07,3.6,3.66,0,.65,0,1.3,0,2.32,3.03-3.05,5.83-5.89,8.65-8.7Z"/><path class="e" d="M83.52,147.92c-1.31,2.95-3.39,4.9-6.4,5.73-.96,.27-.47,.98-.56,1.5-.14,.77-.45,1.34-1.31,1.32-.85-.02-1.21-.57-1.26-1.36-.02-.28,0-.57,0-.86,0-4.53,.03-9.06-.01-13.59-.02-2.4,.17-4.81-.2-7.21-.79-5.11-3.27-9.13-7.55-12.04-3.02-2.06-4.39-5.38-3.65-8.68,1.28-5.73,7.84-8.29,12.69-4.87,2.55,1.8,5.25,2.5,8.29,1.79,1.25-.29,2.33-.92,3.37-1.65,3.96-2.79,8.97-1.99,11.65,1.84,2.64,3.77,1.62,8.86-2.36,11.58-5.23,3.57-7.71,8.59-7.8,14.82-.08,6.04-.02,12.08-.02,18.12,0,.33,.02,.66-.02,.98-.08,.71-.49,1.12-1.2,1.13-.77,.01-1.24-.4-1.26-1.18-.03-1.55-.09-3.11,0-4.65,.07-1.12-.19-1.86-1.36-2.15-.34-.08-.64-.34-1.05-.56Zm-5.58-19.6c2.04-2.34,2.42-5.02,1.7-7.95-.16-.64-.46-.74-1.05-.57-2.42,.68-4.03,2.32-5.3,4.38-.16,.26-.21,.51-.03,.79,1.18,1.75,1.96,3.69,2.6,5.82,.78-.92,1.41-1.71,2.08-2.47Zm4.44-15.87c-1.61,.02-1.83,.95-2,2.11-.09,.57,.03,1.13,.14,1.69,.13,.66,.48,.87,1.14,1,2.8,.55,4.95-.83,7.09-2.26,.21-.14,.36-.27,.19-.58-.65-1.2-.82-2.53-1-4.04-1.8,1.21-3.61,2.05-5.57,2.08Zm-.4,22.24c.02-.28-.07-.45-.27-.62-1.04-.9-1.79-2.03-2.51-3.19-2.92,2.87-2.9,6.4-2.55,10.03,2.55-.56,5.13-3.6,5.32-6.21Zm-5.43,15.61c-.02,.66,.11,.9,.82,.59,1.95-.86,3.2-2.32,3.91-4.29,.13-.36,.11-.67-.13-1.03-.53-.77-.91-1.63-1.12-2.55-.06-.28-.03-.63-.6-.44-2.87,.96-2.88,.94-2.88,4.05,0,.2,0,.41,0,.61,0,1.02,.02,2.04,0,3.06Zm9.37-13.23c.03-1-.82-.89-1.34-1.11-.53-.22-.41,.45-.55,.72-.37,.68-.61,1.42-.98,2.09-1.45,2.64-.55,5.69,2.11,7.17,.63,.35,.75,.2,.74-.45-.02-1.38,0-2.77,0-4.15,0-1.43-.04-2.85,.01-4.28Zm-4.1-8.54c-.55,.3-.63,.58-.34,1.15,.85,1.64,2.1,2.85,3.71,3.74,.66,.36,.91,.24,1-.52,.17-1.5,.62-2.93,1.17-4.33q.51-1.29-1.23-1.28c-1.3,.04-2.84,.45-4.3,1.24Zm8.24-4.82c.53-.61,1.04-1.25,1.6-1.84,1.29-1.33,1.36-1.74,.35-3.31-.28-.44-.65-.83-.94-1.27-.29-.43-.54-.46-.98-.17-.87,.59-1.79,1.12-2.7,1.64-.34,.2-.4,.39-.28,.78,.47,1.53,1.17,2.94,2.09,4.24,.1,.15,.16,.39,.5,.34,.1-.11,.23-.26,.36-.41Zm5.95-11.1c.31-.01,.71,.15,.9-.16,.24-.38-.12-.7-.3-.98-.84-1.27-2-2.12-3.49-2.47-2.26-.54-2.79-.09-2.52,2.18,.06,.52,.25,1.02,.37,1.53,.15,.63,.44,.84,1.1,.54,1.08-.49,2.25-.65,3.44-.64,.16,0,.32,0,.49,0Zm-22.82,7.64c.78-.66,.81-1.34,.43-2.15-.47-1-1.28-1.65-2.27-2.09-.08-.03-.24,.05-.32,.13-1.12,.97-1.76,2.22-2.01,3.66-.16,.93,.84,1.06,1.26,1.58,.3,.37,.7,.66,1.06,.99,.63-.74,1.15-1.54,1.85-2.12Zm2.85-2.92c.17,.53,.47,.66,.84,.34,.37-.33,1.42,.15,1.14-.98-.3-1.24-.22-2.49,.09-3.74,.06-.25,.61-.72-.07-.86-.56-.12-1.11-.89-1.72-.12-.74,.92-1.65,1.67-2.6,2.45,.98,.84,1.93,1.68,2.33,2.93Zm8.81,3.48c-.25-.77-1.72-1.3-2.41-.9-.18,.1-.19,.25-.15,.4,.45,1.71,.21,3.43,0,5.19,1.49-.45,2.88-.73,4.44-.7-.67-1.36-1.42-2.6-1.87-3.98Zm-18.22-2.4c.56-1.28,1.04-2.58,2.02-3.59,.41-.42-.06-.56-.27-.73-.98-.78-1.68-1.75-2.11-3.05-1.9,2.11-1.74,5.21,.36,7.37Zm2.06-8.46c.06,1.37,1.06,2.15,2.14,2.76,.84,.47,1.28-.42,1.85-.78,.47-.3,.84-.76,1.27-1.13,.41-.36,.37-.62-.09-.91-1.01-.65-2.09-1.06-3.43-1.01-.59,.19-1.8-.36-1.73,1.07Zm28.59,5.98c.12-.41,.04-.61-.4-.65-1.27-.14-2.54-.23-3.82,.36,.81,1.09,1.55,2.14,2.03,3.42,1.17-.78,1.82-1.84,2.19-3.12Z"/><path class="e" d="M122.12,48.12c5.45,.33,10.54,1.98,15.29,4.56,3.13,1.7,4.14,4.74,3.15,8.18-.68,2.36-1.99,4.36-3.54,6.21-.45,.54-.61,1.02-.58,1.74,.3,7.03-5.27,14.66-12.4,14.95-5.25,.21-8.84-2.54-11.48-6.78-1.58-2.55-2.38-5.35-2.18-8.38,.05-.8-.11-1.51-.37-2.25-.91-2.63-1.7-5.28-1.14-8.13,.49-2.52,1.97-4.14,4.4-4.89,.34-.11,.7-.1,.85-.55,1.26-3.65,4.18-4.59,7.62-4.66,.12,0,.24,0,.37,0Zm10.29,17.52c-1.35-1.39-3.01-2.21-4.9-2.53-2.57-.44-5.15-.85-7.41-2.25-.75-.47-1.3-.83-1.93,.15-.3,.47-.86,.76-1.41,.93-1.41,.44-2.13,1.51-2.76,2.74-3.04,5.98,.58,12.67,4.53,15.11,3.4,2.1,7.31,1.98,10.46-.51,3.11-2.46,4.71-5.73,4.99-10.32,.15-.96-.51-2.22-1.58-3.32Zm-19.93-3.39c.7-1.03,1.51-1.92,2.71-2.37,1-.38,1.7-.98,2.08-2.05,.4-1.14,1.64-1.43,2.45-.55,1.71,1.85,3.92,2.58,6.28,2.93,3.51,.53,6.74,1.57,9,4.55,.42,.55,.58,.13,.79-.14,.8-1.08,1.52-2.21,2.02-3.47,1.31-3.26,.5-5.4-2.68-6.88-2.84-1.32-5.79-2.38-8.84-3.08-2.18-.5-4.41-.86-6.65-.32-1.61,.39-2.9,1.23-3.13,3-.16,1.21-.7,1.64-1.86,1.78-2.1,.26-3.12,1.44-3.36,3.56-.15,1.35,.07,2.65,.46,4.11,.3-.45,.51-.77,.73-1.09Z"/><path class="e" d="M68.52,68.98c.46-1.94-.84-3.63-1.25-5.51-1.02-4.72,.74-8.69,4.71-10.19,.27-.1,.46-.29,.62-.54,2.73-4.25,6.72-5.2,11.38-4.32,1.92,.37,3.76,1.03,5.5,1.93,4.29,2.22,5.77,6.07,5.94,10.6,.04,.97,.05,2-.21,2.92-.81,2.81-.26,5.77-.99,8.56-1.35,5.1-4.24,8.98-9.38,10.72-4.75,1.61-9.83-.36-13.23-4.95-1.99-2.69-3.1-5.7-3.09-9.21Zm22.02-3.55c-1.42-1.46-3.17-2.24-5.15-2.55-2.21-.35-4.45-.69-6.41-1.82-1.19-.68-2.15-1.3-3.15,.19-.18,.27-.6,.44-.94,.54-1.33,.39-2.06,1.38-2.64,2.54-2.59,5.19-.63,12,4.4,15.25,3.26,2.11,7.16,2.04,10.27-.28,3.3-2.46,4.94-5.84,5.25-10.68,.15-.87-.58-2.09-1.65-3.18Zm2.27-5.65c-.31-3.53-1.93-6.14-5.27-7.58-1.61-.69-3.27-1.23-5-1.5-3.36-.53-6.37,.77-7.82,3.47-.4,.74-.91,1.13-1.69,1.42-3,1.11-4.41,4.62-3.04,7.49,.8-1.41,1.69-2.73,3.25-3.34,1.05-.41,1.77-1.01,2.17-2.12,.4-1.09,1.67-1.33,2.47-.46,1.55,1.69,3.54,2.43,5.69,2.79,3.31,.56,6.55,1.22,9.09,4.1,.21-1.62,.27-2.94,.15-4.27Z"/></g></g></g></svg>