<?xml version="1.0" encoding="utf-8"?>
<!-- Generator: Adobe Illustrator 25.0.0, SVG Export Plug-In . SVG Version: 6.00 Build 0)  -->
<svg version="1.1" xmlns="http://www.w3.org/2000/svg" xmlns:xlink="http://www.w3.org/1999/xlink" x="0px" y="0px"
	 viewBox="0 0 200 200" style="enable-background:new 0 0 200 200;" xml:space="preserve">
<style type="text/css">
	.st0{fill:#FFFFFF;}
	.st1{fill:#70108E;}
</style>
<g id="BACKGROUND">
</g>
<g id="OBJECTS">
	<rect x="0.48" y="0.98" class="st0" width="199.56" height="199.56"/>
	<g>
		<g>
			<path class="st1" d="M161.17,72.66c-0.46,1.54-0.77,3.15-1.4,4.62c-3.09,7.26-10.94,11.21-18.56,9.19
				c-5.2-1.38-9.4-0.17-13.18,3.65c-12.89,13.02-25.87,25.94-38.85,38.88c-3.46,3.45-4.55,7.44-3.29,12.17
				c2.43,9.1-2.96,18.01-12.08,20.12c-8.81,2.04-17.57-3.71-19.34-12.81c-0.25-1.3-0.68-1.73-1.98-1.98
				c-8.01-1.54-13.37-8.3-13.15-16.4c0.22-7.86,6.02-14.41,14-15.43c2.14-0.28,4.45,0,6.57,0.49c4.62,1.08,8.55,0.14,11.89-3.2
				c13.24-13.23,26.47-26.47,39.7-39.7c3.28-3.28,4.33-7.19,3.16-11.67c-2.6-9.94,3.13-18.86,13.23-20.58
				c0.15-0.03,0.28-0.12,0.42-0.19c1.27,0,2.54,0,3.81,0c0.18,0.07,0.35,0.18,0.53,0.21c7.26,1.2,12.45,6.49,13.51,13.82
				c0.1,0.72,0.42,0.87,1.06,0.96c4.67,0.68,8.37,2.94,11.09,6.81c1.58,2.25,2.31,4.81,2.84,7.46
				C161.17,70.28,161.17,71.47,161.17,72.66z M145.01,83.78c0.01-0.04,0.02-0.08,0.03-0.12c0.63-0.05,1.27-0.04,1.89-0.15
				c6.82-1.14,11.34-6.89,10.89-13.82c-0.41-6.33-5.79-11.41-12.4-11.73c-2.04-0.1-2.31-0.36-2.41-2.36
				c-0.38-8.05-7.42-13.71-15.24-12.25c-7.36,1.38-11.92,8.61-9.98,15.95c1.6,6.07,0.19,11.23-4.26,15.66
				c-13.03,12.99-26.05,26-39.03,39.03c-4.46,4.48-9.64,5.89-15.77,4.32c-1.65-0.42-3.49-0.56-5.17-0.32
				c-6.72,0.98-11.28,6.77-10.9,13.55c0.37,6.53,5.7,11.67,12.41,11.96c2.02,0.09,2.3,0.37,2.39,2.38
				c0.36,8.02,7.44,13.68,15.25,12.24c6.71-1.24,12.21-8.18,9.86-16.56c-1.53-5.48-0.2-10.42,3.8-14.44
				c13.36-13.45,26.77-26.85,40.21-40.21c4.03-4,8.92-5.21,14.45-3.86C142.36,83.35,143.69,83.54,145.01,83.78z"/>
			<path class="st1" d="M151.43,70.9c-0.04,4.09-3.76,7.09-7.75,6.23c-1.17-0.25-1.74-0.96-1.59-1.98c0.14-0.95,0.86-1.46,2.02-1.31
				c1.45,0.19,2.71-0.04,3.51-1.37c0.81-1.34,0.56-2.63-0.34-3.86c-0.6-0.83-0.47-1.66,0.33-2.31c0.73-0.6,1.72-0.42,2.39,0.43
				C150.98,67.94,151.47,69.34,151.43,70.9z"/>
		</g>
	</g>
</g>
</svg>
