<?xml version="1.0" encoding="utf-8"?>
<!-- Generator: Adobe Illustrator 25.0.0, SVG Export Plug-In . SVG Version: 6.00 Build 0)  -->
<svg version="1.1" xmlns="http://www.w3.org/2000/svg" xmlns:xlink="http://www.w3.org/1999/xlink" x="0px" y="0px"
	 viewBox="0 0 200 200" style="enable-background:new 0 0 200 200;" xml:space="preserve">
<style type="text/css">
	.st0{fill:#FFFFFF;}
	.st1{fill:#70108E;}
</style>
<g id="BACKGROUND">
</g>
<g id="OBJECTS">
	<rect x="0.48" y="0.98" class="st0" width="199.56" height="199.56"/>
	<g>
		<g>
			<path class="st1" d="M71.13,93.88c0-0.73,0-1.3,0-1.88c0-16.23,0-32.47,0-48.7c0-2.29,0.08-2.37,2.33-2.37
				c7.64,0,15.27,0.01,22.91-0.01c1.06,0,1.85,0.13,1.99,1.47c1.41,12.71,7.49,22.63,17.71,30.26
				c10.49,7.83,21.31,15.11,33.14,20.77c1.46,0.7,3.03,1.19,4.58,1.7c1.39,0.45,2.32,1.33,2.35,2.76
				c0.24,12.06-2.28,23.22-11.06,32.17c-6.73,6.86-15.13,10.64-24.39,12.43c-5.49,1.06-11.11,1.45-16.92,2.17
				c0,0.08-0.05,0.59-0.05,1.09c-0.01,4.32-0.04,8.65,0.01,12.97c0.02,1.36-0.5,1.89-1.86,1.88c-9.65-0.03-19.31-0.03-28.96,0
				c-1.3,0-1.81-0.5-1.79-1.79c0.05-2.69-0.02-5.38,0.03-8.07c0.01-0.86-0.26-1.17-1.12-1.23c-13.03-0.92-24.08-11.36-25.53-25.11
				c-1.55-14.63,9.81-28.82,24.47-30.27C69.63,94.06,70.29,93.98,71.13,93.88z M101.39,158.15c0-0.6,0-1.12,0-1.63
				c0-4.27,0-8.55,0.01-12.82c0-1.74,0.27-1.98,2.03-1.94c7.5,0.19,14.86-0.71,22.03-2.94c9.3-2.9,17.23-7.74,22.53-16.2
				c2.79-4.45,4.43-9.31,5.2-14.57c-4.89-1.08-6.78-4.64-7.72-8.96c-0.29-1.35-0.29-2.77-0.54-4.13c-0.09-0.51-0.43-1.16-0.84-1.39
				c-10.65-5.71-20.65-12.39-30.25-19.72c-9.83-7.51-15.79-17.26-17.56-29.51c-0.15-1.03-0.67-1.08-1.45-1.08
				c-6.72,0.01-13.45,0.01-20.17,0.01c-0.37,0-0.73,0.07-1.1,0.11c0,16.88,0,33.66,0,50.44c16.09,0.87,26.39,14.51,26.6,27
				c0.1,6.15-1.44,11.8-4.99,16.82c-5.27,7.44-12.58,11.31-21.62,12.01c0,2.9,0,5.66,0,8.5C82.82,158.15,92.02,158.15,101.39,158.15
				z M97.81,121.73c-0.03-14.11-11.48-25.53-25.6-25.53c-14.02,0-25.56,11.62-25.5,25.67c0.06,14.02,11.59,25.49,25.57,25.45
				C86.43,147.29,97.85,135.84,97.81,121.73z M153.86,105.66c0-2.49,0.02-4.82-0.02-7.15c-0.01-0.36-0.26-0.93-0.55-1.04
				c-1.93-0.76-3.9-1.43-5.87-2.13C147.19,100.49,149.74,104.86,153.86,105.66z"/>
			<path class="st1" d="M94.09,121.75c0.07,11.95-9.82,21.86-21.82,21.85c-11.92,0-21.76-9.81-21.81-21.74
				c-0.05-12.17,9.75-21.84,22.2-21.91C84.2,99.9,94.02,109.88,94.09,121.75z M91.74,121.65c-0.13-10.75-8.9-19.46-19.5-19.38
				c-10.77,0.09-19.55,8.94-19.45,19.6c0.1,10.71,8.98,19.52,19.53,19.37C83.2,141.09,91.87,132.34,91.74,121.65z"/>
			<path class="st1" d="M70.08,126.57c0.03,3.03-2.32,5.39-5.35,5.4c-2.96,0-5.32-2.3-5.38-5.24c-0.06-3,2.31-5.45,5.29-5.49
				C67.64,121.2,70.06,123.57,70.08,126.57z M64.67,129.65c1.69,0.03,3.04-1.26,3.08-2.94c0.05-1.71-1.36-3.15-3.05-3.14
				c-1.63,0.01-3.01,1.41-3.02,3.04C61.68,128.27,63,129.62,64.67,129.65z"/>
			<path class="st1" d="M83.61,111.68c0,2.99-2.43,5.41-5.41,5.38c-2.98-0.03-5.35-2.46-5.32-5.46c0.02-2.91,2.41-5.29,5.33-5.33
				C81.15,106.22,83.61,108.69,83.61,111.68z M78.27,108.61c-1.71,0.01-3.1,1.43-3.06,3.14c0.03,1.65,1.41,2.97,3.08,2.95
				c1.68-0.02,3-1.36,2.99-3.04C81.28,110.02,79.87,108.6,78.27,108.61z"/>
			<path class="st1" d="M82.4,128.16c-1.97-0.02-3.53-1.6-3.53-3.59c0-2.05,1.62-3.66,3.65-3.62c1.96,0.04,3.55,1.65,3.55,3.59
				C86.07,126.56,84.43,128.18,82.4,128.16z M82.55,126.4c0.54-0.92,1.14-1.49,1.06-1.92c-0.09-0.46-0.8-1.02-1.3-1.09
				c-0.3-0.04-1.02,0.77-1.01,1.19C81.31,125.06,81.92,125.53,82.55,126.4z"/>
			<path class="st1" d="M64.57,115.1c0.01,2.01-1.51,3.57-3.49,3.61c-2.03,0.04-3.68-1.55-3.71-3.57c-0.03-1.97,1.68-3.67,3.67-3.63
				C63.01,111.54,64.57,113.13,64.57,115.1z M62.83,115.09c-0.91-0.57-1.42-1.14-1.91-1.12c-0.42,0.02-1.18,0.8-1.12,1.09
				c0.11,0.49,0.72,1.15,1.19,1.21C61.43,116.34,61.95,115.7,62.83,115.09z"/>
			<path class="st1" d="M78.34,133.31c-0.02,2.03-1.67,3.6-3.71,3.56c-2-0.05-3.51-1.61-3.49-3.61c0.02-2.03,1.67-3.64,3.69-3.59
				C76.76,129.72,78.36,131.38,78.34,133.31z M76.56,133.36c-0.86-0.64-1.37-1.3-1.81-1.26c-0.46,0.05-1.08,0.72-1.19,1.22
				c-0.07,0.3,0.67,1.09,1.08,1.12C75.13,134.47,75.65,133.91,76.56,133.36z"/>
		</g>
	</g>
</g>
</svg>
