<?xml version="1.0" encoding="UTF-8"?><svg xmlns="http://www.w3.org/2000/svg" viewBox="0 0 204.63 204.63"><defs><style>.d{fill:#fff;}.e{fill:#653f8c;}</style></defs><g id="a"/><g id="b"><g id="c"><circle class="d" cx="102.32" cy="102.32" r="102.32"/><g><path class="e" d="M153.49,123.37c.06,0,.12,.01,.18,.02v1.2c-.29-.37-.22-.8-.18-1.22Z"/><path class="e" d="M153.67,128.4c-.36-.4-.26-.8,0-1.2v1.2Z"/><path class="e" d="M50.97,115.79V58.33c.3-3.2,2.16-5.26,4.9-6.68,1.01-.52,2.11-.62,3.21-.62,23.09,0,46.18,.02,69.28-.02,4.8,0,7.7,3.79,8.28,6.81,.19,.99,.29,1.97,.29,2.98,0,12.71,.01,25.42-.03,38.12,0,1.34,.39,2.03,1.66,2.65,4.93,2.4,8.79,6.02,11.58,10.74,1.79,3.04,3.1,6.27,3.4,9.85,.03,.37,.03,.73,.04,1.1,.05,.45-.11,.91,.1,1.35v2.6c-.16,.4-.16,.8,0,1.2v1c-.23,2.63-.9,5.15-1.91,7.59-2.21,5.3-5.82,9.41-10.6,12.55-2.74,1.79-5.74,2.95-8.91,3.7-1.14,.27-2.31,.16-3.45,.38h-5.62c-2.85-.23-5.56-.97-8.18-2.14-5.46-2.44-9.65-6.29-12.65-11.41-2.92-4.98-4.1-10.38-3.63-16.14,.05-.63-.18-.86-.77-.86-.33,0-.67,0-1,0-12.46,0-24.93,0-37.39,0-3.37,0-5.86-1.49-7.67-4.28-.6-.94-.71-1.98-.93-3.02Zm11.31-54.45c-.91,0-1.08,.24-1.08,1.1,.03,16.38,.03,32.75,0,49.13,0,.93,.28,1.06,1.11,1.06,13.1-.03,26.2-.03,39.3,0,.72,0,1.11-.21,1.5-.81,5.26-8.04,12.72-12.31,22.31-12.82,.85-.04,.86-.37,.86-1.01-.01-11.87-.02-23.75,.01-35.62,0-.84-.22-1.03-1.05-1.03-10.49,.03-20.99,.02-31.48,.02s-20.99,.01-31.48-.02Zm63.92,88.88c13.26,.01,24.03-10.72,24.04-23.96,.01-13.12-10.75-23.87-23.9-23.88-13.25-.01-24.02,10.67-24.03,23.84-.01,13.22,10.7,23.98,23.89,24Zm-26.49-34.19c-13.14,0-26.27,0-39.41,0-2.05,0-2.5-.46-2.5-2.54,0-17.65,0-35.3,0-52.95,0-2.13,.46-2.59,2.58-2.59,22.23,0,44.46,0,66.69,0,2.2,0,2.64,.43,2.64,2.63,0,12.01,0,24.02,0,36.03,0,.83-.23,1.82,.15,2.44,.37,.6,1.5,.3,2.24,.57,.83,.31,1.07,.14,1.06-.78-.03-12.84-.02-25.69-.02-38.53,0-3.7-2.07-5.76-5.76-5.76-22.4,0-44.79,0-67.19,0-3.76,0-5.8,2.04-5.8,5.82,0,17.75,.04,35.5-.04,53.25-.02,3.25,2.11,5.92,5.9,5.89,12.84-.11,25.67-.04,38.51-.04,.2,0,.4,0,.6,0,.29,0,.48-.06,.58-.4,.28-.99,.6-1.96,.94-3.01h-1.15Z"/><path class="e" d="M85.77,87c-1.82-1.06-3.51-2.04-5.2-3.04-.42-.25-.69,.05-1,.2-7.07,3.52-15.17-1.65-14.96-9.55,.14-5.24,4.57-9.68,9.83-9.87,5.44-.19,10.12,3.79,10.63,9.08,.07,.71,.28,1.17,.95,1.46,.46,.2,.91,.44,1.3,.74,2.69,2.08,5.69,2.61,9.07,2.5,6.41-.21,12.83-.07,19.25-.06,3.58,0,6.28,1.97,6.98,5.25,.46,2.15,.46,4.4,0,6.56-.68,3.24-3.43,5.27-6.87,5.28-7.75,.01-15.51,.01-23.26,0-.69,0-1.29,.14-1.88,.5-1.57,.95-3.16,1.86-4.75,2.76-.48,.27-.71,.59-.77,1.16-.56,5.48-5.04,9.37-10.58,9.23-5.22-.13-9.54-4.39-9.86-9.72-.32-5.21,3.56-9.91,8.84-10.66,2.1-.3,4.15,0,6.02,1.01,.6,.33,1,.26,1.53-.06,1.51-.92,3.05-1.79,4.73-2.76Zm-10.79-18.81c-3.75-.05-6.91,3.08-6.91,6.84,0,3.72,3.05,6.8,6.8,6.85,3.75,.05,6.91-3.08,6.91-6.84,0-3.72-3.05-6.8-6.8-6.85Zm-6.91,30.76c0,3.77,3.11,6.85,6.9,6.83,3.74-.02,6.8-3.08,6.81-6.82,0-3.78-3.09-6.84-6.9-6.82-3.75,.02-6.81,3.08-6.81,6.81Zm47.81-6.82c1.66-.02,2.97-.99,3.41-2.44,.2-.67,.15-.99-.73-.99-4.68,.04-9.35,.01-14.03,.03-1.3,0-2.48-.31-3.62-.96-5.16-2.98-10.35-5.92-15.51-8.9-.56-.32-.88-.46-1.14,.31-.19,.56-.49,1.11-.86,1.57-.43,.54-.33,.76,.24,1.09,5.28,3.04,10.55,6.11,15.81,9.19,1.3,.76,2.69,1.13,4.19,1.12,1.94-.01,3.87,0,5.81,0,2.14,0,4.28,.02,6.41,0Zm-12.7-7.02c.35,.19,.77,.2,1.17,.2,4.74,0,9.49-.02,14.23,.02,.92,0,.89-.39,.69-1.02-.46-1.51-1.73-2.41-3.52-2.41-5.78-.01-11.56,0-17.34,0-.18,0-.39-.09-.6,.18,1.79,1.02,3.57,2.04,5.36,3.04Zm-8.9,6.85c-1.6-.93-3.2-1.86-4.79-2.8-.28-.17-.48-.1-.72,.04-1.78,1.04-3.55,2.08-5.34,3.11-.29,.17-.51,.29-.21,.66,.62,.74,.79,2.16,1.44,2.37,.77,.24,1.73-.75,2.55-1.29,2.13-1.41,4.33-2.48,7.04-1.78l.02-.31Z"/><path class="e" d="M136.57,139.05c-2,1.05-3.95,1.32-5.99,.58-.3-.11-.41,.11-.55,.3-.3,.4-.54,.91-.94,1.15-1.04,.63-1.23,1.52-1.1,2.61,.06,.46,.03,.93,0,1.4-.06,.99-.82,1.73-1.74,1.71-.89-.02-1.73-.74-1.63-1.67,.17-1.57-.23-2.27-1.96-2.66-2.25-.51-3.62-2.29-4.09-4.6-.12-.62-.28-.99-.99-.85-.52,.1-1.21-.43-1.48-.05-.27,.38-.09,1.09-.1,1.65,0,.47,.02,.94-.02,1.4-.06,.95-.68,1.57-1.58,1.61-.93,.05-1.65-.56-1.81-1.51-.1-.61,.29-1.43-.2-1.79-.39-.29-1.16-.06-1.75-.13-.83-.09-1.46-.81-1.48-1.63-.02-.84,.62-1.62,1.51-1.72,.59-.07,1.2-.01,2.01-.01-.83-1.05-1.44-2.06-1.69-3.22-.26-1.19-.2-2.38,.15-3.62-.69,0-1.32,.03-1.95,0-1.04-.05-1.71-.75-1.7-1.71,0-.97,.68-1.65,1.73-1.68,1.24-.03,2.47,0,3.71-.01,1.07-.01,1.26-.27,1.08-1.29-.24-1.33-.19-2.65,.24-3.95,.28-.85-.19-1.54-1.1-1.58-.7-.02-1.4,.01-2.11-.01-1.14-.04-1.92-.8-1.87-1.79,.04-.97,.77-1.59,1.91-1.62,.2,0,.41-.03,.6,0,.79,.15,1.01-.22,.91-.94-.04-.29-.03-.6,.01-.9,.12-.97,.82-1.59,1.75-1.57,.94,.02,1.6,.66,1.64,1.65,.04,.73,.03,1.47,0,2.2-.02,.41,.11,.72,.45,.94,.36,.23,.54-.15,.76-.3,1.1-.75,2.3-1.22,3.62-1.33,.5-.04,.72-.22,.86-.73,.37-1.29,1.16-2.33,2.34-3,.44-.25,.61-.53,.58-1.02-.04-.63-.03-1.27,0-1.9,.05-.95,.78-1.64,1.68-1.65,.89,0,1.79,.7,1.69,1.61-.17,1.56,.3,2.43,1.83,3.01,1.2,.46,1.94,1.63,2.28,2.9,.16,.6,.43,.74,1.02,.73,1.17-.02,2.29,.33,3.49,.79,0-.79-.02-1.48,0-2.16,.04-1.07,.69-1.72,1.67-1.73,.96,0,1.63,.66,1.74,1.7,.06,.55-.26,1.27,.18,1.6,.35,.26,1.02,.08,1.55,.11,.96,.06,1.66,.75,1.68,1.65,.02,.87-.67,1.64-1.61,1.74-.55,.05-1.12,0-1.8,0,1.22,2.06,1.75,4.14,1.25,6.4-.08,.38,.1,.45,.43,.44,.57-.02,1.14-.02,1.7,0,1.04,.05,1.72,.73,1.71,1.7,0,.97-.68,1.66-1.72,1.7-1.07,.03-2.14,0-3.21,.01-1.29,0-1.72,.67-1.11,1.75,.79,1.39,1.01,2.9,.74,4.44-.11,.61,.1,.66,.57,.63,.43-.02,.87-.03,1.3,0,1.01,.07,1.74,.8,1.74,1.72,0,.93-.73,1.63-1.75,1.69q-1.57,.09-1.66,1.58c-.07,1.12-.72,1.83-1.71,1.83-1.01,0-1.65-.66-1.71-1.8-.01-.22,0-.44,0-.79Zm-2.87-21.45c-2.6-.35-5.04,1.22-5.69,3.66-.42,1.57-.3,1.84,1.11,2.61,.12,.06,.23,.13,.35,.2,.87,.52,1.34,1.63,2.15,2,.81,.37,1.95-.04,2.94,.22,1.49,.4,1.82,.26,2.65-1.04,.51-.8,.77-1.69,.8-2.45,.02-2.64-1.89-4.88-4.3-5.21Zm2.77,15.52c.02-2-1.51-3.57-3.51-3.6-1.98-.03-3.58,1.53-3.6,3.51-.02,1.99,1.52,3.57,3.5,3.6,1.99,.02,3.59-1.53,3.6-3.5Zm-19.14-10.77c.07,.54,.27,.73,.81,.74,1.15,.03,2.26,.32,3.22,.97,.54,.36,.86,.28,1.46,.04,1.3-.51,1.82-1.29,1.7-2.64-.04-.38,.07-.82,.24-1.16,.52-1.07,0-1.66-.85-2.18-.7-.43-1.46-.63-2.19-.68-2.71-.02-4.73,2.31-4.38,4.92Zm2.51,10.63c.55-.38,.88-.76,.48-1.55-.55-1.06-.56-2.27-.27-3.41,.17-.68-.12-.9-.59-1.14-1.27-.67-2.9-.46-4,.51-1.11,.98-1.49,2.51-.97,3.9,.53,1.4,1.8,2.3,3.37,2.31,.68,.03,1.36-.2,1.98-.63Zm7.4,4.97c.16-.27,.24-.51,.04-.83-.55-.89-.95-1.91-2.32-1.74-.33,.04-.71-.16-1.05-.29-1.1-.42-2.05,.23-2.1,1.44-.06,1.58,1.29,2.95,2.9,2.93,1.13-.03,1.97-.54,2.53-1.52Zm-1.86-5.95c.42,.1,.69,.06,.78-.44,.25-1.35,.91-2.5,1.9-3.43,.45-.42,.26-.64-.08-.92-.9-.74-1.9-.94-2.98-.46-1.07,.47-1.64,1.32-1.66,2.24-.01,1.56,.86,2.72,2.03,3.01Zm.92-18.98c-.66,.25-1.17,.67-1.32,1.38-.15,.68,.57,.6,.87,.9,.23,.23,.56,.37,.78,.61,.33,.35,.6,.44,.95,.04,.18-.19,.42-.33,.64-.48,.82-.57,.89-1.05,.25-1.81-.41-.48-.93-.75-1.71-.72-.06,0-.27,0-.46,.07Z"/></g></g></g></svg>