<?xml version="1.0" encoding="utf-8"?>
<!-- Generator: Adobe Illustrator 25.0.0, SVG Export Plug-In . SVG Version: 6.00 Build 0)  -->
<svg version="1.1" xmlns="http://www.w3.org/2000/svg" xmlns:xlink="http://www.w3.org/1999/xlink" x="0px" y="0px"
	 viewBox="0 0 200 200" style="enable-background:new 0 0 200 200;" xml:space="preserve">
<style type="text/css">
	.st0{fill:#FFFFFF;}
	.st1{fill:#70108E;}
</style>
<g id="BACKGROUND">
</g>
<g id="OBJECTS">
	<rect x="0.48" y="0.98" class="st0" width="199.56" height="199.56"/>
	<g>
		<g>
			<path class="st1" d="M117.8,161.4c-11.68,0-23.37,0-35.05,0c-0.02-0.47-0.05-0.94-0.05-1.42c0-8.68,0.01-17.36-0.03-26.05
				c0-0.92-0.18-1.89-0.52-2.74c-2.96-7.53-4.2-15.31-2.93-23.31c0.63-3.94,1.86-7.8,2.9-11.67c0.69-2.54,0.75-5-0.22-7.54
				c-3.08,1.54-6.07,3.04-8.74,4.38c0.58,2.92,1.44,5.63,1.6,8.38c0.57,9.77-6.96,15.25-15.57,12.2c-5.5-1.94-9.44-5.77-12.33-10.71
				c-2.64-4.52-3.94-9.36-2.97-14.63c0.42-2.3,1.48-4.29,3.04-6.02c-0.91-1.28-1.74-2.48-2.61-3.66c-2.52-3.4-4.01-7.17-4.57-11.38
				c-1.32-10.04,6.53-19.19,16.65-19.27c5.29-0.04,10.3,1.17,15.16,3.22c3.28,1.38,6.18,0.7,8.45-1.92
				c4.64-5.35,10.47-8.43,17.52-9.02c9-0.76,16.73,1.94,22.81,8.81c2.5,2.82,5.25,3.53,8.71,2.1c4-1.66,8.12-2.74,12.44-3.13
				c8.91-0.8,16.54,4.21,18.82,12.47c0.22,0.79,0.4,1.59,0.6,2.38c0,1.42,0,2.84,0,4.26c-0.06,0.14-0.16,0.28-0.18,0.42
				c-0.45,4.15-2.09,7.8-4.55,11.13c-0.86,1.17-1.69,2.36-2.56,3.59c2,2.2,3.07,4.74,3.27,7.62c0.68,9.45-5.72,19.76-14.5,23.36
				c-3,1.23-6.07,1.69-9.23,0.65c-4.89-1.62-8.03-6.8-7.39-12.55c0.31-2.74,1.05-5.44,1.62-8.3c-2.74-1.37-5.73-2.86-8.95-4.47
				c-0.21,1.47-0.49,2.77-0.53,4.09c-0.02,0.51,0.35,1.2,0.77,1.52c2.84,2.23,3.94,5.88,2.48,9.09c-0.56,1.23-1.48,2.28-2.29,3.49
				c0.03,0.03,0.14,0.19,0.28,0.32c1.96,1.81,2.71,4.06,2.66,6.69c-0.1,6.02-1.2,11.82-3.42,17.42c-0.34,0.85-0.51,1.82-0.51,2.74
				c-0.05,5.56-0.02,11.12-0.03,16.69C117.84,154.22,117.81,157.81,117.8,161.4z M94.38,157.41c0-0.57,0-1,0-1.43
				c0-5.17-0.1-10.34,0.04-15.51c0.07-2.62-0.51-4.8-2-7.03c-2.74-4.07-2.58-8.39-0.05-12.6c0.49-0.81,1.06-1.57,1.55-2.38
				c0.83-1.41,0.56-2.87-0.7-3.91c-0.67-0.55-1.41-1.02-2.06-1.59c-3.45-3.02-4.98-6.79-4.45-11.39c0.29-2.5,1.56-4.61,2.64-6.79
				c1.67-3.37,1.53-6.61-0.6-9.73c-0.36-0.52-0.7-1.05-1.05-1.58c-6.17-9.36-6.66-19.03-1.66-29.03c0.87-1.75,2.19-2.61,4.14-2.57
				c0.87,0.02,1.74,0,2.6,0c5.84,0,11.68,0.01,17.52-0.01c1.66-0.01,3.05,0.49,3.89,2c3.22,5.83,4.39,12.03,3.25,18.62
				c-0.71,4.11-2.38,7.82-4.74,11.24c-0.77,1.12-1.45,2.31-2.17,3.48c1.39,0.68,2.58,1.26,3.82,1.86c0.23-0.69,0.42-1.41,0.7-2.08
				c0.3-0.73,0.63-1.45,1.02-2.13c3.82-6.69,5.73-13.88,5.72-21.58c0-0.64,0.19-0.99,0.77-1.28c2.91-1.41,5.76-2.92,8.69-4.31
				c9.19-4.34,19.81-1.05,24.97,7.71c0.16,0.28,0.35,0.54,0.6,0.91c1.13-6.84-4.63-13.88-11.61-14.35
				c-5.24-0.36-10.15,0.95-14.95,2.91c-4.7,1.92-9.22,0.88-12.56-2.94c-5.11-5.84-11.52-8.3-19.18-7.83
				c-6.09,0.37-11.15,2.85-15.24,7.37c-0.71,0.79-1.45,1.59-2.3,2.2c-3.43,2.46-7.14,2.74-10.99,1.1
				c-4.15-1.76-8.43-2.85-12.96-2.88c-4.63-0.03-8.35,1.78-11.07,5.53c-1.89,2.6-2.63,5.54-2.28,9.01c0.24-0.35,0.33-0.46,0.4-0.59
				c5.6-9.53,16.15-12.68,26.04-7.76c2.47,1.23,4.92,2.5,7.42,3.67c0.9,0.42,1.23,0.93,1.24,1.95c0.03,7.11,1.61,13.88,5.16,20.05
				c2.87,5.01,3.31,10.03,1.36,15.43c-3.8,10.51-3.45,20.95,0.78,31.29c0.32,0.77,0.47,1.67,0.48,2.51
				c0.04,7.66,0.02,15.31,0.02,22.97c0,0.46,0,0.92,0,1.45C89.22,157.41,91.73,157.41,94.38,157.41z M97.35,106.51
				c-0.09-0.1-0.22-0.24-0.36-0.38c-3.92-4.07-3.4-9.16,1.26-12.4c0.27-0.19,0.51-0.48,0.65-0.78c1.44-2.94,3.76-4.79,6.92-5.63
				c0.3-0.08,0.66-0.27,0.81-0.52c1.35-2.35,2.64-4.73,3.97-7.08c4.35-7.67,4.45-15.43,0.49-23.26c-0.16-0.32-0.69-0.64-1.06-0.64
				c-6.51-0.04-13.02-0.04-19.52,0c-0.37,0-0.91,0.3-1.07,0.62c-3.13,5.98-3.73,12.2-1.66,18.65c0.98,3.05,2.78,5.63,4.51,8.27
				c1.92,2.94,2.65,6.2,1.77,9.6c-0.53,2.07-1.53,4.03-2.45,5.98c-0.79,1.69-1.27,3.4-1.05,5.25c0.32,2.81,1.73,4.95,3.92,6.39
				C95.48,109.17,96.37,107.9,97.35,106.51z M129.6,89.77c1.92-2.88,4.09-5.33,6.84-7.17c4.08-2.73,8.4-4.33,13.38-2.72
				c0.25,0.08,0.75-0.15,0.92-0.39c1.19-1.62,2.4-3.23,3.45-4.94c0.37-0.6,0.54-1.5,0.42-2.19c-1.83-10.1-12.51-15.53-21.8-11.1
				c-2.13,1.02-4.22,2.13-6.35,3.15c-0.61,0.29-0.78,0.68-0.87,1.34c-0.4,3.08-0.64,6.21-1.41,9.2c-0.9,3.48-2.31,6.82-3.53,10.34
				C123.47,86.71,126.48,88.22,129.6,89.77z M80.17,85.16c-3.23-6.3-5.04-12.85-5.3-19.81c-0.01-0.29-0.36-0.67-0.66-0.82
				c-2.31-1.19-4.61-2.42-6.98-3.48c-9.13-4.1-19.6,1.49-21.33,11.37c-0.12,0.66,0.05,1.52,0.4,2.09c1.06,1.71,2.29,3.3,3.42,4.97
				c0.37,0.54,0.72,0.55,1.28,0.35c2.11-0.72,4.25-0.75,6.41-0.24c5.46,1.29,9.47,4.63,12.73,9.04c0.27,0.37,0.54,0.74,0.82,1.14
				C74.07,88.21,77.06,86.72,80.17,85.16z M113.01,106.64c1.25-1.2,2.35-2.21,3.4-3.27c2.3-2.31,1.86-5.09-1.05-6.54
				c-0.71-0.36-1.15-0.78-1.42-1.57c-0.91-2.68-3.17-4.25-5.91-4.24c-2.67,0.01-4.91,1.59-5.8,4.22c-0.27,0.79-0.69,1.23-1.41,1.58
				c-2.93,1.46-3.39,4.23-1.08,6.53c1.08,1.07,2.23,2.07,3.43,3.17c-1.35,1.34-2.48,2.44-3.58,3.56c-2.06,2.1-1.63,4.94,1,6.25
				c0.87,0.43,1.39,0.97,1.72,1.9c0.88,2.47,3.15,4.03,5.69,4.06c2.58,0.03,4.92-1.52,5.83-4.03c0.33-0.92,0.84-1.48,1.71-1.91
				c2.69-1.35,3.1-4.18,0.96-6.33C115.43,108.92,114.31,107.88,113.01,106.64z M59.22,97.59c-1.15-0.36-2.04-0.69-2.94-0.91
				c-2.44-0.61-4.62-0.08-6.41,1.71c-0.26,0.26-0.47,0.9-0.33,1.17c2.53,5,6.14,8.89,11.65,10.57c4.96,1.51,8.85-0.88,9.56-6.03
				c0.85-6.11-1.75-11.12-5.74-15.53c-0.16-0.18-0.63-0.23-0.9-0.14c-3.03,0.96-4.8,3.33-4.88,6.51
				C59.2,95.75,59.22,96.57,59.22,97.59z M141.33,97.58c0-0.96,0.01-1.71,0-2.45c-0.05-3.3-1.71-5.62-4.82-6.68
				c-0.29-0.1-0.82-0.05-1,0.15c-3.84,4.2-6.24,9.01-5.83,14.84c0.37,5.19,4.18,8.05,9.14,6.79c5.84-1.48,9.56-5.54,12.21-10.71
				c0.13-0.25-0.06-0.84-0.3-1.08c-1.82-1.83-4.01-2.39-6.5-1.75C143.32,96.92,142.44,97.23,141.33,97.58z M113.98,157.4
				c0-0.54,0-1,0-1.47c0-7.7-0.01-15.39,0.02-23.09c0-0.76,0.2-1.55,0.43-2.28c1.02-3.26,2.09-6.5,3.14-9.74
				c-0.13-0.05-0.27-0.1-0.4-0.15c-0.21,0.32-0.41,0.63-0.62,0.95c-1.03,1.55-2.29,2.99-4.05,3.49c-2.04,0.59-2.9,1.62-2.56,3.69
				c0.02,0.15-0.06,0.31-0.09,0.46c-0.38,2.47-1.79,4.42-3.1,6.44c-0.34,0.52-0.56,1.22-0.57,1.84c-0.04,6.24-0.02,12.47-0.02,18.71
				c0,0.38,0,0.76,0,1.15C108.83,157.4,111.34,157.4,113.98,157.4z M98.04,119.29c-0.92,1.42-1.72,2.59-2.46,3.8
				c-2.02,3.29-1.17,8.53,1.73,10.74c1.98-0.01,3.97-0.01,5.95-0.02c1.5-2.14,3.1-4.24,2.85-7.07c-0.03-0.32-0.39-0.78-0.69-0.88
				c-2.99-0.94-5.17-2.78-6.54-5.61C98.71,119.92,98.36,119.66,98.04,119.29z M139.46,85.42c2.72,1.54,4.53,3.67,5.41,6.57
				c0.07,0.25,0.65,0.48,0.99,0.49c1.89,0.05,3.67,0.47,5.31,1.4c0.49,0.28,0.98,0.58,1.49,0.89c1.07-4.56-0.09-8.71-2.86-10.52
				C147.16,82.52,142.78,82.97,139.46,85.42z M47.87,94.84c2.23-1.64,4.61-2.43,7.26-2.37c0.21,0,0.47-0.49,0.65-0.79
				c0.89-1.43,1.65-2.95,2.67-4.27c0.64-0.83,1.66-1.38,2.52-2.05c-2.98-2.33-7.44-2.84-10.1-1.17
				C47.99,85.97,46.83,89.93,47.87,94.84z M98.4,137.98c0,1.3,0,2.5,0,3.73c1.29,0,2.51,0,3.72,0c0-1.3,0-2.5,0-3.73
				C100.87,137.98,99.7,137.98,98.4,137.98z M98.4,145.8c0,1.31,0,2.51,0,3.79c1.26,0,2.46,0,3.72,0c0-1.28,0-2.52,0-3.79
				C100.87,145.8,99.69,145.8,98.4,145.8z M102.15,153.67c-1.29,0-2.52,0-3.73,0c0,1.29,0,2.5,0,3.73c1.28,0,2.48,0,3.73,0
				C102.15,156.11,102.15,154.91,102.15,153.67z"/>
			<path class="st1" d="M113.96,112.48c0.01,1.03-0.9,1.97-1.94,1.98c-1.04,0.01-1.96-0.89-1.98-1.94
				c-0.02-1.04,0.89-1.97,1.93-1.98C113.02,110.53,113.95,111.44,113.96,112.48z"/>
			<path class="st1" d="M104.13,102.69c-1.08-0.02-1.94-0.91-1.91-1.97c0.03-1.06,0.92-1.9,2-1.87c1.08,0.02,1.94,0.91,1.91,1.97
				C106.11,101.88,105.21,102.71,104.13,102.69z"/>
			<path class="st1" d="M104.16,114.46c-1.04-0.01-1.95-0.95-1.94-1.98c0.01-1.04,0.94-1.95,1.98-1.94
				c1.04,0.01,1.95,0.94,1.94,1.98C106.13,113.56,105.19,114.47,104.16,114.46z"/>
			<path class="st1" d="M111.99,98.84c1.08-0.01,1.96,0.85,1.97,1.91c0.01,1.06-0.87,1.93-1.94,1.94c-1.08,0.01-1.96-0.85-1.97-1.91
				C110.04,99.72,110.91,98.85,111.99,98.84z"/>
		</g>
	</g>
</g>
</svg>
