<?xml version="1.0" encoding="UTF-8"?><svg xmlns="http://www.w3.org/2000/svg" viewBox="0 0 204.63 204.63"><defs><style>.d{fill:#fff;}.e{fill:#653f8c;}</style></defs><g id="a"/><g id="b"><g id="c"><circle class="d" cx="102.32" cy="102.32" r="102.32"/><g><path class="e" d="M126.05,152.32c3.91,0,7.68,.03,11.45-.02,.89-.01,1.14,.18,1.11,1.1-.07,2.37-.02,2.38-2.4,2.38-24.43,0-48.86,0-73.29,0-4.07,0-7.16-2.88-7.24-6.7-.08-3.71,2.7-6.79,6.42-7.07,.5-.04,.81-.11,1.08-.63,.95-1.85,2.52-2.84,4.6-2.83,2.08,0,3.61,1.02,4.61,2.84,.1,.19,.07,.53,.53,.53,0-1.81,.06-3.62-.03-5.42-.05-.95-.86-1.42-2.08-1.42-4.46,0-8.92,.02-13.39-.01-2.94-.02-5.22-2.33-5.2-5.2,.01-2.73,2.2-5.02,4.94-5.13,1.26-.05,2.52,0,3.78-.02,2.17-.05,4.01-1.39,4.65-3.44-2.03,0-4.03,0-6.03,0-2.51,0-3.89-1.36-3.9-3.84,0-.93,0-1.87,0-2.8,.02-1.94,.98-3.23,2.85-3.64,.51-.11,.64-.25,.61-.74-.04-.86,.28-1.9-.1-2.54-.4-.66-1.51-.19-2.31-.25-4.34-.35-7.92-3.98-7.94-8.33-.05-13.97-.05-27.94,0-41.91,.02-4.53,3.81-8.3,8.35-8.34,7.09-.06,14.18-.06,21.27,0,4.54,.04,8.33,3.81,8.34,8.35,.05,13.97,.04,27.94,0,41.91,0,2.79-1.3,5.07-3.61,6.64-.85,.58-.93,.98-.45,1.82,.98,1.72,.87,3.46-.35,5.03-1.51,1.95-3.66,1.99-5.8,1.6-1.91-.34-3.06-1.65-3.5-3.53-.25-1.09,.03-2.13,.56-3.23-1.28,0-2.45,.01-3.62,0-.38,0-.5,.13-.49,.5,.02,.83,.02,1.65,0,2.48-.01,.37,.14,.43,.48,.52,2.14,.57,2.98,1.68,2.98,3.85,0,.97,.01,1.94,0,2.91-.03,1.86-1.17,3.23-3.01,3.49-.57,.08-.68,.34-.81,.76-1.27,3.88-4.41,6.17-8.5,6.19-1.01,0-2.02-.02-3.02,0-1.18,.02-1.93,.71-1.92,1.73,0,1.02,.75,1.71,1.94,1.71,4.32,.01,8.64,0,12.95,0,3.75,0,5.83,2.06,5.83,5.77,0,1.29,.03,2.59-.01,3.88-.02,.58,.17,.72,.72,.71,1.8-.03,3.6-.06,5.4,0,.78,.03,.93-.27,.99-.97,.71-8.49,4.25-15.62,10.46-21.42,3.4-3.18,7.34-5.49,11.77-6.95,.57-.19,.99-.47,1.36-.96,1.61-2.09,2.89-4.35,4.01-6.73,.43-.91,.11-1.03-.71-1.13-6.42-.79-11.18-6.38-10.88-12.73,.08-1.71,.57-3.32,1.33-4.84,.31-.61,.25-.95-.38-1.24-.45-.21-.86-.52-1.27-.8-1.55-1.08-2.32-2.57-2.01-4.45,.32-1.95,1.56-3.2,3.46-3.72,1.31-.36,2.65-.64,3.98-.93,.79-.17,1.35-.57,1.75-1.29,1.81-3.28,4.39-5.83,7.63-7.72,.47-.27,.63-.52,.52-1.1-.4-2.23,.03-4.38,1.43-6.11,3.3-4.05,7.1-7.49,12.27-9.11,12.63-3.94,25.91,4.59,27.44,17.72,.82,7.02-1.44,12.99-6.43,17.96-1.73,1.72-1.74,1.74,.33,3.08,1.91,1.24,3.79,2.5,4.91,4.57,1.94,3.59,1.82,7.14-.22,10.64-4.26,7.31-8.51,14.62-12.76,21.93-4.96,8.52-9.91,17.04-14.86,25.56-.17,.3-.34,.6-.59,1.02ZM83.31,58.03c0-3.59-2.1-5.7-5.68-5.7-6.55,0-13.1,0-19.65,0-3.67,0-5.77,2.08-5.77,5.72,0,13.43,0,26.86,0,40.29,0,3.59,2.1,5.7,5.68,5.7,6.55,0,13.1,0,19.65,0,3.67,0,5.77-2.09,5.77-5.72,0-6.72,0-13.43,0-20.15s0-13.43,0-20.15Zm44.23-4.27c-3.31,1.34-5.68,3.85-8.09,6.32-1.96,2.01-2.16,4.68-.5,6.96,5.24,7.16,10.49,14.3,15.75,21.44,1.57,2.13,4.29,2.33,6.18,.47,2.21-2.17,4.46-4.29,6.55-6.57,5.14-5.63,6.37-12.1,3.54-19.15-2.68-6.68-9.24-10.9-17.22-10.9-1.63,.02-3.95,.52-6.21,1.44Zm-35.81,88.2c5.39-.14,10.09-2.03,14.05-5.69,3-2.77,5-6.16,6.04-10.11,.71-2.69,2.43-4.32,5.19-4.82,.27-.05,.77-.26,.81,.16,.09,1,.04,2.01,.02,3.01,0,.25-.24,.21-.4,.24-1.38,.27-2.02,1.22-2.36,2.5-1.08,4.07-3.12,7.61-6.05,10.62-.43,.45-.42,.65,.05,1.05,2.24,1.91,4.46,3.85,6.66,5.82,.44,.4,.69,.38,1.15,.03,8.79-6.75,10.47-19.21,3.76-28.02q-1.82-2.39-4.82-2.36c-15.37,.17-28,12.17-28.93,27.57,1.62,0,3.23,.04,4.84,0Zm26.1-31.01c.61,.02,.96-.17,1.3-.69,1.77-2.7,3.56-5.39,5.38-8.06,.39-.57,.52-1.13,.45-1.8-.55-5.24,.27-10.3,2.24-15.17,.21-.52,.22-.89-.13-1.36-3.55-4.79-7.08-9.59-10.59-14.41-.36-.5-.59-.5-1.09-.19-2.41,1.53-4.45,3.44-5.81,5.95-1.02,1.89-2.5,2.98-4.59,3.36-1.09,.2-2.17,.48-3.25,.74-.55,.13-1.04,.37-1.13,1-.09,.59,.31,.91,.75,1.19,1.22,.76,2.42,1.55,3.65,2.28,.47,.28,.54,.52,.31,1.02-.68,1.46-1.31,2.94-1.93,4.42-.11,.25-.32,.51,.03,.86,1.73,1.74,3.82,2.23,6.1,1.32,.3-.12,.52-.22,.72,.12,.49,.86,1.69,1.68,1.43,2.48-.26,.8-1.63,.99-2.62,1.23-1.95,.47-3.74-.01-5.65-.98,.17,.43,.26,.69,.37,.93,2.12,4.7,7.76,6.67,12.82,4.47,.75-.32,1.73-1.11,2.19-.87,.62,.32,.83,1.42,1.21,2.19,.03,.06,.04,.14,.08,.2,.3,.41,.12,.6-.3,.79-1.27,.59-2.52,1.23-3.87,1.59-.32,.08-.66,.1-.78,.47-.85,2.47-2,4.81-3.47,7.23,2.19-.28,4.19-.39,6.18-.31Zm-11.38,30.23c-.46-.41-.74-.43-1.25-.08-4.31,2.94-9.09,4.34-14.31,4.32-6.41-.02-12.81,0-19.22-.01-.71,0-1.57,.29-2.07-.15-.31-.28-.06-1.15-.15-1.75-.14-.93-.71-1.47-1.67-1.53-.9-.05-1.64,.63-1.75,1.56-.04,.39-.05,.79,0,1.18,.07,.59-.17,.73-.72,.7-.97-.04-1.94-.04-2.91,0-1.5,.06-2.71,1.05-3.15,2.52-.4,1.33,.08,2.75,1.22,3.65,.75,.58,1.6,.73,2.53,.73,10.36-.01,20.73,0,31.09,0,1.76,0,3.52,0,5.28-.21,5-.58,9.64-2.17,14-4.85-2.34-2.05-4.66-4.04-6.93-6.07Zm14.62,11.16c.76,.01,1.13-.27,1.49-.89,8-13.8,16.03-27.58,24.04-41.37,.19-.33,.47-.62,.51-1.08-1.56,.28-3.1,.3-4.63,0-.43-.09-.59,.03-.75,.47-1.04,2.99-3.25,5.25-4.85,8.05l-2.67-3.96c-.1,.22-.13,.32-.19,.41-2.03,3.05-4.05,6.09-6.1,9.13-.27,.4-.27,.74-.19,1.2,1.32,6.94-.15,13.26-4.44,18.87-3.08,4.03-7.21,6.73-11.68,9.15,3.15,0,6.3-.03,9.46,.02Zm6.72-48.54c-.32,.09-.45,.35-.6,.58-1.72,2.56-3.42,5.13-5.14,7.68-.22,.32-.33,.56-.03,.92,1.65,1.93,3.09,4,4.19,6.47,2.03-3.04,3.97-5.96,5.93-8.86,.24-.35,.06-.61-.03-.9-.62-1.95-.55-3.87,.09-5.81,.21-.63,.56-1.23,.53-2.08-1.63,.9-3.24,1.54-4.93,1.99Zm23.75-2.23c1.69-3.24,.83-6.82-2.16-8.94-1.2-.85-2.47-1.6-3.65-2.47-.58-.43-.9-.3-1.33,.16-.98,1.05-1.99,2.06-3.31,2.71-.62,.3-.81,1-1.03,1.57-.16,.4,.46,.55,.66,.88,.28,.46,.61,.89,.86,1.36,.14,.27,.26,.47,.59,.54,3.79,.81,6.22,3.2,7.87,6.83,.57-.98,1.07-1.8,1.51-2.64Zm-23.29-2.75q.07,1.25,1.25,.73c.16-.07,.32-.15,.49-.22,1.01-.43,1.75-.97,2.07-2.19,.44-1.7,1.76-2.73,3.46-3.22,.3-.09,.64-.06,.98-.39-3.33-.55-4.75-3.28-6.61-5.73-1.31,4.01-1.83,7.65-1.64,11.02Zm-61.31,19.03c2.58,0,2.56,0,2.56-2.64,0-.66-.16-.84-.83-.83-2.3,.05-4.6,.02-6.91,.02-2.74,0-2.72,0-2.66,2.74,.01,.56,.14,.73,.72,.72,1.47-.04,2.95-.01,4.42-.01,.9,0,1.8,0,2.7,0Zm75.4-16.84c-.26-.09-.51-.34-.83,.06-1.07,1.34-1.11,1.5-.32,3.05,.11,.22,.23,.44,.31,.68,.11,.34,.3,.5,.66,.6,1.51,.38,3.02,.55,4.61,.13-.87-2.15-2.25-3.73-4.44-4.52Zm-4.96,3.47c-.36-.49-.79-.4-1.22-.44-.54-.06-.48,.44-.59,.73-.93,2.38-.33,4.46,1.28,6.44,2.15-2.8,2.24-4.43,.54-6.73Zm-71.35,4.71q0-1.67-1.67-1.67t-1.78,1.77,1.67,1.67,1.78-1.77Zm70.82-12.01c-.93,0-1.71,.76-1.72,1.69-.02,.97,.8,1.78,1.77,1.75,.93-.03,1.68-.82,1.67-1.75-.01-.93-.8-1.69-1.72-1.69Zm-57.02,12.69c.04-.89-1.07-2.37-1.7-2.35-.66,.01-1.76,1.44-1.72,2.35,.05,1.11,.87,1.14,1.71,1.1,.83,.04,1.65,0,1.71-1.09Zm31.65-31.67c-.42-.03-.53,.13-.55,.54-.09,2.24,.48,4.2,2.45,5.5,1.93,1.28,3.85,1.03,5.77-.09,1.24-.72,1.26-.69,.54-2q-.9-1.66-2.63-.81c-1.25,.62-2.4,.05-2.63-1.33-.05-.31-.07-.65-.03-.96,.11-.72-.2-.96-.88-.86-.25,.04-.5,0-.75,0-.43,0-.86,.02-1.29,0Z"/><path class="e" d="M79.86,74.85c0,2.73,0,5.45,0,8.18,0,2.35-1.4,3.77-3.74,3.77-5.57,0-11.14,0-16.72,0-2.29,0-3.72-1.42-3.73-3.68-.01-5.6-.01-11.19,0-16.79,0-2.2,1.44-3.66,3.63-3.66,5.64-.01,11.29-.01,16.93,0,2.2,0,3.61,1.45,3.62,3.67,.01,2.83,0,5.67,0,8.5Zm-4.51,8.53c.78,.01,1.09-.11,1.08-1.01-.05-5.1-.05-10.2,0-15.3,0-.86-.27-.97-1.02-.96-5.11,.03-10.22,.04-15.33,0-.86,0-.97,.27-.97,1.02,.03,5.1,.04,10.2,0,15.3,0,.86,.27,.98,1.02,.96,2.52-.05,5.04-.02,7.56-.02s5.11-.03,7.66,.02Zm-4.16-10.36q-1.69,0-1.69-1.65t-1.76-1.8-1.69,1.65-1.76,1.8-1.69,1.65,1.76,1.8,1.69,1.65q0,1.8,1.76,1.8,1.69,0,1.69-1.65,0-1.8,1.76-1.8,1.69,0,1.69-1.65,0-1.8-1.76-1.8Z"/></g></g></g></svg>