<?xml version="1.0" encoding="utf-8"?>
<!-- Generator: Adobe Illustrator 25.0.0, SVG Export Plug-In . SVG Version: 6.00 Build 0)  -->
<svg version="1.1" xmlns="http://www.w3.org/2000/svg" xmlns:xlink="http://www.w3.org/1999/xlink" x="0px" y="0px"
	 viewBox="0 0 200 200" style="enable-background:new 0 0 200 200;" xml:space="preserve">
<style type="text/css">
	.st0{fill:#FFFFFF;}
	.st1{fill:#70108E;}
</style>
<g id="BACKGROUND">
</g>
<g id="OBJECTS">
	<rect x="0.48" y="0.98" class="st0" width="199.56" height="199.56"/>
	<g>
		<g>
			<path class="st1" d="M39.22,121.71c0.15-1.03,0.31-2.06,0.45-3.1c0.5-3.85,1.72-7.49,3.37-10.97
				c10.22-21.61,20.46-43.21,30.71-64.81c0.23-0.48,0.49-1,0.87-1.35c0.96-0.88,2.33-0.54,2.99,0.74c0.69,1.34,1.31,2.73,1.96,4.1
				c5.93,12.52,11.86,25.05,17.79,37.57c0.16,0.35,0.35,0.68,0.53,1.01c2.06-0.92,4.02-1.97,6.08-2.71
				c13.56-4.85,26.32-3.16,38.04,5.2c8.45,6.03,13.78,14.31,15.77,24.48c2.57,13.08-0.58,24.82-9.37,34.91
				c-5.8,6.66-13.11,10.9-21.73,12.73c-10.1,2.14-19.7,0.63-28.64-4.57c-1.18-0.68-1.92-0.62-3.08,0.05
				c-12.46,7.25-25.11,7.43-37.63,0.32c-9.31-5.28-14.94-13.48-17.32-23.89c-0.39-1.73-0.54-3.51-0.8-5.27
				C39.22,124.67,39.22,123.19,39.22,121.71z M93.07,151.65c-0.39-0.33-0.71-0.6-1.02-0.88c-10.65-9.46-15.53-21.29-13.99-35.46
				c1.23-11.32,6.69-20.45,15.68-27.44c0.64-0.5,0.87-0.86,0.47-1.69c-5.98-12.54-11.92-25.1-17.88-37.65
				c-0.14-0.3-0.32-0.58-0.54-0.98c-0.26,0.52-0.46,0.89-0.64,1.27c-9.5,20.06-19,40.12-28.51,60.18c-2.1,4.44-3.41,9.06-3.52,14
				c-0.19,8.45,2.41,15.93,7.97,22.26c7.22,8.21,16.42,11.87,27.31,11.18C83.64,156.12,88.51,154.5,93.07,151.65z M154.78,119.95
				c-0.07-20.2-16.43-36.55-36.58-36.55c-20.2,0.01-36.7,16.54-36.58,36.66c0.13,20.24,16.57,36.62,36.63,36.49
				C138.5,156.43,154.85,140.05,154.78,119.95z"/>
			<path class="st1" d="M46.95,123.89c0.03-4.55,1.03-8.67,2.88-12.58c6.9-14.6,13.82-29.19,20.73-43.79
				c0.13-0.27,0.3-0.53,0.47-0.83c1.13,0.53,2.21,1.05,3.38,1.6c-0.2,0.46-0.37,0.87-0.56,1.28c-6.73,14.21-13.45,28.42-20.19,42.62
				c-1.62,3.4-2.75,6.93-2.8,10.73c-0.01,0.76-0.29,1.03-1.04,0.98C48.9,123.85,47.98,123.89,46.95,123.89z"/>
			<path class="st1" d="M74.08,60.1c1.21,0.58,2.29,1.09,3.47,1.65c-0.5,1.07-0.97,2.07-1.5,3.18c-1.19-0.57-2.3-1.09-3.47-1.65
				C73.09,62.21,73.56,61.2,74.08,60.1z"/>
			<path class="st1" d="M118.3,89.16c4.8,0.11,9.11,1.38,12.78,4.48c5.8,4.9,5.95,12.58,0.35,17.69c-6.72,6.15-18.84,6.4-25.83,0.54
				c-6.52-5.47-6.24-13.91,0.64-18.96C109.84,90.26,113.95,89.19,118.3,89.16z M119.32,112.27c1.27,0,4.05-0.55,6.22-1.57
				c2.22-1.05,4.11-2.52,5.3-4.73c1.9-3.55,0.5-7.98-3.42-10.31c-6.1-3.62-12.38-3.73-18.4,0.02c-5.38,3.35-5.78,9.26-1,13.19
				C110.97,111.31,114.46,112.18,119.32,112.27z"/>
			<path class="st1" d="M116.22,135.16c0.09,8.34-6.75,13.15-14.9,11.44c-8.24-1.73-14.93-9.27-15.76-17.57
				c-0.74-7.45,4.51-13.08,12.02-12.9C107.04,116.36,116.2,125.72,116.22,135.16z M98.23,120.04c-6.15-0.17-9.59,3.8-8.83,9.18
				c1.01,7.11,7.5,13.25,14.65,13.86c4.51,0.38,8.08-2.68,8.33-7.18c0.2-3.69-1.2-6.85-3.48-9.63
				C105.93,122.64,102.18,120.34,98.23,120.04z"/>
			<path class="st1" d="M132.25,146.92c-7.69,0.05-12.73-5.52-12.04-12.96c0.79-8.49,8.37-16.47,16.78-17.66
				c9.1-1.29,15.45,5.46,13.63,14.47c-1.64,8.13-8.72,14.85-16.93,16.05C133.11,146.92,132.52,146.91,132.25,146.92z M147.07,127.62
				c-0.06-0.54-0.06-1.21-0.21-1.85c-0.97-4.25-4.95-6.53-9.68-5.59c-6.67,1.34-12.19,7.21-13.12,13.95
				c-0.75,5.38,3.23,9.48,8.61,8.91c4.61-0.49,8.15-2.83,10.99-6.34C145.77,134.09,147.05,131.15,147.07,127.62z"/>
			<path class="st1" d="M124.6,101.59c-4.33,1.38-8.51,1.35-12.78,0.01c0.41-1.23,0.79-2.36,1.23-3.64c3.4,1,6.8,1.07,10.29-0.02
				C123.75,99.15,124.15,100.31,124.6,101.59z"/>
			<path class="st1" d="M106.47,134.77c-4.2-1.64-7.41-4.29-9.88-8.09c1.06-0.67,2.09-1.31,3.25-2.04c2.01,2.96,4.61,5.19,7.99,6.52
				C107.36,132.4,106.93,133.55,106.47,134.77z"/>
			<path class="st1" d="M136.54,124.63c1.17,0.73,2.19,1.37,3.27,2.05c-2.43,3.77-5.65,6.42-9.88,8.1
				c-0.45-1.19-0.88-2.34-1.35-3.59C131.89,129.81,134.55,127.68,136.54,124.63z"/>
		</g>
	</g>
</g>
</svg>
