<?xml version="1.0" encoding="utf-8"?>
<!-- Generator: Adobe Illustrator 25.0.0, SVG Export Plug-In . SVG Version: 6.00 Build 0)  -->
<svg version="1.1" xmlns="http://www.w3.org/2000/svg" xmlns:xlink="http://www.w3.org/1999/xlink" x="0px" y="0px"
	 viewBox="0 0 200 200" style="enable-background:new 0 0 200 200;" xml:space="preserve">
<style type="text/css">
	.st0{fill:#FFFFFF;}
	.st1{fill:#70108E;}
</style>
<g id="BACKGROUND">
</g>
<g id="OBJECTS">
	<rect x="0.48" y="-1.67" class="st0" width="199.56" height="199.56"/>
	<g>
		<g>
			<path class="st1" d="M131.66,36.32c1.88,0.39,3.81,0.62,5.63,1.19c12.98,4.08,20.92,12.86,22.68,26.32
				c1.71,13.07-3.6,23.34-14.55,30.68c-0.27,0.18-0.54,0.34-0.81,0.52c-0.03,0.02-0.05,0.06-0.14,0.2c1,2.5,1.55,5.18,1.19,7.92
				c-0.25,1.93-0.9,3.81-1.32,5.72c-0.11,0.49-0.19,1.1,0,1.53c1.88,4.21,1.88,8.39,0.01,12.61c-0.19,0.42-0.16,1.09,0.03,1.52
				c2.72,6,1.3,12.83-3.61,17.16c-4.79,4.23-11.82,4.75-17.36,1.26c-0.56-0.35-0.9-0.38-1.48-0.02c-4.54,2.82-9.27,3.07-14.16,0.92
				c-0.4-0.18-0.95-0.07-1.43-0.03c-0.23,0.02-0.44,0.19-0.66,0.29c-2.28,0.98-2.28,0.97-2.28,3.53c0,3.1,0.01,6.19,0,9.29
				c-0.01,2.07-0.88,2.96-2.93,2.96c-3.34,0.01-6.68,0-10.02,0c-2.64,0-3.4-0.74-3.4-3.35c0-6.03,0.01-12.07-0.02-18.1
				c0-0.7-0.16-1.44-0.42-2.08c-2.25-5.51-0.99-11.77,3.23-15.92c4.25-4.17,10.5-5.36,15.95-2.96c0.88,0.39,1.56,0.44,2.46,0.02
				c2.34-1.08,4.83-1.48,7.41-1.13c0.31,0.04,0.62,0.05,0.66,0.05c0.71-2.22,1.38-4.3,2.02-6.39c0.07-0.24,0.06-0.57-0.05-0.8
				c-1.89-3.81-2.04-7.71-0.65-11.7c0.02-0.07-0.01-0.16,0.01,0.09c-2.88-1.8-5.77-3.27-8.28-5.22
				c-6.35-4.93-10.19-11.47-11.54-19.42c-0.15-0.88-0.52-1.21-1.37-1.6c-2.36-1.06-4.47-0.9-6.91-0.04
				c-3.28,1.16-6.66,0.61-9.86-0.86c-0.36-0.16-0.89-0.31-1.2-0.16c-2.92,1.37-5.95,1.58-9.07,1c-0.11-0.02-0.24,0-0.46,0
				c0.07,0.77,0.16,1.5,0.21,2.24c0.18,2.54-0.29,4.95-1.33,7.28c-0.19,0.43-0.19,1.09,0,1.51c2.77,6.09,1.33,12.93-3.76,17.31
				c-0.63,0.54-0.85,1.07-0.81,1.85c0.18,3.46-0.7,6.61-2.85,9.36c-3.3,4.22-8.11,4.22-11.4,0c-2.08-2.67-3.04-5.73-2.82-9.12
				c0.07-0.97-0.25-1.6-1-2.24c-4.84-4.12-6.34-11.09-3.67-16.9c0.33-0.71,0.37-1.26,0.04-2c-2.12-4.75-1.79-9.38,0.92-13.81
				c0.41-0.66,0.37-1.06-0.03-1.69c-3.63-5.76-2.79-13.18,1.99-17.96c4.83-4.83,12.24-5.66,18.06-1.97
				c0.61,0.38,0.99,0.37,1.59-0.01c4.51-2.77,9.2-3.03,14.05-0.9c0.43,0.19,1.09,0.19,1.53-0.01c4.18-1.85,8.32-1.86,12.5-0.01
				c0.47,0.21,1.17,0.19,1.65,0c4.34-1.79,8.68-1.86,13.01-0.06c0.7,0.29,1.07,0.12,1.57-0.31c4.91-4.17,10.56-6.66,16.99-7.36
				c0.23-0.03,0.45-0.13,0.68-0.2C127.96,36.32,129.81,36.32,131.66,36.32z M104.17,48.28c-3.36-0.9-6.44-0.79-9.27,0.93
				c-1.4,0.85-2.51,0.79-3.88-0.04c-3.35-2.03-6.81-2.02-10.15,0.03c-1.39,0.85-2.51,0.85-3.88-0.02
				c-3.63-2.31-8.18-1.89-11.42,0.92c-1.87,1.62-2.62,1.61-4.46,0.02c-2.19-1.88-4.73-2.72-7.59-2.3c-3.83,0.56-6.52,2.67-7.84,6.31
				c-1.32,3.64-0.55,6.96,2,9.86c1.26,1.43,1.3,2.47,0.15,3.83c-3.33,3.94-3.66,7.87-1,12.29c0.6,1,0.67,1.98,0.01,2.94
				c-3.38,4.86-1.62,11.16,2.94,13.88c0.91,0.55,1.3,1.37,1.28,2.43c-0.02,1.29-0.04,2.58,0.01,3.86c0.07,2.01,0.9,3.74,2.24,5.2
				c1,1.08,1.88,1.08,2.88,0.01c1.45-1.55,2.24-3.41,2.29-5.56c0.03-1.21,0.02-2.41,0-3.62c-0.02-1.02,0.37-1.79,1.24-2.32
				c4.97-3,6.08-9.51,2.95-13.88c-0.68-0.96-0.6-1.92,0-2.93c2.69-4.48,2.34-8.35-1.07-12.38c-0.9-1.06-0.96-2.35-0.17-3.29
				c0.82-0.97,2.01-1.11,3.26-0.4c0.94,0.54,1.86,1.13,2.84,1.57c3.41,1.54,6.8,1.84,10.09-0.38c0.99-0.67,1.96-0.46,2.93,0.15
				c3.62,2.28,7.27,2.27,10.88-0.02c1.08-0.68,2.07-0.68,3.15,0c0.84,0.52,1.75,0.92,2.8,1.47C97.74,59.85,99.93,53.79,104.17,48.28
				z M98.49,155.02c0.05-0.21,0.08-0.28,0.09-0.36c0.01-3.78,0.01-7.56,0.02-11.34c0.01-1.92,0.74-2.61,2.58-3
				c1.39-0.29,2.8-0.75,4.03-1.45c1.32-0.74,2.38-0.82,3.67,0.01c3.75,2.39,8.27,2.01,11.63-0.89c1.76-1.52,2.6-1.51,4.38,0.03
				c2.45,2.12,5.3,2.86,8.43,2.17c6.66-1.48,9.69-8.89,6.05-14.69c-0.69-1.09-0.91-2.09-0.18-3.24c2.37-3.69,2.36-7.4,0-11.09
				c-0.63-0.99-0.6-1.92-0.02-2.94c0.51-0.9,1.01-1.85,1.28-2.84c0.74-2.73,0.69-5.44-0.43-8.16c-5.78,2.11-11.59,2.57-17.53,1.39
				c-1.39,3.31-1.17,6.39,0.68,9.31c0.69,1.09,0.91,2.13,0.16,3.25c-1.68,2.52-2.16,5.23-1.38,8.17c0.26,0.97,0,1.84-0.79,2.5
				c-0.79,0.65-1.67,0.73-2.6,0.33c-0.22-0.1-0.44-0.2-0.66-0.29c-3.08-1.25-6.08-1.09-8.89,0.68c-1.37,0.87-2.5,0.87-3.88,0
				c-3.66-2.32-8.33-1.87-11.52,0.98c-3.23,2.89-4.12,7.48-2.29,11.47c0.35,0.77,0.55,1.68,0.56,2.53
				c0.05,5.39,0.03,10.78,0.03,16.17c0,0.43,0,0.85,0,1.31C94.19,155.02,96.31,155.02,98.49,155.02z M102.22,67.7
				c-0.04,14.67,11.87,26.67,26.55,26.74c14.62,0.07,26.67-11.91,26.74-26.57c0.07-14.64-11.92-26.69-26.57-26.72
				C114.25,41.12,102.26,53.03,102.22,67.7z"/>
			<path class="st1" d="M128.87,48.83c2-0.05,3.76,0.63,5.12,2.04c1.93,2,4.19,3.22,6.86,4.01c4.14,1.21,6.24,4.94,5.17,9.13
				c-0.65,2.57-0.64,5.01,0.01,7.58c1.06,4.19-1.04,7.88-5.2,9.12c-2.62,0.78-4.79,2.03-6.77,3.92c-3.09,2.97-7.31,2.95-10.4-0.02
				c-1.97-1.89-4.15-3.17-6.78-3.91c-3.96-1.12-6.14-4.66-5.24-8.65c0.66-2.9,0.66-5.64,0-8.54c-0.89-3.89,1.2-7.43,5.02-8.56
				c2.78-0.82,5.16-2.08,7.18-4.16C125.17,49.41,126.92,48.79,128.87,48.83z M128.89,82.24c0.86-0.57,1.76-0.96,2.39-1.61
				c2.12-2.15,4.59-3.57,7.52-4.32c2.43-0.63,2.92-1.74,2.45-4.22c-0.35-1.84-0.59-3.72-0.6-5.59c-0.01-1.26,0.48-2.51,0.7-3.78
				c0.3-1.68-0.27-2.82-1.9-3.24c-3.36-0.86-6.22-2.47-8.64-4.98c-1.25-1.3-2.7-1.27-3.94,0.03c-2.35,2.45-5.13,4.04-8.42,4.89
				c-1.89,0.49-2.55,1.67-2.02,3.57c0.88,3.18,0.91,6.31,0.02,9.5c-0.57,2.03,0.09,3.15,2.16,3.7c3.16,0.83,5.86,2.33,8.12,4.7
				C127.24,81.44,128.04,81.72,128.89,82.24z"/>
			<path class="st1" d="M135.15,71.7c0,1.31-1.05,2.39-2.35,2.42c-1.35,0.03-2.45-1.09-2.42-2.46c0.02-1.33,1.06-2.34,2.4-2.33
				C134.11,69.34,135.15,70.38,135.15,71.7z"/>
			<path class="st1" d="M127.8,64.7c-0.02,1.35-1.13,2.4-2.49,2.36c-1.31-0.04-2.34-1.12-2.32-2.41c0.02-1.34,1.14-2.41,2.5-2.36
				C126.79,62.33,127.82,63.4,127.8,64.7z"/>
		</g>
	</g>
</g>
</svg>
