<?xml version="1.0" encoding="utf-8"?>
<!-- Generator: Adobe Illustrator 25.0.0, SVG Export Plug-In . SVG Version: 6.00 Build 0)  -->
<svg version="1.1" xmlns="http://www.w3.org/2000/svg" xmlns:xlink="http://www.w3.org/1999/xlink" x="0px" y="0px"
	 viewBox="0 0 200 200" style="enable-background:new 0 0 200 200;" xml:space="preserve">
<style type="text/css">
	.st0{fill:#FFFFFF;}
	.st1{fill:#70108E;}
</style>
<g id="BACKGROUND">
</g>
<g id="OBJECTS">
	<rect x="0.48" y="0.98" class="st0" width="199.56" height="199.56"/>
	<g>
		<g>
			<path class="st1" d="M71.91,71.74c0.75-1.79,1.37-3.27,2.07-4.94c-0.88-0.27-1.73-0.56-2.59-0.8
				c-7.78-2.15-14.46-5.89-19.04-12.83c-1.14-1.73-2.65-3.23-4.06-4.77c-2.16-2.35-4.84-3.54-8.06-3.42c-0.93,0.03-1.86,0.08-2.78,0
				c-1.28-0.11-2.04-0.91-2.08-2.16c-0.04-1.26,0.69-2.13,1.97-2.24c5.03-0.42,9.8,0.19,13.5,4.07c2.04,2.14,4.09,4.31,5.78,6.72
				c3.25,4.64,7.71,7.45,12.89,9.33c1.09,0.39,2.21,0.71,3.32,1.05c2.78,0.85,5.3,1.11,8.29-0.21c3.25-1.44,7.05-2,10.65-2.22
				c8.22-0.5,16.48-0.85,24.59,1.13c1.46,0.36,3,0.72,4.25,1.48c1.5,0.92,2.9,1.03,4.44,0.5c3.44-1.19,6.95-2.25,10.29-3.69
				c3.24-1.39,5.77-3.77,7.94-6.6c2.07-2.71,4.31-5.32,6.69-7.76c3.65-3.74,8.38-4.24,13.25-3.71c0.71,0.08,1.68,1.26,1.85,2.08
				c0.25,1.18-0.66,2.08-1.92,2.23c-0.91,0.11-1.86,0.04-2.78,0c-3.36-0.14-6.12,1.15-8.34,3.6c-1.36,1.5-2.81,2.97-3.92,4.65
				c-4.55,6.88-11.19,10.59-18.9,12.74c-0.88,0.25-1.75,0.52-2.71,0.8c0.7,1.66,1.35,3.18,2.08,4.93c6-2.2,11.63-4.8,15.82-9.9
				c3.09-3.75,6.27-7.44,9.66-10.92c2.11-2.17,5-3.1,8.06-3.27c1.81-0.1,2.96,0.73,3.02,2.12c0.06,1.38-0.81,2.21-2.63,2.32
				c-2.98,0.18-5.32,1.63-7.26,3.71c-2.13,2.29-4.29,4.61-6.06,7.17c-3.72,5.37-8.92,8.69-14.71,11.31c-1.27,0.57-2.58,1.04-3.9,1.5
				c-2.27,0.8-2.76,1.4-2.89,3.83c-0.04,0.81-0.02,1.63,0.1,2.43c0.88,5.65-0.74,10.76-3.81,15.33c-2.31,3.43-5.13,6.53-7.85,9.66
				c-0.95,1.09-1.3,2.08-0.91,3.45c1.37,4.82,1.39,9.61-0.27,14.38c-0.17,0.5-0.12,1.32,0.19,1.72c3.76,4.78,4.29,10.15,2.95,15.84
				c-1.18,5.02-2.51,10.01-3.75,15.02c-0.17,0.67-0.17,1.39-0.38,2.05c-0.35,1.14-1.19,1.72-2.39,1.58c-1.21-0.13-1.95-0.9-1.9-2.09
				c0.05-1.26,0.28-2.54,0.57-3.77c1.24-5.25,2.65-10.46,3.79-15.72c0.8-3.7-0.07-7.13-2.47-10.14c-0.62-0.78-1.17-0.99-2.21-0.7
				c-1.83,0.52-3.73,0.76-5.61,1.08c-1.63,0.28-2.39-0.38-2.27-2.09c0.09-1.3,0.02-2.62,0.02-4.14c-1.17,0.62-1.77,1.06-1.65,2.35
				c0.27,2.77-1.12,4.11-3.86,3.81c-1.66-0.18-3.32-0.55-4.92-1.03c-0.95-0.29-1.49-0.11-2.08,0.62c-2.45,3.05-3.35,6.52-2.54,10.29
				c1.02,4.76,2.29,9.46,3.41,14.2c0.39,1.63,0.75,3.28,0.94,4.94c0.15,1.33-0.57,2.25-1.97,2.38c-1.29,0.12-2.1-0.59-2.4-1.81
				c-1.36-5.57-2.71-11.15-4.03-16.73c-1.36-5.76-0.84-11.17,2.95-16c0.3-0.39,0.32-1.22,0.14-1.73c-1.61-4.66-1.63-9.35-0.31-14.05
				c0.46-1.65,0.1-2.75-1.17-3.97c-5.51-5.31-10.02-11.29-11.31-19.1c-0.27-1.63-0.1-3.35-0.08-5.02c0.01-0.81,0.16-1.62,0.17-2.43
				c0.04-2.82-0.61-3.43-3.11-4.57c-3.95-1.79-7.91-3.63-11.58-5.92c-2.2-1.37-3.95-3.54-5.72-5.5c-2.44-2.71-4.63-5.65-7.08-8.36
				c-2.04-2.25-4.56-3.75-7.75-3.8c-1.42-0.02-2.18-0.87-2.18-2.2c0-1.46,0.95-2.22,2.36-2.23c3.26-0.01,6.34,0.92,8.6,3.21
				c3.41,3.45,6.62,7.12,9.68,10.9C60.2,66.87,65.86,69.43,71.91,71.74z M124.05,72.02c-3.31,0.22-6.02,1.16-8.62,2.44
				c-3.98,1.96-6.82,4.97-7.49,9.42c-0.79,5.26-1.6,10.58-1.61,15.88c0,3.01-1.43,5.21-3.24,6.26c-2.48,1.43-1.41,3.08-1.53,4.75
				c-0.02,0.28,0.08,0.6-0.01,0.85c-0.41,1.11-0.05,1.73,1.07,2.11c0.4,0.13,0.92,0.68,0.91,1.03c-0.01,0.34-0.61,0.67-0.95,1.01
				c-0.41,0.42-1.04,0.78-1.17,1.28c-0.2,0.74-0.27,1.67,0.03,2.32c0.25,0.55,1.07,0.98,1.72,1.15c0.34,0.09,0.82-0.57,1.3-0.75
				c0.56-0.21,1.18-0.27,1.77-0.4c-0.11,0.66-0.08,1.39-0.37,1.95c-0.25,0.46-0.91,0.68-1.34,1.06c-0.32,0.28-0.79,0.63-0.81,0.98
				c-0.09,1.36-0.04,2.72-0.04,4.31c1.5-0.28,2.69-0.49,3.88-0.71c1.28-0.23,2.06-0.86,2.61-2.16c1.87-4.36,2.03-8.76,0.74-13.26
				c-0.87-3.04-0.04-5.48,2.15-7.75c2.36-2.45,4.6-5.05,6.59-7.8c3.02-4.17,4.44-8.82,3.73-14.08c-0.24-1.77,0.3-3.65,0.44-5.48
				C123.91,75.02,123.96,73.61,124.05,72.02z M76.45,72.07c0.07,1.5,0.13,2.86,0.2,4.22c0.13,2.29,0.29,4.58,0.4,6.87
				c0.06,1.21-0.13,2.45,0.07,3.63c1.1,6.73,4.97,11.95,9.72,16.46c2.75,2.62,3.61,5.32,2.62,8.85c-0.89,3.18-1.1,6.43-0.12,9.61
				c1.67,5.43,1.18,4.82,6.59,5.77c1.53,0.27,1.98-0.3,1.67-1.84c-0.26-1.3-0.36-2.52,1.24-3.16c0.36-0.14,0.73-0.83,0.69-1.21
				c-0.04-0.38-0.59-0.72-0.95-1.05c-0.54-0.51-1.44-0.9-1.61-1.5c-0.54-1.96-0.94-3.98-1.17-6c-1.05-9.26-2.01-18.54-3.02-27.81
				C91.83,76.34,83.8,72.68,76.45,72.07z M122.57,69.82c-1.01-2.46-1.4-2.57-3.6-1.69c-3.98,1.59-7.99,3.11-12.01,4.59
				c-4.47,1.65-8.98,1.65-13.45,0c-4.02-1.49-8.03-3.01-12.01-4.59c-2.15-0.85-2.66-0.69-3.55,1.71c1.07,0.26,2.13,0.49,3.18,0.78
				c7.79,2.13,13.07,6.56,13.95,15.1c0.95,9.22,1.93,18.43,2.95,27.64c0.11,0.96,0.5,1.9,0.76,2.84c0.19-0.01,0.38-0.01,0.56-0.02
				c0.13-0.63,0.41-1.27,0.37-1.89c-0.09-1.53-0.2-3.08-0.53-4.58c-0.72-3.25,1.61-5,3.48-6.74c1-0.93,1.3-1.74,1.37-2.89
				c0.25-3.64,0.4-7.3,0.79-10.93c0.38-3.63,0.84-7.29,2.78-10.51c2.47-4.11,6.38-6.29,10.8-7.69
				C119.78,70.51,121.17,70.19,122.57,69.82z M82.37,65.78c4.96,2.49,9.93,4.69,15.29,5.73c1.77,0.34,3.79,0.44,5.48-0.08
				c4.97-1.53,9.84-3.42,14.74-5.18c0.12-0.04,0.18-0.26,0.52-0.81C106.2,62.71,94.3,62.65,82.37,65.78z"/>
			<path class="st1" d="M100.13,139.24c-2.52-0.31-5.05-0.57-7.56-0.97c-1.07-0.17-2.14-0.55-3.13-0.99
				c-0.88-0.39-2.33-0.73-1.62-2.12c0.63-1.26,1.56-0.05,2.38,0.11c2.88,0.57,5.75,1.34,8.66,1.53c4.16,0.27,8.33,0.03,12.22-1.88
				c0.41-0.2,1.09,0.12,1.64,0.2c-0.24,0.57-0.38,1.54-0.75,1.64c-2.98,0.83-6,1.54-9.04,2.19c-0.89,0.19-1.85,0.03-2.77,0.03
				C100.15,139.07,100.14,139.16,100.13,139.24z"/>
			<path class="st1" d="M100.61,146.03c-4.5-0.03-8.1-0.53-11.49-2.03c-0.51-0.22-1.01-0.59-1.34-1.02
				c-0.15-0.2,0.02-0.99,0.19-1.04c0.49-0.15,1.12-0.23,1.58-0.04c6.39,2.7,12.88,2.37,19.41,0.66c0.72-0.19,1.4-0.61,2.13-0.72
				c0.52-0.07,1.09,0.21,1.64,0.33c-0.3,0.54-0.48,1.41-0.91,1.56c-2.19,0.73-4.41,1.38-6.67,1.84
				C103.39,145.91,101.58,145.93,100.61,146.03z"/>
			<path class="st1" d="M100.24,160.21c-2.39-0.59-4.69-1.1-6.95-1.77c-0.42-0.13-0.66-0.89-0.98-1.36c0.52-0.2,1.15-0.71,1.54-0.57
				c4.25,1.55,8.46,1.57,12.72,0c0.41-0.15,1.05,0.3,1.59,0.48c-0.29,0.48-0.48,1.28-0.88,1.4
				C104.97,159.08,102.61,159.61,100.24,160.21z"/>
			<path class="st1" d="M99.88,153.14c-2.15-0.26-4.17-0.42-6.15-0.81c-0.53-0.1-0.94-0.87-1.41-1.33c0.57-0.24,1.19-0.77,1.7-0.68
				c4.23,0.75,8.42,0.6,12.62-0.19c0.45-0.08,1.02,0.43,1.53,0.67c-0.39,0.47-0.71,1.27-1.17,1.35
				C104.61,152.58,102.19,152.84,99.88,153.14z"/>
			<path class="st1" d="M104.14,114.89c0.8-1.29,1.28-2.33,2.03-3.13c0.3-0.31,1.19-0.07,1.81-0.07c-0.11,0.54-0.05,1.25-0.38,1.59
				c-1,1.05-1.2,1.87,0.09,2.85c0.31,0.23,0.24,0.96,0.34,1.46c-0.52,0.07-1.27,0.4-1.51,0.17
				C105.67,116.96,105,115.97,104.14,114.89z"/>
			<path class="st1" d="M107.5,108.4c-0.5,0.94-0.67,1.69-1.15,2.06c-0.45,0.35-1.21,0.3-1.83,0.42c0.04-0.58,0.06-1.15,0.14-1.72
				c0.04-0.27,0.2-0.52,0.32-0.77c0.3-0.64,0.61-1.28,0.91-1.91C106.41,107.1,106.94,107.73,107.5,108.4z"/>
			<path class="st1" d="M90.69,117.04c0.34-2.03,1.81-3.71,3.47-3.66c0.41,0.01,1.06,0.37,1.15,0.7c0.09,0.33-0.26,0.98-0.6,1.21
				c-1.83,1.22-1.93,1.59-0.81,3.29c0.23,0.35,0.14,0.92,0.19,1.39c-0.58,0.04-1.48,0.33-1.68,0.07
				C91.71,119.14,91.24,118.06,90.69,117.04z"/>
			<path class="st1" d="M92.3,123.86c0.97-1.11,1.68-2.08,2.57-2.86c0.25-0.22,0.98,0.11,1.5,0.19c-0.11,0.5-0.14,1.05-0.35,1.5
				c-0.25,0.53-0.66,0.99-1,1.47c-0.34,0.49-0.69,0.98-1.04,1.48C93.53,125.17,93.07,124.68,92.3,123.86z"/>
		</g>
	</g>
</g>
</svg>
