<?xml version="1.0" encoding="utf-8"?>
<!-- Generator: Adobe Illustrator 25.0.0, SVG Export Plug-In . SVG Version: 6.00 Build 0)  -->
<svg version="1.1" xmlns="http://www.w3.org/2000/svg" xmlns:xlink="http://www.w3.org/1999/xlink" x="0px" y="0px"
	 viewBox="0 0 200 200" style="enable-background:new 0 0 200 200;" xml:space="preserve">
<style type="text/css">
	.st0{fill:#FFFFFF;}
	.st1{fill:#70108E;}
</style>
<g id="BACKGROUND">
</g>
<g id="OBJECTS">
	<rect x="0.48" y="0.98" class="st0" width="199.56" height="199.56"/>
	<g>
		<g>
			<path class="st1" d="M28.73,101.04c0.47-2.98,0.81-5.98,1.42-8.94c1.82-8.84,5.33-16.85,12.16-23.05
				c6.28-5.69,13.72-8.69,22.2-8.79c7.64-0.09,14.2,5.08,16.12,12.41c1.92,7.32-1.32,14.95-7.97,18.75
				c-0.32,0.18-0.63,0.37-0.95,0.55c0.11,1.14,0.54,1.69,1.77,1.64c2.46-0.09,4.93,0,7.4-0.03c4.5-0.06,7.4-2.96,7.41-7.48
				c0.03-8.85,0-17.69,0.01-26.54c0.01-4.25,2.34-7.49,6.07-8.54c5.32-1.5,10.57,2.38,10.61,7.95c0.06,8.85,0.14,17.69-0.03,26.54
				c-0.08,4.43,2.93,8.43,8.17,8.09c2.18-0.14,4.37-0.02,6.56-0.02c1.48,0,1.48,0,1.92-1.37c-1.54-1.19-3.17-2.21-4.51-3.53
				c-8.74-8.65-5.28-23.53,6.34-27.56c0.65-0.23,1.35-0.79,1.69-1.38c2.75-4.74,9.12-5.72,13.04-1.9c0.64,0.62,1.09,0.84,2.02,0.53
				c4.05-1.36,8.24,0.07,10.74,3.54c0.4,0.55,0.7,0.99,1.53,0.86c7.49-1.16,14.43,6.15,11.4,14.55c-0.04,0.12-0.06,0.26-0.08,0.38
				c5.86,3.13,7.23,9.65,3.53,14.83c6.42,4.78,5.43,12.65-0.09,16.48c1.86,2.44,2.59,5.21,1.9,8.23c-0.68,2.99-2.52,5.13-5.36,6.55
				c1.17,3.3,1.23,6.55-0.54,9.66c-1.77,3.12-4.53,4.83-8.04,5.43c-0.14,0.81-0.22,1.6-0.41,2.35c-1.34,5.33-6.79,8.41-12.03,6.75
				c-0.9-0.29-1.43-0.23-2.16,0.48c-3.8,3.73-9.88,2.94-12.83-1.51c-0.33-0.5-0.99-0.98-1.57-1.09
				c-7.35-1.37-12.64-6.71-13.82-14.05c-1.09-6.77,2.35-13.59,8.61-17.09c0.2-0.11,0.4-0.23,0.63-0.37
				c-0.1-1.23-0.65-1.73-1.95-1.67c-2.42,0.11-4.84,0.01-7.26,0.04c-4.37,0.06-7.35,3.05-7.36,7.41c-0.02,6.7,0.03,13.41-0.02,20.11
				c-0.03,4.28-3.16,7.61-7.5,8.16c-3.87,0.48-7.74-2.11-8.81-6c-0.28-1.02-0.36-2.11-0.36-3.17c-0.03-6.24-0.01-12.48-0.02-18.72
				c-0.01-4.96-2.84-7.78-7.8-7.8c-2.28-0.01-4.56,0-6.84,0c-1.49,0-1.49,0.01-1.83,1.35c1.74,1.45,3.63,2.65,5.04,4.26
				c4.59,5.24,5.66,11.3,2.89,17.67c-2.77,6.36-7.89,10.02-14.86,9.97c-12.79-0.09-22.52-5.97-29.16-16.85
				c-4.15-6.81-5.92-14.4-6.74-22.24c-0.06-0.55-0.18-1.09-0.28-1.63C28.73,103.83,28.73,102.44,28.73,101.04z M124.46,118.38
				c-0.29,0.11-0.55,0.19-0.8,0.31c-4.78,2.28-7.54,7.73-6.51,12.87c1.11,5.51,5.63,9.5,11.11,9.68c1.66,0.06,2.7,0.67,3.21,2.29
				c0.52,1.63,1.76,2.48,3.32,2.5c1.55,0.01,2.74-0.82,3.41-2.41c0.94-2.2,2.34-2.58,4.26-1.13c1.85,1.4,3.95,1.54,5.71,0.39
				c1.77-1.16,2.47-3.13,1.91-5.39c-0.59-2.36,0.46-3.68,2.85-3.46c2.74,0.26,4.92-0.65,6.2-3.09c1.3-2.48,0.88-4.86-1-6.97
				c-0.7-0.78-1.02-1.66-0.59-2.69c0.45-1.09,1.34-1.39,2.44-1.53c0.89-0.12,1.86-0.35,2.6-0.84c2.91-1.93,2.63-6.35-0.45-8.01
				c-0.33-0.18-0.69-0.29-1.03-0.43c-1.24-0.5-1.81-1.41-1.62-2.75c0.17-1.23,1.19-2.11,2.5-2.24c0.69-0.07,1.41-0.09,2.05-0.31
				c2.2-0.76,3.42-2.99,3.01-5.36c-0.37-2.13-2.3-3.77-4.53-3.83c-0.37-0.01-0.74,0.03-1.12,0.04c-1.43,0.02-2.39-0.7-2.63-1.97
				c-0.23-1.2,0.47-2.37,1.71-2.86c0.22-0.09,0.44-0.14,0.66-0.22c2.3-0.79,3.65-2.87,3.37-5.17c-0.28-2.24-2.06-3.91-4.44-4.1
				c-1.15-0.09-2.09-0.42-2.55-1.58c-0.45-1.11,0-1.99,0.74-2.78c0.13-0.14,0.24-0.28,0.36-0.43c1.6-2.12,1.62-5.01,0.05-7.15
				c-1.57-2.13-4.32-2.93-6.86-1.99c-2.41,0.89-3.24,0.51-4.09-1.89c-1.12-3.14-4.72-4.26-7.41-2.31c-2.32,1.69-3.4,1.41-4.58-1.19
				c-0.65-1.43-1.92-2.24-3.43-2.18c-1.48,0.06-2.84,0.99-3.19,2.48c-0.38,1.59-1.28,2.29-2.84,2.61c-4.82,0.99-8.55,5.08-9.19,9.89
				c-0.68,5.05,1.85,9.91,6.31,12.23c0.76,0.4,1.24,0.44,1.9-0.25c1.48-1.55,3.32-2.54,5.44-2.94c1.47-0.28,2.57,0.42,2.9,1.72
				c0.33,1.27-0.35,2.48-1.79,2.84c-2.18,0.55-3.68,1.9-4.88,3.7c-3.77,5.66-3.8,15.46-0.05,21.15c1.12,1.7,2.51,3.09,4.59,3.65
				c1.7,0.45,2.43,1.65,2.03,3.08c-0.37,1.32-1.66,1.94-3.28,1.52C127.96,121.34,126.06,120.12,124.46,118.38z M68.85,118.42
				c-1.65,1.8-3.66,3.09-6.12,3.57c-1.46,0.28-2.62-0.44-2.93-1.7c-0.32-1.25,0.38-2.5,1.79-2.86c2.17-0.56,3.67-1.93,4.86-3.72
				c3.78-5.7,3.74-15.63-0.09-21.26c-1.12-1.65-2.49-2.98-4.52-3.51c-1.71-0.44-2.46-1.63-2.06-3.06c0.36-1.32,1.73-2.12,3.25-1.5
				c1.77,0.73,3.46,1.74,5.04,2.85c0.72,0.51,1.13,0.65,1.91,0.24c4.77-2.48,7.36-7.99,6.14-13.18c-1.25-5.36-5.89-9.22-11.33-9.26
				c-7.72-0.05-14.46,2.61-19.9,8.06C36.4,81.6,33.85,92.49,33.64,104c-0.1,5.62,1.23,11.17,3.21,16.49
				c2.88,7.72,7.48,14.03,15.01,17.79c4.75,2.37,9.78,3.68,15.12,2.69c5.29-0.98,9.07-5.6,9.42-11.2
				C76.71,124.96,73.45,120.03,68.85,118.42z M73.86,107.93c1.18,0,2.43-0.03,3.68,0.01c2,0.05,4.04-0.11,5.98,0.26
				c5.75,1.1,9.5,5.82,9.55,11.9c0.06,6.28,0.01,12.57,0.02,18.86c0,0.65,0.02,1.31,0.15,1.94c0.38,1.83,2.11,2.99,3.96,2.71
				c1.89-0.29,3.05-1.72,3.05-3.88c0.02-6.66-0.03-13.32,0.02-19.97c0.05-5.77,4.11-10.71,9.76-11.59c2.55-0.4,5.2-0.17,7.8-0.23
				c0.58-0.01,1.16,0,1.65,0c0-3.27,0-6.32,0-9.57c-2.21,0-4.52,0.02-6.83,0c-7.4-0.09-12.39-5.13-12.4-12.54
				c-0.01-8.01,0-16.02,0-24.02c0-1.02,0.05-2.05-0.04-3.07c-0.16-1.84-1.62-3.19-3.42-3.24c-1.84-0.06-3.31,1.15-3.62,3
				c-0.1,0.59-0.1,1.2-0.1,1.81c-0.02,8.94,0.06,17.88-0.08,26.82c-0.08,5.21-3.81,9.75-8.91,10.81c-2.47,0.51-5.08,0.33-7.63,0.44
				c-0.9,0.04-1.81,0.01-2.61,0.01C73.86,101.62,73.86,104.63,73.86,107.93z"/>
			<path class="st1" d="M143.21,91.22c0-3.93,3.14-7.12,7.05-7.16c3.92-0.05,7.23,3.23,7.23,7.16c0,3.96-3.25,7.17-7.23,7.13
				C146.31,98.31,143.2,95.17,143.21,91.22z M152.71,91.25c0.02-1.28-1.1-2.41-2.38-2.41c-1.25,0-2.29,1.01-2.34,2.28
				c-0.05,1.37,0.92,2.41,2.28,2.44C151.6,93.59,152.69,92.56,152.71,91.25z"/>
			<path class="st1" d="M145.54,105.52c0,3.97-3.26,7.23-7.19,7.17c-3.91-0.05-7.07-3.25-7.08-7.16c0-3.98,3.24-7.2,7.2-7.15
				C142.41,98.43,145.54,101.59,145.54,105.52z M140.77,105.58c0.03-1.33-1.01-2.39-2.35-2.4c-1.28-0.01-2.32,0.97-2.39,2.23
				c-0.07,1.3,0.98,2.44,2.29,2.49C139.63,107.94,140.74,106.89,140.77,105.58z"/>
			<path class="st1" d="M145.54,74.48c0.02,3.98-3.21,7.24-7.15,7.23c-3.88-0.01-7.1-3.22-7.12-7.11c-0.03-3.99,3.16-7.2,7.15-7.19
				C142.36,67.41,145.52,70.55,145.54,74.48z M138.35,72.19c-1.34,0.03-2.37,1.11-2.31,2.44c0.05,1.24,1.13,2.28,2.36,2.29
				c1.29,0.01,2.39-1.1,2.37-2.41C140.76,73.17,139.7,72.16,138.35,72.19z"/>
			<path class="st1" d="M126.49,76.85c0.04,1.29-1.05,2.41-2.36,2.42c-1.29,0.01-2.31-0.94-2.37-2.22
				c-0.07-1.32,0.94-2.45,2.25-2.51C125.28,74.48,126.45,75.56,126.49,76.85z"/>
			<path class="st1" d="M155.06,107.97c-0.03,1.35-1.1,2.35-2.45,2.29c-1.25-0.05-2.28-1.12-2.29-2.35c0-1.28,1.13-2.4,2.42-2.38
				C154.06,105.55,155.09,106.63,155.06,107.97z"/>
			<path class="st1" d="M136.04,91.25c1.33,0.01,2.37,1.08,2.34,2.41c-0.03,1.26-1.06,2.3-2.31,2.33c-1.3,0.03-2.4-1.04-2.41-2.36
				C133.65,92.29,134.71,91.24,136.04,91.25z"/>
			<path class="st1" d="M145.58,115.06c1.28,0.02,2.39,1.16,2.35,2.44c-0.04,1.31-1.14,2.34-2.47,2.29
				c-1.29-0.04-2.24-1.03-2.25-2.33C143.21,116.12,144.28,115.05,145.58,115.06z"/>
			<path class="st1" d="M63.08,69.75c1.86-0.04,3.01,0.81,3.07,2.28c0.07,1.47-1.01,2.38-2.88,2.5c-6.14,0.39-10.88,3.29-14.24,8.33
				c-1.35,2.03-2.27,4.34-3.32,6.56c-0.52,1.09-1.16,1.91-2.48,1.86c-1.56-0.06-2.67-1.48-2.16-3.04
				c3.31-9.96,10.46-17.44,21.31-18.45C62.61,69.77,62.85,69.76,63.08,69.75z"/>
		</g>
	</g>
</g>
</svg>
