<?xml version="1.0" encoding="utf-8"?>
<!-- Generator: Adobe Illustrator 25.0.0, SVG Export Plug-In . SVG Version: 6.00 Build 0)  -->
<svg version="1.1" xmlns="http://www.w3.org/2000/svg" xmlns:xlink="http://www.w3.org/1999/xlink" x="0px" y="0px"
	 viewBox="0 0 200 200" style="enable-background:new 0 0 200 200;" xml:space="preserve">
<style type="text/css">
	.st0{fill:#FFFFFF;}
	.st1{fill:#70108E;}
</style>
<g id="BACKGROUND">
</g>
<g id="OBJECTS">
	<rect x="0.48" y="-1.67" class="st0" width="199.56" height="199.56"/>
	<g>
		<g>
			<path class="st1" d="M135.34,102.08c0.14-1.25,0.25-2.43,0.43-3.59c0.12-0.83,0.67-1.16,1.51-1.2c0.86-0.05,1.75-0.14,2.56-0.41
				c1.73-0.57,2.37-2.52,1.31-3.99c-3-4.15-5.24-8.72-7.53-13.28c-0.87-1.72-1.24-3.43-0.81-5.25c0.47-2,0.02-3.79-0.77-5.59
				c-2.05-4.66-4-9.37-6.15-13.99c-1.71-3.67-4.69-6.21-8.14-8.2c-5.5-3.17-11.47-4.97-17.75-5.68c-7.94-0.9-15.6,0.29-22.88,3.59
				c-4.88,2.21-9.19,5.18-12.36,9.61c-2.53,3.54-3.93,7.51-4.36,11.82c-0.65,6.45,0.66,12.61,2.8,18.64
				c1.52,4.27,3.53,8.3,5.73,12.25c5.43,9.74,4.86,19.3-1.04,28.63c-2.42,3.83-5.48,7.1-9,9.95c-0.18,0.15-0.37,0.3-0.57,0.43
				c-0.64,0.39-1.38,0.28-1.77-0.26c-0.4-0.55-0.28-1.27,0.29-1.77c1.17-1.02,2.4-1.99,3.51-3.08c3.74-3.67,6.75-7.85,8.48-12.84
				c2.36-6.8,1.53-13.33-1.96-19.55c-2.99-5.34-5.6-10.83-7.28-16.73c-1.6-5.62-2.38-11.32-1.54-17.15
				c1.03-7.19,4.43-13.04,10.15-17.49c6.54-5.09,14.05-7.75,22.24-8.58c9.62-0.98,18.72,0.94,27.29,5.32
				c4.29,2.19,8.08,5.1,10.16,9.55c2.65,5.66,4.97,11.47,7.41,17.23c0.38,0.89,0.38,1.82,0.18,2.79c-0.22,1.05-0.26,2.15-0.33,3.23
				c-0.02,0.27,0.09,0.57,0.21,0.82c2.29,4.91,4.71,9.74,7.87,14.17c2.04,2.86,0.65,6.76-2.7,7.84c-0.62,0.2-1.28,0.32-1.93,0.4
				c-0.46,0.06-0.62,0.26-0.64,0.71c-0.05,1.19,0.09,2.37,0.8,3.33c1.1,1.47,0.8,2.93-0.03,4.28c-0.48,0.77-0.58,1.37-0.3,2.22
				c0.42,1.27,0.23,2.55-0.63,3.6c-1.05,1.28-1.46,2.62-1.35,4.32c0.1,1.54-0.22,3.16-0.62,4.67c-0.45,1.72-1.67,2.94-3.49,3.18
				c-2.32,0.31-4.67,0.53-7.01,0.61c-2.29,0.08-4.6-0.05-6.89-0.1c-2.01-0.04-3.57,0.76-4.48,2.56c-2.57,5.08-4.7,10.33-5.74,15.97
				c-0.58,3.17-0.8,6.35,0.22,9.48c0.18,0.55,0.44,1.07,0.67,1.6c0.33,0.75,0.13,1.48-0.48,1.79c-0.66,0.34-1.4,0.08-1.78-0.67
				c-1.43-2.76-1.74-5.73-1.57-8.78c0.26-4.72,1.58-9.2,3.31-13.55c0.91-2.28,1.93-4.52,2.98-6.73c1.39-2.92,4.12-4.28,7.36-4.21
				c3.9,0.09,7.81-0.02,11.71-0.21c2.16-0.11,2.84-0.83,3.15-2.96c0.18-1.24,0.1-2.52,0.14-3.79c0.01-0.43-0.16-0.66-0.64-0.7
				c-6.15-0.58-12.3-1.24-18.5-0.82c-0.13,0.01-0.26,0.02-0.4,0.02c-0.86,0.01-1.44-0.47-1.46-1.21c-0.02-0.69,0.52-1.25,1.34-1.27
				c2.53-0.06,5.08-0.22,7.6-0.08c4.09,0.21,8.16,0.64,12.24,0.94c0.27,0.02,0.6-0.19,0.83-0.38c0.23-0.2,0.36-0.52,0.56-0.76
				c0.75-0.9,0.68-1.82,0.14-2.79c-0.8-1.46-0.78-1.45,0.46-2.65c0.28-0.27,0.51-0.61,0.65-0.97c0.32-0.79,0.06-1.23-0.77-1.46
				c-3.61-0.97-7.3-1.45-11.02-1.69c-5.07-0.32-10.14-0.25-15.2,0.26c-2.17,0.22-4.22,0.91-6.21,1.81
				c-0.24,0.11-0.48,0.23-0.72,0.32c-0.64,0.22-1.16,0.02-1.49-0.55c-0.34-0.58-0.27-1.25,0.29-1.54c1.26-0.64,2.58-1.21,3.93-1.65
				c0.48-0.16,1.06-0.41,1.65-0.5c0.65-0.13,0.91-0.23,1.44-0.22c0.67-0.03,0.51-0.13,0.76-0.14c4.38-0.15,8.76-0.4,13.14-0.39
				c4.2,0.02,8.38,0.53,12.49,1.47C135.15,102.1,135.26,102.08,135.34,102.08z"/>
			<path class="st1" d="M99.8,130.32c-1.6-0.77-3.27,0.18-5.09,0.77c-3.24,1.06-6.2,0.2-8.53-2.29c-2.38-2.55-2.84-5.55-1.71-8.84
				c0.13-0.38,0.15-0.88,0.03-1.27c-1.03-3.34,0.05-6.96,2.76-9.14c2.72-2.19,6.54-2.44,9.59-0.69c0.34,0.19,0.85,0.27,1.22,0.18
				c3.69-0.9,7.24,1.74,7.32,5.52c0.01,0.52,0.16,0.87,0.54,1.22c2.55,2.38,3.35,6,2.08,9.23
				C106.74,128.23,103.65,130.33,99.8,130.32z M100.12,127.9c2.59-0.07,4.84-1.69,5.67-4.15c0.81-2.4-0.02-5.04-2.15-6.61
				c-0.64-0.47-1-0.98-0.84-1.79c0.27-1.35-0.17-2.46-1.24-3.29c-1.08-0.83-2.28-0.92-3.5-0.32c-0.68,0.33-1.23,0.24-1.82-0.22
				c-2.32-1.76-5.2-1.74-7.39-0.01c-2.12,1.67-2.73,4.41-1.69,7.09c0.18,0.47,0.07,1.11-0.04,1.64c-0.19,0.95-0.66,1.87-0.67,2.81
				c-0.03,2.36,1.08,4.17,3.19,5.25c2.21,1.13,4.36,0.88,6.32-0.61c0.69-0.53,1.3-0.64,2.11-0.3
				C98.71,127.67,99.43,127.74,100.12,127.9z"/>
			<path class="st1" d="M83.57,130.8c-0.11,0.35-0.19,0.6-0.28,0.85c-1.35,4.02-2.7,8.05-4.03,12.08c-0.23,0.69-0.55,1.23-1.34,1.24
				c-0.61,0-1.06-0.35-1.19-0.97c-0.06-0.27-0.03-0.59,0.06-0.85c1.39-4.18,2.78-8.35,4.21-12.52c0.35-1.01,1.39-1.34,2.05-0.71
				C83.31,130.16,83.42,130.54,83.57,130.8z"/>
			<path class="st1" d="M92.29,149.75c0.22-4.51,1.12-8.64,2.52-12.67c0.31-0.88,0.98-1.24,1.7-0.96c0.67,0.26,0.94,0.95,0.66,1.79
				c-1.36,4.04-2.28,8.17-2.38,12.46c-0.02,0.87-0.57,1.42-1.3,1.39c-0.75-0.03-1.2-0.57-1.2-1.46
				C92.28,150.04,92.29,149.77,92.29,149.75z"/>
		</g>
	</g>
</g>
</svg>
