<?xml version="1.0" encoding="utf-8"?>
<!-- Generator: Adobe Illustrator 25.0.0, SVG Export Plug-In . SVG Version: 6.00 Build 0)  -->
<svg version="1.1" xmlns="http://www.w3.org/2000/svg" xmlns:xlink="http://www.w3.org/1999/xlink" x="0px" y="0px"
	 viewBox="0 0 200 200" style="enable-background:new 0 0 200 200;" xml:space="preserve">
<style type="text/css">
	.st0{fill:#FFFFFF;}
	.st1{fill:#70108E;}
</style>
<g id="BACKGROUND">
</g>
<g id="OBJECTS">
	<rect x="0.48" y="0.98" class="st0" width="199.56" height="199.56"/>
	<g>
		<g>
			<path class="st1" d="M107.53,38.38c2.25,0.67,4.02,1.91,4.82,4.22c1.09,3.14-0.42,6.44-3.61,7.8c-4.24,1.81-7.06,4.86-8.12,9.35
				c-0.37,1.56-0.36,3.2-0.53,4.76c0.26,0.09,0.36,0.17,0.4,0.14c2.06-1.16,4.29-1.34,6.6-1.2c9.01,0.52,17.95,1.41,26.62,4.12
				c3.75,1.17,6.11,3.64,6.8,7.51c0.65,3.67-0.65,6.69-3.5,9.06c-1.81,1.5-3.62,2.99-5.57,4.6c13.21,2.81,22.78,10.06,28.14,22.37
				c3.89,8.94,4.05,18.13,0.77,27.31c-6.53,18.29-26.27,28.48-45,23.39c-19.66-5.34-32.49-26.36-25.86-47.6
				c-0.38,0.19-0.68,0.32-0.97,0.49c-8.45,4.91-16.87,9.87-25.36,14.71c-7.45,4.24-16.69,1.37-20.33-6.38
				c-1.46-3.1-2.56-6.39-3.52-9.68c-0.67-2.28-0.83-4.7-1.22-7.06c-0.05-0.31-0.15-0.61-0.22-0.92c0-2.11,0-4.22,0-6.33
				c0.24-1.68,0.44-3.37,0.74-5.03C40.77,81.86,46.6,72,57.36,65.62c9.33-5.53,19.25-8.43,30.15-4.84c0-0.06,0-0.3-0.05-0.53
				c-1.04-4.76-3.84-8.02-8.33-9.89c-2.51-1.05-3.93-3.31-3.85-5.94c0.09-2.62,1.68-4.78,4.21-5.71c0.26-0.09,0.5-0.22,0.76-0.33
				c0.81,0,1.62,0,2.44,0c4.4,1.58,8.21,4.06,11.33,7.68c3.14-3.68,6.94-6.11,11.33-7.68C106.07,38.38,106.8,38.38,107.53,38.38z
				 M91.93,125.69c0.01,18.34,14.89,33.23,33.22,33.25c18.28,0.01,33.25-14.93,33.28-33.23c0.03-18.37-14.92-33.29-33.31-33.26
				C106.74,92.48,91.92,107.33,91.93,125.69z M91.9,87.94c-3-1.37-4.25-3.69-4.15-6.94c0.11-3.85,0.03-7.71,0.03-11.57
				c0-3.55-0.29-3.98-3.64-5.27c-0.49-0.19-1-0.44-1.51-0.45c-2.58-0.05-5.2-0.31-7.74,0.01C59.1,65.7,47.39,76.09,43.39,91.5
				c-0.18,0.69-0.32,1.39-0.53,2.27c0.53-0.23,0.86-0.37,1.18-0.51c6.96-2.91,13.39-2.01,19.26,2.74c2.56,2.08,4,4.95,5.48,7.8
				c0.85,1.64,1.75,3.36,3.03,4.66c2.36,2.39,5,4.49,7.58,6.76c3.5-2.05,6.94-4.02,10.33-6.1c1.35-0.83,2.13-2.21,2.15-3.78
				C91.94,99.54,91.9,93.74,91.9,87.94z M96.11,101.8c0.09,0.07,0.19,0.13,0.28,0.2c0.13-0.2,0.24-0.42,0.39-0.59
				c7.38-8.41,16.65-12.79,27.85-13.12c0.51-0.02,1.1-0.26,1.5-0.59c2.72-2.18,5.39-4.43,8.1-6.63c1.71-1.39,2.62-3.12,2.2-5.32
				c-0.44-2.3-1.94-3.6-4.16-4.28c-8.45-2.56-17.14-3.4-25.9-3.89c-2.25-0.12-4.09,0.49-5.48,2.24c-0.34,0.43-0.61,1.04-0.62,1.58
				c-0.06,3.16-0.11,6.33,0,9.49c0.11,3.27-1.09,5.67-4.14,7.04C96.11,92.56,96.11,97.18,96.11,101.8z M75.68,117.29
				c-0.37-0.24-0.64-0.41-0.9-0.6c-4.9-3.64-8.91-8.01-11.17-13.8c-0.06-0.15-0.15-0.29-0.24-0.42c-2.1-3.37-5.06-5.53-8.95-6.37
				c-3.81-0.83-7.27,0.14-10.65,1.89c-1.26,0.65-1.73,1.37-1.73,2.76c-0.02,6.96,1.29,13.61,4.22,19.93
				c2.89,6.24,9.37,8.29,15.35,4.86c4.36-2.5,8.69-5.05,13.03-7.58C74.91,117.81,75.16,117.62,75.68,117.29z M91.75,71.84
				c0.06,0,0.12,0,0.18,0c0,3.37-0.02,6.74,0.01,10.1c0.01,1.25,0.88,2.14,2.01,2.17c1.12,0.03,2.02-0.85,2.12-2.07
				c0.02-0.32,0.01-0.65,0.01-0.97c0-5.84-0.02-11.69,0.01-17.53c0.03-7.89,3.65-13.51,10.81-16.83c0.07-0.03,0.15-0.05,0.23-0.09
				c1.22-0.6,1.7-1.7,1.23-2.79c-0.48-1.09-1.62-1.53-2.86-1.03c-3.73,1.52-6.82,3.87-9.23,7.11c-1.6,2.16-2.94,2.15-4.56-0.03
				c-0.05-0.07-0.09-0.13-0.14-0.2c-2.4-3.13-5.44-5.43-9.1-6.9c-1.19-0.48-2.29-0.08-2.78,0.96c-0.51,1.09-0.07,2.22,1.12,2.82
				c0.29,0.15,0.6,0.25,0.89,0.39c5.7,2.78,9.28,7.26,9.97,13.58C92.08,64.27,91.75,68.07,91.75,71.84z"/>
			<path class="st1" d="M112.48,110.92c2.11-0.74,4.23-1.47,6.6-2.3c0.41-1.89,1.59-3.7,3.64-4.9c0.23-0.13,0.35-0.6,0.36-0.92
				c0.04-1.34,0-2.68,0.03-4.02c0.03-1.29,0.83-2.13,1.99-2.16c1.2-0.03,2.1,0.83,2.14,2.16c0.04,1.34,0.01,2.67,0.01,4.09
				c3.34,0.76,5.43,2.77,6.09,5.88c1.93,0.43,3.73,0.82,5.53,1.21c0.15,0.03,0.33,0.05,0.47,0.01c1.16-0.34,2.46-2.12,2.46-3.35
				c0-0.65-0.03-1.3,0.04-1.95c0.11-1.07,0.76-1.68,1.82-1.8c1.04-0.12,1.95,0.47,2.16,1.53c0.16,0.78,0.14,1.6,0.22,2.61
				c0.68,0,1.35-0.04,2.02,0.01c1.2,0.09,2.01,0.93,2.02,2.02c0.01,1.03-0.74,1.9-1.87,2.05c-0.6,0.08-1.23,0.13-1.82,0.04
				c-1.48-0.21-2.6,0.35-3.55,1.51c2.74,3.12,3.67,6.74,2.68,10.97c1.71,0,3.32,0,4.93,0c0.49,0,0.97-0.01,1.46,0
				c1.42,0.04,2.36,0.89,2.34,2.09c-0.02,1.2-0.97,2.04-2.4,2.05c-2.19,0.02-4.39,0.07-6.58-0.02c-1.39-0.06-2.58,0.12-3.34,1.6
				c1.18,1.68,2.03,3.63,1.89,5.86c-0.05,0.88-0.21,1.77-0.44,2.62c-0.34,1.25,0.4,2.33,1.76,2.39c0.85,0.04,1.7,0,2.56,0.01
				c1.43,0.02,2.38,0.84,2.4,2.04c0.03,1.24-0.96,2.08-2.46,2.11c-0.52,0.01-1.04,0-1.69,0c0,0.72,0.03,1.32-0.01,1.91
				c-0.08,1.36-0.9,2.23-2.09,2.23c-1.22,0-2-0.84-2.05-2.22c-0.03-0.69-0.07-1.39,0.01-2.07c0.11-0.91-0.43-1.42-1.08-1.7
				c-0.3-0.13-0.87,0.16-1.24,0.38c-2.76,1.68-5.63,1.91-8.43,0.82c-1.21,1.15-2.36,2.21-3.45,3.32c-0.24,0.24-0.35,0.7-0.36,1.06
				c-0.04,1.42,0,2.84-0.02,4.26c-0.02,1.44-0.84,2.38-2.05,2.4c-1.24,0.03-2.08-0.94-2.1-2.45c-0.01-1.29,0-2.59,0-3.93
				c-4.88-0.58-7.67-3.26-8.35-8.06c-1.44-0.35-2.72-0.17-3.75,0.99c-0.26,0.3-0.6,0.56-0.95,0.76c-1.28,0.71-1.77,1.77-1.54,3.21
				c0.06,0.4,0.03,0.81,0,1.22c-0.08,1.19-0.91,1.99-2.03,2.01c-1.1,0.01-1.99-0.78-2.09-1.95c-0.06-0.68-0.01-1.36-0.01-2.19
				c-0.78,0-1.46,0.04-2.14-0.01c-1.17-0.08-2-0.95-2.02-2.04c-0.01-1.09,0.82-1.98,1.97-2.08c0.48-0.04,0.97-0.01,1.46-0.01
				c2.4,0,2.45-0.02,4.28-1.9c-3.67-3.59-4.04-6.62-3.14-10.56c-1.76,0-3.5,0-5.23,0c-0.45,0-0.89,0.02-1.34-0.01
				c-1.32-0.08-2.2-0.98-2.15-2.16c0.04-1.15,0.88-1.96,2.19-1.97c2.88-0.03,5.76-0.01,8.65-0.02c0.39,0,0.83-0.02,1.17-0.18
				c0.65-0.3,1.05-0.66,0.78-1.59c-0.73-2.53-0.25-4.97,0.99-7.39c-1.31-1.05-2.56-2.16-3.92-3.09c-0.43-0.3-1.17-0.17-1.77-0.2
				c-0.73-0.04-1.47,0.02-2.18-0.09c-1.11-0.17-1.85-1.1-1.74-2.14c0.12-1.1,0.74-1.8,1.87-1.9c0.72-0.06,1.44-0.01,2.26-0.01
				c0-0.82-0.03-1.47,0.01-2.11c0.08-1.26,0.95-2.08,2.11-2.06c1.16,0.02,2.17,0.89,1.98,2.13c-0.39,2.5,0.72,4.05,2.73,5.23
				c0.48,0.28,0.89,0.69,1.33,1.04C112.52,111.13,112.5,111.03,112.48,110.92z M127.26,120.52c-0.19,0.87,0.33,1.3,1.25,1.81
				c1.27,0.71,2.39,1.76,3.44,2.81c0.47,0.47,0.79,0.67,1.48,0.68c1.4,0.02,2.82,0.16,4.18,0.47c0.72,0.17,1.18,0.13,1.73-0.35
				c2.48-2.18,3.17-5.81,1.64-8.77c-1.55-3-4.9-4.53-8.21-3.73C129.61,114.19,127.31,117.08,127.26,120.52z M119.5,123.52
				c1.11-0.56,2.1-1.02,3.04-1.57c0.27-0.16,0.51-0.54,0.57-0.86c0.28-1.54,0.52-3.09,0.71-4.64c0.04-0.35-0.04-0.8-0.25-1.07
				c-1.64-2.12-4.84-2.76-7.38-1.52c-2.59,1.26-4.04,4.22-3.31,6.88c0.09,0.31,0.53,0.73,0.82,0.74
				C115.88,121.58,117.84,122.23,119.5,123.52z M139.7,135.02c-0.01-2.87-2.33-5.2-5.19-5.2c-2.84,0-5.19,2.36-5.19,5.21
				c0,2.86,2.34,5.19,5.2,5.19C137.38,140.22,139.7,137.89,139.7,135.02z M113.69,136.07c0.05,0.1,0.1,0.21,0.16,0.31
				c1.12-0.57,2.28-1.09,3.36-1.72c0.58-0.33,0.69-0.86,0.36-1.56c-0.77-1.62-0.97-3.37-0.47-5.09c0.24-0.83-0.06-1.18-0.66-1.56
				c-1.84-1.14-4.17-1-5.91,0.37c-1.76,1.39-2.42,3.69-1.67,5.79C109.57,134.64,111.54,136.05,113.69,136.07z M123.54,144.13
				c1.03-0.03,2.17-0.56,3.02-1.66c0.6-0.78,0.77-1.43,0.18-2.49c-0.75-1.34-1.53-2.12-3.12-2.01c-0.49,0.03-1.01-0.26-1.51-0.44
				c-0.68-0.24-1.37-0.92-1.97,0.11c-0.39,0.67-1.05,1.3-1.13,2C118.75,142.1,120.74,144.15,123.54,144.13z M128.72,127.74
				c-1.41-1.94-3.37-2.53-5.28-1.66c-1.87,0.86-2.81,2.83-2.28,4.83c0.49,1.87,2.12,3.07,4.09,2.94
				C125.66,131.43,126.76,129.37,128.72,127.74z M126.54,112.22c0.7-0.5,1.48-0.95,2.12-1.55c0.31-0.28,0.57-0.87,0.51-1.26
				c-0.23-1.41-1.8-2.45-3.27-2.29c-1.55,0.17-2.62,1.32-2.67,2.79C124.33,110.67,125.38,111.41,126.54,112.22z"/>
			<path class="st1" d="M77.9,67.5c0.53,0,1.05,0,1.58,0c1.44,0.01,2.38,0.81,2.41,2.03c0.03,1.17-0.81,1.98-2.2,2.12
				c-1.97,0.2-3.98,0.23-5.91,0.62c-7.37,1.49-13.32,5.29-17.87,11.29c-0.2,0.26-0.37,0.53-0.57,0.79
				c-0.89,1.16-2.07,1.46-3.05,0.79c-1.05-0.72-1.18-1.96-0.32-3.2c1.89-2.76,4.15-5.19,6.79-7.25C64.37,70.3,70.76,67.91,77.9,67.5
				z"/>
			<path class="st1" d="M46.24,100.76c1.13,0.02,2.08,1.02,2.04,2.13c-0.04,1.08-0.98,1.99-2.06,2c-1.15,0.01-2.07-0.91-2.07-2.08
				C44.16,101.64,45.08,100.73,46.24,100.76z"/>
			<path class="st1" d="M58.5,111.12c-1.15-0.1-1.99-1.1-1.89-2.25c0.1-1.15,1.09-1.95,2.28-1.83c1.1,0.11,1.92,1.07,1.84,2.17
				C60.65,110.33,59.63,111.21,58.5,111.12z"/>
			<path class="st1" d="M54.49,104.89c-1.15-0.01-2.06-0.97-2.03-2.12c0.03-1.16,0.98-2.05,2.14-2.01c1.08,0.04,1.99,0.98,1.99,2.05
				C56.59,103.93,55.61,104.9,54.49,104.89z"/>
			<path class="st1" d="M48.25,109.06c1.15-0.01,2.07,0.92,2.07,2.08c0,1.13-0.84,2.01-1.96,2.05c-1.14,0.04-2.13-0.88-2.16-2
				C46.17,110.07,47.13,109.07,48.25,109.06z"/>
			<path class="st1" d="M58.7,123.6c-1.12,0.03-2.09-0.94-2.1-2.07c0-1.12,0.84-2,1.96-2.05c1.18-0.05,2.13,0.82,2.17,1.97
				C60.78,122.58,59.83,123.58,58.7,123.6z"/>
			<path class="st1" d="M54.47,117.37c0,1.16-0.95,2.09-2.08,2.07c-1.12-0.02-2.07-1.03-2.03-2.14c0.04-1.1,0.94-1.96,2.05-1.98
				C53.59,115.31,54.48,116.19,54.47,117.37z"/>
			<path class="st1" d="M66.95,115.33c-0.03,1.16-0.97,2.04-2.13,2c-1.16-0.04-2.02-0.99-1.96-2.16c0.06-1.11,0.97-1.98,2.06-1.96
				C66.05,113.22,66.98,114.19,66.95,115.33z"/>
		</g>
	</g>
</g>
</svg>
