<?xml version="1.0" encoding="utf-8"?>
<!-- Generator: Adobe Illustrator 25.0.0, SVG Export Plug-In . SVG Version: 6.00 Build 0)  -->
<svg version="1.1" xmlns="http://www.w3.org/2000/svg" xmlns:xlink="http://www.w3.org/1999/xlink" x="0px" y="0px"
	 viewBox="0 0 200 200" style="enable-background:new 0 0 200 200;" xml:space="preserve">
<style type="text/css">
	.st0{fill:#FFFFFF;}
	.st1{fill:#70108E;}
</style>
<g id="BACKGROUND">
</g>
<g id="OBJECTS">
	<rect x="0.48" y="0.98" class="st0" width="199.56" height="199.56"/>
	<g>
		<g>
			<path class="st1" d="M79.81,78.09c1.08-0.59,2-1.02,2.81-1.6c0.28-0.2,0.35-0.81,0.35-1.23c0.02-9.56,0.03-19.12,0.01-28.68
				c0-1.93,0.57-3.56,2.23-4.65c3.01-1.98,7.12-0.03,7.32,3.64c0.21,3.95,0.09,7.91,0.06,11.87c-0.01,1.09-0.83,1.82-1.79,1.8
				c-1-0.03-1.7-0.79-1.71-2c-0.02-3.45-0.01-6.9-0.01-10.34c0-0.39,0.1-0.88-0.09-1.15c-0.3-0.43-0.82-0.99-1.24-0.97
				c-0.41,0.01-0.89,0.61-1.17,1.05c-0.18,0.28-0.07,0.76-0.07,1.15c0,9.64-0.03,19.28,0.02,28.92c0.01,1.79-0.64,2.92-2.2,3.77
				c-4.61,2.51-9.18,5.08-13.73,7.68c-1.36,0.78-2.59,0.83-3.99,0.16c-2.86-1.37-5.77-2.63-8.65-3.94c-0.25-0.11-0.5-0.22-0.75-0.33
				c-0.75-0.32-1.41-0.22-1.79,0.55c-0.4,0.81,0.02,1.39,0.72,1.73c1.33,0.66,2.69,1.27,4.06,1.85c1.24,0.53,2.18,1.31,2.25,2.73
				c0.07,1.43-0.8,2.29-1.98,2.93c-2.06,1.12-4.1,2.28-6.15,3.43c-0.31,0.17-0.74,0.31-0.86,0.58c-0.21,0.48-0.46,1.19-0.26,1.54
				c0.21,0.35,0.95,0.49,1.47,0.52c0.33,0.02,0.69-0.32,1.04-0.51c9.19-5.14,18.39-10.26,27.55-15.45c3.09-1.75,6.02-1.76,9.11,0
				c6.7,3.82,13.5,7.46,20.14,11.38c1.89,1.12,3.31,0.67,5.09-0.13c-0.98-0.56-1.86-1.06-2.74-1.55c-1.08-0.6-1.74-1.49-1.67-2.75
				c0.06-1.26,0.81-2.08,1.93-2.58c1.39-0.63,2.78-1.25,4.17-1.88c0.8-0.36,1.37-0.9,0.92-1.83c-0.44-0.91-1.21-0.84-2.01-0.48
				c-3.14,1.42-6.28,2.81-9.4,4.27c-1.25,0.58-2.37,0.55-3.57-0.13c-4.73-2.68-9.48-5.34-14.24-7.98c-1.3-0.72-1.92-1.72-1.9-3.22
				c0.05-3.33,0.01-6.66,0.02-9.99c0-1.46,0.67-2.31,1.78-2.29c1.1,0.02,1.74,0.86,1.74,2.34c0.01,2.94,0.04,5.88-0.02,8.82
				c-0.02,0.9,0.19,1.46,1.06,1.81c0.64,0.26,1.23,0.67,2.08,1.15c0-0.59,0-0.99,0-1.39c0.04-2.98-0.1-5.97,0.16-8.92
				c0.43-4.94,4.37-8.09,9.35-7.87c9.73,0.44,16.75,5.23,21.68,13.39c3.61,5.98,5.54,12.58,6.81,19.38c0.18,0.96,0.51,1.4,1.52,1.69
				c13.42,3.97,21.78,12.82,24.52,26.51c3.15,15.76-6.22,31.88-21.31,37.38c-15.83,5.77-33.01-0.55-41.15-15.36
				c-4.84-8.8-5.47-18.09-2.05-27.56c0.56-1.55,0.51-3.03,0.5-4.59c-0.03-6.74-0.04-13.48,0.01-20.22c0.01-1.08-0.29-1.7-1.28-2.17
				c-1.37-0.66-2.69-1.44-4-2.23c-1.78-1.07-3.53-1.08-5.32-0.01c-1.44,0.86-2.91,1.7-4.41,2.46c-0.75,0.38-0.95,0.87-0.95,1.66
				c0.03,6.78,0.01,13.56,0.02,20.34c0.01,5.97-2.28,10.8-7.13,14.33c-2.53,1.84-5.38,2.94-8.51,3c-5.57,0.09-10.55,1.61-14.79,5.35
				c-1.69,1.5-3.69,1.89-5.79,0.93c-2.2-1-3.13-2.87-3.16-5.2c-0.1-7.13-0.42-14.27-0.18-21.38c0.33-9.78,1.81-19.41,5.59-28.54
				c2.51-6.07,5.98-11.45,11.61-15.15c4.5-2.95,9.47-4.25,14.83-3.93c3.64,0.22,7.18,3.74,7.39,7.38c0.18,3.09,0.12,6.19,0.16,9.28
				C79.81,77.05,79.81,77.46,79.81,78.09z M96.64,126.78c-0.05,16.5,13.49,30.05,30.05,30.08c16.54,0.03,30.07-13.46,30.1-30.02
				c0.03-16.52-13.43-30.01-30.04-30.1C110.31,96.65,96.69,110.24,96.64,126.78z M58.04,90.3c-1.36-0.64-2.54-1.14-3.67-1.74
				c-1.98-1.05-2.99-3.19-2.54-5.21c0.71-3.14,3.77-4.66,6.86-3.33c3.01,1.31,5.98,2.72,8.99,4.04c0.4,0.17,1.02,0.22,1.38,0.03
				c2.21-1.17,4.39-2.41,6.56-3.67c0.3-0.18,0.63-0.64,0.63-0.97c0.04-3.68,0.11-7.37-0.03-11.05c-0.12-3.15-2.39-5.1-5.49-5.01
				c-6.46,0.19-11.81,2.74-16.05,7.61c-4.08,4.7-6.31,10.31-7.94,16.2c-1.69,6.1-2.51,12.34-2.95,18.64
				c-0.55,7.83-0.37,15.66,0.18,23.49c0.12,1.73,1.66,2.34,3.06,1.28c0.69-0.52,1.33-1.1,2.02-1.61c4.36-3.2,9.31-4.43,14.65-4.63
				c6.76-0.25,12.23-5.56,12.46-12.32c0.24-6.77,0.09-13.55,0.1-20.33c0-0.14-0.06-0.29-0.12-0.52c-0.44,0.24-0.81,0.43-1.18,0.63
				c-5.84,3.27-11.68,6.54-17.52,9.81c-0.51,0.29-1.02,0.6-1.57,0.79c-1.81,0.64-3.5,0.35-4.92-0.96c-1.41-1.3-1.89-2.95-1.36-4.81
				c0.4-1.44,1.38-2.41,2.67-3.12C54.14,92.52,55.99,91.46,58.04,90.3z M130.27,93.37c-1.24-6.48-2.96-12.6-6.28-18.14
				c-4.24-7.06-10.24-11.39-18.71-11.79c-3.67-0.17-5.99,1.91-6.03,5.58c-0.03,3.37,0.02,6.74-0.03,10.11
				c-0.01,0.74,0.27,1.12,0.89,1.45c2.07,1.11,4.12,2.25,6.15,3.44c0.61,0.36,1.1,0.36,1.73,0.07c2.91-1.35,5.84-2.65,8.76-3.98
				c1.34-0.61,2.7-0.8,4.09-0.21c1.78,0.75,2.83,2.11,2.99,4.02c0.16,1.96-0.64,3.54-2.36,4.52c-1.2,0.68-2.49,1.22-3.9,1.9
				c1.69,0.95,3.18,1.79,4.68,2.62c0.33,0.18,0.71,0.4,1.07,0.41C125.59,93.39,127.85,93.37,130.27,93.37z M99.35,91.13
				c0,5.47,0,10.7,0,16.26c3.08-4.27,6.73-7.45,11.18-10C106.72,95.26,103.1,93.22,99.35,91.13z"/>
			<path class="st1" d="M154.77,126.14c0.09,14.09-9.81,25.94-23.09,28.29c-1.41,0.25-2.36-0.26-2.56-1.38
				c-0.19-1.06,0.53-1.8,2-2.12c9.58-2.08,15.98-7.79,19.04-17.06c4.23-12.81-3.85-27.34-16.93-30.69
				c-12.87-3.3-25.27,3.28-29.74,15.77c-4.79,13.39,3.98,28.95,17.9,31.78c0.38,0.08,0.77,0.15,1.15,0.24c1.32,0.3,2,1.14,1.77,2.18
				c-0.24,1.05-1.18,1.62-2.51,1.26c-2.22-0.6-4.52-1.1-6.58-2.07c-8.73-4.09-14.18-10.92-16.04-20.4
				c-2.94-14.92,7.12-29.74,22.05-32.66c15.84-3.1,30.98,7.66,33.24,23.64C154.65,124.2,154.71,125.5,154.77,126.14z"/>
			<path class="st1" d="M130.53,120.51c-0.14,4.64-3.95,8.36-8.47,8.29c-4.69-0.07-8.52-4.02-8.37-8.63c0.15-4.77,4-8.41,8.71-8.26
				C127,112.07,130.67,115.95,130.53,120.51z M122.08,115.43c-2.73,0.01-4.91,2.23-4.87,4.96c0.03,2.67,2.22,4.86,4.87,4.88
				c2.69,0.02,4.93-2.22,4.93-4.94C127.01,117.59,124.82,115.42,122.08,115.43z"/>
			<path class="st1" d="M133.99,139.49c0.04,4.16-3.42,7.66-7.59,7.69c-4.15,0.02-7.67-3.48-7.67-7.63c0-4.1,3.41-7.55,7.55-7.63
				C130.41,131.85,133.95,135.32,133.99,139.49z M130.46,139.5c-0.03-2.25-1.94-4.1-4.17-4.05c-2.19,0.05-4.03,1.92-4.03,4.1
				c0,2.23,1.9,4.12,4.13,4.11C128.64,143.64,130.49,141.75,130.46,139.5z"/>
			<path class="st1" d="M132.51,114.46c0.01-3.05,2.47-5.54,5.51-5.57c3.05-0.03,5.62,2.52,5.61,5.6c0,3.02-2.49,5.53-5.52,5.57
				C135.05,120.09,132.5,117.55,132.51,114.46z M138.08,112.42c-1.08-0.01-2.01,0.9-2.03,1.99c-0.02,1.12,0.82,2.03,1.93,2.07
				c1.13,0.05,2.11-0.9,2.11-2.03C140.09,113.4,139.14,112.44,138.08,112.42z"/>
			<path class="st1" d="M135.56,122.21c2.81,0,5.05,2.23,5.05,5.05c0,2.8-2.27,5.09-5.05,5.09c-2.76,0-5.08-2.32-5.08-5.08
				C130.48,124.47,132.75,122.21,135.56,122.21z M137.07,127.13c-0.07-0.78-0.52-1.32-1.46-1.38c-0.88-0.05-1.63,0.65-1.59,1.5
				c0.05,0.91,0.58,1.44,1.47,1.53C136.34,128.88,137.07,128.12,137.07,127.13z"/>
			<path class="st1" d="M107.82,133.2c-0.01-2.52,2-4.56,4.51-4.58c2.55-0.02,4.64,2.07,4.61,4.62c-0.03,2.5-2.1,4.55-4.59,4.54
				C109.86,137.76,107.82,135.71,107.82,133.2z M113.85,133.13c-0.73-0.46-1.18-0.97-1.53-0.91c-0.37,0.07-0.85,0.66-0.88,1.06
				c-0.03,0.28,0.61,0.88,0.94,0.88C112.77,134.15,113.16,133.65,113.85,133.13z"/>
			<path class="st1" d="M138.67,138.85c-1.23-0.04-2.14-1.39-1.49-2.43c0.5-0.8,1.25-1.53,2.06-2.01c1-0.6,2.27,0.31,2.33,1.49
				C141.62,137.05,139.82,138.88,138.67,138.85z"/>
		</g>
	</g>
</g>
</svg>
