<svg xmlns="http://www.w3.org/2000/svg" width="200" height="200" viewBox="0 0 200 200">
  <g id="Group_11695" data-name="Group 11695" transform="translate(-1032 -1878)">
    <circle id="Ellipse_3" data-name="Ellipse 3" cx="100" cy="100" r="100" transform="translate(1032 1878)" fill="#fff"/>
    <g id="Group_11685" data-name="Group 11685" transform="translate(1078 1924)">
      <path id="Path_6199" data-name="Path 6199" d="M93.4,94.64c-.29,1.24-.552,2.295-.778,3.356a13.739,13.739,0,0,1-2.739,6.388,8.939,8.939,0,0,1-11.047,1.993,8.844,8.844,0,0,1-4.79-5.259,5.19,5.19,0,0,1,1.595-5.889c.537-.471,1.128-.88,1.684-1.331.869-.705.983-1.084.459-2.073a6.01,6.01,0,0,0-1.1-1.5c-2.533-2.431-5.093-4.836-7.654-7.237-.958-.9-1.945-1.771-2.921-2.657C60,88.291,52.084,92.708,42.1,93a29.5,29.5,0,0,1-22.7-9.17A29.564,29.564,0,0,1,10.78,59.354c.892-9.436,5.537-16.829,13.274-22.382-.884-.839-1.725-1.668-2.6-2.46-1.408-1.277-2.833-2.534-4.262-3.789a8.6,8.6,0,0,0-1.071-.808c-1.377-.87-1.875-.773-2.856.516-.313.409-.62.823-.95,1.216A5.319,5.319,0,0,1,6.09,33.317a9.69,9.69,0,0,1-4.89-13.6,9.345,9.345,0,0,1,5.48-4.168c1.595-.494,3.241-.82,4.863-1.229.344-.087.68-.206,1.152-.352-.479-.533-.9-1.011-1.329-1.48a8.061,8.061,0,0,1-2-3.368A6.7,6.7,0,0,1,12,2.205,11.411,11.411,0,0,1,17.733.15,24.583,24.583,0,0,1,26.78.808a4.469,4.469,0,0,1,3.5,3.263,6.984,6.984,0,0,1-.192,3.378c-.474,2-1.048,3.973-1.411,5.989a8.6,8.6,0,0,0,1.34,6.609c2.074,2.966,4.285,5.836,6.451,8.737.575.77,1.228,1.481,1.794,2.258a1.672,1.672,0,0,0,1.626.749,28.278,28.278,0,0,1,12.781,2.148A30.275,30.275,0,0,1,71.124,55.487a29.343,29.343,0,0,1,.682,9.794,1.064,1.064,0,0,0,.291.795,160.461,160.461,0,0,0,13.684,10.47,12.346,12.346,0,0,0,11.162,1.639,38.536,38.536,0,0,1,4.149-1.051c2.668-.5,4.677.6,5.4,3.2a20.718,20.718,0,0,1-.05,12.8,7.1,7.1,0,0,1-5.886,5.052,6.361,6.361,0,0,1-5.262-1.828c-.585-.509-1.149-1.04-1.9-1.715M68.906,62.4A27.644,27.644,0,1,0,41.767,90.022,27.606,27.606,0,0,0,68.906,62.4M67.749,77.822c.25.234.445.418.642.6,3.168,2.93,6.35,5.844,9.5,8.8a9.972,9.972,0,0,1,2.9,3.964,4.04,4.04,0,0,1-1.1,4.642c-.527.482-1.113.9-1.673,1.342-1.415,1.12-1.68,2.249-.764,3.811a6.74,6.74,0,0,0,5.657,3.44c3.171.2,5.313-1.913,6.206-4.869.508-1.684.761-3.443,1.262-5.129.914-3.072,3.2-3.67,5.567-1.527.563.51,1.113,1.04,1.713,1.5a3.307,3.307,0,0,0,4.79-.421,7.356,7.356,0,0,0,1.323-2.37,15.68,15.68,0,0,0,.456-7.164,21.822,21.822,0,0,0-.662-3.34,1.283,1.283,0,0,0-1.756-1.013c-1.612.349-3.211.764-4.8,1.194a14.153,14.153,0,0,1-12.353-1.921c-3.369-2.356-6.677-4.8-9.987-7.239-1.193-.88-2.311-1.863-3.52-2.843a31.042,31.042,0,0,1-3.4,8.546M35.391,32.279c-.284-.353-.527-.639-.753-.937-2.151-2.829-4.328-5.64-6.443-8.5A13.174,13.174,0,0,1,25.863,11.8c.413-1.917.976-3.8,1.423-5.71.334-1.43.049-1.974-1.34-2.364a21.375,21.375,0,0,0-7.512-.608A9.8,9.8,0,0,0,14.4,4.237c-1.913,1.056-3.275,3.556-1.049,5.944a20.645,20.645,0,0,1,1.867,2.193,2.606,2.606,0,0,1-.986,4.117,19.45,19.45,0,0,1-3.16,1.025A41.313,41.313,0,0,0,6.6,18.861a5.52,5.52,0,0,0-3.592,5.8,6.644,6.644,0,0,0,3.62,5.6c1.488.808,2.534.514,3.583-.807.5-.629.975-1.285,1.526-1.865a3.467,3.467,0,0,1,3.578-1.155,9.286,9.286,0,0,1,3.051,1.419c1.788,1.371,3.444,2.917,5.124,4.425,1.111,1,2.17,2.056,3.26,3.093a31.2,31.2,0,0,1,8.637-3.095" transform="translate(0 0)" fill="#653f8c" stroke="#653f8c" stroke-width="0.2"/>
      <path id="Path_6200" data-name="Path 6200" d="M54.172,52.694a6.831,6.831,0,0,1-11.319,5.69A96.988,96.988,0,0,1,29.489,45.036c-1.092-1.329-2.272-2.587-3.4-3.892a6.734,6.734,0,0,1,3.579-11.087,8.312,8.312,0,0,1,8.262,2.425c4.574,4.814,9.3,9.487,13.982,14.2a7.511,7.511,0,0,1,2.255,6.017m-3.042.138c0-2.391-.213-2.9-1.763-4.405-1.121-1.091-2.274-2.148-3.367-3.267-3.424-3.5-6.809-7.04-10.248-10.525a6.426,6.426,0,0,0-2.093-1.488,7.251,7.251,0,0,0-2.379-.252,3.482,3.482,0,0,0-3.494,2.135,3.61,3.61,0,0,0,.625,4.171c1.474,1.681,2.99,3.33,4.4,5.06A87.683,87.683,0,0,0,44.845,56.1a3.783,3.783,0,0,0,6.285-3.271" transform="translate(8.616 10.549)" fill="#653f8c" stroke="#653f8c" stroke-width="0.2"/>
      <path id="Path_6201" data-name="Path 6201" d="M25.267,37.748c2.946,0,5.083,2.993,4.1,6.643a7.819,7.819,0,0,1-3.578,4.982,2.094,2.094,0,0,0-.838,2.479,6.207,6.207,0,0,0,2.568,3.73c3.364,2.381,4.492,6.981,3.432,10.677-.661,2.307-2.009,3.059-4.317,2.319a24.47,24.47,0,0,1-6.138-3.514c-3.047-2.074-4.272-5.068-4.761-8.55a45.263,45.263,0,0,0-1.007-4.7,6.18,6.18,0,0,1,.539-4.04,33.14,33.14,0,0,1,5.384-8.292c1.006-1.189,2.411-1.744,4.622-1.731m2.572,28.113a6.81,6.81,0,0,0-1.987-7.73A9.728,9.728,0,0,1,21.995,52.5a5.079,5.079,0,0,1,2.115-5.634,5.1,5.1,0,0,0,2.465-4,1.82,1.82,0,0,0-1.987-2.12,2.543,2.543,0,0,0-1.867.923c-.273.326-.535.661-.788,1a29.543,29.543,0,0,0-3.838,6.193,4.217,4.217,0,0,0-.409,2.121c.336,2.132.889,4.229,1.27,6.356a7.194,7.194,0,0,0,3.016,5.014c1.275.864,2.53,1.757,3.835,2.572a17.114,17.114,0,0,0,2.032.935" transform="translate(5.158 13.355)" fill="#653f8c" stroke="#653f8c" stroke-width="0.2"/>
      <path id="Path_6202" data-name="Path 6202" d="M37.323,56.025a7.183,7.183,0,0,1,3.795-1.4,5.878,5.878,0,0,1,1.66.1,2.534,2.534,0,0,1,1.9,2.854,3.739,3.739,0,0,1-1.266,2.657,45.533,45.533,0,0,1-7.148,5.192c-.138.076-.275.152-.417.217-1.929.879-3.275.321-3.87-1.726-.491-1.69-.829-3.424-1.248-5.133a11.06,11.06,0,0,0-.376-1.143,2.41,2.41,0,0,0-1.407-1.5,5.406,5.406,0,0,1-3.46-3.734,4.53,4.53,0,0,1,.734-3.564c.552-.908,1.014-1.872,1.507-2.816.164-.317.276-.661.451-.969a2.091,2.091,0,0,1,3.026-.88,6.349,6.349,0,0,1,1.5,1.209,14.723,14.723,0,0,1,3.589,6.493c.191.8.192,1.641.374,2.444a12.185,12.185,0,0,0,.658,1.7m4.442,1.649a3.415,3.415,0,0,0-2.582.785,2.576,2.576,0,0,1-4.057-.449,7.571,7.571,0,0,1-1.561-3.727,9.383,9.383,0,0,0-1.22-4.248c-.582-.879-1.178-1.748-1.738-2.578-.684,1.129-1.279,2.139-1.9,3.134a1.369,1.369,0,0,0,.183,1.932,5.543,5.543,0,0,0,1.5.979,4.936,4.936,0,0,1,2.74,2.962,19.143,19.143,0,0,1,.684,2.167c.334,1.361.617,2.733.944,4.206a49.806,49.806,0,0,0,7.01-5.163" transform="translate(8.98 15.514)" fill="#653f8c" stroke="#653f8c" stroke-width="0.2"/>
    </g>
  </g>
</svg>
