<?xml version="1.0" encoding="utf-8"?>
<!-- Generator: Adobe Illustrator 25.0.0, SVG Export Plug-In . SVG Version: 6.00 Build 0)  -->
<svg version="1.1" xmlns="http://www.w3.org/2000/svg" xmlns:xlink="http://www.w3.org/1999/xlink" x="0px" y="0px"
	 viewBox="0 0 200 200" style="enable-background:new 0 0 200 200;" xml:space="preserve">
<style type="text/css">
	.st0{fill:#FFFFFF;}
	.st1{fill:#70108E;}
</style>
<g id="BACKGROUND">
</g>
<g id="OBJECTS">
	<rect x="0.48" y="0.98" class="st0" width="199.56" height="199.56"/>
	<g>
		<g>
			<path class="st1" d="M66.21,62.28c2.1,2.12,4.08,4.15,6.13,6.12c0.25,0.25,0.92,0.32,1.27,0.17c2.35-0.99,4.74-1.3,7.26-0.85
				c0.41,0.07,1.12-0.15,1.32-0.47c1.52-2.39,2.95-4.84,4.42-7.31c-0.36-0.42-0.69-0.8-1-1.18c-3.55-4.28-3.6-10.47-0.12-14.85
				c3.42-4.3,9.45-5.64,14.39-3.19c4.91,2.43,7.51,7.96,6.22,13.25c-1.34,5.47-6.21,9.23-11.76,9.05c-0.77-0.03-1.58-0.07-2.3-0.32
				c-0.91-0.31-1.38-0.11-1.86,0.73c-1.28,2.27-2.66,4.48-4.03,6.76c3.51,3.37,5.03,7.37,3.75,12.1c-1.26,4.66-4.48,7.42-9.12,8.58
				c0,2.87,0,5.66,0,8.53c7.48,1.47,12.6,5.78,15.38,12.94c2.47-0.6,4.86-1.18,7.23-1.75c-0.7-8.9,7.25-15.14,15.81-12.61
				c1.6-2.66,3.21-5.36,4.85-8.09c-0.31-0.36-0.58-0.67-0.85-0.97c-3.79-4.31-3.93-10.73-0.35-15.17c3.64-4.5,10.05-5.7,15.01-2.82
				c5,2.9,7.18,8.89,5.2,14.26c-2,5.42-7.64,8.63-13.32,7.44c-1.25-0.26-1.77,0.05-2.33,1.08c-1.28,2.32-2.7,4.56-4.05,6.8
				c4.33,5.63,4.66,8.84,1.58,15.49c4.95,3.87,9.92,7.75,14.96,11.68c2.99-2.04,6.25-2.76,9.79-1.95c2.74,0.63,4.95,2.11,6.65,4.34
				c3.33,4.36,3.13,10.61-0.45,14.73c-3.69,4.25-9.75,5.35-14.61,2.65c-5.57-3.09-7.14-8.43-4.68-16.18
				c-3.71-2.91-7.46-5.84-11.21-8.77c-0.25-0.2-0.53-0.37-0.76-0.59c-1.87-1.8-3.6-2.63-6.53-1.53c-4.54,1.71-9.43-0.36-12.36-4.32
				c-0.47-0.64-0.89-0.88-1.7-0.66c-1.94,0.53-3.9,1.03-5.87,1.43c-0.93,0.19-1.11,0.61-1.11,1.48c-0.03,9.08-5.9,16.69-14.56,18.82
				c-4.37,1.08-8.63,0.65-12.83-1.25c-2.1,2.62-4.18,5.22-6.24,7.79c3.67,6.16,1.64,12.55-2.7,15.88
				c-4.55,3.48-10.96,3.18-15.15-0.72c-4.16-3.87-4.97-10.13-1.92-14.94c3.39-5.34,9.18-6.68,16.32-3.71
				c1.81-2.26,3.63-4.54,5.5-6.88c-6.02-5.67-8.39-12.49-5.97-20.44c2.43-7.96,8.24-12.26,16.44-13.64c0-2.62,0.02-5.22-0.03-7.83
				c-0.01-0.29-0.39-0.74-0.68-0.82C68.01,88.62,63.99,79.55,69,72.36c0.02-0.03,0.02-0.09,0.04-0.23c-2.24-2.26-4.5-4.58-6.84-6.83
				c-0.28-0.27-1.01-0.24-1.49-0.13c-6.1,1.33-12.11-2.19-13.88-8.16c-1.75-5.89,1.34-12.13,7.1-14.32
				c4.97-1.89,10.57-0.21,13.71,4.11c3.11,4.29,2.94,10.17-0.42,14.3C66.91,61.47,66.58,61.85,66.21,62.28z M77.88,132.89
				c7.87-0.02,14.35-6.5,14.36-14.36c0.01-7.93-6.49-14.44-14.43-14.43c-7.9,0.01-14.42,6.58-14.36,14.49
				C63.51,126.45,70.03,132.91,77.88,132.89z M85.44,79.37c0.03-3.84-3-6.94-6.82-6.98c-3.82-0.04-6.95,3.01-6.98,6.81
				c-0.04,3.81,3.03,6.96,6.82,6.99C82.27,86.23,85.41,83.16,85.44,79.37z M60.46,150.21c-0.02-3.82-3.1-6.88-6.93-6.87
				c-3.8,0.02-6.9,3.14-6.88,6.94c0.02,3.79,3.16,6.89,6.95,6.87C57.42,157.13,60.48,154.04,60.46,150.21z M122.1,109.2
				c0.03-3.81-3.04-6.91-6.86-6.95c-3.77-0.03-6.93,3.09-6.96,6.88c-0.03,3.76,3.1,6.93,6.89,6.96
				C118.94,116.11,122.06,113.01,122.1,109.2z M140.06,137.19c0.01,3.82,3.11,6.91,6.9,6.9c3.79-0.02,6.91-3.15,6.9-6.93
				c-0.01-3.77-3.18-6.93-6.94-6.91C143.11,130.26,140.04,133.37,140.06,137.19z M94.7,44.37c-3.82-0.02-6.91,3.03-6.94,6.86
				c-0.03,3.81,3.05,6.93,6.85,6.95c3.8,0.01,6.94-3.07,6.97-6.86C101.61,47.54,98.49,44.39,94.7,44.37z M132.01,74.26
				c-3.8,0-6.94,3.11-6.93,6.89c0,3.83,3.2,6.97,7.06,6.94c3.67-0.03,6.78-3.21,6.79-6.92C138.93,77.37,135.81,74.26,132.01,74.26z
				 M58.13,46.8c-3.83-0.01-6.91,3.03-6.92,6.86c-0.02,3.79,3.09,6.93,6.87,6.94c3.78,0.01,6.93-3.12,6.95-6.89
				C65.05,49.92,61.94,46.81,58.13,46.8z"/>
		</g>
	</g>
</g>
</svg>
