<svg xmlns="http://www.w3.org/2000/svg" width="38" height="38" viewBox="0 0 38 38">
  <g id="Group_11687" data-name="Group 11687" transform="translate(-1562 -681)">
    <circle id="Ellipse_1" data-name="Ellipse 1" cx="19" cy="19" r="19" transform="translate(1562 681)" fill="#fff"/>
    <g id="Group_11686" data-name="Group 11686" transform="translate(3 2.188)">
      <path id="Path_6195" data-name="Path 6195" d="M2.786,11.967C6.37,10.513,4.8,8.027,4.918,6.72a2.434,2.434,0,0,1,.9-.107,27.424,27.424,0,0,0,.23,4.715,3.076,3.076,0,0,0,.8,1.7.914.914,0,0,1,.31.936,1.7,1.7,0,0,1-.355.874c-.538,0-.973-.889-1.935-.348-.722.406-.537,1.113-.558,2.016-.818.228-.55-.048-1.058.067-.555.126-.563-.155-.941.12-.28.2-.025.12-.387.241-.222.075-.306.1-.409.28-.114.2-.055.259-.177.444-.1.153-.234.179-.266.444-.037.3.07.276.026.52-.169.932.062.1-.055.932l-.015,2.249c-.033.34.073.26.028.586a1.211,1.211,0,0,0,.006.552c.023.269-.081.236-.044.537.033.269.1.156.11.509.021.795.238.479.478.858.093.147.124.282.3.384.224.127.327.049.523.11.222.069.18.2.534.176.29-.016.359-.178.454-.087.182.172-.042.319.157.469.4.3.692-.7.161-1.12-.255-.2-.169-.169-.341-.348a.639.639,0,0,0-.437-.182c-.42-.067-.191-.106-.461-.166.38-.08,3.89,0,4.6,0,.677,0,1.622.157,2.07-.277a1.155,1.155,0,0,0-.039-1.655c.481-.263.949-.534.791-1.349-.141-.73-.613-.768-1.381-.836a1.229,1.229,0,0,0,.324-1.127c-.25-1.086-1.409-.8-2.33-.817-.94-.013-1.243.1-1.264-.281a1,1,0,0,0,.548.078c.455-.079.124-.015.536.018.325.026.262-.093.505-.051a.94.94,0,0,0,.6,0c.211-.031.193.085.512.054.458-.045.064-.078.523-.007.236.036.85-.134,1.239.142.486.344.247,1.344.264,1.56.033.412.089.1.011.531-.064.358.059.313.025.589-.019.153-.067.114-.067.327,0,.339.031.007.063.319L10,22.6c.055.418-.006.231-.02.584a1.039,1.039,0,0,1-.121.812l-.323.253-.146.043c-.425.116-.222-.033-.877.04l-1.286-.042c-.187.017-.144.053-.308.045-.191-.009-1.675-.416-1.444.775.14.722-.374.792.034,1.789.191.467.092,1,.225,1.291h.1c.331-.847-.482-1.59-.117-2.642.14-.4.077-.159-.016-.467-.134-.447.114-.594.548-.567.269.017.235-.067.5.023.329.114.056.155.355.029s.21-.1.477.016c.317.142.079.032.365-.052.318-.093.277.05.451.094.258.065.052-.106.4-.117.3-.01.189.143.459.076s.113-.11.541-.087c.114-.308.078-.253.381-.362-.034-.562.2-.427.106-.689-.115-.339-.043-.356.075-.641-.329-.438-.056-.458-.034-.7.017-.189-.088-.071-.1-.363s.093-.208.1-.38-.1-.084-.1-.368c0-.318.1-.153.108-.382.011-.331-.271-.112.037-.746-.281-.54-.089-.368-.037-.71.047-.312-.257-.113,0-.73-.419-.651-.1-.3-.7-.845-.4.153-.311.016-.563-.044-.009,0-.027-.008-.036-.009-.21-.021-.217.131-.479.089-.209-.034-.071-.053-.233-.084-.289-.056.049-.031-.241.058a.536.536,0,0,1-.537-.11c-.394.169-.359.2-.751-.006-.49.263-.5,0-.792.041-.143.021-.05.07-.28.1-.39.044-.242-.185-.5-.122-.392.1.015.212-.544.046-.428-.127-.122.135-.562.065-.4-.063-.024-.224-.445-.049-.341.141-.357-.043-.569-.041s-.02.024-.263.095a.844.844,0,0,1-.342.029.508.508,0,0,1-.387.366c.037.379-.159.408-.093.692.034.144.114.053.06.342-.033.178-.128.173-.108.308.052.363.231.011.018.654-.1.288.235.158.054.63-.1.263-.122.041-.057.245.158.5.127.163-.007.613-.064.215-.005,0,.08.3.128.445-.224.214-.06.627.2.511-.022.256-.036.719,1.2-.107,3.552-.049,4.9-.012l1.261.01c.284-.017.215.048.279-.13-.12-.239-1.3-.1-1.6-.108-.579-.016-1.173,0-1.753,0-1.045,0-2.688.289-2.438-1.069.177-.959,1.721-.649,2.751-.65a23.916,23.916,0,0,0,3.494-.048c-.059-.195.118-.108-.231-.159-.483-.072-3.583-.025-4.265-.031-.591-.006-.936.041-1.187-.376a.944.944,0,0,1,.149-1.16c.311-.265.945-.181,1.414-.18.523,0,1.044.015,1.565.014l1.2.007c.3-.011.21.054.31-.119-.118-.215-.681-.112-.944-.112-.9,0-2.09.075-2.163-1.175.726.063.147.382.907.412a12.911,12.911,0,0,1,2.654.1.942.942,0,0,1,.411.947c-.138.9-1.207.684-2.059.685-.5,0-2.009-.081-2.45-.021-.388.053-.168-.063-.242.161a24.936,24.936,0,0,0,3.443.08c1,0,2.632-.26,2.348,1.083-.2.934-1.682.636-2.849.635l-3.077-.026c-.387.018-.237-.036-.3.169a20.164,20.164,0,0,0,3.631.077,7.02,7.02,0,0,1,1.708.093.9.9,0,0,1,.34,1.252c-.3.5-.792.395-1.421.394s-1.254-.016-1.879-.015c-1.25,0-2.518-.007-3.7-.063.033.294-.026.355.224.493.206.114.055.034.217.156.223.168.138-.012.566.07.088.1.1.151.185.244.15.175.09.077.248.19.267.19.22.416.171.729a1.137,1.137,0,0,0-.207-.488c-.444-.057-.2.062-.533.113s-.319-.119-.473-.193c-.243-.116-.139.073-.457-.039-.28-.1-.194-.25-.288-.412-.2-.355-.519.031-.389-.77.041-.253-.452-.493,0-.811-.366-.769.05-.542-.07-.894-.082-.242-.17-.136-.052-.434.189-.481.091-.024-.009-.457-.089-.388.086-.28.092-.49.006-.228-.2-.108-.074-.537a.456.456,0,0,0,0-.422.617.617,0,0,1,.117-.54c-.233-.334-.217-.459.035-.743-.344-.5-.1-.463.133-.772l.045-.079c.161-.392-.022-.589.657-.543.131-.407.293-.41.7-.262.243.088.072-.046.376-.1.337-.062.262.1.48.09s.116-.156.421-.073c.176.048.08.2.375.074.484-.214.388.038.7,0,.045,0,.131-.06.228-.081.339-.071.239.057.434.083.229.03.088-.107.448-.065.328.039.207.109.414.08a1.152,1.152,0,0,1,.534-.015c.388.073,0,.043.373-.067.322-.1.277.036.457.089.219.064.1-.083.392-.109.215-.019.285.094.446.164.287-.307.54-.2.734.127.581-.166.59.017.743.459.224.119.375.1.414.39.034.255-.016.119-.043.272-.063.361-.053.038.066.278.225.456-.035.349-.033.61,0,.307.205.063.037.626-.115.384.149.166.048.605-.044.192-.088.109-.087.277,0,.192.069.072.1.323.047.433-.224.174-.08.521s.131.358-.082.59c.106.248.34.467-.007.738.074.165.168.2.171.4,0,.284-.143.233-.133.421.012.237.313.6-.287.751.035.535-.138.545-.5.638-.4.1-.189.442-.769.262-.466-.145-.123.135-.607.063-.189-.028-.154-.084-.272-.1-.146-.014-.091.035-.256.077-.41.1-.315-.119-.57-.068-.445.089-.065.149-.587,0a.93.93,0,0,0-.559.137,1.944,1.944,0,0,1,.072,1.341,2.455,2.455,0,0,0-.188,1.477h.135c.144-.558,0-.77.243-1.349.232-.552.077-.809.044-1.325.346-.073.248.037.555.035.223,0,.216-.079.4-.057.249.03.154.1.507.033.576-.111-.022.108.882-.035.2-.031.185.042.4.049.423.014.354-.218.755-.338.485-.145.394-.239.58-.621.145-.3.371-.308.317-.807-.046-.429.028-.194.051-.536.018-.265-.064-.253-.044-.479.026-.3.073-.136.022-.5s0-.123.024-.458l-.022-1.048c-.048-.348.009-.15.037-.463.019-.214-.055-.276-.056-.429,0-.195.091-.194.056-.477s-.086-.109-.032-.4c.1-.545-.086-.423-.07-.828.027-.662-.257-.624-.393-.775-.243-.267-.062-.464-.62-.56-.476-.082-.156-.02-.469-.168a4.519,4.519,0,0,0-1.463.012c.224-.385.4-.253.179-.8a2.386,2.386,0,0,0,1.691-1.469A2.656,2.656,0,0,0,9.6,11.982a8.009,8.009,0,0,0,1.849.559l.163-.555v-.729a10.756,10.756,0,0,0-.545-2.062,8.514,8.514,0,0,0-.94-1.691A3.454,3.454,0,0,0,8.73,6.261c-.5-.195-.611.041-1.064-.121-.249-.089-.8-.174-.964-.354-.2-.463.1-2.833-.258-3.933A2.376,2.376,0,0,0,4.218,0c-.247,0-.148-.038-.312.066.139.4.514-.08,1.448.555,1.4.953,1.071,3.533,1.07,5.08a35.928,35.928,0,0,0,.267,5.8c.146.693.266,1.01.848,1.22a2.3,2.3,0,0,1,.407-.474c1.772-1.384,2.845,1.826,1.226,2.978a2.622,2.622,0,0,1-2.806.227c-.275-.186-.612-.792-1.182-.523-.418.2-.3,1.028-.295,1.6l-.341.112c-.081-.991-.144-1.914.764-2.068.859-.145,1.389,1.17,1.889.061a1.966,1.966,0,0,0,.161-1.181c-.2-.934-.946-.291-1.226-3.194-.181-1.88-.088-3.9-.086-5.808,0-1.148.192-2.588-1.263-3.136C4.5,1.21,3.728,1.039,3.45,1.26c.207.361.585-.107,1.425.345a1.739,1.739,0,0,1,.832.923,12.067,12.067,0,0,1,.067,3.3c-1.469.64-1.5.131-2.279.53C2.107,7.075.287,10.571.961,12.473a6.989,6.989,0,0,0,1.826-.505m-1.695.273A6.45,6.45,0,0,1,2.276,7.96C3.72,5.812,4.25,6.565,4.769,6.386a3.386,3.386,0,0,1,1.046-.273L5.8,6.347c-.5.087-.838.02-1.124.318-.164.352.829,2.73-.295,4.026a6.911,6.911,0,0,1-3.291,1.55M7.777,6.648c-.421-.32-.7-.145-1.115-.315l-.015-.189c.257-.106.78.166,1.067.265.437.149.523-.172,1.105.144a4.3,4.3,0,0,1,1.344,1.41c.588.87,1.467,2.895,1.157,4.256-.115.066.013.029-.15.042l-.341-.076c-.187-.062-.3-.095-.471-.155-.288-.1-.582-.234-.846-.347C6.3,10.314,7.932,7.932,7.777,6.648m-.365,5.769c-.889-.49-.818-4.531-.758-5.822a2.182,2.182,0,0,1,.921.184,7.944,7.944,0,0,0-.211,2.983A2.527,2.527,0,0,0,8.87,11.6l-.146.064c-1.363.466-.57.305-1.312.756M5.129,16.569a3.823,3.823,0,0,1,.045-1.33c.275-.418.691.1.829.211-.672.27-.636.577-.294,1.089-.345.052-.292.152-.58.03m2.611-.015c-.388.11-.395-.02-.73.032-1.419.218-2.06-1.3-.219-.681.525.175,1.207-.024,1.487.258-.073.21-.262.313-.538.391M2.877,17.822c.415-.118.315.058.782-.029.259-.048.085-.039.347.008.09.016.131.019.213.032l.23.044a1.778,1.778,0,0,0,.637,1.1c-1,0-1.906-.161-2.213.668-.241.652.069.907.258,1.278-.385.234-.614.29-.759.791a1.246,1.246,0,0,0,.314,1.137l-.406,0a2.087,2.087,0,0,0-.042-.512c-.019-.256.046-.136.051-.42s-.074-.194-.038-.47c.092-.713-.042-.207.036-.911a1.33,1.33,0,0,0-.041-.449c-.013-.209.066-.195.048-.485A4.09,4.09,0,0,1,2.32,18.34a.656.656,0,0,1,.557-.518" transform="translate(1572.393 683.812)" fill="#653f8c" stroke="#653f8c" stroke-width="0.2" fill-rule="evenodd"/>
      <path id="Path_6196" data-name="Path 6196" d="M2.178,46.165A4.719,4.719,0,0,0,.061,51.1a1.4,1.4,0,0,0,.293.781c.292-.282.5-.666.841-.989A2.135,2.135,0,0,1,2.425,50.3c1.54-.323.846-1.337,1.918-1.774.53-.216.783-.226,1-.821.122-.34.3-1.282.055-1.57-.312-.37-2.469-.235-3.215.031M.417,51.424a1.461,1.461,0,0,1-.171-.81,4.7,4.7,0,0,1,.4-2.4c.91-2.034,1.987-2.061,3.65-2.047.849.007,1.077-.132.954.832-.191,1.486-.716,1.037-1.324,1.494a2.957,2.957,0,0,0-.444.484.9.9,0,0,1-.426-.189c-.019-.428.212-.32.156-.72-.263-.023-.1-.039-.26.074-.126.091.041.024-.158.148-.763-.229-1.272.514-.278.6a1.563,1.563,0,0,0,.308.442c.149.13.31.158.407.3-.743.618-.8.314-1.62.679-.653.292-.814.752-1.2,1.119m2.411-2.471c-.321-.527-.425-.114-.589-.408.508-.344.551.261.7.42.174.188.289.125.463.269-.249.2-.469-.111-.573-.281" transform="translate(1573 649.615)" fill="#653f8c" stroke="#653f8c" stroke-width="0.2" fill-rule="evenodd"/>
    </g>
  </g>
</svg>
