<svg xmlns="http://www.w3.org/2000/svg" width="200" height="200" viewBox="0 0 200 200">
  <g id="Group_11693" data-name="Group 11693" transform="translate(-1504 -1878)">
    <circle id="Ellipse_5" data-name="Ellipse 5" cx="100" cy="100" r="100" transform="translate(1504 1878)" fill="#fff"/>
    <g id="Group_11686" data-name="Group 11686" transform="translate(2 1219.188)">
      <path id="Path_6195" data-name="Path 6195" d="M11.372,64.113C30.569,56.324,22.163,43,22.791,36a13.039,13.039,0,0,1,4.816-.573c.019,8.17-.224,17.457,1.233,25.26a16.476,16.476,0,0,0,4.292,9.131c1.361,1.576,1.991,2.051,1.663,5.014a9.133,9.133,0,0,1-1.9,4.683c-2.885-.007-5.21-4.762-10.365-1.863-3.866,2.173-2.876,5.962-2.991,10.8-4.382,1.219-2.948-.26-5.667.357-2.975.674-3.014-.832-5.04.645-1.5,1.095-.135.641-2.073,1.293-1.19.4-1.641.548-2.192,1.5-.611,1.056-.292,1.39-.95,2.38-.544.821-1.252.958-1.423,2.378-.2,1.629.374,1.479.137,2.784-.907,4.993.332.518-.3,4.992L1.952,116.83c-.179,1.819.389,1.4.15,3.14-.284,2.073-.138,1.054.03,2.956.126,1.439-.433,1.263-.235,2.879.175,1.442.543.838.592,2.729.112,4.258,1.275,2.568,2.559,4.6.5.787.663,1.513,1.622,2.057,1.2.678,1.749.262,2.8.59,1.189.37.962,1.049,2.86.944,1.551-.086,1.921-.952,2.434-.467.977.922-.223,1.707.843,2.51,2.137,1.61,3.709-3.743.865-6-1.364-1.081-.906-.907-1.827-1.865a3.426,3.426,0,0,0-2.342-.976c-2.252-.357-1.024-.57-2.469-.888,2.035-.429,20.842,0,24.639-.011,3.629-.012,8.688.84,11.092-1.485,2.894-2.8,1.878-6.547-.206-8.866,2.579-1.409,5.083-2.86,4.238-7.227-.757-3.908-3.285-4.112-7.4-4.481,1.018-1.633,2.464-2.879,1.737-6.036-1.341-5.82-7.546-4.307-12.482-4.376-5.036-.071-6.656.541-6.771-1.507a5.374,5.374,0,0,0,2.937.418c2.438-.425.664-.081,2.874.1,1.74.138,1.4-.5,2.706-.273,2.182.373,1.011.329,3.189.011,1.133-.165,1.033.455,2.745.287,2.451-.242.342-.417,2.8-.037,1.264.194,4.552-.716,6.638.761,2.6,1.845,1.323,7.2,1.414,8.358.178,2.21.477.514.06,2.846-.343,1.917.318,1.675.135,3.157-.1.819-.357.608-.357,1.751,0,1.816.168.038.338,1.708l-.156,6.923c.3,2.237-.031,1.237-.108,3.127-.04,1,.7,2.514-.646,4.35l-1.729,1.354c-.051.019-.76.224-.783.231-2.278.62-1.192-.178-4.7.212l-6.891-.225c-1,.093-.769.282-1.648.239-1.021-.048-8.974-2.229-7.736,4.154.75,3.87-2,4.242.182,9.586,1.024,2.5.493,5.344,1.207,6.917h.53c1.774-4.537-2.58-8.52-.624-14.156.752-2.167.411-.853-.083-2.5-.72-2.4.609-3.183,2.937-3.036,1.443.09,1.26-.361,2.669.124,1.763.608.3.828,1.9.154,1.525-.641,1.126-.553,2.555.086,1.7.76.424.172,1.957-.277,1.7-.5,1.481.269,2.415.506,1.383.35.28-.566,2.118-.626,1.625-.055,1.013.767,2.457.406s.605-.59,2.9-.466c.609-1.649.417-1.357,2.039-1.942-.182-3.012,1.045-2.289.568-3.692-.616-1.816-.228-1.909.4-3.431-1.76-2.349-.3-2.452-.182-3.766.09-1.013-.471-.38-.543-1.947-.07-1.543.5-1.116.543-2.037.048-.973-.511-.45-.534-1.973-.026-1.7.541-.819.581-2.047.059-1.774-1.454-.6.2-4-1.5-2.893-.477-1.973-.2-3.8.254-1.674-1.376-.607-.022-3.912-2.244-3.489-.536-1.608-3.726-4.527-2.122.821-1.668.086-3.017-.236-.051-.012-.143-.042-.194-.048-1.123-.111-1.164.7-2.565.474-1.122-.183-.379-.283-1.246-.45-1.547-.3.265-.164-1.293.31a2.872,2.872,0,0,1-2.879-.592c-2.11.906-1.925,1.086-4.026-.031-2.625,1.41-2.667-.007-4.242.22-.765.111-.266.377-1.5.515-2.091.234-1.294-.992-2.688-.652-2.1.514.082,1.134-2.916.247-2.29-.678-.652.726-3.009.35-2.125-.339-.127-1.2-2.386-.265-1.826.757-1.913-.231-3.049-.22-1.1.012-.108.131-1.409.508a4.524,4.524,0,0,1-1.83.154,2.721,2.721,0,0,1-2.074,1.962c.2,2.029-.854,2.188-.5,3.7.182.772.612.284.32,1.83-.179.951-.683.925-.581,1.652.277,1.943,1.239.057.094,3.5-.512,1.543,1.261.846.29,3.375-.541,1.409-.655.219-.307,1.313.847,2.677.678.872-.04,3.284-.343,1.152-.029.019.429,1.607.687,2.383-1.2,1.147-.324,3.358,1.082,2.736-.116,1.373-.194,3.852,6.423-.574,19.03-.261,26.249-.067l6.755.056c1.522-.089,1.153.258,1.492-.7-.641-1.279-6.955-.534-8.583-.578-3.1-.085-6.282-.021-9.392-.021-5.6,0-14.4,1.548-13.061-5.726.946-5.139,9.217-3.479,14.738-3.482,2.882,0,17.441.631,18.716-.258-.317-1.043.631-.577-1.235-.853-2.59-.385-19.192-.133-22.848-.168-3.168-.031-5.014.217-6.36-2.013a5.055,5.055,0,0,1,.8-6.212c1.668-1.417,5.06-.97,7.573-.963,2.8.007,5.594.081,8.386.074l6.412.036c1.626-.059,1.125.29,1.663-.635-.633-1.149-3.646-.6-5.055-.6-4.8.007-11.194.4-11.588-6.293,3.892.338.79,2.046,4.858,2.207,2.717.107,12.413-.495,14.218.553a5.049,5.049,0,0,1,2.2,5.075c-.741,4.822-6.465,3.664-11.03,3.672-2.662,0-10.76-.435-13.122-.112-2.078.286-.9-.336-1.294.865,1.269.85,17.038.426,18.442.429,5.355.011,14.1-1.392,12.577,5.8-1.058,5.006-9.012,3.405-15.261,3.4l-16.481-.139c-2.074.094-1.272-.191-1.63.9,1.931,1.185,15.983.363,19.453.414,2.159.033,7.579-.25,9.15.5a4.819,4.819,0,0,1,1.819,6.71c-1.618,2.676-4.242,2.114-7.614,2.111-3.357,0-6.719-.083-10.064-.081-6.7.007-13.49-.036-19.843-.339.176,1.574-.137,1.9,1.2,2.64,1.1.611.3.182,1.162.834,1.194.9.738-.066,3.034.376.473.53.56.808.991,1.309.806.939.48.411,1.328,1.017,1.431,1.019,1.178,2.226.914,3.9a6.089,6.089,0,0,0-1.11-2.614c-2.379-.3-1.089.332-2.857.605s-1.707-.638-2.535-1.034c-1.3-.62-.745.392-2.449-.21-1.5-.53-1.04-1.338-1.541-2.21-1.093-1.9-2.782.165-2.084-4.123.221-1.357-2.423-2.643,0-4.346-1.958-4.121.266-2.9-.376-4.788-.441-1.3-.909-.727-.28-2.324,1.014-2.579.485-.131-.046-2.45-.477-2.078.462-1.5.493-2.626.033-1.223-1.066-.579-.4-2.879a2.445,2.445,0,0,0-.012-2.262c-.406-1.383.2-2.016.626-2.89-1.246-1.787-1.16-2.46.19-3.981-1.842-2.684-.517-2.479.715-4.135l.243-.422c.865-2.1-.119-3.158,3.517-2.911.7-2.18,1.567-2.2,3.754-1.4,1.3.473.388-.249,2.014-.549,1.807-.335,1.4.556,2.57.484,1.123-.071.62-.835,2.256-.389.943.256.429,1.1,2.01.4,2.592-1.148,2.081.2,3.731.025.242-.026.7-.322,1.22-.432,1.817-.383,1.28.3,2.326.443,1.226.16.473-.573,2.4-.346,1.757.208,1.111.586,2.219.429a6.173,6.173,0,0,1,2.861-.082c2.081.391.015.23,2-.359,1.727-.514,1.485.191,2.446.474,1.171.344.545-.445,2.1-.583,1.151-.1,1.526.5,2.39.876,1.54-1.644,2.893-1.078,3.931.679,3.11-.887,3.161.089,3.982,2.458,1.2.638,2.01.545,2.219,2.087.184,1.367-.085.638-.228,1.457-.339,1.936-.283.2.353,1.487,1.208,2.442-.186,1.869-.175,3.27.015,1.644,1.1.336.2,3.355-.615,2.057.8.891.258,3.241-.236,1.029-.471.583-.467,1.483,0,1.029.37.388.517,1.729.251,2.32-1.2.931-.43,2.79s.7,1.92-.44,3.159c.566,1.327,1.822,2.5-.037,3.956.4.883.9,1.077.917,2.13.022,1.522-.764,1.249-.715,2.253.063,1.271,1.678,3.188-1.54,4.024.19,2.868-.741,2.918-2.676,3.416-2.158.556-1.013,2.37-4.117,1.4-2.494-.776-.659.726-3.252.339-1.01-.15-.827-.452-1.455-.512-.782-.074-.489.19-1.372.413-2.2.552-1.686-.64-3.055-.365-2.383.476-.35.8-3.147.018a4.984,4.984,0,0,0-3,.737c.536,2.587,1.535,4.156.384,7.185-.89,2.339-1.7,4.94-1.007,7.911h.723c.771-2.987,0-4.124,1.3-7.226,1.245-2.957.411-4.333.238-7.1,1.852-.394,1.331.2,2.973.186,1.194-.008,1.157-.421,2.143-.3,1.334.159.825.541,2.718.175,3.084-.594-.12.581,4.727-.19,1.056-.168.992.227,2.151.265,2.266.075,1.9-1.168,4.043-1.809,2.6-.776,2.109-1.279,3.107-3.326.778-1.592,1.986-1.649,1.7-4.322-.245-2.3.152-1.037.275-2.87.1-1.418-.34-1.357-.236-2.566.137-1.591.389-.731.116-2.689-.269-1.936-.012-.66.128-2.453l-.118-5.616c-.257-1.863.051-.8.2-2.483.1-1.144-.3-1.477-.3-2.3,0-1.044.488-1.039.3-2.554-.193-1.554-.461-.583-.169-2.14.547-2.92-.463-2.268-.374-4.436.146-3.545-1.375-3.344-2.106-4.15-1.3-1.428-.333-2.484-3.319-3-2.553-.441-.836-.105-2.513-.9-1.254-.6-6.734-.187-7.837.066,1.2-2.063,2.136-1.353.959-4.3,4.054-1.19,7.965-3.971,9.06-7.868,1.586-5.653-.245-9.227-2.629-12.9,2.43.825,7.094,2.927,9.9,3l.875-2.975v-3.9c-.671-1.723-.437-5.18-2.919-11.047a45.613,45.613,0,0,0-5.034-9.06c-1.935-2.553-4.2-5.38-7.461-6.656-2.667-1.044-3.274.217-5.7-.646-1.335-.476-4.31-.933-5.164-1.9-1.051-2.479.51-15.178-1.38-21.067C29.027,3.887,25.842.983,19.041.025c-1.324.026-.794-.2-1.674.351.746,2.121,2.752-.428,7.755,2.975,7.508,5.107,5.738,18.928,5.73,27.217-.008,8.138-.23,23.227,1.428,31.066.784,3.713,1.424,5.413,4.542,6.536A12.309,12.309,0,0,1,39,65.63c9.493-7.416,15.243,9.781,6.57,15.955-3.889,2.769-10.518,4.272-15.03,1.218-1.473-1-3.28-4.244-6.331-2.8-2.24,1.06-1.6,5.506-1.578,8.56l-1.824.6c-.436-5.31-.771-10.253,4.1-11.078,4.6-.779,7.442,6.267,10.12.327a10.533,10.533,0,0,0,.861-6.324c-1.074-5-5.067-1.558-6.566-17.111-.969-10.07-.47-20.871-.461-31.117.005-6.152,1.03-13.865-6.766-16.8-1.521-.573-5.678-1.488-7.166-.307,1.111,1.936,3.132-.573,7.633,1.846A9.313,9.313,0,0,1,27.02,13.54c.969,2.476,1.008,15.043.359,17.685-7.871,3.429-8.061.7-12.207,2.841C7.732,37.9-2.017,56.634,1.591,66.818c2.365.2,7.542-1.983,9.781-2.706M2.293,65.575c-.978-8.933,2.3-16.9,6.346-22.93,7.733-11.51,10.574-7.473,13.355-8.433,1.428-.493,4.192-1.612,5.6-1.461L27.524,34c-2.677.466-4.49.109-6.024,1.7-.879,1.884,4.441,14.623-1.578,21.569C17.554,60,7.6,65.293,2.293,65.575M38.106,35.614c-2.253-1.716-3.728-.775-5.973-1.688l-.079-1.011c1.377-.568,4.176.891,5.717,1.417,2.341.8,2.8-.924,5.921.772,2.95,1.607,5.266,4.7,7.2,7.553,3.151,4.66,7.86,15.509,6.2,22.8-.618.355.07.156-.8.224l-1.826-.409c-1-.331-1.6-.507-2.521-.832-1.543-.545-3.116-1.254-4.533-1.857-17.2-7.324-8.465-20.086-9.3-26.968m-1.955,30.9c-4.764-2.625-4.38-24.275-4.059-31.188a11.688,11.688,0,0,1,4.932.987C36.3,41.228,34.616,47,35.894,52.3a13.538,13.538,0,0,0,8.068,9.825l-.782.342c-7.3,2.494-3.053,1.634-7.029,4.052M23.922,88.765c-.2-1.319-.38-6.178.242-7.124,1.474-2.238,3.7.543,4.44,1.13-3.6,1.444-3.409,3.091-1.573,5.834-1.849.277-1.563.814-3.109.16m13.987-.078c-2.08.589-2.114-.107-3.91.169-7.6,1.168-11.034-6.946-1.174-3.65,2.812.94,6.468-.131,7.968,1.384-.389,1.126-1.4,1.677-2.885,2.1M11.859,95.478c2.223-.634,1.688.31,4.19-.156,1.387-.258.455-.21,1.861.045.482.086.7.1,1.142.171l1.23.234A9.525,9.525,0,0,0,23.7,101.66c-5.377.015-10.213-.864-11.854,3.576-1.29,3.494.372,4.859,1.38,6.849-2.062,1.252-3.291,1.554-4.064,4.236a6.674,6.674,0,0,0,1.682,6.093l-2.177.025a11.179,11.179,0,0,0-.227-2.743c-.1-1.369.249-.728.273-2.252.026-1.539-.395-1.037-.2-2.517.493-3.818-.224-1.11.191-4.881a7.124,7.124,0,0,0-.217-2.4c-.068-1.122.355-1.043.258-2.6-.134-2.182-.426-5,.138-6.8.518-1.651,1.131-2.244,2.983-2.773" transform="translate(1573.301 683.812)" fill="#653f8c" stroke="#653f8c" stroke-width="0.2" fill-rule="evenodd"/>
      <path id="Path_6196" data-name="Path 6196" d="M11.67,47.287C2.26,52.342-1.137,63.665.327,73.7c.332,2.277.913,3.491,1.57,4.183,1.565-1.51,2.677-3.569,4.507-5.3,1.879-1.778,3.315-2.468,6.587-3.154,8.251-1.73,4.534-7.161,10.273-9.5,2.838-1.159,4.194-1.211,5.336-4.4.653-1.823,1.592-6.869.292-8.408-1.673-1.98-13.225-1.259-17.222.164M2.233,75.46c-.823-.972-.877-2.95-.916-4.34-.141-5.107.03-8.12,2.158-12.875C8.348,47.351,14.117,47.206,23.031,47.277c4.548.036,5.771-.707,5.109,4.458-1.021,7.961-3.837,5.555-7.092,8a15.841,15.841,0,0,0-2.378,2.591,4.815,4.815,0,0,1-2.285-1.013c-.1-2.292,1.138-1.716.835-3.858-1.412-.122-.559-.21-1.4.4-.675.489.217.128-.846.8-4.089-1.226-6.813,2.756-1.488,3.215a8.374,8.374,0,0,0,1.651,2.37c.8.694,1.659.847,2.18,1.6-3.981,3.308-4.3,1.681-8.676,3.636C5.148,71.03,4.284,73.5,2.233,75.46M15.146,62.22c-1.722-2.822-2.278-.611-3.154-2.184,2.723-1.843,2.95,1.4,3.74,2.251.935,1.008,1.55.67,2.482,1.439-1.335,1.081-2.514-.6-3.068-1.506" transform="translate(1573 700.638)" fill="#653f8c" stroke="#653f8c" stroke-width="0.2" fill-rule="evenodd"/>
    </g>
  </g>
</svg>
