<svg xmlns="http://www.w3.org/2000/svg" width="200" height="200" viewBox="0 0 200 200">
  <g id="Group_11694" data-name="Group 11694" transform="translate(-1266 -1878)">
    <circle id="Ellipse_4" data-name="Ellipse 4" cx="100" cy="100" r="100" transform="translate(1266 1878)" fill="#fff"/>
    <g id="Group_11683" data-name="Group 11683" transform="translate(25577 -1399)">
      <path id="Path_6197" data-name="Path 6197" d="M41.68,43.931c1.971,4.35,3.453,8.717,2.245,13.659A17.5,17.5,0,0,1,22.436,70.6C12.948,68.049,7.1,57.936,10.408,48.658a22.973,22.973,0,0,0,.935-10.5c-.169-1.681-.51-3.357-.52-5.036-.024-4.2-.948-7.366-5.181-9.8C.167,20.171-1.554,10.8,1.5,5.2a9.5,9.5,0,0,1,9.179-5.2A15.545,15.545,0,0,1,25.547,14.37c.418,5.711.913,6.165,6.431,5.909a19.5,19.5,0,0,1,2.361-.085c3.555.265,5.748-.516,7-4.651,1.913-6.33,9.386-10.157,16.929-9.81,7.763.357,14,4.682,15.893,11.386.6,2.111,1.465,3.021,3.641,2.954,2.02-.062,4.047.157,6.072.248,4.114.183,5.092-.73,5.336-4.968C89.666,7.317,94.825,1.422,102.5.167c6.49-1.06,11.576,3.025,11.966,9.613.5,8.545-2.359,13.548-9.318,15.989-2.361.827-5.428,1.676-6.621-1.015-.733-1.655.379-4.4,1.25-6.4a7.489,7.489,0,0,1,3.38-3.19c2.727-1.405,2.793-3.437,2.1-5.885-4.105-.38-7.065,1.865-7.164,6.067C97.9,23.273,93.925,27.807,86.517,29.91a12.043,12.043,0,0,0-7.632,5.676c-1.437,2.514-3.618,4.59-5.308,6.977-1.147,1.621-1.932,3.5-3.022,5.162-2.724,4.157-5.281,8.358-4.653,13.89,2.187.021,2.122,1.615,1.778,3.91-1.781,11.909-3.369,23.848-5,35.778-.584,4.28-2.163,6.159-5.3,6.146-3.027-.012-4.628-1.74-5.206-5.869-1.7-12.148-3.291-24.313-5.083-36.449-.332-2.245.012-3.451,1.881-3.4.756-7.313-3.85-12.375-7.048-18.034a81.546,81.546,0,0,1-5.775-7.83A12.917,12.917,0,0,0,28.02,29.79c-7.308-2.075-11.1-6.679-11.284-14.386-.1-4.122-2.869-6.356-7.167-6.206-.84,2.609-.322,4.4,2.247,6.081,5.275,3.454,6.192,6.919,3.491,11.672,2.821,2.755,5.689,5.6,8.624,8.376a3.2,3.2,0,0,0,2.009.972c6.677-.357,11.576,2.856,15.741,7.631M15.09,28.453l3.847,9.7,3.25-1.488c-2.507-2.9-4.8-5.556-7.089-8.21L11.98,26.82c.572,5.2,1.1,9.99,1.684,15.28l3.869-3.267c-1.179-2.292-2.208-4.526-3.45-6.635-1.008-1.714-.835-2.9,1.007-3.745M27.138,67.036a13.336,13.336,0,1,0-13.6-13.024,13.345,13.345,0,0,0,13.6,13.024m38.6-3.9c-5.783,2.748-11.074,3.142-16.888.085C50.6,75.6,52.169,86.759,53.7,97.608h7.422c1.405-9.864,2.835-19.858,4.244-29.857.154-1.1.183-2.207.373-4.618M46.591,21.94c1.267,3.054,2.4,5.9,3.634,8.709a16.693,16.693,0,0,0,2.347,4.409c2.59,2.929,3.19,6.21,2.978,9.993-.119,2.134.709,4.32,1.11,6.482,1.544-1.151,2.756-2.315,2.593-3.234-1.179-6.657,1.939-11.835,5.147-17.167,1.618-2.689,2.4-5.883,3.608-8.971-7.165-4.878-16.138-4.907-21.417-.222M74.022,36.86c1.411-.4,1.685-.389,1.813-.523a5.871,5.871,0,0,0,1.048-1.307c2.145-4.283,5.99-6.16,10.3-7.506C93.05,25.688,95.71,22.152,96,15.856a8.992,8.992,0,0,1,3.871-7.483c4.463-3.075,7.278-1.79,7.87,3.532.021.2.216.383.274.479h4.23c.716-8.051-4.365-12.133-11.76-9.681-5.541,1.837-8.934,6.63-9.305,13.144-.283,4.98-2.3,6.753-7.249,6.484-1.634-.09-3.273-.014-4.373-.014-.716,2.389-1.185,4.4-1.924,6.3-.989,2.551-2.186,5.018-3.611,8.238M34.58,22.264c-.28,0-1.5-.056-2.715.009-6.393.342-7.847-.963-8.279-7.5a13.557,13.557,0,0,0-10.957-12.5C5.874.849,1.217,5.745,2.937,12.46H6.986c.093-.531.2-.951.234-1.378C7.558,7.1,9.2,6.043,13,7.372c3.552,1.244,5.567,4.265,5.774,8.651.275,5.889,3.118,9.628,8.708,11.487a11.794,11.794,0,0,1,3.453,1.305c3.031,2.313,5.912,4.825,9.1,7.47a47.523,47.523,0,0,0-1.565-6.128c-.963-2.453-2.318-4.753-3.891-7.892m2.931.888c.563,1.7.96,3.121,1.5,4.487.8,2.012,1.827,3.939,2.54,5.979a57.141,57.141,0,0,1,2.472,8.292c1.112,5.987,7.754,9.728,6.635,16.641-.087.537,1.4,1.745,2.266,1.878a2.7,2.7,0,0,0,2.04-1.737,41.107,41.107,0,0,0-.2-7.313C54.513,49,53.585,46.656,53.594,44.3a12.269,12.269,0,0,0-2.415-7.807,23.111,23.111,0,0,1-3.188-6.925c-1.53-5.054-4.469-7.191-10.48-6.414M77.3,23.119c-6.022-.692-8.971,1.483-10.5,6.473-.774,2.517-2.292,4.8-3.255,7.269A46.339,46.339,0,0,0,61.342,44c-.386,1.825-.146,3.772-.4,5.638-.333,2.493-1.177,4.957-1.188,7.436-.006,1.154,1.433,2.315,2.216,3.474a16.351,16.351,0,0,0,2.277-3.46c.6-1.716.151-4.041,1.15-5.327,4.157-5.339,6.4-11.38,7.877-17.867.5-2.178,1.752-4.177,2.574-6.292.531-1.364.907-2.79,1.445-4.482M42.549,20.074Q57.481,4.3,72.593,20.418C71.586,12.049,64.7,7.144,55.824,7.792c-7.43.543-13.383,5.9-13.275,12.282m59.678,4.32c3.258-.038,8.638-3.958,9.671-7.048.73-2.189-.3-2.876-2.33-2.783-3.2.146-8.314,3.859-9.43,6.869-.751,2.024-.088,3.021,2.09,2.963M7.867,23.3c1.777-2.526,3.05-4.187,4.158-.37.167.576,1.284.876,1.961,1.3.266-.849.908-1.787.733-2.531-.751-3.186-6.54-7.246-9.847-7.147-2.33.07-2.843,1.37-1.72,3.074A64.882,64.882,0,0,0,7.867,23.3m59.976-4.022c-5.894-6.168-14.381-6.663-19.513-1.005,6.84-2.639,13.193-1.944,19.513,1.005M57.1,98.334c-1.265,1.513-2.651,2.417-2.735,3.428-.164,2,.852,4.145,3.228,3.521,1.244-.327,2.467-2.271,2.831-3.705.164-.64-1.807-1.825-3.323-3.244m3.532-35.029c-1.492-1.848-2.361-2.92-3.226-3.994-1.042,1.226-2,2.359-3.393,3.994Z" transform="translate(-24268 3323)" fill="#653f8c" stroke="#653f8c" stroke-width="0.2"/>
      <path id="Path_6198" data-name="Path 6198" d="M24.657,36.493a57.4,57.4,0,0,1,5.044-2.75c.608-.254,1.459.076,2.2.14a7.282,7.282,0,0,1-1.4,1.7c-.729.478-1.746.519-2.458,1.01a16.347,16.347,0,0,0-2.175,2.155c.754.438,1.532.84,2.254,1.323a4.651,4.651,0,0,1,1.328,1.209c.111.172-.348,1.027-.531,1.022a9.8,9.8,0,0,1-1.773-.453c-.736-.167-1.484-.28-2.227-.417a7.037,7.037,0,0,0,0,2.429c.42,1.135,1.3,2.1,1.737,3.228.2.525-.173,1.275-.289,1.923-.58-.335-1.4-.531-1.687-1.033-.593-1.053-.773-2.341-1.373-3.387-.38-.662-1.215-1.063-1.845-1.582a20.032,20.032,0,0,0-1.448,1.936c-.356.607-.5,1.335-.853,1.944a3.192,3.192,0,0,1-1.1-.321c.144-.768.423-1.51.587-2.277.148-.686.192-1.395.283-2.093-.806-.091-1.722-.471-2.394-.214-1.342.511-2.51,1.463-3.834,2.038-.438.19-1.136-.216-1.716-.348.271-.607.382-1.527.841-1.761,1.275-.648,2.771-.868,4.025-1.547a2.825,2.825,0,0,0,1.223-2c.029-.367-1.056-.89-1.7-1.221-.706-.363-1.5-.561-2.207-.922a4.253,4.253,0,0,1,.354-1.1c.771.169,1.507.505,2.28.645a4.246,4.246,0,0,0,2.327.038c.322-.151.409-1.428.172-2.026-.446-1.126-1.331-2.076-1.772-3.2-.2-.513.218-1.267.354-1.912.563.342,1.364.554,1.641,1.056.586,1.062.773,2.344,1.37,3.4a2.458,2.458,0,0,0,1.757,1.106c.359.009.77-1,1.113-1.579a16.93,16.93,0,0,1,1.024-1.795,2,2,0,0,1,1.084.423c-.061.683-.415,1.345-.45,2.024a26.927,26.927,0,0,0,.243,3.19m-.535,1.731a11.748,11.748,0,0,0-2.511-1.752,1.939,1.939,0,0,0-1.793.646,8.816,8.816,0,0,0-.322,3.019,2.473,2.473,0,0,0,1.427.126,36.324,36.324,0,0,0,3.2-2.04" transform="translate(-24262.275 3337.936)" fill="#653f8c" stroke="#653f8c" stroke-width="0.2"/>
    </g>
  </g>
</svg>
