<?xml version="1.0" encoding="utf-8"?>
<!-- Generator: Adobe Illustrator 25.0.0, SVG Export Plug-In . SVG Version: 6.00 Build 0)  -->
<svg version="1.1" xmlns="http://www.w3.org/2000/svg" xmlns:xlink="http://www.w3.org/1999/xlink" x="0px" y="0px"
	 viewBox="0 0 200 200" style="enable-background:new 0 0 200 200;" xml:space="preserve">
<style type="text/css">
	.st0{fill:#FFFFFF;}
	.st1{fill:#70108E;}
</style>
<g id="BACKGROUND">
</g>
<g id="OBJECTS">
	<rect x="0.48" y="0.98" class="st0" width="199.56" height="199.56"/>
	<g>
		<g>
			<path class="st1" d="M44.26,123.77c0.46,2,0.72,4.09,1.43,5.99c1.1,2.95,2.36,5.84,3.82,8.62c1.83,3.46,4.23,6.57,7.18,9.3
				c4.11,3.82,9.13,6.33,15.42,6.91c4.56,0.42,9.18-0.28,13.8-1.66c10.81-3.25,19.56-9.3,26.85-17.38
				c6.06-6.71,11.24-13.86,15.64-21.39c0.87-1.49,2.1-2.06,3.74-1.65c4.38,1.09,8.77,2.17,13.14,3.27c1.13,0.28,1.71,1.09,1.62,2.09
				c-0.09,0.94-0.82,1.9-1.87,2.19c-0.63,0.17-1.37,0.2-1.96,0.06c-3.54-0.83-7.04-1.73-10.56-2.6c-0.15-0.04-0.3-0.06-0.51-0.1
				c-1.1,1.7-2.15,3.39-3.27,5.06c-5.13,7.64-10.81,14.97-17.98,21.37c-9.21,8.22-19.9,13.48-32.15,15.11
				c-9.31,1.24-17.15-1-23.61-5.98c-5.79-4.46-9.63-10.25-12.44-16.67c-1.03-2.35-1.86-4.81-2.46-7.32
				c-1.83-7.61-1.91-15.43,0.86-23.53c0.89-2.61,2.06-5.14,3.93-7.45c2.07-2.55,4.83-4.02,8.12-4.53c2.28-0.35,3.38,0.76,2.83,2.86
				c0.44,0.01,0.88,0.1,1.31,0c0.58-0.13,1.31-0.12,1.37-1.01c0.14-2.25,1.29-4.1,3.66-5.33c2.49-1.29,4.81-1.27,6.92-0.04
				c0.12,0.07,0.25,0.14,0.36,0.21c2.75-2.48,6.31-3.3,9.49-1.24c0.11-0.26,0.21-0.5,0.32-0.73c1.48-3.27,4.03-5.43,7.88-6.19
				c0.52-0.1,0.79-0.27,1.01-0.73c1.47-3.18,4.07-5.15,7.76-5.96c0.32-0.07,0.77-0.39,0.89-0.66c1.51-3.19,4.12-5.13,7.79-5.96
				c0.32-0.07,0.76-0.38,0.9-0.65c1.75-3.55,4.64-5.62,8.84-6.12c0.3-0.04,0.65-0.27,0.9-0.47c0.38-0.31,0.65-0.78,1.07-1
				c1.27-0.67,1.7-1.62,2.1-2.79c1.36-3.99,5.84-7.12,10.4-7.4c0.56-0.03,0.94-0.15,1.35-0.61c2.8-3.14,7.37-4.7,11.3-3.86
				c0.59,0.13,0.96,0.05,1.47-0.37c5.32-4.3,13.05-4.3,16.7-0.03c3.94,4.61,2.27,11.44-3.75,15.33c-0.08,0.05-0.15,0.12-0.27,0.23
				c0.88,2.03,0.76,4.15-0.66,6.29c-1.42,2.14-3.5,3.46-6.1,3.98c-0.05,0.09-0.13,0.16-0.11,0.19c0.44,0.99-0.05,1.74-0.93,2.59
				c-1.26,1.21-1.61,2.69-1.47,4.17c0.02,0.2,0.28,0.35,0.45,0.55c-1.56,2.72-5.55,4.29-10.07,3.87c-0.81,1.74-2.2,3.1-4.02,4.15
				c-0.18,0.1-0.29,0.51-0.25,0.73c0.51,3.54-1.12,6.67-4.71,8.92c-2.02,1.27-4.18,1.7-6.41,1.5c-0.5-0.05-0.99-0.14-1.56-0.22
				c-1.37,2.82-3.63,4.79-6.73,5.67c-0.62,1.67-1.2,3.23-1.81,4.88c0.59,0.41,1.35,0.92,2.14,1.47c1-1.08,2.02-2.19,3.04-3.3
				c5.67-6.2,12.74-8.33,20.63-7.78c5.51,0.38,10.34,2.11,14.68,4.71c1.25,0.75,1.41,2.14,0.41,3.27c-0.98,1.12-2.46,1.37-3.73,0.62
				c-3.95-2.33-8.33-3.87-13.38-4.09c-3.64-0.16-7.25,0.4-10.63,2.37c-2.32,1.35-4.08,3.23-5.76,5.16
				c-0.76,0.87-1.39,1.84-2.21,2.67c-1.3,1.31-1.48,2.88-2.07,4.35c-0.08,0.19,0.1,0.47,0.24,0.65c2.83,3.51,1.21,8.38-3.62,10.74
				c-0.54,0.26-0.79,0.52-0.87,1.07c-0.55,3.8-4.02,7.06-8.29,7.81c-0.53,0.09-0.78,0.28-0.98,0.75c-0.94,2.18-2.63,3.78-4.93,5.01
				c-7.81,4.15-14.89,3.36-21.6,0.32c-4.46-2.02-8.09-4.91-11.06-8.43c-0.55-0.66-1.02-1.39-1.45-2.13c-0.69-1.2-0.2-2.56,1.13-3.27
				c1.42-0.76,2.7-0.38,3.53,0.78c4.01,5.61,9.48,9.56,17.27,10.83c0.3,0.05,0.62,0.05,1.05,0.08c-0.07-0.23-0.11-0.37-0.16-0.51
				c-0.37-1.06,0.14-2.23,1.23-2.86c1.2-0.69,2.5-0.63,3.28,0.24c0.78,0.88,1.72,1.51,3.13,1.4c0.39-0.03,0.96-0.25,1.16-0.53
				c1.11-1.5,2.2-3.02,3.16-4.58c0.67-1.09,1.8-1.73,3.19-1.65c0.81,0.05,1.69,0.11,2.47-0.14c1.95-0.62,3.09-2.45,2.77-4.15
				c-0.03-0.16-0.07-0.33-0.11-0.49c-0.47-1.88,0.81-3.28,3.07-3.33c0.94-0.02,1.77-0.29,2.32-1.07c0.6-0.85,0.85-1.74,0.26-2.52
				c-0.24-0.32-0.63-0.56-1.02-0.75c-1.5-0.73-1.76-2.05-0.65-3.44c1.28-1.59,1.5-2.95,0.58-4.18c-0.95-1.28-2.44-1.44-4.19-1.01
				c-1.81,0.44-2.95-0.25-3.22-1.93c-0.21-1.27,0.8-2.45,2.46-2.88c2.32-0.61,3.77-3,2.87-4.82c-0.42-0.85-0.42-1.68,0.31-2.52
				c0.75-0.87,1.73-1.2,2.82-1.08c3.04,0.34,5.18-2.21,4.68-4.5c-0.2-0.92,0.05-1.76,0.96-2.47c1.56-1.23,3.06-1.23,4.19,0.01
				c1.17,1.27,2.82,1.6,4.47,0.88c2.4-1.04,3.38-3.7,1.98-5.38c-0.2-0.24-0.43-0.44-0.63-0.68c-0.65-0.75-0.68-1.71-0.07-2.55
				c0.66-0.91,1.56-1.4,2.7-1.31c0.93,0.07,1.78-0.01,2.54-0.74c1.29-1.23,1.11-3-0.4-3.61c-1.31-0.53-1.86-1.31-1.64-2.33
				c0.24-1.11,1.06-1.79,2.67-2.23c0.35-0.09,0.7-0.2,1.05-0.29c1.81-0.47,2.9,0.12,3.15,1.71c0.24,1.49,1.3,2.4,2.96,2.52
				c1.59,0.12,3.2-0.68,4.13-2.05c0.87-1.27,0.83-2.81-0.11-3.85c-0.17-0.19-0.38-0.34-0.55-0.53c-0.78-0.86-0.63-2.15,0.37-3.08
				c0.33-0.31,0.73-0.58,1.04-0.91c1.03-1.07,2.14-1.39,3.53-1.06c1.89,0.45,3.82-1.17,3.45-2.9c-0.1-0.49-0.54-0.97-1-1.24
				c-0.97-0.56-1.57-1.26-1.26-2.41c0.31-1.14,1.21-1.75,2.46-2.08c3.01-0.81,5.09-3,5.45-5.67c0.35-2.55-1.26-4.77-3.93-5.41
				c-2.71-0.65-5.75,0.44-7.62,2.73c-1.24,1.53-2.52,1.85-4.12,1.05c-2.63-1.31-5.89-0.32-7.59,2.31c-1.09,1.68-1.82,2.04-3.78,1.82
				c-3.48-0.38-6.61,2.17-6.57,5.34c0.03,1.79-0.69,2.62-2.74,3.09c-0.71,0.16-1.09,0.53-1.31,1.14c-0.62,1.74-1.83,2.42-3.68,2.11
				c-2.49-0.42-4.89,1.22-5.2,3.55c-0.02,0.17-0.02,0.34-0.03,0.52c-0.12,1.67-1.55,2.78-3.36,2.62c-3.19-0.3-5.06,1.14-5.34,4.08
				c-0.15,1.6-1.66,2.85-3.33,2.52c-2.73-0.53-5.38,1.47-5.39,4.1c-0.01,1.64-1.58,2.76-3.39,2.54c-1.32-0.16-2.56,0-3.71,0.88
				c-1.54,1.2-2,2.67-1.3,4.18c0.35,0.75,0.31,1.5-0.18,2.32c-0.15,0.24-0.16,0.67-0.01,0.87c1.63,2.17,1.46,4.45-0.43,6.91
				c-0.17,0.21-0.28,0.57-0.2,0.78c0.65,1.81,0.41,3.61-0.94,5.46c1.49,0.29,2.79,0.76,3.67,1.83c1.59,1.93,1.5,4.68-0.37,6.9
				c-0.36,0.43-0.4,0.73-0.27,1.17c0.21,0.74,0.26,1.53,0.39,2.33c2.94-0.48,5.42-1.7,6.83-4.43c0.31-0.6,0.73-1.18,1.2-1.7
				c0.48-0.54,1.15-0.59,1.68-0.3c0.59,0.33,0.61,0.88,0.2,1.5c-0.64,0.97-1.27,1.95-1.91,2.92c1.46,0.77,2.88,1.51,4.3,2.26
				c0.21,0.11,0.41,0.23,0.6,0.36c0.61,0.44,0.69,1.14,0.16,1.65c-0.59,0.57-1.19,0.59-1.83,0.24c-1.42-0.76-2.88-1.47-4.32-2.2
				c-0.52-0.27-0.98-0.15-1.6,0.1c-1.72,0.71-3.49,1.3-5.25,1.89c-0.81,0.27-1.5,0.57-2.11,1.21c-1.14,1.19-2.59,1.9-4.26,2.19
				c-0.29,0.05-0.71,0.34-0.83,0.58c-1.17,2.3-3.14,3.65-5.8,4.05c-2.68,0.4-4.63-0.49-5.88-2.4c-0.08-0.11-0.14-0.23-0.23-0.38
				c-1.16,0.46-2.33,0.66-3.4,1.51c-2.03,1.61-5,1.82-7.12,0.76c-2.1-1.05-3.12-3.35-2.5-5.66c0.11-0.4,0.27-0.79,0.21-1
				c-0.96-0.64-2.1-1.14-2.84-1.95c-1.17-1.29-1.08-2.92-0.08-4.6c0.54-0.9,0.05-2.06-0.95-2.28c-2.5-0.55-3.92-2.02-4.16-4.31
				c-0.23-2.3,0.89-4.24,3.18-5.79c1.04-0.7,1.82-1.47,1.78-2.8c-0.03-1.03,0.63-2.16,0.98-3.24c-0.95,0.26-1.93,0.84-2.72,1.74
				c-1.52,1.74-2.4,3.69-3.13,5.69c-1.96,5.4-2.37,10.74-1.9,16.05c0.06,0.67,0.09,1.35,0.13,2.03c-0.44-0.11-0.86-0.33-1.31-0.3
				c-1.48,0.11-2.33,1.21-3.16,2.14c-0.26,0.29,0.13,0.99,0.26,1.73c1.03-1.65,2.31-2.61,4.05-3.03
				C44.14,124.17,44.2,123.97,44.26,123.77z M56.36,126.55c1.05,2.18,4.27,2.35,6.34,0.39c0.4-0.38,1.05-0.58,1.6-0.83
				c0.73-0.34,1.56-0.56,2.19-1.02c0.53-0.39,1.04-0.91,1.61-0.64c0.42,0.2,0.75,0.73,0.82,1.19c0.28,1.75,1.7,2.81,3.74,2.62
				c1.96-0.18,3.52-1.5,3.93-3.32c0.23-1.03,0.72-1.36,1.85-1.38c0.66-0.01,1.38-0.05,2-0.29c2.4-0.95,3.4-3.27,2.26-5.19
				c-0.45-0.76-0.43-1.33,0.46-2.05c1.29-1.04,1.75-2.35,1.41-3.7c-0.33-1.31-1.36-2.01-2.86-2.15c-0.78-0.07-1.63,0.06-2.38-0.08
				c-0.47-0.09-1.08-0.44-1.15-0.8c-0.07-0.35,0.37-1.02,0.78-1.29c2.16-1.42,2.81-3.29,1.62-5.09c-0.46-0.69-0.39-1.24,0.42-1.9
				c1.36-1.1,1.84-2.43,1.4-3.83c-0.41-1.32-1.51-1.94-3.08-2.02c-1.2-0.07-1.49-0.42-1.27-1.53c0.19-1,0.02-1.85-0.67-2.58
				c-1.8-1.92-5.65-0.9-6.6,1.39c-0.17,0.4-0.81,0.9-1.26,0.98c-0.38,0.07-0.95-0.3-1.17-0.64c-0.89-1.35-2.89-1.87-4.71-1.12
				c-1.83,0.75-2.89,2.47-2.56,4.18c0.28,1.45,0.06,1.71-1.68,2.08c-0.41,0.09-0.81,0.31-1.22,0.42c-0.46,0.13-0.96,0.31-1.39,0.28
				c-2.2-0.15-3.78,1.42-3.33,3.31c0.09,0.38,0.14,0.94-0.11,1.22c-0.89,1-1.82,2.02-2.9,2.85c-1.42,1.08-2.3,2.55-1.99,3.88
				c0.36,1.53,1.6,2.4,3.42,2.41c1.2,0,1.4,0.24,1.5,1.31c0.04,0.48,0.25,0.97,0.55,1.34c0.64,0.79,0.67,1.08-0.16,1.94
				c-1.14,1.19-1.26,2.42-0.32,3.26c0.93,0.84,2.31,0.72,3.67-0.2c0.43-0.29,1.15-0.51,1.57-0.4c0.39,0.1,0.78,0.68,0.73,1.06
				c-0.06,0.4-0.56,0.95-1,1.2C56.49,122.92,55.58,124.92,56.36,126.55z M45.84,130.84c-0.06-0.05-0.12-0.1-0.18-0.15
				c-0.33,0.12-0.66,0.31-0.99,0.34c-0.46,0.05-1.03,0.11-1.36-0.07c-0.7-0.4-0.79-1.89-0.32-2.69c0.17-0.3,0.26-0.63,0.39-0.95
				c0.22-0.05,0.47-0.11,0.71-0.17c-0.07-0.13-0.1-0.38-0.2-0.38c-0.61-0.05-1.21-0.23-1.75,0.5c-0.61,0.84-0.94,1.69-0.83,2.58
				c0.18,1.61,2.03,2.42,3.74,1.66C45.35,131.37,45.58,131.06,45.84,130.84z M41.82,133.15c-0.07,0.06-0.13,0.12-0.2,0.18
				c0.3,0.5,0.49,1.12,0.94,1.48c0.48,0.38,3.39-0.43,3.84-0.99c0.17-0.21,0.25-0.63,0.13-0.81c-0.12-0.16-0.64-0.27-0.83-0.16
				C44.35,133.64,43.09,133.53,41.82,133.15z"/>
			<path class="st1" d="M122.3,73c2.8-1.55,4.84-3.46,6.31-5.85c0.1-0.16,0.18-0.33,0.29-0.48c0.42-0.55,0.96-0.81,1.61-0.61
				c0.7,0.21,0.89,0.73,0.59,1.36c-0.3,0.63-0.73,1.23-1.02,2.05c0.68-0.31,1.4-0.57,2.04-0.94c0.87-0.51,1.56-0.59,1.98-0.1
				c0.46,0.53,0.23,1.19-0.62,1.79c-1.48,1.05-3.11,1.54-4.84,1.49c-0.61-0.02-1.03,0.14-1.49,0.55c-1.97,1.76-4.27,3.02-6.79,3.93
				c-0.29,0.1-0.61,0.3-0.79,0.52c-3.5,4.29-7.49,8.23-11.54,12.13c-0.14,0.13-0.26,0.28-0.57,0.61c1.94-0.43,3.59-0.97,5.07-1.92
				c1.22-0.79,2.36-1.7,3.49-2.6c0.65-0.51,1.26-0.79,1.91-0.34c0.58,0.4,0.53,1.08-0.18,1.74c-3.55,3.29-7.66,5.28-12.52,5.62
				c-0.52,0.04-1.16,0.58-1.6,1c-2.7,2.64-5.36,5.31-8.03,7.97c-0.09,0.09-0.16,0.19-0.42,0.5c1.73-0.5,3.1-1.13,4.29-2.12
				c0.3-0.25,0.64-0.65,0.93-0.67c0.53-0.03,1.27,0.02,1.49,0.32c0.2,0.27-0.03,1.04-0.36,1.37c-0.72,0.72-1.62,1.3-2.5,1.98
				c0.94,0.61,2.07,0.68,3.21,0.7c1.06,0.01,1.58,0.33,1.51,1.03c-0.07,0.73-0.7,1.17-1.82,1.2c-1.78,0.05-3.39-0.28-4.65-1.3
				c-0.49-0.4-1.04-0.72-1.85-0.33c-0.12,0.06-0.26,0.09-0.38,0.09c-1.54,0.04-2.8,0.51-3.72,1.87c-0.38,0.57-1.11,0.6-1.64,0.26
				c-0.63-0.4-0.61-0.99-0.1-1.58c1.32-1.5,2.67-2.99,4.04-4.46c0.95-1.02,1.94-2.01,2.95-2.99c0.42-0.41,0.55-0.69,0.32-1.2
				c-1.16-2.55-1.14-5.26,0.09-8.11c0.11-0.25,0.24-0.5,0.39-0.74c0.44-0.74,1.13-1.1,1.76-0.86c0.75,0.28,0.89,0.82,0.51,1.54
				c-1.14,2.12-1.29,4.2-0.75,6.26c0.03,0.1,0.07,0.21,0.12,0.3c0.03,0.07,0.09,0.12,0.12,0.16c1.92-1.7,3.83-3.39,5.73-5.08
				c0.04,0.06,0.09,0.12,0.07,0.09c0.22-0.34,0.4-0.76,0.72-1.08c1.03-1.04,2.09-2.06,3.18-3.06c0.52-0.48,0.69-0.92,0.66-1.56
				c-0.05-1.04,0.04-2.11,0.21-3.17c0.16-1,0.79-1.48,1.61-1.41c0.78,0.06,1.07,0.59,0.86,1.53c-0.09,0.4-0.16,0.8-0.24,1.2
				c0.12,0,0.21,0.02,0.23-0.01c3.2-3.3,6.32-6.64,8.48-10.53c0.27-0.49,0.49-1,0.74-1.49c0.35-0.68,0.92-1.02,1.67-0.83
				c0.75,0.19,0.95,0.72,0.64,1.41C123.31,71.02,122.85,71.89,122.3,73z M103.11,92.9c-0.1-0.27-0.2-0.57-0.31-0.86
				c0.55-0.17,1.1-0.34,1.51-0.47c-1.59-0.48-1.46-0.29-2.37,1.88C102.36,93.26,102.79,93.05,103.11,92.9z"/>
			<path class="st1" d="M45.84,130.84c-0.26,0.23-0.48,0.54-0.78,0.67c-1.71,0.76-3.56-0.05-3.74-1.66c-0.1-0.9,0.22-1.74,0.83-2.58
				c0.54-0.74,1.13-0.56,1.75-0.5c0.1,0.01,0.14,0.25,0.2,0.38c-0.24,0.06-0.49,0.12-0.71,0.17c-0.13,0.32-0.22,0.65-0.39,0.95
				c-0.46,0.8-0.37,2.29,0.32,2.69c0.32,0.19,0.89,0.12,1.36,0.07c0.33-0.03,0.66-0.22,0.99-0.34
				C45.72,130.74,45.78,130.79,45.84,130.84z"/>
			<path class="st1" d="M41.82,133.15c1.27,0.37,2.53,0.49,3.88-0.3c0.19-0.11,0.71,0,0.83,0.16c0.12,0.17,0.04,0.59-0.13,0.81
				c-0.45,0.56-3.36,1.37-3.84,0.99c-0.45-0.36-0.64-0.98-0.94-1.48C41.69,133.28,41.75,133.21,41.82,133.15z"/>
			<path class="st1" d="M44.26,123.77c-0.06,0.2-0.12,0.39-0.17,0.57c-1.73,0.43-3.02,1.38-4.05,3.03
				c-0.13-0.74-0.52-1.44-0.26-1.73c0.83-0.93,1.68-2.03,3.16-2.14c0.45-0.03,0.87,0.2,1.31,0.3
				C44.25,123.8,44.26,123.77,44.26,123.77z"/>
			<path class="st1" d="M103.11,92.9c-0.32,0.15-0.74,0.36-1.16,0.56c0.91-2.18,0.78-2.36,2.37-1.88c-0.41,0.13-0.96,0.3-1.51,0.47
				C102.91,92.33,103.01,92.63,103.11,92.9z"/>
			<path class="st1" d="M61.81,107.12c0.72,1.46,0.09,3.26-1.53,4.38c-1.52,1.05-3.64,1.07-4.88,0.03c-0.8-0.67-0.81-1.55-0.01-2.04
				c0.72-0.44,1.3-0.31,1.77,0.18c0.46,0.47,1.07,0.54,1.71,0.13c0.68-0.43,0.83-1.01,0.57-1.63c-0.35-0.85-0.15-1.44,0.59-1.77
				C60.76,106.07,61.43,106.34,61.81,107.12z"/>
			<path class="st1" d="M71.82,106.08c-0.18-0.64-0.64-1.01-1.43-0.83c-0.83,0.19-1.18,0.72-1.23,1.46
				c-0.05,0.77-0.64,1.32-1.37,1.31c-0.78-0.01-1.14-0.41-1.16-1.11c-0.04-1.68,1.42-3.36,3.39-3.85c1.93-0.48,3.72,0.38,4.21,2.03
				c0.25,0.83-0.06,1.5-0.82,1.78C72.68,107.15,72.15,106.88,71.82,106.08z"/>
			<path class="st1" d="M74.01,100.52c-0.65-1.35-0.11-3.07,1.28-4.13c0.62-0.47,1.24-0.57,1.74-0.14c0.51,0.45,0.52,1.03-0.12,1.6
				c-0.65,0.58-0.93,1.2-0.39,1.77c0.52,0.57,1.21,0.44,1.98-0.02c0.6-0.36,1.23-0.3,1.61,0.19c0.39,0.52,0.23,1.05-0.37,1.55
				C77.9,102.85,74.93,102.43,74.01,100.52z"/>
			<path class="st1" d="M76.94,116.89c1.51-0.73,3.42-0.55,4.41,0.42c0.56,0.55,0.59,1.3-0.01,1.75c-0.68,0.52-1.33,0.52-1.88,0.01
				c-0.49-0.46-1.1-0.58-1.79-0.09c-0.71,0.5-0.77,1.08-0.43,1.7c0.37,0.68,0.15,1.3-0.52,1.66c-0.67,0.36-1.36,0.19-1.76-0.43
				C73.89,120.27,74.81,117.93,76.94,116.89z"/>
			<path class="st1" d="M76.19,114.94c-1.6,0.59-3.22,0.51-4.32-0.39c-1.08-0.89-1.36-2.06-0.81-3.46c0.3-0.74,0.98-1.17,1.65-1.07
				c0.71,0.11,1.04,0.65,0.75,1.42c-0.28,0.74-0.13,1.27,0.61,1.51c0.77,0.26,1.34-0.12,1.81-0.77c0.45-0.63,1.08-0.87,1.78-0.61
				c0.64,0.23,0.8,0.91,0.27,1.6C77.43,113.81,76.77,114.36,76.19,114.94z"/>
			<path class="st1" d="M66.84,119.75c-0.75,0.42-1.4,0.4-1.84-0.19c-0.36-0.47-0.05-1.17,0.69-1.66c1.58-1.06,3.92-0.89,5.01,0.37
				c0.43,0.5,0.41,1.05-0.17,1.55c-0.58,0.5-1.23,0.53-1.73,0.1C68.24,119.43,67.64,119.27,66.84,119.75z"/>
			<path class="st1" d="M68.64,100.16c-1.66,0.78-3.54,0.51-4.47-0.61c-0.43-0.52-0.4-1.05,0.19-1.54c0.57-0.48,1.22-0.58,1.73-0.11
				c0.55,0.5,1.14,0.61,1.97,0.16c0.88-0.49,1.54-0.36,1.85,0.26c0.3,0.6-0.03,1.2-0.9,1.66C68.89,100.05,68.76,100.1,68.64,100.16z
				"/>
			<path class="st1" d="M66.47,115.4c-1.3,0.56-2.71,0.73-4.04,0.15c-0.77-0.34-1.04-1-0.6-1.58c0.51-0.66,1.11-0.71,1.89-0.55
				c0.64,0.14,1.44,0.08,2.12-0.12c1.03-0.31,1.69-0.31,1.96,0.29C68.08,114.22,67.66,114.86,66.47,115.4z"/>
			<path class="st1" d="M59.79,101.86c1.53-0.67,4.03-0.25,4.8,0.92c0.21,0.31,0.15,0.97-0.11,1.32c-0.37,0.51-1.12,0.73-1.64,0.36
				c-0.84-0.6-1.72-0.78-2.89-0.47c-0.69,0.19-1.01-0.29-1.13-0.82C58.69,102.65,59.06,102.17,59.79,101.86z"/>
		</g>
	</g>
</g>
</svg>
