<?xml version="1.0" encoding="utf-8"?>
<!-- Generator: Adobe Illustrator 25.0.0, SVG Export Plug-In . SVG Version: 6.00 Build 0)  -->
<svg version="1.1" xmlns="http://www.w3.org/2000/svg" xmlns:xlink="http://www.w3.org/1999/xlink" x="0px" y="0px"
	 viewBox="0 0 200 200" style="enable-background:new 0 0 200 200;" xml:space="preserve">
<style type="text/css">
	.st0{fill:#FFFFFF;}
	.st1{fill:#70108E;}
</style>
<g id="BACKGROUND">
</g>
<g id="OBJECTS">
	<rect x="0.48" y="0.98" class="st0" width="199.56" height="199.56"/>
	<g>
		<g>
			<path class="st1" d="M120.38,139.8c-0.33-0.45-0.56-0.77-0.89-1.22c-2.02,3.47-4.79,5.99-8.52,7.28
				c-3.73,1.29-7.4,1.43-10.89-1.21c-0.37,3.15-0.14,6.11,0.34,9.04c0.23,1.43,0.6,2.84,0.94,4.26c0.36,1.56-0.24,2.79-1.6,3.21
				c-1.32,0.41-2.59-0.33-3.04-1.86c-2.13-7.23-2.16-14.49-0.27-21.78c1.82-7.06,2.54-14.14,0.44-21.32
				c-0.3-1.01,0.31-2.29,0.49-3.37c-2.24,0.21-3.27-0.69-3.09-3.28c0.16-2.35,0.41-4.7,0.87-7c0.41-2.05,1.61-3.44,3.7-4.35
				c6.4-2.81,11.98-6.78,15.98-12.66c2.67-3.93,3.95-8.27,3.51-13.06c-0.51-5.56-3.48-9.38-8.37-11.85
				c-3.46-1.74-7.18-2.58-10.98-2.97C92.49,56.98,86,57,79.62,58.56c-2.16,0.53-4.3,1.3-6.29,2.3c-5.57,2.8-8.21,7.45-8.09,13.68
				c0.11,5.93,2.71,10.75,6.74,14.89c3.89,4,8.5,6.94,13.6,9.19c0.94,0.42,1.85,1.4,2.31,2.35c1.48,3.09,1.6,6.47,1.46,9.82
				c-0.06,1.56-1.43,2.25-3.56,1.94c1.53,1.59,1.13,3.26,0.65,5.02c-1.78,6.59-0.94,13.12,0.73,19.58
				c1.88,7.25,1.88,14.47-0.12,21.68c-0.42,1.53-1.39,2.33-2.63,2.24c-1.55-0.11-2.55-1.51-2.13-3.13c1-3.83,1.56-7.71,1.44-11.67
				c-0.02-0.54-0.07-1.07-0.12-1.82c-2.15,1.6-4.4,2.25-6.88,2.1c-5.01-0.31-8.76-2.79-11.62-6.75c-2.79-3.87-4.11-8.32-4.46-13.01
				c-0.21-2.73-0.26-5.53,0.11-8.23c0.65-4.72,2.72-8.76,6.95-11.56c-0.8-0.62-1.54-1.18-2.26-1.75
				c-6.66-5.32-12.25-11.53-15.06-19.71C46.37,74,47.74,63.04,55.99,53.44c4.23-4.93,9.73-8.11,15.87-10.04
				c14.03-4.39,28.07-4.36,41.91,0.73c7.72,2.84,14.11,7.61,17.93,15.08c5.46,10.67,4.79,21.34-0.83,31.75
				c-3.37,6.24-8.27,11.16-13.89,15.4c-0.31,0.23-0.61,0.47-1.02,0.79c0.37,0.28,0.67,0.5,0.97,0.73c0.31,0.24,0.62,0.48,1.17,0.91
				c0.42-0.51,0.78-1.08,1.26-1.54c7.05-6.81,24.26-6.14,27.47,9.29c1.71,8.19-0.33,15.49-5.26,22.11
				c-0.25,0.34-0.52,0.67-0.81,1.04c1.97,2.27,4.27,4.01,6.85,5.41c1.14,0.62,2.27,1.25,3.37,1.95c1.3,0.82,1.65,1.98,0.97,3.35
				c-1.54,3.14-3.1,6.27-4.7,9.39c-0.84,1.63-2.39,1.99-3.84,0.85c-3.7-2.94-7.34-5.93-11.01-8.92c-0.61-0.5-1.18-1.04-1.87-1.64
				c-0.33,0.27-0.65,0.54-0.97,0.8c-3.86,3.17-7.71,6.36-11.6,9.49c-1.96,1.57-3.35,1.19-4.49-1.1c-1.37-2.74-2.73-5.49-4.09-8.24
				c-1.11-2.23-0.73-3.18,1.4-4.39c2.49-1.42,4.93-2.91,7.31-4.5C118.98,141.54,119.63,140.59,120.38,139.8z M98.84,110.64
				c0.14,0.04,0.29,0.08,0.43,0.13c2.61-2.9,5.79-4.67,9.69-5.06c0.26-0.03,0.52-0.18,0.75-0.32c6.65-4.12,12.38-9.21,16.41-15.99
				c4.89-8.24,5.9-16.94,2.35-25.92c-2.73-6.91-8.07-11.4-14.78-14.14c-13.32-5.43-26.9-5.52-40.53-1.25
				c-5.93,1.86-11.21,4.96-14.92,10.08c-6.2,8.57-6.65,17.89-2.66,27.42c3.51,8.4,9.91,14.35,17.42,19.21
				c0.79,0.51,1.79,0.71,2.69,1.03c1.55,0.56,3.2,0.92,4.62,1.7c1.52,0.84,2.83,2.06,4.24,3.13c0.27-2.12-0.03-4.27-0.56-6.41
				c-0.22-0.88-0.67-1.37-1.51-1.75c-6.2-2.83-11.69-6.63-16.04-11.95c-3.59-4.39-5.73-9.38-6.02-15.08
				c-0.48-9.45,4.08-16.5,12.9-20c6.95-2.76,14.22-3.26,21.58-2.98c5.7,0.22,11.29,1.04,16.52,3.45
				c6.53,3.01,10.73,7.86,11.64,15.17c0.85,6.82-0.96,12.95-5.05,18.41c-4.38,5.85-10.17,9.9-16.73,12.92
				c-0.92,0.43-1.5,0.95-1.63,1.92C99.36,106.46,99.11,108.55,98.84,110.64z M146.69,150.12c-1.22-0.72-2.31-1.35-3.37-2.01
				c-2.8-1.73-5.4-3.69-7.15-6.56c-1.12-1.83-1.07-2.57,0.27-4.24c2.24-2.82,4.17-5.82,5.28-9.28c1.27-3.95,1.21-7.92-0.01-11.85
				c-1.87-6.04-7.06-9.04-13.45-7.96c-4.17,0.7-7.06,3-8.55,6.91c-1.49,3.92-1.72,7.98-0.62,12.05c1.04,3.87,3.17,7.17,5.65,10.26
				c1.2,1.5,1.35,2.39,0.17,3.91c-1.46,1.88-2.98,3.78-4.76,5.35c-1.66,1.46-3.68,2.5-5.62,3.77c0.73,1.45,1.52,3.05,2.42,4.84
				c3.91-3.38,7.66-6.61,11.4-9.86c1.72-1.49,2.66-1.49,4.4,0.02c3,2.61,6.01,5.2,9.03,7.79c0.76,0.65,1.56,1.24,2.41,1.9
				C145.04,153.43,145.84,151.82,146.69,150.12z M65.17,123.18c0.13,1.53,0.19,3.07,0.41,4.58c0.55,3.79,1.67,7.37,4.2,10.35
				c2.09,2.46,4.7,3.91,8.02,3.8c2.81-0.09,4.75-2.61,4.17-5.36c-0.28-1.31-0.53-2.62-0.72-3.94c-0.75-5.04-1.3-10.14,0.09-15.11
				c0.57-2.05-0.08-3.19-1.42-4.34c-0.51-0.43-1.04-0.85-1.6-1.2c-4.75-2.89-9.39-1.45-11.69,3.62
				C65.53,117.99,65.18,120.54,65.17,123.18z M106.25,141.95c0.51-0.05,1.02-0.07,1.52-0.17c4.13-0.83,6.58-3.63,8.29-7.22
				c0.22-0.47,0.19-1.24-0.03-1.72c-2.75-5.85-3.17-11.86-1.32-18.04c0.65-2.16,0.5-2.55-1.58-3.57c-0.42-0.21-0.87-0.38-1.32-0.5
				c-3.29-0.87-8.12,1.26-9.73,4.34c-0.17,0.32-0.09,0.82-0.02,1.21c0.25,1.43,0.65,2.84,0.81,4.28c0.61,5.34,0,10.63-1.23,15.81
				C101.05,138.91,103.03,142.11,106.25,141.95z"/>
			<path class="st1" d="M137.81,122.19c-0.4,5.2-2.15,9.97-5.52,14.07c-1.05,1.27-2.75,1.06-3.84-0.36
				c-2.65-3.43-4.28-7.31-4.97-11.58c-0.48-2.98-0.09-5.82,1.63-8.36c2.78-4.09,8.12-4.12,10.82,0.03c0.81,1.25,1.18,2.8,1.66,4.24
				C137.77,120.81,137.73,121.47,137.81,122.19z M130.54,130.33c1.58-3.4,2.92-6.5,2.11-10.06c-0.36-1.57-1.2-2.5-2.12-2.51
				c-0.92-0.01-1.79,0.94-2.13,2.49C127.6,123.81,128.89,126.93,130.54,130.33z"/>
		</g>
	</g>
</g>
</svg>
