<?xml version="1.0" encoding="UTF-8"?><svg xmlns="http://www.w3.org/2000/svg" viewBox="0 0 204.63 204.63"><defs><style>.d{fill:#fff;}.e{fill:#653f8c;}</style></defs><g id="a"/><g id="b"><g id="c"><circle class="d" cx="102.32" cy="102.32" r="102.32"/><path class="e" d="M160.85,136.84c-.97,2.8-2.97,3.79-5.88,3.79-35.13-.05-70.27-.03-105.4-.03-1.15,0-2.29,.02-3.33-.59-1.52-.9-2.42-2.23-2.44-4-.04-4.72-.04-9.45,0-14.17,.02-2.55,2-4.51,4.56-4.65,.26-.01,.53,0,.89,0-.79-1.7-1.1-3.4-.57-5.15,.59-1.96,1.79-3.44,3.68-4.26,.69-.3,.86-.47,.45-1.25-2.31-4.27-2.17-8.54,.68-12.47,2.88-3.97,6.94-5.53,11.75-4.52,4.71,1,7.61,4.05,8.85,8.69,.08,.29,.1,.6,.16,.9,.05,.26,.1,.51,.18,.9,3.85-1.63,7.75-.72,11.62-.37,6.79,.61,13.57,1.31,20.35,1.98,8.22,.81,16.45,1.62,24.67,2.44,1.42,.14,1.41,.17,1.41-1.26,0-15.85,0-31.7,0-47.55,0-3.47-1.56-5.04-4.99-5.04-9.83,0-19.66,0-29.49,0-2.13,0-3.79,1.11-4.35,2.86-.2,.62-.2,.92,.63,.99,7.23,.65,12.65,6.31,13.03,13.53,.13,2.45-1.38,4.1-3.81,4.11-7.85,.01-15.7,.01-23.55,0-2.37,0-3.83-1.54-3.77-3.9,.05-2.04,.5-3.99,1.42-5.83,.55-1.09,1.37-1.46,2.31-1.05,.96,.41,1.28,1.37,.78,2.5-.58,1.3-.97,2.63-1.06,4.06-.03,.54,0,.82,.69,.81,7.62-.03,15.24-.02,22.86,0,.65,0,.73-.25,.69-.81-.36-5.43-4.73-9.77-10.18-10.01-3.09-.14-6.17-.22-8.97,1.5-.88,.54-1.88,.11-2.31-.77-.4-.82-.14-1.71,.75-2.24,1.82-1.08,3.79-1.77,5.92-1.88,.68-.04,.96-.23,1.1-.94,.78-3.95,3.71-6.34,7.75-6.34,10.02-.01,20.04-.01,30.07,0,4.7,0,7.94,3.28,7.94,8.01,0,16.16,.01,32.31-.02,48.47,0,.98,.19,1.33,1.26,1.4,2.16,.14,4.34,.28,6.43,.91,5.37,1.6,8.72,5.34,10.86,10.32,.38,.87,.72,1.34,1.83,1.33,2.39-.02,3.72,1.55,4.58,3.61v16Zm-56.54-52.91c1.09-1,1.25-1.93,.51-2.77-.72-.82-1.73-.75-2.78,.19-6.17,5.52-14.51,5.51-20.66-.02-1-.9-1.98-.98-2.71-.23-.78,.8-.65,1.79,.4,2.77,3.55,3.31,7.76,4.96,12.47,5.02,4.99-.04,9.2-1.68,12.77-4.96Zm38.24,69c.04,2.77,2.13,4.92,4.79,4.92,2.67,0,4.78-2.13,4.81-4.91,.03-2.28,.01-4.57,0-6.85,0-1.25-.64-2.01-1.66-2.04-1.07-.03-1.75,.74-1.76,2.05-.01,2.13,0,4.26,0,6.4,0,1.25-.54,1.95-1.43,1.92-.87-.04-1.32-.68-1.32-1.9,0-2.17,.01-4.34,0-6.51-.01-1.21-.73-1.98-1.76-1.95-1,.02-1.64,.75-1.66,1.92-.02,1.22,0,2.44,0,3.66,0,1.1-.01,2.21,0,3.31Zm-80.45-3.27c0-1.18,0-2.36,0-3.54-.01-1.28-.61-1.99-1.67-2.01-1.09-.02-1.75,.73-1.75,2.06-.01,2.13,0,4.27,0,6.4,0,1.19-.51,1.85-1.38,1.85-.87,0-1.37-.67-1.38-1.86,0-2.21,.01-4.42,0-6.63-.01-1.14-.71-1.88-1.71-1.89-.99,0-1.7,.74-1.71,1.88-.02,2.44-.05,4.88,.01,7.31,.07,2.55,2.22,4.59,4.75,4.61,2.58,.03,4.75-2.05,4.83-4.65,.04-1.18,0-2.36,0-3.54h0Zm37.38-70.79c.95-.88,1.09-1.92,.37-2.69-.73-.77-1.63-.74-2.63,.1-3.52,2.97-7.46,2.95-11.06-.05-.96-.8-1.93-.8-2.62,0-.66,.76-.56,1.7,.3,2.52,2.2,2.08,4.84,3.08,7.85,3.17,2.96-.08,5.58-1.02,7.78-3.05Zm-50.29,41.74c-1.6,0-1.96,.35-1.96,1.93,0,4.08,0,8.15,0,12.23,0,2.23,.17,2.4,2.41,2.4,25.18,0,50.37,0,75.55,0,10.06,0,20.12,0,30.17,0,1.77,0,2.07-.31,2.07-2.05,0-4.11,0-8.23,0-12.34,0-1.89-.28-2.17-2.18-2.17-17.64,0-35.28,0-52.92,0s-35.43,0-53.15,0Zm102.08-3.5c-2.17-4.79-5.46-8.06-10.81-8.65-6.81-.74-13.64-1.37-20.46-2.04-6.52-.64-13.04-1.27-19.55-1.9-5.38-.52-10.76-1.03-16.14-1.59-.65-.07-.76,.12-.75,.69,.03,1.41,.07,2.82-.01,4.23-.06,.92,.26,1.11,1.13,1.1,7.51-.03,15.01-.02,22.52-.01,.61,0,1.23,0,1.81,.14,3.6,.81,5.26,4.02,4.13,8.03h38.14Zm-85.74-8.63c.57-.2,.94-.51,1.18-1.1,.78-1.89,1.96-3.52,3.54-4.82,.57-.47,.73-.99,.74-1.68,.03-4.47-3.59-8.16-8.06-8.19-4.57-.03-8.21,3.57-8.2,8.13,0,5.6,5.53,9.51,10.8,7.66Zm34.62,8.57c2.51,0,5.03,.03,7.54-.01,1.69-.03,2.74-1.36,2.39-2.87-.26-1.14-1.22-1.79-2.7-1.79-9.56,0-19.11,0-28.67,0-.23,0-.46,0-.68,.02-1.21,.16-2.05,1.14-2.03,2.36,.02,1.41,1.01,2.29,2.68,2.3,4.76,.02,9.52,0,14.28,0,2.4,0,4.8,0,7.2,0Zm-33.28-4.51c-.15-.65-.38-.81-1.06-.61-2.83,.82-5.58,.5-8.18-.85-.78-.4-1.53-.57-2.39-.53-1.93,.09-3.38,1.5-3.38,3.32,0,1.82,1.47,3.29,3.39,3.3,4.53,.02,9.06,0,13.83,0-1.04-1.54-1.82-3-2.21-4.64Zm5.7,2.34c-.05-2.92,1.85-5.31,4.71-5.84,.7-.13,1.44-.11,2.16-.09,.55,.02,.72-.16,.71-.71-.03-1.63-.04-3.27,0-4.9,.02-.65-.18-.84-.82-.82-3.22,.1-5.91,1.32-7.97,3.79-.88,1.06-1.8,2.14-1.54,3.75,.35,2.17,1.11,4.11,2.8,5.97-.03-.58-.05-.87-.05-1.15Z"/></g></g></svg>