<?xml version="1.0" encoding="utf-8"?>
<!-- Generator: Adobe Illustrator 25.0.0, SVG Export Plug-In . SVG Version: 6.00 Build 0)  -->
<svg version="1.1" xmlns="http://www.w3.org/2000/svg" xmlns:xlink="http://www.w3.org/1999/xlink" x="0px" y="0px"
	 viewBox="0 0 200 200" style="enable-background:new 0 0 200 200;" xml:space="preserve">
<style type="text/css">
	.st0{fill:#FFFFFF;}
	.st1{fill:#70108E;}
</style>
<g id="BACKGROUND">
</g>
<g id="OBJECTS">
	<rect x="0.48" y="-0.67" class="st0" width="199.56" height="199.56"/>
	<g>
		<g>
			<path class="st1" d="M60.58,87.86c-7.29-6.93-10.57-15.09-9.65-24.75c0.71-7.43,3.97-13.71,9.59-18.65
				c11.61-10.21,28.82-9.58,39.69,1.38c11.03,11.12,11.48,30.09-1.39,41.91c1.57,0,2.99,0.14,4.36-0.03
				c3.16-0.39,6.31-0.91,9.45-1.48c0.35-0.06,0.7-0.77,0.82-1.24c1.2-4.62,2.09-9.35,3.57-13.88c2.99-9.14,7.29-17.6,13.98-24.68
				c1.54-1.63,3.35-2.34,5.53-1.74c3.71,1.03,5.03,5.39,2.55,8.49c-2.65,3.31-4.85,6.88-6.56,10.76c-2.91,6.6-4.7,13.5-5.69,20.62
				c-0.05,0.36-0.06,0.73-0.08,1.1c0,0.12,0.04,0.24,0.12,0.64c3.72,0.48,7.51,1.11,11.32,1.44c5.03,0.44,9.94-0.62,14.85-1.54
				c1.08-0.2,2.2-0.36,3.29-0.29c3.21,0.21,5.58,2.69,5.8,5.93c0.03,0.41,0.02,0.82,0.02,1.23c0,20.27,0,40.54,0,60.8
				c0,4.69-2.43,7.13-7.09,7.13c-36.52,0-73.05,0-109.57,0c-4.68,0-7.12-2.43-7.12-7.1c0-20.27,0-40.54,0-60.8
				c0-5.09,2.81-7.68,7.85-7.05c3.49,0.44,6.94,1.1,10.42,1.59C57.8,87.82,59,87.78,60.58,87.86z M149.74,144.47
				c0-0.55,0-1.03,0-1.51c0-7.37,0-14.74,0-22.11c0-0.45-0.01-0.91,0.06-1.35c0.18-1.14,1.03-1.82,2.14-1.75
				c1.04,0.06,1.79,0.8,1.89,1.89c0.04,0.41,0.02,0.82,0.02,1.23c0,7.37,0,14.74,0,22.11c0,0.48,0,0.96,0,1.5c1.44,0,2.72,0,4.06,0
				c0-14.08,0-28.09,0-42.3c-2.04,0.26-4.01,0.37-5.91,0.79c-6.46,1.44-12.96,1.79-19.51,0.79c-2.13-0.32-4.24-0.78-6.52-1.2
				c0,0.55-0.02,0.95,0,1.34c0.1,1.72,0.96,3.06,2.04,4.35c4.09,4.9,6.13,10.5,4.75,16.86c-1.68,7.74-9.28,12.46-16.97,10.85
				c-7.46-1.56-12.63-9.45-11.25-17.15c0.73-4.09,2.42-7.7,5.17-10.82c1.23-1.4,1.97-2.95,1.79-4.91c-0.27,0.05-0.43,0.07-0.59,0.11
				c-7.06,1.51-14.12,1.48-21.2,0.05c-2.59-0.52-5.23-0.78-7.92-1.17c0,2.74,0,5.16,0,7.69c2.63-0.7,4.84-0.14,6.58,1.81
				c1.74,1.95,1.93,4.23,1.09,6.6c3.44,1.85,5.05,4.66,4.53,7.77c-0.26,1.58-0.92,2.96-2.06,4.09c-1.68,1.66-3.75,2.22-6.02,2.04
				c-0.76,4.24-3.35,6.62-6.75,6.28c-1.61-0.16-2.99-0.8-4.09-2.01c-1.69-1.86-1.91-4.06-1.31-6.37c-5.59-1.75-6.99-6.25-6.34-9.67
				c0.85-4.55,4.4-6.83,10.08-6.55c0-3.78,0-7.57,0-11.52c-1.84,0.25-3.61,0.37-5.31,0.75c-7.38,1.64-14.75,1.81-22.17,0.3
				c-2.42-0.49-4.89-0.77-7.43-1.16c0,14.3,0,28.32,0,42.35c1.37,0,2.65,0,4.06,0c0-0.56,0-1.04,0-1.52c0-7.62,0-15.23,0.01-22.85
				c0-1.46,0.72-2.3,1.94-2.35c1.28-0.05,2.09,0.79,2.16,2.28c0.02,0.37,0.01,0.74,0.01,1.11c0,7.29,0,14.58,0,21.86
				c0,0.48,0,0.95,0,1.44c1.46,0,2.74,0,4.09,0c0-0.54,0-0.99,0-1.44c0-4.63,0-9.25,0-13.88c0-0.33-0.02-0.66,0.01-0.98
				c0.1-1.3,0.91-2.17,2.05-2.18c1.18-0.01,2.06,0.9,2.06,2.26c0.02,4.95,0.01,9.91,0.01,14.86c0,0.44,0,0.88,0,1.35
				c1.45,0,2.77,0,4.11,0c0.02-0.38,0.04-0.66,0.04-0.95c0.01-2.42-0.02-4.83,0.02-7.25c0.02-1.16,0.83-1.95,1.91-2.01
				c1.08-0.06,1.96,0.64,2.15,1.77c0.08,0.52,0.06,1.06,0.06,1.59c0.01,2.28,0,4.55,0,6.87c22.05,0,43.93,0,65.95,0
				c0-0.5,0-0.94,0-1.38c0-2.25-0.03-4.5,0.02-6.76c0.03-1.3,0.93-2.12,2.09-2.1c1.17,0.02,1.97,0.86,2.01,2.17
				c0.03,0.86,0.01,1.72,0.01,2.58c0,1.83,0,3.65,0,5.47c1.47,0,2.76,0,4.15,0c0-2.28,0-4.49,0-6.69c0-3.19-0.01-6.39,0.01-9.58
				c0.01-1.3,0.84-2.18,1.98-2.22c1.14-0.04,2.01,0.81,2.13,2.09c0.03,0.37,0.02,0.74,0.02,1.1c0,4.67,0,9.34,0,14
				c0,0.43,0.04,0.86,0.06,1.3C147.09,144.47,148.34,144.47,149.74,144.47z M79.67,90.91c13.66-0.04,24.77-11.2,24.72-24.83
				c-0.05-13.65-11.21-24.74-24.85-24.69c-13.59,0.05-24.67,11.16-24.67,24.76C54.87,79.77,66.06,90.95,79.67,90.91z M157.99,148.76
				c-38.57,0-76.98,0-115.36,0c-0.05,0.16-0.09,0.24-0.09,0.31c-0.01,1.56-0.02,3.11-0.02,4.67c0,2.64,0.5,3.13,3.15,3.13
				c36.39,0,72.78,0,109.17,0c0.37,0,0.74,0.01,1.1-0.01c1.22-0.08,2.01-0.8,2.04-2.01C158.02,152.85,157.99,150.85,157.99,148.76z
				 M108.49,121.55c0.1,0.65,0.16,1.64,0.4,2.59c1.37,5.42,6.09,8.63,11.5,7.87c5.1-0.72,8.82-5.31,8.63-10.73
				c-0.14-4.09-1.67-7.64-4.39-10.67c-1.65-1.83-2.68-3.93-2.74-6.41c-0.25-9.27,0.1-18.5,2.19-27.59
				c2.15-9.38,5.48-18.24,11.64-25.82c0.1-0.13,0.29-0.26,0.29-0.39c-0.01-0.49,0.08-1.23-0.18-1.41c-0.35-0.24-1.09-0.21-1.49,0.01
				c-0.51,0.27-0.87,0.85-1.28,1.3c-4.47,4.96-7.62,10.72-10.18,16.83c-4.73,11.29-6.62,23.16-7.11,35.29
				c-0.14,3.33-1.01,6.19-3.28,8.73C109.97,113.98,108.63,117.39,108.49,121.55z M126.2,90.32c-0.08,2.5-0.18,4.94-0.21,7.38
				c0,0.26,0.4,0.73,0.66,0.77c4.04,0.58,8.07,1.24,12.13,1.62c5.03,0.48,9.91-0.78,14.82-1.58c1.43-0.23,2.89-0.3,4.39-0.44
				c0-1.94,0.01-3.78,0-5.61c-0.02-1.72-0.95-2.59-2.64-2.4c-1.3,0.14-2.6,0.32-3.87,0.6c-5.14,1.15-10.34,1.64-15.59,1.08
				C132.73,91.4,129.6,90.83,126.2,90.32z M77.52,97.99c0-0.97,0-1.98,0-2.61c-3.36-1.01-6.6-1.83-9.72-2.99
				c-1.37-0.51-2.63-0.58-4.02-0.61c-3.79-0.08-7.59-0.19-11.36-0.51c-2.43-0.21-4.83-0.84-7.25-1.2c-1.42-0.21-2.55,0.52-2.61,1.76
				c-0.1,2.07-0.03,4.15-0.03,6.2c2.1,0.25,4.11,0.34,6.06,0.76c6.83,1.48,13.66,1.91,20.56,0.56
				C71.91,98.82,74.7,98.45,77.52,97.99z M112.57,90.52c-0.37,0.06-0.6,0.08-0.83,0.14c-4.41,0.99-8.89,1.63-13.39,1.22
				c-3.21-0.29-6.1,0.06-9.08,1.39c-2.3,1.03-4.94,1.3-7.5,1.93c0,0.86,0,1.86,0,2.66c3.66,0.58,7.2,1.14,10.75,1.71
				c6.46,1.05,12.85,0.79,19.2-0.77C112,96.02,112.28,93.31,112.57,90.52z M75.51,117.74c-2.31,0-4.13,1.83-4.11,4.13
				c0.02,2.26,1.8,4.04,4.05,4.06c2.32,0.02,4.16-1.77,4.17-4.07C79.63,119.56,77.81,117.74,75.51,117.74z M83.78,124.87
				c-0.03,1.73,1.36,3.15,3.07,3.15c1.65,0,3.04-1.38,3.08-3.04c0.03-1.72-1.35-3.13-3.08-3.12
				C85.15,121.87,83.81,123.18,83.78,124.87z M85.78,115.61c-0.02-1.13-0.91-2.01-2.04-2.01c-1.12,0-2.02,0.9-2.03,2.03
				c-0.01,1.16,0.97,2.13,2.11,2.08C84.93,117.67,85.8,116.73,85.78,115.61z M79.68,130.09c-1.11-0.03-2.04,0.85-2.07,1.98
				c-0.04,1.14,0.79,2.07,1.91,2.14c1.14,0.07,2.13-0.87,2.15-2.04C81.67,131.04,80.8,130.12,79.68,130.09z"/>
			<path class="st1" d="M77.61,72.44c-0.02-4.47,1.22-6.2,5.49-7.68c2.7-0.94,4.7-3.39,4.75-6.12c0.05-2.8-1.52-4.7-3.92-5.89
				C81,51.28,78,51.32,75.1,52.87c-2.15,1.15-3.51,2.89-3.7,5.42c-0.03,0.44-0.13,0.91-0.34,1.29c-0.51,0.9-1.36,1.18-2.32,0.9
				c-0.92-0.26-1.43-0.93-1.44-1.91c-0.03-3.06,1.22-5.56,3.42-7.6c4.85-4.5,12.96-4.49,17.83-0.02c5.93,5.44,3.73,15.02-4.06,17.7
				c-2.64,0.9-2.8,1.13-2.8,3.96c0,0.65,0.02,1.31-0.04,1.96c-0.12,1.13-0.98,1.91-2.04,1.9c-1.06-0.01-1.91-0.81-1.99-1.94
				C77.56,73.83,77.61,73.14,77.61,72.44z"/>
			<path class="st1" d="M79.63,84.68c-1.15,0-2.01-0.85-2.02-2c-0.01-1.2,0.88-2.08,2.09-2.05c1.14,0.03,1.98,0.91,1.96,2.05
				C81.64,83.82,80.77,84.68,79.63,84.68z"/>
		</g>
	</g>
</g>
</svg>
