<?xml version="1.0" encoding="utf-8"?>
<!-- Generator: Adobe Illustrator 25.0.0, SVG Export Plug-In . SVG Version: 6.00 Build 0)  -->
<svg version="1.1" xmlns="http://www.w3.org/2000/svg" xmlns:xlink="http://www.w3.org/1999/xlink" x="0px" y="0px"
	 viewBox="0 0 200 200" style="enable-background:new 0 0 200 200;" xml:space="preserve">
<style type="text/css">
	.st0{fill:#FFFFFF;}
	.st1{fill:#70108E;}
</style>
<g id="BACKGROUND">
</g>
<g id="OBJECTS">
	<rect x="0.48" y="0.98" class="st0" width="199.56" height="199.56"/>
	<g>
		<g>
			<path class="st1" d="M90.07,40.05c0.96,0.64,1.42,1.55,1.73,2.67c1.07,3.83,2.13,7.68,3.45,11.43c1.12,3.19,3.07,5.95,5.28,8.51
				c1.45,1.68,3.02,1.87,4.77,0.49c3.73-2.95,7.9-4.89,12.62-5.6c12.31-1.83,23.95,4.81,28.53,16.36
				c3.55,8.92,5.54,18.17,4.75,27.78c-1.51,18.22-9.42,32.71-25.95,41.42c-17.98,9.48-40.16,5.61-54.32-8.98
				c-1.14-1.17-2.24-2.36-3.99-2.55c-2.18-0.23-4.15,0.83-5.08,2.74c-0.92,1.9-0.54,4.15,1.07,5.79c2.66,2.71,5.36,5.37,8.04,8.05
				c2.96,2.96,5.91,5.94,8.89,8.88c0.87,0.85,1.35,1.79,0.87,2.96c-0.48,1.19-1.5,1.48-2.71,1.47c-3.16-0.03-6.33,0.06-9.48-0.06
				c-0.85-0.03-1.89-0.43-2.5-1.02c-3.98-3.85-7.91-7.74-11.75-11.72c-4.78-4.93-6.32-10.82-4.25-17.36
				c2.07-6.54,6.69-10.5,13.48-11.69c3.97-0.7,7.9-0.21,11.29,2.05c7.74,5.17,15.54,0.99,19.11-3.97c4.96-6.9,6.17-14.48,3.36-22.47
				c-2.05-5.83-2.74-11.65-1.23-17.67c0.36-1.46-0.25-2.5-1.28-3.45c-3.47-3.17-6.33-6.83-8.64-10.92
				c-0.12-0.21-0.24-0.41-0.34-0.63c-0.44-0.97-0.2-1.87,0.64-2.37c0.87-0.52,1.83-0.28,2.45,0.67c1.12,1.72,2.1,3.55,3.37,5.14
				c1.62,2.03,3.42,3.93,5.25,5.78c1.88,1.91,2.63,4.11,1.99,6.7c-1.25,5.07-0.82,9.98,0.94,14.89c3.39,9.45,2.26,18.4-3.73,26.5
				c-3.9,5.26-9.2,8.09-15.93,7.66c-2.61-0.17-4.98-1.13-7.2-2.5c-8.32-5.13-18.89-0.48-20.6,9.14c-0.76,4.28,0.31,8.22,3.33,11.4
				c3.84,4.03,7.84,7.92,11.79,11.85c0.23,0.23,0.59,0.44,0.9,0.44c2.12,0.04,4.25,0.02,6.61,0.02c-0.42-0.46-0.69-0.78-0.98-1.07
				c-4.72-4.72-9.47-9.42-14.16-14.18c-3.97-4.02-3.39-10.25,1.16-13.27c2.13-1.41,4.28-1.67,7.78-0.92
				c0.08-0.29,0.14-0.59,0.24-0.88c0.29-0.86,0.91-1.29,1.8-1.22c0.89,0.07,1.44,0.59,1.59,1.49c0.13,0.78,0.08,1.63,0.4,2.32
				c0.53,1.16,1.08,2.46,1.99,3.28c9.28,8.3,20.18,12.22,32.58,10.93c18.99-1.98,31.11-12.81,37.26-30.5
				c3.96-11.38,3.09-22.87-0.52-34.22c-1.34-4.2-2.94-8.25-6.01-11.56c-8.06-8.66-21.33-9.79-30.74-2.51
				c-1.88,1.45-3.84,2.34-6.24,1.86c-1.57-0.31-2.79-1.2-3.85-2.39c-4.25-4.83-6.81-10.48-8.3-16.69c-0.38-1.57-0.83-3.12-1.26-4.73
				c-1.72,0-3.4,0-5.23,0c0.79,2.95,1.57,5.84,2.35,8.72c0.12,0.46,0.28,0.91,0.34,1.38c0.12,0.95-0.29,1.66-1.21,1.92
				c-0.94,0.27-1.74-0.05-2.13-1c-0.23-0.54-0.37-1.12-0.52-1.69c-0.84-3.08-1.68-6.17-2.5-9.25c-0.51-1.92-0.27-2.55,1.38-3.67
				C83.9,40.05,86.98,40.05,90.07,40.05z"/>
			<path class="st1" d="M108.5,98.44c0.1,1.14,0.22,1.99,0.25,2.85c0.4,9.7-2.57,18.19-9.21,25.32c-1.79,1.92-2.52,4.06-1.86,6.62
				c0.65,2.54,2.82,4.42,5.45,4.79c0.27,0.04,0.54,0.09,0.86,0.15c0,1.13,0,2.22,0,3.61c-1.3-0.28-2.55-0.4-3.69-0.83
				c-6.63-2.53-8.58-11.1-3.67-16.36c2.79-2.99,4.99-6.31,6.48-10.1c2.81-7.14,2.92-14.35,0.29-21.53
				c-2.03-5.54-2.33-10.99-0.12-16.51c3.98-10,15.27-15.12,25.4-11.49c0.07,0.03,0.15,0.05,0.22,0.08c1.27,0.5,1.8,1.42,1.42,2.46
				c-0.36,0.98-1.33,1.29-2.59,0.93c-1.21-0.35-2.43-0.73-3.67-0.9c-8.92-1.2-17.36,5.29-18.59,14.2c-0.41,3-0.14,5.9,0.87,8.75
				c0.45,1.26,0.79,2.57,1.27,3.81c0.12,0.32,0.61,0.72,0.92,0.71c1.97-0.05,3.83,0.29,5.68,0.97c1.91,0.7,3.89,0.66,5.81-0.06
				c3.21-1.2,6.35-1.08,9.61-0.04c1.51,0.48,3.28,0.51,4.88,0.3c2.16-0.28,4.26-0.98,6.67-1.57c-0.34-2.14-0.53-4.58-1.13-6.93
				c-0.87-3.43-1.91-6.84-3.11-10.17c-0.56-1.56-1.63-2.96-2.57-4.36c-0.8-1.19-0.89-2.1-0.04-2.83c0.85-0.73,1.9-0.5,2.85,0.6
				c2.04,2.39,3.2,5.23,4.21,8.16c2.87,8.33,4.14,16.84,2.99,25.64c-1.81,13.76-10.73,30.79-30.39,35.73
				c-1.89,0.47-2.81,0.16-3.11-1.07c-0.3-1.21,0.35-1.87,2.27-2.38c13.35-3.59,21.59-12.48,26-25.26c1.44-4.17,2.01-8.51,2.12-13.26
				c-1.3,0.18-2.58,0.16-3.7,0.56c-3.35,1.21-6.61,1.24-9.95-0.02c-1.82-0.69-3.76-0.7-5.58-0.01c-3.38,1.27-6.68,1.26-10.06-0.01
				C110.94,98.61,109.77,98.63,108.5,98.44z"/>
			<path class="st1" d="M121.64,110.58c0,2.79-2.26,5.06-5.03,5.05c-2.78-0.01-5.02-2.27-5.01-5.07c0-2.79,2.25-5.05,5.03-5.04
				C119.4,105.52,121.65,107.78,121.64,110.58z M118.08,110.54c-0.01-0.84-0.7-1.53-1.51-1.45c-0.9,0.09-1.43,0.61-1.4,1.56
				c0.04,0.89,0.6,1.34,1.44,1.4C117.43,112.1,118.09,111.38,118.08,110.54z"/>
			<path class="st1" d="M124.93,123.69c-0.01,2.77-2.3,5.04-5.07,5.02c-2.77-0.02-5.03-2.32-5-5.09c0.02-2.77,2.32-5.05,5.08-5.02
				C122.71,118.63,124.94,120.9,124.93,123.69z M121.37,123.64c-0.01-0.81-0.72-1.54-1.52-1.47c-0.85,0.07-1.37,0.55-1.42,1.44
				c-0.05,0.82,0.64,1.53,1.45,1.53C120.69,125.15,121.38,124.46,121.37,123.64z"/>
			<path class="st1" d="M129.96,115.38c-0.02,0.96-0.78,1.72-1.73,1.72c-0.98,0.01-1.81-0.83-1.78-1.81
				c0.02-0.94,0.81-1.71,1.75-1.72C129.19,113.56,129.98,114.37,129.96,115.38z"/>
			<path class="st1" d="M134.54,109.4c0.02,0.99-0.79,1.8-1.79,1.79c-0.96-0.01-1.7-0.75-1.72-1.72c-0.02-1,0.79-1.83,1.77-1.81
				C133.72,107.67,134.52,108.47,134.54,109.4z"/>
			<path class="st1" d="M110.34,125.39c0.02,0.99-0.79,1.81-1.78,1.8c-0.95-0.01-1.7-0.76-1.72-1.72c-0.02-0.99,0.67-1.73,1.64-1.78
				C109.51,123.64,110.32,124.39,110.34,125.39z"/>
		</g>
	</g>
</g>
</svg>
