<?xml version="1.0" encoding="utf-8"?>
<!-- Generator: Adobe Illustrator 25.0.0, SVG Export Plug-In . SVG Version: 6.00 Build 0)  -->
<svg version="1.1" xmlns="http://www.w3.org/2000/svg" xmlns:xlink="http://www.w3.org/1999/xlink" x="0px" y="0px"
	 viewBox="0 0 200 200" style="enable-background:new 0 0 200 200;" xml:space="preserve">
<style type="text/css">
	.st0{fill:#FFFFFF;}
	.st1{fill:#70108E;}
</style>
<g id="BACKGROUND">
</g>
<g id="OBJECTS">
	<rect x="0.48" y="0.98" class="st0" width="199.56" height="199.56"/>
	<g>
		<g>
			<path class="st1" d="M85.44,101.4c-0.56-1.3-1.16-2.58-1.66-3.9c-0.44-1.16-1.14-1.95-2.2-2.65c-6.42-4.2-10.74-9.92-12.13-17.6
				c-0.42-2.34-0.59-4.7-0.2-7.06c0.63-3.85,2.88-6.6,6.06-8.69c0.21-0.14,0.42-0.27,0.62-0.41c0.02-0.01,0.03-0.05-0.06,0.13
				c-1.62-3.55-3.19-6.97-4.83-10.56c-0.63,0.26-1.51,0.48-2.23,0.94c-5.2,3.38-8.96,7.87-10.41,14.03
				c-0.91,3.88-0.32,7.71,0.86,11.43c1.23,3.86,2.66,7.66,3.94,11.51c1.16,3.49,1.85,7.04,1.29,10.75c-0.48,3.13-1.39,6.13-2.68,9
				c-1.64,3.65-3.4,7.24-5.11,10.86c-0.06,0.12-0.11,0.25-0.21,0.49c0.4-0.14,0.7-0.25,1-0.35c4.87-1.58,9.18-0.42,12.97,2.82
				c3.83,3.27,5.94,7.57,6.93,12.44c1.13,5.59,0.67,11.03-2.01,16.14c-2.05,3.91-5.07,6.73-9.51,7.74
				c-1.88,0.43-3.79,0.45-5.61-0.14c-3.92-1.27-7.5-3.13-10.03-6.54c-2.24-3.02-3.29-6.45-3.36-10.2
				c-0.06-3.65,0.08-7.26,0.97-10.83c1.54-6.13,4.06-11.86,6.8-17.53c1.61-3.32,3.06-6.72,4.42-10.15c1.77-4.47,1.5-8.97-0.12-13.45
				c-1.33-3.68-2.64-7.38-3.84-11.11c-1.06-3.27-1.6-6.64-1.47-10.1c0.2-5.41,2.26-10.11,5.69-14.21c1.3-1.55,2.77-2.96,4.27-4.33
				c0.89-0.82,1.94-1.5,3-2.09c1.05-0.59,2.21-1,3.41-1.53c-0.2-1.12-0.43-2.34-0.64-3.56c-0.09-0.52-0.16-1.04-0.22-1.57
				c-0.16-1.43,0.57-2.48,1.82-2.63c1.37-0.17,2.33,0.68,2.56,2.12c0.28,1.75,0.63,3.5,1,5.24c0.06,0.28,0.36,0.64,0.63,0.72
				c2.91,0.96,5.08,2.86,6.75,5.33c1.21,1.79,2.22,3.71,3.37,5.66c9.9-1.78,19.99-1.89,30.01-0.1c1-1.73,1.91-3.51,3.01-5.18
				c1.75-2.66,4.01-4.75,7.13-5.76c0.22-0.07,0.48-0.38,0.53-0.63c0.37-1.74,0.73-3.48,1.01-5.24c0.24-1.49,1.12-2.32,2.5-2.19
				c1.29,0.13,2.08,1.19,1.87,2.65c-0.24,1.73-0.55,3.45-0.83,5.14c6.56,2.34,10.88,7.13,14.01,13.1c2.5,4.76,2.82,9.86,1.85,15.1
				c-0.88,4.76-2.77,9.2-4.34,13.73c-0.3,0.86-0.6,1.72-0.9,2.6c-1.39-0.98-4.54,1.44-5.19,3.74c0.17-1.01,0.21-2.06,0.52-3.03
				c1.07-3.39,2.21-6.75,3.36-10.12c1.13-3.32,2.23-6.63,2.57-10.16c0.39-4.07-0.38-7.9-2.6-11.32c-1.31-2.01-2.95-3.82-4.54-5.63
				c-1.51-1.72-3.43-2.88-5.62-3.57c-0.1-0.03-0.21-0.04-0.22-0.05c-1.57,3.46-3.13,6.88-4.7,10.33c0.67,0.5,1.52,1.07,2.3,1.74
				c3.58,3.1,4.73,7.1,4.38,11.7c-0.72,9.32-5.52,16.04-13.25,20.91c-0.37,0.23-0.73,0.61-0.91,1c-1.7,3.73-3.09,7.56-3.54,11.67
				c-0.08,0.74-0.09,1.5-0.09,2.25c0,13.24-0.04,26.49,0.04,39.73c0.01,2.28-0.53,4.29-1.7,6.15c-2.96,4.68-7.22,7.26-12.78,6.76
				c-5.56-0.5-9.41-3.71-11.58-8.84c-0.41-0.97-0.58-2.09-0.61-3.14c-0.06-2.02,0.06-4.05,0.1-6.08c0.11,1.14,0.23,2.28,0.34,3.44
				c-0.06,0.08-0.24,0.22-0.27,0.39c-0.14,0.63,0.04,1.21,0.6,1.52c0.77,0.42,1.58,0.76,2.41,1.06c0.24,0.09,0.57-0.06,0.86-0.09
				c-0.16-0.36-0.22-0.89-0.49-1.05c-0.55-0.32-1.22-0.45-1.67-0.6c-2.11-2.6-1.84-5.08,0.25-7.19c0.71-0.28,1.35-0.42,1.84-0.77
				c0.19-0.14,0.07-0.73,0.09-1.23c-1.59,0.38-2.89,0.83-3.77,2.07c-0.01,0.01,0.05,0.08,0.18,0.29c0.1-0.26,0.19-0.47,0.27-0.67
				c0.06,0.05,0.13,0.1,0.19,0.14c-0.11,0.26-0.16,0.69-0.35,0.76c-0.65,0.26-0.39,0.76-0.43,1.19c-0.02,0.25-0.05,0.5-0.07,0.75
				c-0.04-1.19-0.11-2.39-0.11-3.58c-0.01-10.09-0.03-20.19,0.01-30.28c0.01-2.72-0.36-5.37-1.11-7.97
				c-0.16-0.55-0.24-1.13-0.36-1.7c0.14-0.24,0.29-0.48,0.52-0.86c0.13,0.44,0.2,0.68,0.26,0.92c0.08-0.01,0.16-0.03,0.24-0.04
				c-0.06-0.31-0.09-0.64-0.19-0.94c-0.02-0.07-0.38-0.12-0.43-0.06c-0.18,0.22-0.3,0.49-0.43,0.74
				C85.38,101.22,85.43,101.32,85.44,101.4z M114.08,61.89l0.03,0.03c-1.19-0.24-2.38-0.52-3.58-0.7
				c-4.84-0.72-9.71-0.63-14.57-0.45c-2.92,0.11-5.83,0.55-8.83,0.85c0.13,0.24,0.14,0.31,0.18,0.33c3.75,1.78,5.93,4.82,7.08,8.71
				c0.07,0.25,0.21,0.53,0.41,0.69c2.84,2.38,3.82,5.63,4.26,9.13c0.09,0.69-0.15,1.23-0.92,1.33c-0.69,0.09-1.11-0.34-1.24-1.15
				c-0.14-0.88-0.27-1.76-0.5-2.62c-0.53-2-1.42-3.78-3.1-5.11c-0.39-0.31-0.75-0.82-0.88-1.3c-0.88-3.26-2.58-5.88-5.61-7.52
				c-1.09-0.59-1.2-0.86-0.77-2.03c-3.06,0.28-7.97,2.48-10.11,4.53c-1.38,1.32-2.3,2.91-2.39,4.82c-0.07,1.6-0.03,3.24,0.23,4.82
				c1.14,6.85,5.12,11.74,10.88,15.34c0.34,0.21,0.71,0.38,1.13,0.6c0.63-4.46,3.44-6.75,7.47-7.58c4.64-0.95,9.34-0.88,14,0
				c2.37,0.45,4.53,1.52,5.9,3.61c0.75,1.15,1.17,2.52,1.76,3.85c0.01-0.01,0.2-0.06,0.35-0.16c7.58-4.55,11.98-10.96,11.69-20.08
				c-0.06-1.84-0.72-3.49-1.99-4.83C122.01,63.89,118.14,62.67,114.08,61.89z M68.92,127.02c0.06-0.07,0.12-0.14,0.17-0.21
				c-0.33-0.29-0.69-0.56-1-0.87c-4.15-4.2-9.97-3.79-13.53,0.92c-2.51,3.32-3.12,7.21-3.18,11.17c-0.05,3.64,0.98,7.08,2.87,10.23
				c2.03,3.38,4.82,5.51,8.86,5.88c1.22,0.11,2.32,0.01,3.4-0.5c2.42-1.15,4.02-3.08,5.19-5.44c1.17-2.38,1.69-4.9,1.82-7.58
				c-0.62,0.37-1.13,0.76-1.71,0.99c-0.43,0.17-0.57,0.39-0.63,0.83c-0.27,1.94-1.88,3.07-3.84,2.76c-1.78-0.28-2.97-1.97-2.66-3.8
				c0.16-0.93-0.2-1.53-1.11-1.86c-1.37-0.49-2.1-1.46-2.28-2.91c-0.04-0.28-0.27-0.63-0.52-0.79c-1.2-0.76-1.8-1.81-1.67-3.22
				c0.13-1.45,0.94-2.42,2.31-2.86c0.43-0.14,0.63-0.31,0.75-0.72c0.31-1.03,1-1.72,2.03-2.03c0.42-0.13,0.91-0.05,1.3-0.22
				C66.69,126.28,67.81,126.31,68.92,127.02z M90.47,103.34c0.02,0.12,0.02,0.26,0.05,0.38c0.62,2.5,0.81,5.04,0.8,7.61
				c-0.02,9.31-0.01,18.63-0.01,27.94c0,0.25-0.01,0.5-0.01,0.75c0,1.65,0.01,3.31-0.01,4.96c-0.02,1.77-0.08,3.53-0.08,5.3
				c0,0.57,0.03,1.18,0.21,1.71c0.51,1.46,1.3,2.76,2.4,3.86c0.87,0.86,1.83,1.58,3.08,2.03c0-1.06-0.07-2.04,0.01-3
				c0.22-2.43-0.61-4.94,0.77-7.3c-0.04-1.13,0.17-1.25,0.32-2.1c0.07-0.41-0.28,2.87-0.42,2.4c-0.13,0.36-0.53,1.72-0.6,1.93
				c-0.09-0.01,0.01-5.14-0.08-5.14c0-0.93,0-1.86,0-2.79c0-10.98-0.01-21.97,0.01-32.95c0-0.62-0.18-1-0.69-1.36
				C94.31,106.2,92.43,104.78,90.47,103.34z M109.93,103.37c-1.82,1.35-3.59,2.72-5.44,4c-0.69,0.48-0.98,0.97-0.98,1.81
				c0.03,15.69,0.03,31.38,0.03,47.06c0,0.52,0,1.03,0,1.62c0.24-0.07,0.38-0.08,0.5-0.14c1.81-0.92,3.2-2.28,4.22-4.03
				c0.65-1.11,0.91-2.26,0.91-3.57c-0.04-11.99-0.03-23.97-0.02-35.96c0-2.11-0.01-4.23,0.13-6.33
				C109.37,106.32,109.7,104.82,109.93,103.37z M97.73,86.27c-1.94-0.22-5.28,0.47-6.92,1.63c-0.78,0.55-1.51,1.26-2.03,2.04
				c-0.98,1.49-1.06,3.21-0.72,4.91c0.35,1.71,0.9,3.32,2.05,4.74c2.27,2.8,5.26,4.68,8.11,6.76c0.24,0.17,0.49,0.33,0.88,0.59
				c-0.06-0.38-0.05-0.61-0.13-0.8c-0.49-1.23-0.9-2.52-1.54-3.68c-1-1.79-1.05-3.54-0.47-5.46c0.29-0.95,0.28-2.01,0.26-3.02
				c-0.02-1.21-0.35-2.42-0.26-3.62C97.04,89,97.44,87.67,97.73,86.27z M102.6,86.2c0.12,0.27,0.17,0.42,0.24,0.56
				c1.33,2.53,1.48,5.14,0.42,7.79c-0.32,0.81-0.26,1.56,0.13,2.32c0.96,1.87,0.81,3.69-0.25,5.47c-0.48,0.81-1,1.61-1.39,2.46
				c-0.28,0.62-0.36,1.33-0.53,2.01c0.1,0.06,0.2,0.12,0.3,0.18c2.33-1.82,4.72-3.56,6.98-5.47c1.74-1.47,3.05-3.32,3.64-5.57
				c0.68-2.59,0.73-5.14-1.35-7.15C108.56,86.62,105.66,86.32,102.6,86.2z M101.32,158.59c0-16.21,0-32.28,0-48.27
				c-0.42,0.17-0.79,0.44-1.16,0.43c-0.36-0.01-0.7-0.31-1.07-0.49c0,16.09,0,32.16,0,48.34
				C99.85,158.59,100.56,158.59,101.32,158.59z M70.08,139.73c1.16,0,2.04-0.64,2.28-1.67c0.25-1.07-0.21-2.05-1.27-2.53
				c-0.64-0.29-0.94-0.68-0.92-1.4c0.01-0.65-0.44-1.13-1.05-1.04c-0.77,0.11-1.17-0.26-1.64-0.72c-0.89-0.86-0.9-1.31,0.03-2.07
				c0.45-0.36,0.66-0.78,0.29-1.29c-0.35-0.49-0.81-0.48-1.33-0.22c-0.31,0.15-0.67,0.3-1,0.29c-1.06-0.04-1.43,0.44-1.16,1.46
				c0.1,0.37,0.05,0.98-0.19,1.19c-0.27,0.25-0.83,0.18-1.27,0.24c-0.43,0.06-0.98-0.03-1.25,0.21c-0.25,0.22-0.37,0.88-0.22,1.18
				c0.17,0.33,0.7,0.63,1.09,0.65c1.4,0.05,1.79,0.63,1.16,1.89c-0.32,0.64-0.14,1.47,0.48,1.49c1.25,0.04,1.76,0.83,2.29,1.71
				c0.08,0.13,0.25,0.22,0.38,0.32c0.82,0.61,0.91,1.04,0.3,1.87c-0.4,0.54-0.44,1.11,0.08,1.47c0.34,0.23,0.96,0.31,1.34,0.17
				c0.59-0.23,0.67-0.81,0.43-1.42C68.47,140.33,68.87,139.72,70.08,139.73z M99.64,87.79c-0.5-0.03-0.88-0.05-1.27-0.07
				c1,0.14,1.03,0.27,0.9,1.25c-0.14,1.03-0.19,2.1-0.1,3.13c0.16,1.74,0.67,3.48-0.02,5.18c-0.68,1.66-0.56,3.19,0.47,4.66
				c0.2,0.29,0.34,0.64,0.54,1.03c0.26-0.39,0.47-0.74,0.71-1.07c1.02-1.42,1.33-2.86,0.42-4.5c-0.62-1.12-0.46-2.32-0.1-3.56
				c0.34-1.15,0.54-2.39,0.51-3.58c-0.02-1.29-0.57-2.48-1.48-3.57C99.99,87.14,99.81,87.47,99.64,87.79z M91.12,143.61
				c-0.1-0.04-0.2-0.07-0.3-0.11c-1.26,0.56-2.07,1.93-1.85,3.11c0.19,1,1.07,1.85,2.1,1.9c-0.16-0.28-0.25-0.52-0.4-0.71
				c-0.78-0.92-0.75-1.81-0.05-2.78C90.9,144.64,90.96,144.08,91.12,143.61z M80.6,59.1c0.06-0.09,0.11-0.19,0.17-0.28
				c-0.96-2.16-2.12-4.19-3.92-5.84c0.92,2,1.97,3.94,3.06,5.85C80.01,58.99,80.36,59.01,80.6,59.1z M119.72,58.72
				c0.47,0.32,0.77,0.3,1.03-0.19c0.28-0.54,0.65-1.03,0.93-1.58c0.67-1.31,1.32-2.64,1.98-3.97c-0.07-0.03-0.13-0.07-0.2-0.1
				C121.84,54.58,120.69,56.57,119.72,58.72z M70.13,128.35c-0.05,0.89-0.1,1.73-0.15,2.65c1.34,0.35,2.1,1.4,2.55,2.76
				C72.07,131.79,71.27,130.01,70.13,128.35z M49.4,138.09c-0.84-0.86-1.21-0.74-2.3,0.79c0.36,0.02,0.77,0.05,1.11,0.07
				c0-0.27,0-0.61,0-0.95C48.61,138.02,49.01,138.06,49.4,138.09z M88.32,98.06c-0.36,0.31-0.86,0.53-0.93,0.85
				c-0.08,0.37,0.12,0.92,0.39,1.22c0.32,0.35,0.85,0.42,1.15,0.18c-0.45-0.27-1.09-0.44-1.26-0.82
				C87.54,99.21,88.03,98.66,88.32,98.06z M136.24,51.13c0.09-0.05,0.18-0.09,0.27-0.14c-0.17-0.29-0.33-0.59-0.5-0.88
				c-0.25,0.17-0.6,0.29-0.73,0.53c-0.3,0.53-0.06,0.97,0.5,1.36c-0.49-1.02-0.48-1.12,0.15-1.61
				C136.04,50.64,136.14,50.88,136.24,51.13z M87.6,101.58c-0.57,0.24-1.13,0.48-1.63,0.69C86.56,102.66,87.08,102.47,87.6,101.58z"
				/>
			<path class="st1" d="M146.85,126.53c-0.84-2.03-1.6-4.02-2.47-5.95c-2.07-4.55-4.25-9.06-6.28-13.63
				c-1.16-2.6-1.87-5.36-2.21-8.19c-0.13-1.07-0.07-3.13,0.04-4.21c0,0.55,0.07,2.08,0.05,2.63c-0.05,1.75-0.75-5.38,1.44-4.91
				c0.19,0.04-0.6,4.8-0.61,4.66c-0.02-0.29-0.19-1.65,0.03-1.76c1.32-0.68,1.11,3.52,0.67,2.31c-0.14-0.38-0.5-0.74-0.49-1.1
				c0.01-0.51-0.22-3.87-0.04-4.37c0.14-0.39,0.21,0.36,0.39-0.06c-0.15-0.17,0.28-0.17,0.06-0.42c0.61-0.18,1.2-0.97,1.71-1.18
				c0.53-0.22,1.34-0.03,1.97,0.48c-0.17,0.78-0.51,2.16-0.66,2.72c-0.44,1.69-0.46,3.39-0.17,5.11c0.99,5.85,3.81,10.99,6.34,16.23
				c2.36,4.89,4.53,9.84,5.76,15.16c0.9,3.89,1.42,7.81,1.28,11.82c-0.26,7.26-4.31,12.94-11.11,15.45
				c-1.42,0.52-2.9,0.97-4.39,1.23c-2.74,0.47-5.16-0.47-7.32-2.09c-3.32-2.48-5.03-5.98-5.77-9.94
				c-1.16-6.19-0.15-12.02,3.42-17.28c1.71-2.51,3.92-4.48,6.86-5.46c4.06-1.36,7.66-0.46,10.84,2.34c0.14,0.13,0.29,0.26,0.43,0.38
				C146.62,126.53,146.65,126.52,146.85,126.53z M128.98,142.48c0.06,0.63,0.12,1.66,0.29,2.67c0.44,2.66,1.41,5.09,3.33,7.05
				c1.15,1.18,2.46,2.07,4.21,2c3.07-0.12,5.39-1.58,7.07-4.09c2.75-4.12,3.68-8.63,2.85-13.5c-0.46-2.68-1.44-5.14-3.42-7.09
				c-2.22-2.18-5.14-2.6-7.78-0.96c-1.09,0.67-2.1,1.58-2.91,2.57C130.03,134.3,129.09,138.07,128.98,142.48z M139.93,98.27
				c0-1.45,0-2.72,0-3.97C138.59,95.06,138.48,96.99,139.93,98.27z M148.1,138.33c0.45-0.88,1.01-0.28,1.63-0.08
				C148.86,137.32,148.34,137.35,148.1,138.33z M150.14,136.63c-0.05,0.09-0.1,0.18-0.15,0.27c0.36,0.21,0.7,0.51,1.08,0.59
				c0.28,0.06,0.63-0.18,0.95-0.28c-0.02-0.1-0.04-0.2-0.05-0.3C151.22,137.62,150.65,137.29,150.14,136.63z"/>
			<path class="st1" d="M87.01,144.92c0.02-0.25,0.05-0.5,0.07-0.75c0.04-0.43-0.22-0.93,0.43-1.19c0.19-0.07,0.24-0.5,0.35-0.76
				c-0.06-0.05-0.13-0.1-0.19-0.14c-0.08,0.21-0.17,0.42-0.27,0.67c-0.14-0.22-0.19-0.28-0.18-0.29c0.88-1.24,2.18-1.69,3.77-2.07
				c-0.03,0.5,0.1,1.09-0.09,1.23c-0.49,0.35-1.13,0.49-1.84,0.77c-2.09,2.11-2.36,4.59-0.25,7.19c0.45,0.15,1.12,0.27,1.67,0.6
				c0.27,0.16,0.34,0.69,0.49,1.05c-0.29,0.04-0.62,0.18-0.86,0.09c-0.82-0.3-1.64-0.64-2.41-1.06c-0.56-0.31-0.74-0.89-0.6-1.52
				c0.04-0.17,0.22-0.32,0.27-0.39c-0.12-1.16-0.23-2.3-0.34-3.44C87.03,144.9,87.01,144.92,87.01,144.92z"/>
			<path class="st1" d="M91.12,143.61c-0.16,0.48-0.22,1.03-0.5,1.42c-0.7,0.97-0.73,1.86,0.05,2.78c0.16,0.18,0.25,0.42,0.4,0.71
				c-1.03-0.05-1.91-0.9-2.1-1.9c-0.23-1.18,0.59-2.55,1.85-3.11C90.92,143.53,91.02,143.57,91.12,143.61z"/>
			<path class="st1" d="M49.4,138.09c-0.39-0.03-0.79-0.06-1.2-0.09c0,0.34,0,0.68,0,0.95c-0.33-0.02-0.74-0.05-1.11-0.07
				C48.19,137.35,48.56,137.22,49.4,138.09z"/>
			<path class="st1" d="M88.32,98.06c-0.29,0.6-0.78,1.15-0.66,1.43c0.17,0.38,0.81,0.55,1.26,0.82c-0.3,0.23-0.83,0.17-1.15-0.18
				c-0.27-0.3-0.47-0.85-0.39-1.22C87.46,98.6,87.96,98.37,88.32,98.06z"/>
			<path class="st1" d="M136.24,51.13c-0.1-0.24-0.2-0.48-0.3-0.73c-0.63,0.48-0.64,0.59-0.15,1.61c-0.56-0.4-0.8-0.83-0.5-1.36
				c0.13-0.24,0.48-0.36,0.73-0.53c0.17,0.29,0.33,0.59,0.5,0.88C136.42,51.03,136.33,51.08,136.24,51.13z"/>
			<path class="st1" d="M85.44,101.4c-0.01-0.08-0.06-0.18-0.03-0.24c0.13-0.26,0.25-0.53,0.43-0.74c0.05-0.06,0.41-0.01,0.43,0.06
				c0.1,0.3,0.13,0.62,0.19,0.94c-0.08,0.01-0.16,0.03-0.24,0.04c-0.07-0.24-0.14-0.48-0.26-0.92c-0.23,0.38-0.38,0.62-0.52,0.86
				C85.44,101.39,85.44,101.4,85.44,101.4z"/>
			<path class="st1" d="M87.6,101.58c-0.53,0.89-1.05,1.08-1.63,0.69C86.48,102.06,87.04,101.82,87.6,101.58z"/>
			<path class="st1" d="M139.93,98.27c-1.46-1.28-1.34-3.21,0-3.97C139.93,95.55,139.93,96.81,139.93,98.27z"/>
			<path class="st1" d="M148.1,138.33c0.24-0.98,0.76-1.01,1.63-0.08C149.11,138.05,148.55,137.45,148.1,138.33z"/>
			<path class="st1" d="M150.14,136.63c0.51,0.66,1.08,0.99,1.83,0.29c0.02,0.1,0.04,0.2,0.05,0.3c-0.32,0.11-0.66,0.34-0.95,0.28
				c-0.39-0.08-0.72-0.39-1.08-0.59C150.04,136.81,150.09,136.72,150.14,136.63z"/>
			<path class="st1" d="M114.08,61.89c0.88,0.94,0.76,1.59-0.36,2.19c-3.02,1.6-4.77,4.17-5.6,7.41c-0.18,0.68-0.46,1.16-1.06,1.58
				c-1.46,1.04-2.25,2.59-2.78,4.25c-0.33,1.05-0.52,2.16-0.71,3.25c-0.15,0.84-0.57,1.32-1.24,1.25c-0.66-0.07-1.02-0.59-0.92-1.41
				c0.44-3.5,1.44-6.73,4.3-9.1c0.21-0.17,0.3-0.51,0.39-0.79c1.08-3.55,3.06-6.4,6.36-8.21c0.48-0.26,1.1-0.26,1.65-0.39
				L114.08,61.89z"/>
			<path class="st1" d="M94.04,81.07c0.01,0.79-0.33,1.18-0.92,1.27c-0.65,0.1-1.03-0.26-1.22-0.88c-0.25-0.82-0.46-1.66-0.82-2.44
				c-0.68-1.46-1.72-2.52-3.43-2.69c-0.63-0.06-0.81-0.55-1.09-1.02c-0.65-1.12-1.28-2.27-2.08-3.28c-0.74-0.93-1.83-1.3-3.05-1.25
				c-0.3,0.01-0.66-0.11-0.92-0.28c-1-0.66-1.97-1.35-2.94-2.05c-0.73-0.52-0.88-1.14-0.48-1.7c0.37-0.52,1.06-0.54,1.78-0.05
				c0.34,0.24,0.68,0.48,1.02,0.73c0.91,0.68,1.86,1.16,3.04,1.37c2.41,0.43,3.89,2.16,4.95,4.23c0.41,0.8,0.89,1.29,1.77,1.65
				c2.21,0.88,3.32,2.78,4.01,4.94C93.84,80.14,93.95,80.68,94.04,81.07z"/>
			<path class="st1" d="M118.81,70.86c-1.55-0.07-2.68,0.71-3.5,1.89c-0.58,0.83-0.96,1.81-1.5,2.68c-0.23,0.36-0.61,0.81-0.98,0.86
				c-1.81,0.25-2.86,1.38-3.56,2.92c-0.31,0.68-0.5,1.41-0.7,2.13c-0.21,0.75-0.66,1.13-1.28,1c-0.68-0.14-0.98-0.67-0.81-1.47
				c0.35-1.71,0.9-3.37,2.16-4.61c0.77-0.75,1.81-1.23,2.71-1.86c0.34-0.23,0.73-0.49,0.9-0.83c0.9-1.76,1.98-3.35,3.8-4.28
				c0.44-0.22,0.93-0.51,1.39-0.51c1.33-0.01,2.27-0.74,3.26-1.46c0.4-0.29,0.8-0.61,1.24-0.85c0.56-0.3,1.1-0.2,1.46,0.35
				c0.34,0.52,0.25,1.04-0.24,1.4c-1.12,0.82-2.26,1.62-3.41,2.38C119.48,70.78,119.12,70.78,118.81,70.86z"/>
			<path class="st1" d="M122.34,73.52c-0.3,2.46-1.61,4.38-3.59,5.88c-0.72,0.55-1.54,0.98-2.35,1.4c-0.68,0.35-1.33,0.14-1.55-0.44
				c-0.25-0.67-0.02-1.13,0.62-1.51c0.95-0.56,1.9-1.15,2.73-1.87c1.12-0.96,1.81-2.22,1.99-3.73c0.08-0.71,0.47-1.13,1.22-1.05
				C122.12,72.29,122.35,72.79,122.34,73.52z"/>
			<path class="st1" d="M79.14,72.19c0.63,0.02,1.03,0.32,1.11,0.93c0.37,2.8,2.19,4.43,4.53,5.64c0.84,0.44,1.14,0.98,0.83,1.62
				c-0.3,0.62-0.96,0.74-1.8,0.31c-2.65-1.34-4.71-3.22-5.5-6.2c-0.11-0.42-0.18-0.88-0.17-1.31
				C78.15,72.57,78.54,72.25,79.14,72.19z"/>
			<path class="st1" d="M97.19,145.67c0,0.78,0,1.56,0,2.34c-0.05,0-0.09,0-0.14,0c0-0.78,0-1.56,0-2.34
				C97.1,145.67,97.14,145.67,97.19,145.67z"/>
		</g>
	</g>
</g>
</svg>
