<?xml version="1.0" encoding="utf-8"?>
<!-- Generator: Adobe Illustrator 25.0.0, SVG Export Plug-In . SVG Version: 6.00 Build 0)  -->
<svg version="1.1" xmlns="http://www.w3.org/2000/svg" xmlns:xlink="http://www.w3.org/1999/xlink" x="0px" y="0px"
	 viewBox="0 0 200 200" style="enable-background:new 0 0 200 200;" xml:space="preserve">
<style type="text/css">
	.st0{fill:#FFFFFF;}
	.st1{fill:#70108E;}
</style>
<g id="BACKGROUND">
</g>
<g id="OBJECTS">
	<rect x="0.48" y="-0.67" class="st0" width="199.56" height="199.56"/>
	<g>
		<g>
			<path class="st1" d="M116.71,36.35c0.37,0.15,0.73,0.31,1.1,0.46c3.3,1.27,5.2,4.8,4.07,8.15c-2.06,6.1-4.24,12.17-6.52,18.19
				c-0.94,2.49-3.05,3.74-5.81,4.14c0,1.73,0.03,3.48-0.01,5.22c-0.02,0.76-0.2,1.53-0.31,2.29c-0.03,0.2-0.16,0.4-0.14,0.58
				c0.22,1.89,0.46,3.77,0.7,5.77c0.26-0.2,0.6-0.44,0.93-0.7c5.74-4.59,11.47-9.2,17.22-13.77c8.11-6.44,19.66-2.25,21.48,7.82
				c0.6,3.36,0.01,6.67-0.97,9.91c-0.27,0.89-0.55,1.79-0.84,2.74c2.69,1.81,4.98,4,6.8,6.66c5.82,8.51,5.48,19.91-0.84,28.04
				c-0.22,0.29-0.45,0.59-0.73,0.82c-0.75,0.64-1.58,0.67-2.34,0.06c-0.76-0.62-0.93-1.43-0.43-2.3c0.22-0.39,0.53-0.72,0.79-1.09
				c4.87-7.02,5.58-14.44,1.4-21.9c-4.2-7.51-10.95-10.93-19.52-10.28c-9.82,0.75-17.81,9.21-18.23,18.96
				c-0.44,10.28,6.53,19.14,16.49,20.97c4.27,0.78,8.37,0.22,12.3-1.58c0.26-0.12,0.51-0.27,0.77-0.38
				c1.06-0.44,2.04-0.14,2.52,0.77c0.5,0.96,0.19,2.08-0.96,2.53c-2.19,0.86-4.42,1.65-6.7,2.26c-1.32,0.36-2.75,0.39-4.13,0.41
				c-0.82,0.01-1.18,0.31-1.56,1c-3.63,6.57-9.2,10.07-16.72,10.41c-2.51,0.11-4.75-0.63-6.73-2.16c-0.16-0.12-0.33-0.22-0.51-0.32
				c-0.03-0.02-0.08,0,0.09-0.01c0.06,2.47,0.15,4.93,0.16,7.39c0,0.72-0.2,1.44-0.3,2.16c-0.04,0.27-0.12,0.55-0.1,0.82
				c0.12,2.63,0.39,5.27,0.36,7.9c-0.03,2.06-1.73,3.54-3.82,3.55c-6.58,0.03-13.15,0.03-19.73,0c-2.19-0.01-3.77-1.62-3.84-3.79
				c-0.01-0.33,0.01-0.65-0.01-0.98c-0.23-3.26,0.33-6.5,0.05-9.78c-0.21-2.39,0.03-4.83,0.07-6.97c-1.24,0.55-2.72,1.57-4.34,1.86
				c-5.76,1.05-10.8-0.77-15.17-4.51c-2.6-2.22-4.41-5.03-5.48-8.27c-0.81-2.44-1.55-4.9-2.3-7.35c-0.39-1.29,0.05-2.28,1.09-2.59
				c1.09-0.32,1.97,0.2,2.39,1.49c0.82,2.52,1.54,5.07,2.42,7.57c2.17,6.17,7.98,10.27,14.52,10.31c3.66,0.02,6.46-2.54,6.76-6.21
				c0.24-2.94,1.53-4.14,4.47-4.14c6.21,0,12.42,0,18.63,0c2.77,0,4.2,1.37,4.36,4.16c0.21,3.52,2.98,6.21,6.5,6.18
				c6.06-0.05,10.56-2.85,13.81-8.1c-8.93-2.33-15.09-7.62-17.95-16.33c-1.89-5.73-1.46-11.43,1-16.96
				c4.78-10.76,17.84-17.58,31.34-12.11c1.29-3.69,2.37-7.42,1.26-11.31c-1.87-6.56-9.75-8.83-15.26-4.47
				c-5.03,3.98-10.02,8.01-15.02,12.01c-1.59,1.28-3.2,2.54-4.78,3.83c-1.42,1.16-3.03,1.71-4.86,1.7
				c-6.33-0.01-12.66-0.05-18.99,0.02c-2.29,0.02-4.18-0.68-5.95-2.12c-6.44-5.22-12.92-10.39-19.41-15.54
				c-3.37-2.67-7.6-2.93-11.08-0.71c-2.98,1.9-4.57,4.7-4.45,8.22c0.08,2.18,0.45,4.4,1.08,6.48c2.83,9.41,5.8,18.78,8.71,28.16
				c0.08,0.27,0.18,0.54,0.25,0.82c0.27,1.1-0.23,2.06-1.2,2.34c-0.99,0.29-1.93-0.2-2.3-1.3c-0.65-1.97-1.26-3.96-1.87-5.95
				c-2.52-8.14-5.09-16.27-7.53-24.43c-0.99-3.32-1.32-6.74-0.27-10.14c2.71-8.77,13.23-12.24,20.54-6.65
				c6,4.59,11.82,9.41,17.73,14.12c0.34,0.27,0.69,0.52,1.28,0.96c0-1.62-0.12-3,0.02-4.35c0.34-3.22-0.37-6.42,0.04-9.7
				c-3.7-0.46-5.57-2.68-6.66-5.95c-1.62-4.87-3.25-9.76-5.23-14.5c-1.9-4.57-0.35-9.08,4.73-10.52c3.02,0,6.05,0,9.07,0
				c3.17,0.92,4.93,3.11,5.71,6.24c0.17,0.67,0.42,1.32,0.72,1.95c1.06,2.25,2.87,3.45,5.33,3.44c2.41-0.02,4.19-1.2,5.22-3.41
				c0.32-0.7,0.61-1.43,0.8-2.18c0.79-3.1,2.61-5.19,5.75-6.03C110.66,36.35,113.69,36.35,116.71,36.35z M105.83,67.26
				c-0.63,0-1.12,0-1.6,0c-2.41,0-4.82,0.02-7.23-0.02c-1.08-0.02-1.81-0.76-1.85-1.73c-0.05-1.03,0.68-1.81,1.81-1.92
				c0.32-0.03,0.65-0.01,0.98-0.01c3.68,0,7.35,0,11.03,0c1.51,0,2.61-0.65,3.13-2.08c2.09-5.75,4.19-11.49,6.21-17.26
				c0.77-2.2-0.69-4.16-3.02-4.2c-2.08-0.03-4.17-0.02-6.25,0c-1.62,0.02-2.6,0.69-3.17,2.2c-0.43,1.14-0.78,2.32-1.23,3.46
				c-1.47,3.67-5,6.03-8.89,5.99c-3.89-0.04-7.29-2.38-8.72-6.03c-0.43-1.1-0.78-2.23-1.19-3.34c-0.58-1.56-1.58-2.27-3.25-2.28
				c-2-0.02-4-0.02-6,0c-2.63,0.02-4.04,1.98-3.16,4.46c1.98,5.57,3.99,11.13,6.01,16.68c0.63,1.74,1.56,2.39,3.4,2.4
				c1.84,0.01,3.68-0.03,5.51,0.02c1.13,0.03,1.89,0.84,1.88,1.85c-0.01,1.01-0.79,1.75-1.93,1.8c-0.8,0.03-1.6,0.01-2.42,0.01
				c0,2.16,0,4.14,0,6.14c6.7,0,13.32,0,19.96,0C105.83,71.32,105.83,69.38,105.83,67.26z M85.86,148.16c6.74,0,13.35,0,19.92,0
				c0-2.1,0-4.08,0-6.06c-6.69,0-13.27,0-19.92,0C85.86,144.15,85.86,146.13,85.86,148.16z M85.89,77.25c0,2.07,0,4.08,0,6.07
				c6.69,0,13.28,0,19.91,0c0-2.06,0-4.04,0-6.07C99.13,77.25,92.53,77.25,85.89,77.25z M85.88,132.23c0,2.08,0,4.06,0,6.01
				c6.7,0,13.32,0,19.94,0c0-2.05,0-4,0-6.01C99.16,132.23,92.57,132.23,85.88,132.23z M105.81,152.06c-6.68,0-13.3,0-19.94,0
				c0,2.07,0,4.05,0,6.05c6.68,0,13.27,0,19.94,0C105.81,156.07,105.81,154.1,105.81,152.06z"/>
			<path class="st1" d="M147.15,99.34c-0.03,0.2-0.09,0.64-0.18,1.08c-0.27,1.26,0.11,2.25,1.21,2.93c1.22,0.76,2.19,1.7,2.39,3.22
				c0.24,1.8-0.37,3.25-1.9,4.2c-1.47,0.91-1.97,2.02-1.62,3.78c0.67,3.37-1.86,5.71-5.25,5.03c-1.68-0.34-2.41-0.03-3.4,1.41
				c-2.04,2.98-5.38,2.97-7.43-0.04c-0.94-1.38-1.72-1.71-3.3-1.39c-3.5,0.71-5.96-1.58-5.3-5.05c0.32-1.68-0.14-2.76-1.56-3.69
				c-2.81-1.84-2.78-5.31,0.05-7.17c1.37-0.9,1.84-1.96,1.52-3.59c-0.66-3.45,1.69-5.8,5.09-5.13c1.68,0.33,2.76-0.19,3.69-1.6
				c1.8-2.72,5.25-2.78,7.02-0.09c1.03,1.57,2.21,2.03,4,1.65C144.93,94.29,147.24,96.31,147.15,99.34z M134.55,94.61
				c-0.2,0.4-0.29,0.59-0.39,0.77c-1.71,2.81-4.16,3.86-7.38,3.13c-1.11-0.25-0.88,0.52-0.76,1.11c0.59,2.97-0.38,5.28-2.93,6.91
				c-0.77,0.49-0.84,0.9-0.02,1.41c2.56,1.61,3.56,3.93,2.93,6.89c-0.23,1.07,0.11,1.33,1.12,1.1c2.87-0.64,5.11,0.33,6.76,2.74
				c0.73,1.08,0.9,1.08,1.61,0.03c1.63-2.43,3.88-3.36,6.75-2.79c1.17,0.23,1.38,0.06,1.15-1.06c-0.6-2.93,0.34-5.19,2.81-6.85
				c0.98-0.66,0.98-0.88-0.01-1.55c-2.43-1.63-3.39-3.85-2.82-6.73c0.24-1.21,0.08-1.37-1.14-1.15c-2.86,0.52-5.11-0.38-6.74-2.82
				C135.29,95.48,135.04,95.21,134.55,94.61z"/>
			<path class="st1" d="M95.79,101.07c-2.96-0.01-5.48-2.32-5.75-5.27c-0.12-1.27,0.53-2.21,1.62-2.33
				c1.07-0.12,1.82,0.55,2.04,1.79c0.23,1.36,0.98,2.11,2.1,2.13c1.14,0.02,1.87-0.68,2.14-2.06c0.27-1.35,1.02-2.01,2.12-1.85
				c1.07,0.15,1.63,1.02,1.52,2.38C101.34,98.77,98.78,101.08,95.79,101.07z"/>
			<path class="st1" d="M60.65,91.02c-3.04,0.02-5.56-2.27-5.82-5.31c-0.11-1.23,0.48-2.12,1.52-2.28c1.05-0.17,1.85,0.49,2.1,1.71
				c0.31,1.51,0.99,2.21,2.16,2.2c1.17-0.01,1.86-0.72,2.14-2.22c0.22-1.16,0.98-1.8,1.99-1.7c1.05,0.11,1.73,1.01,1.65,2.19
				C66.19,88.61,63.66,91,60.65,91.02z"/>
			<path class="st1" d="M65.45,113.8c-3.05-0.01-5.67-2.51-5.78-5.52c-0.04-1.13,0.62-1.97,1.62-2.08c1.05-0.11,1.79,0.5,2.02,1.66
				c0.3,1.51,0.98,2.23,2.12,2.26c1.17,0.02,1.87-0.7,2.2-2.3c0.24-1.14,1.02-1.75,2.06-1.61c1,0.13,1.63,0.99,1.57,2.13
				C71.11,111.37,68.51,113.81,65.45,113.8z"/>
			<path class="st1" d="M95.85,124.69c-2.98,0.01-5.48-2.22-5.81-5.2c-0.14-1.27,0.47-2.21,1.55-2.38c1.08-0.18,1.87,0.51,2.1,1.84
				c0.23,1.34,0.99,2.06,2.15,2.05c1.12-0.01,1.81-0.68,2.08-1.98c0.28-1.37,1.01-2.05,2.07-1.92c1.13,0.14,1.7,1.03,1.57,2.46
				C101.3,122.42,98.8,124.68,95.85,124.69z"/>
			<path class="st1" d="M75.2,100.9c-2.99-0.02-5.46-2.28-5.75-5.26c-0.12-1.25,0.54-2.2,1.62-2.34c1.02-0.13,1.81,0.57,2.03,1.81
				c0.24,1.39,0.94,2.09,2.11,2.1c1.17,0.01,1.86-0.65,2.15-2.05c0.27-1.33,1.07-2.03,2.12-1.85c1.09,0.18,1.63,1.04,1.51,2.4
				C80.73,98.65,78.21,100.91,75.2,100.9z"/>
			<path class="st1" d="M85.82,113.05c-2.98,0.03-5.61-2.36-5.85-5.32c-0.1-1.24,0.5-2.12,1.53-2.27c1.14-0.17,1.91,0.48,2.13,1.8
				c0.22,1.32,1.02,2.11,2.13,2.11c1.1,0,1.84-0.74,2.11-2.11c0.26-1.34,1.01-1.97,2.15-1.8c1.04,0.15,1.57,0.96,1.49,2.28
				C91.34,110.64,88.79,113.02,85.82,113.05z"/>
			<path class="st1" d="M72.72,128.47c-2.85-0.01-5.36-2.22-5.74-5.03c-0.19-1.41,0.35-2.36,1.45-2.55c1.2-0.21,1.93,0.45,2.21,1.98
				c0.2,1.12,1.02,1.89,2.05,1.92c1.06,0.03,1.92-0.75,2.14-1.94c0.27-1.48,0.96-2.11,2.12-1.97c1.13,0.14,1.67,1.01,1.53,2.47
				C78.22,126.15,75.61,128.48,72.72,128.47z"/>
			<path class="st1" d="M134.7,101.46c3.18,0,5.76,2.55,5.78,5.73c0.02,3.21-2.6,5.86-5.8,5.86c-3.21,0-5.79-2.63-5.76-5.88
				C128.95,103.98,131.5,101.46,134.7,101.46z M136.8,107.2c-0.02-1.16-0.95-2.05-2.12-2.05c-1.23,0.01-2.13,0.96-2.07,2.2
				c0.05,1.15,1.03,2.06,2.16,2.02C135.9,109.32,136.83,108.33,136.8,107.2z"/>
		</g>
	</g>
</g>
</svg>
