<?xml version="1.0" encoding="utf-8"?>
<!-- Generator: Adobe Illustrator 25.0.0, SVG Export Plug-In . SVG Version: 6.00 Build 0)  -->
<svg version="1.1" xmlns="http://www.w3.org/2000/svg" xmlns:xlink="http://www.w3.org/1999/xlink" x="0px" y="0px"
	 viewBox="0 0 200 200" style="enable-background:new 0 0 200 200;" xml:space="preserve">
<style type="text/css">
	.st0{fill:#FFFFFF;}
	.st1{fill:#70108E;}
</style>
<g id="BACKGROUND">
</g>
<g id="OBJECTS">
	<rect x="0.48" y="0.98" class="st0" width="199.56" height="199.56"/>
	<g>
		<g>
			<path class="st1" d="M34.16,81.91c1.29-1.31,2.54-2.66,3.87-3.92c9.2-8.73,18.42-17.44,27.63-26.17
				c4.83-4.58,10.41-7.37,17.21-7.31c3.41,0.03,6.67,0.92,9.75,2.2c4.02,1.67,7.83,1.65,11.83,0c3.05-1.26,6.26-2.15,9.62-2.2
				c6.24-0.08,11.64,2.15,16.16,6.33c7.73,7.15,15.33,14.45,22.99,21.68c2.81,2.66,5.63,5.31,8.43,7.99
				c1.58,1.51,1.64,2.87,0.1,4.44c-3.87,3.97-7.78,7.9-11.7,11.89c1.33,0.94,2.76,1.87,4.09,2.92
				c10.04,7.94,14.59,21.33,10.97,33.52c-3.93,13.23-12.92,21.2-26.56,23.35c-13.98,2.21-27.67-5.51-33.58-18.47
				c-0.51-1.13-0.98-1.36-2.18-1.15c-13.82,2.5-27.84-7.17-30.39-21c-0.25-1.38-0.85-2.08-2.07-2.71
				c-8.8-4.48-16.59-10.4-23.78-17.12c-3.86-3.61-7.51-7.45-11.23-11.2c-0.45-0.45-0.77-1.02-1.16-1.53
				C34.16,82.94,34.16,82.43,34.16,81.91z M152.39,79.06c-0.69-0.73-1.27-1.4-1.91-2.01c-7.9-7.48-15.73-15.03-23.74-22.39
				c-5.25-4.83-11.41-6.25-18.29-3.87c-2.11,0.73-4.26,1.34-6.39,2.01c-2.28,0.72-4.56,0.78-6.85,0.06c-2.13-0.67-4.29-1.25-6.39-2
				c-7.01-2.49-13.27-1.08-18.63,3.88c-8.46,7.82-16.78,15.8-25.15,23.72c-0.15,0.14-0.25,0.31-0.44,0.55c0.29,0,0.46,0.02,0.62,0
				c9.15-1.23,18.3-2.54,27.47-3.66c5.18-0.64,10.38-0.64,15.51,0.6c3.83,0.92,7.22,2.68,10.32,5.18
				c6.49-5.44,14.17-6.67,22.21-6.03c6.55,0.52,13.06,1.5,19.58,2.32C144.32,77.91,148.31,78.5,152.39,79.06z M76.99,80.18
				c0,0.51,0,0.85,0,1.19c0,9.76-0.02,19.52,0.01,29.28c0.03,10.49,7.25,19.2,17.56,21.22c2.71,0.53,5.43,0.57,8.1-0.1
				c-0.21-1.99-0.57-3.86-0.58-5.73c-0.11-13.17,5.67-22.98,17.04-29.52c0.69-0.4,0.96-0.79,0.95-1.58
				c-0.04-4.51-0.02-9.03-0.02-13.54c0-0.37-0.05-0.74-0.09-1.24c-1.32,0-2.56-0.04-3.8,0.01c-5.08,0.19-9.86,1.32-13.95,4.58
				c-0.8,0.64-1.19,1.29-1.18,2.37c0.06,4.47,0.04,8.94,0.02,13.41c-0.01,1.95-1.25,3.09-2.98,2.83c-1.36-0.2-2.16-1.28-2.17-3.04
				c-0.01-4.51-0.03-9.03,0.01-13.54c0.01-0.83-0.29-1.34-0.9-1.84C89.78,80.63,83.61,79.95,76.99,80.18z M161.12,124.83
				c-0.01-14.82-12.1-26.91-26.93-26.92c-14.89-0.01-27.01,12.11-26.99,26.99c0.02,14.82,12.12,26.92,26.93,26.93
				C149,151.85,161.13,139.71,161.12,124.83z M42.05,84.63c9.02,9.25,18.39,17.55,29.72,23.65c0-9.31,0-18.44,0-27.72
				C61.93,81.91,52.16,83.24,42.05,84.63z M154.79,84.97c-0.06-0.13-0.12-0.26-0.18-0.39c-9.75-1.33-19.51-2.67-29.34-4.01
				c0,4.55,0,8.92,0,13.34c0.23-0.03,0.4-0.03,0.56-0.07c6.1-1.58,12.16-1.44,18.18,0.45c0.31,0.1,0.82,0.06,1.03-0.14
				C148.31,91.1,151.55,88.03,154.79,84.97z"/>
			<path class="st1" d="M134.07,105.42c2.23,0.05,4.1,0.77,5.55,2.3c1.87,1.97,4.1,3.12,6.69,3.88c4.32,1.26,6.5,5.03,5.42,9.42
				c-0.65,2.63-0.63,5.1,0.01,7.73c1.07,4.39-1.13,8.14-5.46,9.4c-2.6,0.75-4.75,2.01-6.7,3.88c-3.24,3.11-7.62,3.1-10.87-0.03
				c-1.91-1.84-4.03-3.08-6.58-3.82c-4.46-1.3-6.66-5.11-5.51-9.59c0.65-2.54,0.63-4.94-0.01-7.48c-1.12-4.43,1.07-8.24,5.45-9.52
				c2.59-0.76,4.82-1.93,6.69-3.89C130.19,106.16,132.07,105.46,134.07,105.42z M134.1,139.34c0.69-0.36,1.42-0.53,1.86-0.99
				c2.48-2.58,5.42-4.29,8.9-5.16c1.66-0.41,2.31-1.6,1.85-3.27c-0.95-3.41-0.94-6.76,0.01-10.16c0.46-1.66-0.22-2.83-1.88-3.25
				c-3.44-0.86-6.33-2.54-8.8-5.08c-1.21-1.24-2.55-1.24-3.76,0.01c-2.43,2.51-5.29,4.17-8.67,5.05c-1.83,0.47-2.46,1.58-1.95,3.43
				c0.92,3.33,0.91,6.58,0,9.91c-0.5,1.82,0.17,2.95,1.98,3.42c3.34,0.86,6.2,2.45,8.57,4.96
				C132.66,138.7,133.4,138.94,134.1,139.34z"/>
			<path class="st1" d="M130.56,124.25c-1.41-0.04-2.48-1.17-2.47-2.58c0.01-1.42,1.25-2.62,2.65-2.56
				c1.36,0.06,2.51,1.25,2.49,2.61C133.21,123.16,132.01,124.29,130.56,124.25z"/>
			<path class="st1" d="M138.1,126.29c1.43-0.01,2.63,1.2,2.6,2.61c-0.03,1.36-1.21,2.52-2.57,2.53c-1.38,0.01-2.53-1.11-2.57-2.5
				C135.53,127.47,136.65,126.3,138.1,126.29z"/>
		</g>
	</g>
</g>
</svg>
